/* XPM */
static char *two_xpm[] = {
/* columns rows colors chars-per-pixel */
"15 25 2 1 ",
"  c #000000",
". c None",
/* pixels */
"...       .....",
".           ...",
"             ..",
"   ......    ..",
" .........    .",
"..........    .",
"...........   .",
"...........   .",
"..........    .",
"..........    .",
"..........   ..",
".........    ..",
"........    ...",
"........   ....",
".......    ....",
"......    .....",
".....    ......",
"....    .......",
"...    ........",
"..    .........",
".    ..........",
"    ...........",
"               ",
"               ",
"               "
};
