/* XPM */
static char *cobra_direita_xpm[] = {
/* columns rows colors chars-per-pixel */
"40 40 196 2 ",
"   c #27497A",
".  c #3B547E",
"X  c #41597D",
"o  c #1D4988",
"O  c #1F4896",
"+  c #2E4E86",
"@  c #204488",
"#  c #244989",
"$  c #21469A",
"%  c #264797",
"&  c #34469D",
"*  c #39499F",
"=  c #38479A",
"-  c #225A98",
";  c #355597",
":  c #2D4CA1",
">  c #214EA1",
",  c #384BA0",
"<  c #344BA0",
"1  c #2559A7",
"2  c #2651A2",
"3  c #305FAC",
"4  c #3C5BA9",
"5  c #3352A4",
"6  c #2E63AE",
"7  c #3764AF",
"8  c #2F68B1",
"9  c #3B67B1",
"0  c #316CB3",
"q  c #3F6FB6",
"w  c #405A82",
"e  c #495195",
"r  c #536C8B",
"t  c #49679C",
"y  c #4B6B99",
"u  c #536B94",
"i  c #505CA8",
"p  c #4462AE",
"a  c #4E63AE",
"s  c #4A6AA8",
"d  c #5663A7",
"f  c #5B7CAE",
"g  c #5678AF",
"h  c #4867B0",
"j  c #466AB2",
"k  c #4D6DB5",
"l  c #5067B1",
"z  c #536EB5",
"x  c #596EB4",
"c  c #4E70B7",
"v  c #4576BA",
"b  c #4C74B9",
"n  c #457BBD",
"m  c #4E7CBE",
"M  c #5571B6",
"N  c #5A72B7",
"B  c #5078B0",
"V  c #5575B9",
"C  c #5A76B9",
"Z  c #557BBD",
"A  c #5A7ABC",
"S  c #5A7CB7",
"D  c #7579AB",
"F  c #6772B6",
"G  c #6277BA",
"H  c #627BBD",
"J  c #6A7EBE",
"K  c #777FB4",
"L  c #7176B8",
"P  c #4B7EC0",
"I  c #547EC0",
"U  c #597FC0",
"Y  c #607FC0",
"T  c #6E8096",
"R  c #628D9C",
"E  c #69919E",
"W  c #4F81BC",
"Q  c #5780BF",
"!  c #5888BB",
"~  c #5A81B6",
"^  c #798FAC",
"/  c #6780BF",
"(  c #618FBA",
")  c #7DA1B2",
"_  c #4E82C2",
"`  c #5482C1",
"'  c #5B82C2",
"]  c #6283C2",
"[  c #6A85C2",
"{  c #6489C6",
"}  c #6C89C4",
"|  c #648DC8",
" . c #6A8DC9",
".. c #728DC6",
"X. c #798AC5",
"o. c #7685C2",
"O. c #679CC7",
"+. c #6B97CF",
"@. c #6591C7",
"#. c #7395CC",
"$. c #7A93C9",
"%. c #7498CE",
"&. c #7A9AD0",
"*. c #8394A3",
"=. c #8183BF",
"-. c #8088C2",
";. c #888FC6",
":. c #8E90C6",
">. c #8499CC",
",. c #8695CC",
"<. c #9191C8",
"1. c #939DCF",
"2. c #849BD0",
"3. c #92A1CF",
"4. c #95ACCC",
"5. c #83A4D5",
"6. c #8CA4D4",
"7. c #86A8D8",
"8. c #8DAAD7",
"9. c #92A5D3",
"0. c #9EA3D1",
"q. c #9AA8D0",
"w. c #91ACDA",
"e. c #9BAED9",
"r. c #9AB2DC",
"t. c #9AB2D6",
"y. c #A6B8CF",
"u. c #A2A5D1",
"i. c #A5B8DF",
"p. c #ABB8D9",
"a. c #B2B6D5",
"s. c #B5BBDD",
"d. c #BAB6DA",
"f. c #A7BEE2",
"g. c #BEC8CF",
"h. c #B5C5CF",
"j. c #A5C0DF",
"k. c #B4C3D2",
"l. c #BFC7D7",
"z. c #B8C0DF",
"x. c #B8CEDD",
"c. c #AEC4E4",
"v. c #AACAEA",
"b. c #A6C2E5",
"n. c #B4C2E2",
"m. c #B5CCEA",
"M. c #B9D5EE",
"N. c #BDDAEF",
"B. c #BFDAF0",
"V. c #C6C8DF",
"C. c #CAD3DC",
"Z. c #E3EFCE",
"A. c #E3F0D5",
"S. c #C4C1E0",
"D. c #C8CEE8",
"F. c #CBCCE6",
"G. c #C8DEE5",
"H. c #C5D7ED",
"J. c #CAD5EB",
"K. c #C6D8E8",
"L. c #DADCED",
"P. c #C4DAF1",
"I. c #C9DCF2",
"U. c #E4DFED",
"Y. c #D4E0E7",
"T. c #CAE2F3",
"R. c #CAEBF8",
"E. c #D2E5F4",
"W. c #D6E9F7",
"Q. c #DCEDF9",
"!. c #D5EEFB",
"~. c #DFF0F7",
"^. c #DFF0FC",
"/. c #E1E1E7",
"(. c #E3EAEE",
"). c #E7F2ED",
"_. c #F2F7E4",
"`. c #F4F8E5",
"'. c #F4F7E8",
"]. c #F3F8EC",
"[. c #E4ECF5",
"{. c #ECEEF5",
"}. c #E1E7F4",
"|. c #E4F4F4",
" X c #EFF8F4",
".X c #E4F3FB",
"XX c #EBF5FB",
"oX c #EEF8FC",
"OX c #EAF0F6",
"+X c #F2F9F3",
"@X c #FCFCF5",
"#X c #F4F6FB",
"$X c #F5FAFC",
"%X c #FBFBFC",
"&X c #F2F2F1",
"*X c None",
/* pixels */
"C C C C V C C S C C V / ! Q Z Q Z V Z A A *X*X*X*X*X*X*X*X*X*X*X*X*X*X*X*X*X*X*X",
"C C C C C C C V C C C H H A Q Z Z Z Z S A S A *X*X*X*X*X*X*X*X*X*X*X*X*X*X*X*X*X",
"C C V C C C C C S C / X.X.o.] Z Z Z Z Z Z C A A *X*X*X*X*X*X*X*X*X*X*X*X*X*X*X*X",
"C C C V S C C } 8.v.N.N.B.M.f.e.} Q Z I Z Z A C A A *X*X*X*X*X*X*X*X*X*X*X*X*X*X",
"C C C C C G X.v.R.).A.Z.A.|.^.!.i.$.' Z Q Z Z Z A C A C *X*X*X*X*X*X*X*X*X*X*X*X",
"C C C C S } 8.W..X X`.`.].$XoXXXm.#.' Z Z _ Z _ Z Z Z Z Z Z *X*X*X*X*X*X*X*X*X*X",
"C C C C A $.n.XX$X%X@X@X+Xl.p.p.r.@.' ` _ m Z Z Z ` Z I Z Z Z *X*X*X*X*X*X*X*X*X",
"C C C C / 1.L.#X$X%X%X[.k.u ; ; j ' { ] Z Z ` m Q m Z P I ` S Z *X*X*X*X*X*X*X*X",
"C C V C J 0.U.%X%X%X$XK.^ + % O 5 h M Y A H C A Z V C M l z C M g *X*X*X*X*X*X*X",
"V C C C [ u.U.%X%X%X#Xk.r @ O % : 4 h C Y H G N x N x x a a l C S f *X*X*X*X*X*X",
"V A S A { 1.L.%X%X$X$Xh.r   o % : 4 h C G G N N M N M z p p p M S G / *X*X*X*X*X",
"b Z Z Z ] 2.J.$X$X$X$XC.*.X + # : p z C C C V C C C C M k j j M C C G + *X*X*X*X",
"c Z m V ' #.v..XoX$X$X(.l.D u t j M V I V A I I C V N C V I Z Z x x x U w *X*X*X",
"k V C A U ] 2.H.^.oX$X$X].C.y.t.&. .] U Z Z I I Z V z z V S Z V M x x C ' ( *X*X",
"z z V C A A { w.m.E.oXoX X.XT.m.&.] U U Z I I Z C z z z M Z Z A M V x x A B *X*X",
"b M N C C A A ..8.m.Q..X^.P.b.w.{ U Z U I V Z Z C V z z V C Z A C N N C U ! *X*X",
"z V V V A F G N G H Y Y Y Y ] U V A A A C U N U N V M V V V I U V V N A I I O.*X",
"z z V V A C C H F F G N C A V V I A A N x G x N V V U I I I V A M V V A A Z | +.",
"k z V V V C C C H H C V V V V V A U A M x N N N N U I I I Z V A z M V V A Z ]  .",
"z z z z V V V C C C H H G A A C V V V z x C C x V V U V V V V V V x z N N N Y [ ",
"M M M V b m m Z Z C M V x C C x V V I V V A V V V V x N N V V V V A V A A A / { ",
"k V V b Z P P I I V C N G G C C A U V V V V A V C x V x V N V A V V A A A C [ { ",
"c V Z m _ _ ` U H [ X.;.:.=.L F x C A A M V I A U x M z V V V V Z A V A A A {  .",
"z C V I ` _ ' [ 2.e.s.S.V.d.u.<.L H H C V M V U C N M V V V V V C V x N C A | y ",
"c M V C A ' { 6.m.W.$X$X$X$X[.D.,.[ Y A V N V V V x M M V I I I V V M C C S @.*X",
"b M V M C Y 6.P.~. X X$X$XoX|.XXH.r.,.} Y U A V V V N M c v v P C M N C A ~ *X*X",
"M M M V C o.s.oX+X_.].#X.XG.G.[.{.}.J.9.C A A A V V V z 9 8 8 P C M N C s *X*X*X",
"k C V C G -.F.$X]._.+XoXE.) R E x.J.n.X.C H Y I V x M z 9 6 8 v N N x N *X*X*X*X",
"M V A U [ 0.U.%X%X%X%XJ.,.; @ o - v U A x x G V V N V V k k k z N G N H *X*X*X*X",
"V Z Z ' { q.U.%X%X%X#Xd.d & : : > 1 9 C C G x I V V V V V x V x G S x *X*X*X*X*X",
"V C A ' @.4.U.@X%X%X#Xa.e & , < O > 6 Z G C x V V V V x x C x C G G *X*X*X*X*X*X",
"C C A ' ' 4.L.%X%X@X#XV.D = , < : 6 j I C U V x V V C C C C C V ~ *X*X*X*X*X*X*X",
"C V V C A #.j.XX$X$X@X].C.K i l x A U ` ` ` I I Z Z Z S A V f *X*X*X*X*X*X*X*X*X",
"C V C C C [ w.W.XX].].].(.a.u.d.p.9.[ I ` P Z Z Z m Z V C B t *X*X*X*X*X*X*X*X*X",
"C C C S C J ..b.T.~.].$X#X[.#X{.&Xs.$.` I Z Z A Z Z Z A A *X*X*X*X*X*X*X*X*X*X*X",
"C C C A C C C  .7.v.P.P.P.P.J.J.9.$.] Z Z Z A Z A C Z Z *X*X*X*X*X*X*X*X*X*X*X*X",
"C V S C V C A H { $.8.5.5.5.%. .A Z A A A Z A A A A Z *X*X*X*X*X*X*X*X*X*X*X*X*X",
"C C C C C C C V N C J ' U ' ` I Z Z A Z A C Z Z A *X*X*X*X*X*X*X*X*X*X*X*X*X*X*X",
"C C C V C C C S C N C C ` Z I Z Z Z Z A A C A *X*X*X*X*X*X*X*X*X*X*X*X*X*X*X*X*X",
"V C C C C V C C C C C C Z ` m Z Z Z I Z A Z *X*X*X*X*X*X*X*X*X*X*X*X*X*X*X*X*X*X"
};
