/* XPM */
static char *cobra_baixo_xpm[] = {
/* columns rows colors chars-per-pixel */
"50 50 20 1 ",
"  c #1C2B53",
". c #AC1F52",
"X c #B41F52",
"o c #9D2152",
"O c #ED1A51",
"+ c #EE2B5E",
"@ c #EE2C5E",
"# c #2C4486",
"$ c #2C4586",
"% c #2C4688",
"& c #3553A4",
"* c #3E63C3",
"= c #4168CD",
"- c #4B77EC",
"; c #4E7CF6",
": c #7B99EE",
"> c #809CEE",
", c #BBC3E3",
"< c #EDE3DB",
"1 c None",
/* pixels */
";;;;;;;;;;;;,<<<<<>;;;;;;;;;;;;<<<<<<>;;;;;;;;;;;;",
";;;;;;;;;;;;,<<<<<>;;;;;;;;;;;;<<<<<<>;;;;;;;;;;;;",
";;;;;;;;;;;;,<<<<<>;;;;;;;;;;;;<<<<<<>;;;;;;;;;;;;",
";;;;;;;;;;;;,<<<<<>;;;;;;;;;;;;<<<<<<>;;;;;;;;;;;;",
";;;;;;;;;;;;,<<<<<>;;;;;;;;;;;;<<<<<<>;;;;;;;;;;;;",
";;;;;;;;;;;;,<<<<<>;;;;;;;;;;;;<<<<<<:;;;;;;;;;;;;",
";;;;;;;;;;;;;;;;;;;;;;;;;;;;;;;;;;;;;;;;;;;;;;;;;;",
";;;;;;;;;;;;;;;;;;;;;;;;;;;;;;;;;;;;;;;;;;;;;;;;;;",
";;;;;;;;;;;;;;;;;;;;;;;;;;;;;;;;;;;;;;;;;;;;;;;;;;",
";;;;;;;;;;;;;;;;;;;;;;;;;;;;;;;;;;;;;;;;;;;;;;;;;;",
";;;;;;;;;;;;;;;;;;;;;;;;;;;;;;;;;;;;;;;;;;;;;;;;;;",
";;;;;;;;;;;;;;;;;;;;;;;;;;;;;;;;;;;;;;;;;;;;;;;;;;",
"######;;;;;;;;;;;;;;;;;;;;;;;;;;;;;;;;;;;;;&######",
"      ;;;;;;;;;;;;;;;;;;;;;;;;;;;;;;;;;;;;;#      ",
"      ;;;;;;;;;;;;;;;;;;;;;;;;;;;;;;;;;;;;;#      ",
"      ;;;;;;;;;;;;;;;;;;;;;;;;;;;;;;;;;;;;;#      ",
"      ;;;;;;;;;;;;;;;;;;;;;;;;;;;;;;;;;;;;;#      ",
"      ;;;;;;;;;;;;;;;;;;;;;;;;;;;;;;;;;;;;;#      ",
"      ******-;;;;;;;;;;;;;;;;;;;;;;;;=*****%      ",
"111111      *;;;;;;;;;;;;;;;;;;;;;;;;#     1111111",
"111111      *;;;;;;;;;;;;;;;;;;;;;;;;#     1111111",
"111111      *;;;;;;;;;;;;;;;;;;;;;;;;#     1111111",
"111111      *;;;;;;;;;;;;;;;;;;;;;;;;#     1111111",
"111111      *;;;;;;;;;;;;;;;;;;;;;;;;#     1111111",
"111111      *;;;;;;;;;;;;;;;;;;;;;;;;$     1111111",
"111111111111      *;;;;;;;;;;;;      1111111111111",
"111111111111      *;;;;;;;;;;;;      1111111111111",
"111111111111      *;;;;;;;;;;;;      1111111111111",
"111111111111      *;;;;;;;;;;;;      1111111111111",
"111111111111      *;;;;;;;;;;;;      1111111111111",
"111111111111      *;;;;;;;;;;;;      1111111111111",
"111111111111111111             1111111111111111111",
"111111111111111111             1111111111111111111",
"111111111111111111             1111111111111111111",
"111111111111111111             1111111111111111111",
"111111111111111111             1111111111111111111",
"111111111111111111             1111111111111111111",
"111111111111111111X.....o1111111111111111111111111",
"111111111111111111OOOOOOO1111111111111111111111111",
"111111111111111111OOOOOOO1111111111111111111111111",
"111111111111111111OOOOOOO1111111111111111111111111",
"111111111111111111OOOOOOO1111111111111111111111111",
"111111111111111111OOOOOOO1111111111111111111111111",
"1111111111111111111OOOOOO1111111111111111111111111",
"1111111111111111111111111OOOOOO1111111111111111111",
"1111111111111111111111111OOOOOO1111111111111111111",
"1111111111111111111111111OOOOOO1111111111111111111",
"1111111111111111111111111OOOOOO1111111111111111111",
"1111111111111111111111111OOOOOO1111111111111111111",
"1111111111111111111111111@@@@@+1111111111111111111"
};
