/* XPM */
static char *cobra_esquerda_xpm[] = {
/* columns rows colors chars-per-pixel */
"50 50 33 1 ",
"  c #1C2B53",
". c #1D2C54",
"X c #1E2D54",
"o c #1E2D55",
"O c #1F2D55",
"+ c #1F2E55",
"@ c #202F56",
"# c #213057",
"$ c #253A72",
"% c #5D2652",
"& c #ED1A51",
"* c #ED1B52",
"= c #2D4585",
"- c #2C4486",
"; c #2D4688",
": c #3859AF",
"> c #3A5AAE",
", c #3A5AB0",
"< c #3C5EBA",
"1 c #3E63C3",
"2 c #4366C4",
"3 c #496BC5",
"4 c #4268CC",
"5 c #456DD7",
"6 c #4B77EC",
"7 c #4E7CF6",
"8 c #7696EF",
"9 c #6C8FF1",
"0 c #809CEE",
"q c #A7B6E7",
"w c #EDE3DB",
"e c #CFD0E0",
"r c None",
/* pixels */
"rrrrrrrrrrrrrrrrrrrrrrrrrrrrrrr      2777777777777",
"rrrrrrrrrrrrrrrrrrrrrrrrrrrrrrr      1777777777777",
"rrrrrrrrrrrrrrrrrrrrrrrrrrrrrrr      1777777777777",
"rrrrrrrrrrrrrrrrrrrrrrrrrrrrrrr      1777777777777",
"rrrrrrrrrrrrrrrrrrrrrrrrrrrrrrr      1777777777777",
"rrrrrrrrrrrrrrrrrrrrrrrrrrrrrrrO     1777777777777",
"rrrrrrrrrrrrrrrrrrrrrrrrr     .4666666777777777777",
"rrrrrrrrrrrrrrrrrrrrrrrrr      1777777777777777777",
"rrrrrrrrrrrrrrrrrrrrrrrrr      1777777777777777777",
"rrrrrrrrrrrrrrrrrrrrrrrrr      1777777777777777777",
"rrrrrrrrrrrrrrrrrrrrrrrrr      1777777777777777777",
"rrrrrrrrrrrrrrrrrrrrrrrrr      1777777777777777777",
"rrrrrrrrrrrrrrrrrrr     @,:::::5777777777779qqqqqq",
"rrrrrrrrrrrrrrrrrrr      7777777777777777770wwwwww",
"rrrrrrrrrrrrrrrrrrr      7777777777777777770wwwwww",
"rrrrrrrrrrrrrrrrrrr      7777777777777777770wwwwww",
"rrrrrrrrrrrrrrrrrrr      7777777777777777770wwwwww",
"rrrrrrrrrrrrrrrrrrr      7777777777777777770wwwwww",
"rrrrrrrrrrrrrrrrrrr$$$$$$7777777777777777778eeeeee",
"rrrrrr&&&&&&%     ;7777777777777777777777777777777",
"rrrrrr&&&&&&%     -7777777777777777777777777777777",
"rrrrrr&&&&&&%     -7777777777777777777777777777777",
"rrrrrr&&&&&&%     -7777777777777777777777777777777",
"rrrrrr&&&&&&%     -7777777777777777777777777777777",
"rrrrrrr&&&&&%     -7777777777777777777777777777777",
"&*&&&&rrrrrr      -7777777777777777777777777777777",
"&&&&&&rrrrrr      -7777777777777777777777777777777",
"&&&&&&rrrrrr      -7777777777777777777777777777777",
"&&&&&&rrrrrr      -7777777777777777777777777777777",
"&&&&&&rrrrrr      -7777777777777777777777777777777",
"&&&&&&rrrrrr      =7777777777777777777777777777777",
"rrrrrrrrrrrrrrrrrrr$$$$$$7777777777777777770eeeeee",
"rrrrrrrrrrrrrrrrrrr      7777777777777777770wwwwww",
"rrrrrrrrrrrrrrrrrrr      7777777777777777770wwwwww",
"rrrrrrrrrrrrrrrrrrr      7777777777777777770wwwwww",
"rrrrrrrrrrrrrrrrrrr      7777777777777777770wwwwww",
"rrrrrrrrrrrrrrrrrrr      7777777777777777770wwwwww",
"rrrrrrrrrrrrrrrrrrrooo+@#>:::::6777777777779qqqqqq",
"rrrrrrrrrrrrrrrrrrrrrrrrrX     1777777777777777777",
"rrrrrrrrrrrrrrrrrrrrrrrrr.     1777777777777777777",
"rrrrrrrrrrrrrrrrrrrrrrrrr      1777777777777777777",
"rrrrrrrrrrrrrrrrrrrrrrrrr      1777777777777777777",
"rrrrrrrrrrrrrrrrrrrrrrrrr      1777777777777777777",
"rrrrrrrrrrrrrrrrrrrrrrrrr    ..<666667777777777777",
"rrrrrrrrrrrrrrrrrrrrrrrrrrrrrrro     1777777777777",
"rrrrrrrrrrrrrrrrrrrrrrrrrrrrrrr      1777777777777",
"rrrrrrrrrrrrrrrrrrrrrrrrrrrrrrr      1777777777777",
"rrrrrrrrrrrrrrrrrrrrrrrrrrrrrrr      1777777777777",
"rrrrrrrrrrrrrrrrrrrrrrrrrrrrrrr      1777777777777",
"rrrrrrrrrrrrrrrrrrrrrrrrrrrrrrr     +3777777777777"
};
