/* XPM */
static char *cobra_direita_xpm[] = {
/* columns rows colors chars-per-pixel */
"50 50 212 2 ",
"   c None",
".  c #16457D",
"X  c #23477C",
"o  c #314E70",
"O  c #435D7C",
"+  c #50647E",
"@  c #1E4B8C",
"#  c #1A4983",
"$  c #1D4799",
"%  c #1B568E",
"&  c #274A8F",
"*  c #284888",
"=  c #385381",
"-  c #23449B",
";  c #21499C",
":  c #254795",
">  c #34449B",
",  c #35489E",
"<  c #3B479E",
"1  c #3C5996",
"2  c #3B438D",
"3  c #1E50A1",
"4  c #2B4CA1",
"5  c #274CA0",
"6  c #324CA1",
"7  c #3C4DA1",
"8  c #2154A4",
"9  c #2B5CAA",
"0  c #3253A4",
"q  c #3C5CA9",
"w  c #385DA8",
"e  c #2E62AE",
"r  c #3E62AE",
"t  c #3160AD",
"y  c #2F68B3",
"u  c #326BB3",
"i  c #3B6AB3",
"p  c #3372B5",
"a  c #494F8E",
"s  c #445F90",
"d  c #565E9E",
"f  c #4C6388",
"g  c #4C7D8C",
"h  c #507E8F",
"j  c #6D7F8F",
"k  c #667D9C",
"l  c #4759A7",
"z  c #4362AD",
"x  c #4B62AD",
"c  c #4060A7",
"v  c #5164AF",
"b  c #4466B0",
"n  c #4C6DB5",
"m  c #456AB3",
"M  c #5167B0",
"N  c #546DB4",
"B  c #596EB4",
"V  c #4E70B7",
"C  c #4F75BA",
"Z  c #4C7ABD",
"A  c #4777BB",
"S  c #5571B7",
"D  c #5A71B7",
"F  c #5575B9",
"G  c #5A75B9",
"H  c #557ABD",
"J  c #5B7ABD",
"K  c #5F7BB5",
"L  c #626FAF",
"P  c #666DB3",
"I  c #6272B7",
"U  c #6276B9",
"Y  c #637BBC",
"T  c #6C7DBD",
"R  c #6977B9",
"E  c #717EBD",
"W  c #7573B5",
"Q  c #4C7EC0",
"!  c #557FC0",
"~  c #5B7FC0",
"^  c #827AB9",
"/  c #568191",
"(  c #6F8394",
")  c #5B8BA7",
"_  c #4D8CBD",
"`  c #5B83B3",
"'  c #5D84BB",
"]  c #5684BB",
"[  c #5C94B0",
"{  c #668DA7",
"}  c #769AAF",
"|  c #638AB7",
" . c #6A81BE",
".. c #6784B9",
"X. c #7481BF",
"o. c #6592B9",
"O. c #7491BD",
"+. c #4C84C4",
"@. c #4A89C8",
"#. c #498AC7",
"$. c #5482C2",
"%. c #5C83C2",
"&. c #5D88C6",
"*. c #578AC8",
"=. c #6483C2",
"-. c #6A84C2",
";. c #668AC5",
":. c #6B8AC6",
">. c #6A8EC9",
",. c #658CC9",
"<. c #7284C1",
"1. c #748BC6",
"2. c #7E8DC7",
"3. c #728FC9",
"4. c #7B8AC5",
"5. c #6C93CB",
"6. c #6F9DC5",
"7. c #7391C4",
"8. c #7393CC",
"9. c #7E93CA",
"0. c #7798CF",
"q. c #7B98CF",
"w. c #7D99C4",
"e. c #6B99D1",
"r. c #769CD2",
"t. c #7C9ED2",
"y. c #7AA3D6",
"u. c #77ACCC",
"i. c #8596AF",
"p. c #8497BA",
"a. c #8E92BB",
"s. c #96A8B9",
"d. c #87A6BB",
"f. c #858EC7",
"g. c #8C9ACD",
"h. c #8495CA",
"j. c #9897CA",
"k. c #849DD1",
"l. c #889ED1",
"z. c #A89FCE",
"x. c #97BEC6",
"c. c #98BFC7",
"v. c #86A1D3",
"b. c #89A5D5",
"n. c #8CABDA",
"m. c #83A6D8",
"M. c #95AEDA",
"N. c #95A6D4",
"B. c #94B2DD",
"V. c #9CB3DD",
"C. c #A4A9CA",
"Z. c #AAB9C6",
"A. c #BBBBC7",
"S. c #A3ABD4",
"D. c #ACABD5",
"F. c #A5B2DB",
"G. c #BAB5D9",
"H. c #B9B4D0",
"J. c #88B3E0",
"K. c #9BBBE3",
"L. c #A4BDE3",
"P. c #AABEE2",
"I. c #C0B9DC",
"U. c #95C7D4",
"Y. c #AFC0C9",
"T. c #BDCDDE",
"R. c #B5D4DF",
"E. c #9CC0E5",
"W. c #A6C0E4",
"Q. c #ADC4E6",
"!. c #B6C8E7",
"~. c #B3D2EE",
"^. c #BBD3EE",
"/. c #B4D5F1",
"(. c #BED9F2",
"). c #BDD7F0",
"_. c #C2C9D7",
"`. c #C3D2DB",
"'. c #DFEECF",
"]. c #E0EECB",
"[. c #EDF5DE",
"{. c #E1F0D8",
"}. c #F0F6D9",
"|. c #C7CDE4",
" X c #CBC8E4",
".X c #CAD8ED",
"XX c #D5DAE8",
"oX c #C4DDF4",
"OX c #CADFF4",
"+X c #CDEAF9",
"@X c #C9E7F7",
"#X c #D4EBFA",
"$X c #DCEEFA",
"%X c #DAE5F2",
"&X c #DDF1FB",
"*X c #DBF0F3",
"=X c #D7E3E5",
"-X c #E8EEED",
";X c #F0F7E5",
":X c #F4F9ED",
">X c #FCFAED",
",X c #E4F4FB",
"<X c #ECF6FB",
"1X c #EEF9FC",
"2X c #EAF6F4",
"3X c #F2F9F5",
"4X c #FBFCF3",
"5X c #F3F5FB",
"6X c #F4FAFD",
"7X c #FDFDFE",
"8X c #FBFBFD",
"9X c #F8F6F7",
/* pixels */
"                        } 7.7.1.O.O.                                                                ",
"                  ;.-.-.T R R I I B Y ..                                                            ",
"                  J Y Y X.X.X. .E T T -.                                                            ",
"              U B B D Y 1.9.2.2.2.<.X.T K                                                           ",
"              I -.n.L.~.@X+X+X+X+XoXQ.F.9.K                                                         ",
"          D I U h.~.@X*X{.].].'.2X,X&X#XP.9.3...                                                    ",
"          .. .-.M.+X&X,X;X}.}.[.3X<X,X&X).l.8.%.                                                    ",
"        o.' :.9.W.6X6X6X4X>X>X>X7X1X6X6X#XK.r.*.#.                                                  ",
"      =.J J 1.g.,X6X6X8X7X7X7X8XZ.p.9.4.k.l.t.r.*.+.+.                                              ",
"C G G G U Y g.D.8X9X8X7X8X8X%XT.f * & : 0 ~ ~ >.%.H H ! G G G G Y J G G ! ' |                       ",
"N D S D U Y g.G.8X8X8X8X6X6X`.d.o & - - 4 b V G Y J J Y G D D D I D S N B D J                       ",
"N S S S G Y g.I.9X7X7X7X5X6XZ.( X : $ 5 4 q z M Y Y -. .I D D B I B B M x M N ~ {                   ",
"n F F G J Y g.G.9X7X8X6X6X6Xs.O * @ ; ; 6 0 l b G R R D B B B B D B N l l x x D H ` {               ",
"V ! ! H ~ %.h.S.8X8X8X6X8X6XY.( o X * * $ w b n J G J D G G S F G S N b r q r F G J J `             ",
"V H H H H ~ 8.N.,X6X6X6X8X6X`.s.+ = * & 5 r b S J G G H H F F G F S S n n n n F G G D G             ",
"n H Z H H ! 5.l.#X<X5X6X6X1X=X_.j f s 1 w n S J J J H J H H H H G F H H ! ! H G U D D B &.          ",
"V F H H ~ =.:.5.K.&X<X5X6X8X6X8X_.i.p.w.8.8.:.&.H H H H +.! ! S N N N H J H H H N B N B G =.o.      ",
"V V B H G G J ! r.Q.oX$X6X6X6X6X6X6X#XoXn.:.=.%.! ! ! H ! ! H S S N N S F H H H B B S B D G %.      ",
"N S S D F G J J :.n.L.^.&X<X<X<X,X@X~.W.r.%.~ ! ~ H H H ! H H S N N B S H H H J S D D B D H $.      ",
"V S S S G J G J G <.l.V.OX,X,X$X$XP.V.b.,.H J H J H H H ! H F S N S B S S H H ! H S D D G J %.[     ",
"N S S G G J Y -.G B D U -.<.T Y ~ Y ~ J H S J J J G J G H F F F S F F F H H H ! F H J S ~ J ! ] u.  ",
"n S H S F G S D U R Y R G S G G Y H H H H ~ ~ J G D D I D D D H H H ! ! H H H J V S S S H J ! Q e.e.",
"N S V S F H G G D U Y Y Y D S H J H H S J ~ G G D D D D D S S G H ! ! ! H H H G S S D S G J H H 5.5.",
"N V S S S F G G G Y G Y G D S F V J H H J J H S B B D I S D S H ! ! +.! H H H G B V S S G G G H :.:.",
"N N V S S S C C S F F H J Y Y Y ~ G F G H S H S S S S Y B D D F G ~ H G F G S G B B S B G G G S =.:.",
"V S C F S F C Q Z ! H H S S S D D G D F S H H G S H F J H D G D D D S S G S F F F H J F J G J H :.=.",
"V S C S C F Q Q ! ! H H S D S D G G G G H G H S F F F H G G G F D S D S F F G D S H G G J G J S :.-.",
"V S S C F F Q $.+.! ! ! ~ Y T R R R U G G ~ ~ ! H C F C ! H J D S S B B S D H H ! ! %.! ! ! ' H :.,.",
"M H S ! +._ +.Q ,.S Y <.4.j.j.D.j.^ W P I D I Y F F S F J ! J G S V S H F V F S H G S B D G G Y >.>.",
"N S F H ! $.Q Q =.:.l.V.P. X X X XG.D.j.T R R ~ J S F F J G G D S S S S H H H H S S S S G G G =.e.  ",
"V S F G ~ ! $.%.&.l.L.OX9X8X8X6X5X6XXXG.h.T -.Y J S S S H S F S S D S H H H ! H H F S D G G H &.6.  ",
"V S S S S G U =.r.(.#X1X6X6X6X6X6X1X1X,X!.>.%.S ~ =.=.J G H S D G D S F C Q +.Q S S S G J G H )     ",
"V S S S D D  .f..X1X3X:X[.:X5X6X2X,X,X2X*XE.m.>.Y J Y S J H F S G S N m u p p Q F F B B G J `       ",
"V F F S F D X.f.%X6X3X;X;X3X1X<XR.U.s.U.U.J.y.8.~ G G J J H F S G S N r y u u Z F F B B G l         ",
"n F F F D D E j.5X8X:X[.:X6X<X,Xh./ h h ) u.e.r.Y D G -.%.H F S S N n r e e y F G D D N G           ",
"V F ! G J J g.G.9X7X7X7X8X6X.XF.1 @ # . % A $.,.J B B I H H F F F F S m m m n S G U D B =.          ",
"V H H ~ ~ &.l.A.9X9X8X8X8X1XD.I > - > 4 8 8 t i G U U B F F H F F F F F D S D B I G D =.            ",
"n F H ~ %.&.g.I.9X8X8X8X8X6XC.d > > 6 6 5 8 9 i J G G N F F F F S F S D D D D D U J R               ",
"n H ~ ~ &.&.b.Y.8X8X7X7X8X6XC.a > 7 7 6 - $ 8 i J Y Y B D S G F S S S G D D B D G Y '               ",
"M G G ~ %.%.t.Z.<X8X9X9X8X5X_.a.2 < < 6 6 9 i A %.J J F F D D G G G G D G G G F |                   ",
"B F F J J J :.h.oX5X6X6X4X4X-XXXa.a l l M ~ ~ ~ *.$.$.$.J J H J H J J J J ` )                       ",
"    r J K J  .3.!.,X<X6X;X4X:X-XD.E E E T Y Y ~ $.#.#.                                              ",
"      Y J G Y -.V.#X,X1X[.>X4X6X|.F.S.N.h.<.Y ~ +._ #.                                              ",
"        =.Y J U T K./.@X2X6X6X6X8X,XOX^.g.Y Y ~ &.                                                  ",
"          ' J D G =.r.n.~.^.~.~.@XL.M.v.Y D G Y                                                     ",
"            c J Y ~ :.3.B.B.n.b.B.y.0.>.J G l                                                       ",
"              J :.G S D -.:...! &.&.%.H G Y                                                         ",
"                ,.G B N B G J J $.$.$.%.&.                                                          ",
"                      U B D H  .Z $.                                                                ",
"                      U B F G %.$.$.                                                                "
};
