/* XPM */
static char *cobra_esquerda_xpm[] = {
/* columns rows colors chars-per-pixel */
"50 50 207 2 ",
"   c #16457D",
".  c #23477C",
"X  c #314E70",
"o  c #435D7C",
"O  c #50647E",
"+  c #1E4B8C",
"@  c #1A4983",
"#  c #1F459A",
"$  c #1B4A98",
"%  c #1B568E",
"&  c #274A8F",
"*  c #2E4F8A",
"=  c #224186",
"-  c #3B438D",
";  c #385381",
":  c #23449B",
">  c #21499C",
",  c #254795",
"<  c #34449B",
"1  c #35489E",
"2  c #3B479E",
"3  c #3C5996",
"4  c #1E50A1",
"5  c #2B4CA1",
"6  c #274CA0",
"7  c #324CA1",
"8  c #3C4DA1",
"9  c #2154A4",
"0  c #2B5CAA",
"q  c #3253A4",
"w  c #3B5AA9",
"e  c #385DA8",
"r  c #2E62AE",
"t  c #3E62AE",
"y  c #3160AD",
"u  c #2F68B3",
"i  c #326BB3",
"p  c #3B6AB3",
"a  c #3372B5",
"s  c #494F8E",
"d  c #425F88",
"f  c #445F90",
"g  c #565E9E",
"h  c #4C6388",
"j  c #4D7D8C",
"k  c #507E8F",
"l  c #6D7F8F",
"z  c #667D9C",
"x  c #4958A6",
"c  c #4362AD",
"v  c #4B62AD",
"b  c #4C6AA0",
"n  c #526AAD",
"m  c #5472AC",
"M  c #4466B0",
"N  c #4C6DB5",
"B  c #456AB3",
"V  c #5167B0",
"C  c #546DB5",
"Z  c #596EB4",
"A  c #4E70B7",
"S  c #4D7ABD",
"D  c #4B77BB",
"F  c #5571B7",
"G  c #5A71B7",
"H  c #5C7EB7",
"J  c #5575B9",
"K  c #5A76B9",
"L  c #557CBD",
"P  c #5A7ABC",
"I  c #626FAF",
"U  c #666DB3",
"Y  c #6275B9",
"T  c #637BBC",
"R  c #6D7EBE",
"E  c #6173B7",
"W  c #717EBD",
"Q  c #7573B5",
"!  c #4C7EC0",
"~  c #547EC0",
"^  c #5B7FC0",
"/  c #827AB9",
"(  c #568191",
")  c #6F8394",
"_  c #5F8BA7",
"`  c #4F87BB",
"'  c #5983B9",
"]  c #5C94B0",
"[  c #6A80BF",
"{  c #648AB7",
"}  c #7481BF",
"|  c #6594B7",
" . c #4D84C4",
".. c #5481C2",
"X. c #5C83C2",
"o. c #5E88C6",
"O. c #5B8CC9",
"+. c #6383C2",
"@. c #6A84C2",
"#. c #658AC6",
"$. c #6B8AC6",
"%. c #6A8EC9",
"&. c #678BC8",
"*. c #7384C1",
"=. c #728BC6",
"-. c #7E8DC7",
";. c #728FC9",
":. c #7C8FC8",
">. c #7C86C2",
",. c #6D93CC",
"<. c #6F9DC5",
"1. c #7493CC",
"2. c #7C93CA",
"3. c #7798CF",
"4. c #7C98CF",
"5. c #7A96C4",
"6. c #6B99D1",
"7. c #779AD1",
"8. c #7D9CD1",
"9. c #7FA3D5",
"0. c #77ACCC",
"q. c #8596AF",
"w. c #8497BA",
"e. c #8E92BB",
"r. c #96A8B9",
"t. c #87A6BB",
"y. c #858EC7",
"u. c #8193C6",
"i. c #8D9BCD",
"p. c #8495CB",
"a. c #9897CA",
"s. c #849DD1",
"d. c #889ED1",
"f. c #A89FCE",
"g. c #98BFC7",
"h. c #85A0D2",
"j. c #89A5D5",
"k. c #8CABDA",
"l. c #94AEDA",
"z. c #98A8D3",
"x. c #9CB2DC",
"c. c #92B3DE",
"v. c #A4A9CA",
"b. c #AAB9C6",
"n. c #BBBBC7",
"m. c #A3AAD2",
"M. c #ACABD5",
"N. c #A4B3DB",
"B. c #BAB5D9",
"V. c #B9B4D0",
"C. c #9BBBE3",
"Z. c #A8BEE3",
"A. c #C0B9DC",
"S. c #AFC0C9",
"D. c #A6C1D1",
"F. c #BDCDDE",
"G. c #B5D4DF",
"H. c #A6C0E4",
"J. c #ADC4E6",
"K. c #B3C3E3",
"L. c #BBC1E1",
"P. c #B8CDE9",
"I. c #B3D2EE",
"U. c #BBD3EE",
"Y. c #B4D5F1",
"T. c #BED9F2",
"R. c #BDD7F0",
"E. c #C2C9D7",
"W. c #C3D2DB",
"Q. c #DFEECF",
"!. c #E0EECB",
"~. c #EDF5DE",
"^. c #E1F0D8",
"/. c #F0F6D9",
"(. c #C7CDE4",
"). c #CBC8E4",
"_. c #C8D4EB",
"`. c #CAD8EB",
"'. c #D5DAE8",
"]. c #C4DDF4",
"[. c #CADFF4",
"{. c #CDEAF9",
"}. c #C8E8F7",
"|. c #DBE6F2",
" X c #D4EBFA",
".X c #DCEEFA",
"XX c #DEF1FC",
"oX c #DBF0F3",
"OX c #D7E3E5",
"+X c #E8EEED",
"@X c #F0F7E5",
"#X c #F4F9ED",
"$X c #FCFAED",
"%X c #E9EBF4",
"&X c #E6EAF5",
"*X c #E4F4FB",
"=X c #ECF6FB",
"-X c #EEF9FC",
";X c #EAF6F4",
":X c #F2F9F5",
">X c #FBFCF3",
",X c #F3F5FA",
"<X c #FAF6FA",
"1X c #F4FAFD",
"2X c #FBFBFD",
"3X c #F2F7F2",
"4X c None",
/* pixels */
"4X4X4X4X4X4X4X4X4X4X4X4X4X4X4X4X4X4X4X4X4X4X4XP L P L ..L L L ` L  .L P K G P G J P G K L K K J G K ",
"4X4X4X4X4X4X4X4X4X4X4X4X4X4X4X4X4X4X4X4X4X4XP P P L L L L L ~ ~ ..S P P G F G K P G K K K K K H K K ",
"4X4X4X4X4X4X4X4X4X4X4X4X4X4X4X4X4X4X4X4XL P L H P P P L L L L ~ ..~ P K K G K K K K K K K K K K K K ",
"4X4X4X4X4X4X4X4X4X4X4X4X4X4X4X4X4X4XL P P L P P P J L P L ~ ~ ~ X.o.^ +.&.@.G K K L K K K K K K K K ",
"4X4X4X4X4X4X4X4X4X4X4X4X4X4X4X4XL P P P P L L P J P P L L K ;.3.9.c.j.k.l.l.;.&.' T K K K K P K K K ",
"4X4X4X4X4X4X4X4X4X4X4X4X4X4X4XL P L L P P L P L L L L +.u.p.P._.Z.}.I.I.R.U.k.7.#.K K K K P K K K K ",
"4X4X4X4X4X4X4X4X4X4X4X4X4X4XJ P P P P L P P L L ' ~ &.z.B.<X,X<X1X1X1X1X1X;X}.I.C.@.K K K K K K K K ",
"4X4X4X4X4X4X4X4X4X4X4X4X4XP P P J L L L L L L L ! ~ P x.2X<X%X%X%X(.2X>X#X~.:X*X Xx.@.[ K K K K J L ",
"4X4X4X4X4X4X4X4X4X4X4Xh b J J L L L D L L L L  . ...^ 4X@.i.m.W W M.&X#X$X@X1X=X=XP.1.@.G K P F H K ",
"4X4X4X4X4X4X4X4X4X4X4XH H P H L L L L L L ~ ~ ......X.^ K V x x s e.'.+X>X#X1X1X,X{.| $.K P K K J G ",
"4X4X4X4X4X4X4X4X4X{ J K K K K P G K K K J F F P ~ X.D i e 1 8 1 < - e.F.,X2X2X2X2X=Xb.8.X.X.P K K K ",
"4X4X4X4X4X4X4XP T Y K G Z K K Z F J F K J F Z T T P i 0 $ : 7 8 x < s v.<X2X2X2X2X,Xn.j.O.o.P P K K ",
"4X4X4X4X4X4X4XT K Y G G G G K F F J J J F F Z Y Y P p 0 4 6 5 7 1 < g m.<X2X2X2X2X2XV.d.o.o.^ J K J ",
"4X4X4X4X4X4X+.E Y K Z Z G F F J J J J K L L Z K K K p r 4 4 5 6 : 1 I M.,X2X<X<X2X2XV.i.+.^ ^ ~ J A ",
"4X4X4X4X4X+.Z G G Y F N B B N F J J J J J P E Z Z T #.' S %   @ + 3 N.`.1X2X2X2X2X2XB.i.P ^ ~ J J A ",
"4X4X4X4X4XK C Z G K D i r r t N C F J J L ~ R K K T x.P._.N.k k ( t.*X=X1X#X@X#X2X%Xa.*.K K F J J A ",
"4X4X4X4Xx K Z Z K P ! i u u M N F J F J P ^ P K K z._.&X%X%X%X'.g.P.;X-X:X@X@X3X1X|.y.R K K F F J N ",
"4X4X4X' L P Z Z F J ! a a i M F F J G J J ^ F ^ P :.K.`.|.,X:XXXXX=X1X:X#X~.3X:X-X`.y.R Z Z K F F A ",
"4X4X_ L P K K F F J !  .! ! J F G G G J J L ^ +.+.^ K $.8.J.*X=X1X1X1X1X1X1X-X XR.8.+.T K K F F F A ",
"4X<.o.K K K Z F F J J ~ ~ J K F J G F J F J F F F P T @.@.p.L.'.,X,X1X<X1X-X}.Z.h.+...~ ~ ^ J J F A ",
"4X,.X.P K K Z F J J J J J L J F F F K K P P J J F P T T T W a.m.B.A.).).).Z.C.d.$.+.!  ...~ J J J C ",
"%.%.P K P Z Z F J P J J J J J F F F K ' P P J F F K Y G E U U Q / f.f.f.a.>.W Y J #.!  .`  .L L J V ",
"%.$.P X.^ P ~ X.~ ~ ~ J K F Z Z Z G G J P ~ F F J ~ ^ ^ ^ ^ Y Y Y T R T R ^ ~ ~ .. . .~ J J J J J A ",
"$.$.J P P P K P F F P J J F F K G F G G K P L J J A J J K J K K K K K Z F F J ~ ~ ~ ! S D F J A A A ",
"+.$.K K ^ K K P F J J J F K F K Z Z G K K P ^ J J J ~ K J ^ F G G G G J F F J ~ ~ ! ! J D J F F J A ",
"@.+.F K K K C F F F K F P J J P ~ ~ K F Z Z K Z F F J A J J J K F ^ T R T T P J F J D F F A F F C C ",
"$.$.J ~ G K Z F F C P J J ~ ~  .~ ^ J K K F E Z Z F K K P ~ ~ K ~ C F F K Y T Y K K K K J F F F F C ",
",.,.~ J K ~ F F F Z P L J ~ ~ ~ ~ ~ K K J Z E G Z F ^ K ^ P ~ J J P J J K G T T Y Y K K J J F F F N ",
"6.6.~ ~ ^ P J K J F ^ J ~ ~ ~ ~ K ~ K Z Z F Y G E K K ^ K ^ J J J +.P J G Y T T T K Z K P J F J F C ",
"4X0. .X.^ K J K J J ~ L J J J F F J J J P J P K K P P J J J ^ ^ R ^ T R @.W Y G Z Y R T K P J J F N ",
"4X4X] ~ ~ K Z K F J ^ J J J F F Z F F J P ~ J ~ ~ P ~ P ~ &.j.x.Z..X.X.X*X[.x.d.*.K P K K K J F F A ",
"4X4X4X^ G K Z Z F F ^ ~ ~ J F C Z C F ~ ~ ..J J ~ ^ ^ ^ X.7.Z.I.}.*X=X=X=X&XP.Z.k.$.^ ^ P K F F F N ",
"4X4X4XX.P K Z Z Z F P ~ J F F F C F F J ~ ..J ~ ~ ^ ^ +.&.j.]. X1X1X1X2X1X1XXX].J.7.L P P K F F F A ",
"4X4X4X| +.Y Z Z Z Z J ~ L ^ F C F Z F ~ ....~ J L ~ +.$.,.7.2.w.q.E.2X1X1X1X-X=X*XC.1.#.+.P L J J A ",
"4X4X4X4X4X+.Z Z K K K J ~ ~ ^ J P F J J ~ ~ P P P P ~ F N e 3 f O ) E.OX-X1X1X-X=X Xh.,.~ L L J L A ",
"4X4X4X4X4X4XK K K K K N N N N F F K P J F L P P P K F B c 5 & * X O r.W.1X2X1X1X1X*Xz.1.^ L L L L A ",
"4X4X4X4X4X4X' P K K J M w t B F F K K F K K Z P K G N v w # = = = X l b.2X2X1X2X1X2Xm.8.^ ^ P L P A ",
"4X4X4X4X4X4X4X_ H L J x v x v V Z Z Z Z Z Z K T R K M t q 5 > # % . o g.1X1X2X2X2X<XB.i.T K K K J m ",
"4X4X4X4X4X4X4X4Xm T P Z V V V Z Z E Z Z Z K R R R T B x w 5 6 # , . ) b.1X=X2X2X2X2XA.a.P K K K L F ",
"4X4X4X4X4X4X4X4X4Xm n P F F V F P P P ~ J E ^ ^ ^ T K F M 7 # : & ; t.(.1X1X2X2X2X2XB.i.K K K K K J ",
"4X4X4X4X4X4X4X4X4X4XJ ' ..~ ~ S L ~ ~ ..L  .` J J X.$.X.J q , & * d W.|.2X2X2X2X<X2XM.i.T K K K K K ",
"4X4X4X4X4X4X4X4X4X4X4XL L ~ L ~ ! ~ L S L L ..S ~ ~ #.X.3.4.2.2.e.b.2X2X2X2X1X1X1X&Xi.;.K H K K K K ",
"4X4X4X4X4X4X4X4X4X4X4X4XL L L L L L ~ ` S ..L L ! ~ ~ ..,. X1X1X:X2X>X$X$X>X-X1X1XJ.2.$.' K K P K K ",
"4X4X4X4X4X4X4X4X4X4X4X4X4XJ P P K P L J ..L  .L ! L ' #.j.R.XX*X-X:X~././.@X*XoX{.l.@.R P K K K K K ",
"4X4X4X4X4X4X4X4X4X4X4X4X4X4X4XH P P P P L L L L L ~ L ;.2.Z. XXX*X;XQ.Q.!.^.oX}.Y.u.K K K K K K L K ",
"4X4X4X4X4X4X4X4X4X4X4X4X4X4X4X4X4XP K P P P L L ` ~ L L P :.N.K.]. X{.}.}.}.Y.k.1.T K F K K K K K K ",
"4X4X4X4X4X4X4X4X4X4X4X4X4X4X4X4X4X4X4XP P K P P L L ! L S L P +.*.-.:.-.:.[ K K G J K K J P J K K K ",
"4X4X4X4X4X4X4X4X4X4X4X4X4X4X4X4X4X4X4X4XP P P P P P L L ~ L ` ~ P R [ } T K K K K P G P G G P K K K ",
"4X4X4X4X4X4X4X4X4X4X4X4X4X4X4X4X4X4X4X4X4X4XP P P P P P L P L ~ ` ~ P Y K K K K K K K K P G G K K K ",
"4X4X4X4X4X4X4X4X4X4X4X4X4X4X4X4X4X4X4X4X4X4X4X4XP P P J P L ~ L L ~ ' ;.K K P K K K J K J P P G K K "
};
