/* XPM */
static char *cobra_baixo_xpm[] = {
/* columns rows colors chars-per-pixel */
"50 50 207 2 ",
"   c #16457D",
".  c #23477C",
"X  c #314E70",
"o  c #435D7C",
"O  c #50647E",
"+  c #1E4B8C",
"@  c #1A4983",
"#  c #1F459A",
"$  c #1B4A98",
"%  c #1B568E",
"&  c #274A8F",
"*  c #2E4F8A",
"=  c #224186",
"-  c #3B438D",
";  c #385381",
":  c #23449B",
">  c #21499C",
",  c #254795",
"<  c #34449B",
"1  c #35489E",
"2  c #3B479E",
"3  c #3C5996",
"4  c #1E50A1",
"5  c #2B4CA1",
"6  c #274CA0",
"7  c #324CA1",
"8  c #3C4DA1",
"9  c #2154A4",
"0  c #2B5CAA",
"q  c #3253A4",
"w  c #3B5AA9",
"e  c #385DA8",
"r  c #2E62AE",
"t  c #3E62AE",
"y  c #3160AD",
"u  c #2F68B3",
"i  c #326BB3",
"p  c #3B6AB3",
"a  c #3372B5",
"s  c #494F8E",
"d  c #425F88",
"f  c #445F90",
"g  c #565E9E",
"h  c #4C6388",
"j  c #4D7D8C",
"k  c #507E8F",
"l  c #6D7F8F",
"z  c #667D9C",
"x  c #4958A6",
"c  c #4362AD",
"v  c #4B62AD",
"b  c #4C6AA0",
"n  c #526AAD",
"m  c #5472AC",
"M  c #4466B0",
"N  c #4C6DB5",
"B  c #456AB3",
"V  c #5167B0",
"C  c #546DB5",
"Z  c #596EB4",
"A  c #4E70B7",
"S  c #4D7ABD",
"D  c #4B77BB",
"F  c #5571B7",
"G  c #5A71B7",
"H  c #5C7EB7",
"J  c #5575B9",
"K  c #5A76B9",
"L  c #557CBD",
"P  c #5A7ABC",
"I  c #626FAF",
"U  c #666DB3",
"Y  c #6275B9",
"T  c #637BBC",
"R  c #6D7EBE",
"E  c #6173B7",
"W  c #717EBD",
"Q  c #7573B5",
"!  c #4C7EC0",
"~  c #547EC0",
"^  c #5B7FC0",
"/  c #827AB9",
"(  c #568191",
")  c #6F8394",
"_  c #5F8BA7",
"`  c #4F87BB",
"'  c #5983B9",
"]  c #5C94B0",
"[  c #6A80BF",
"{  c #648AB7",
"}  c #7481BF",
"|  c #6594B7",
" . c #4D84C4",
".. c #5481C2",
"X. c #5C83C2",
"o. c #5E88C6",
"O. c #5B8CC9",
"+. c #6383C2",
"@. c #6A84C2",
"#. c #658AC6",
"$. c #6B8AC6",
"%. c #6A8EC9",
"&. c #678BC8",
"*. c #7384C1",
"=. c #728BC6",
"-. c #7E8DC7",
";. c #728FC9",
":. c #7C8FC8",
">. c #7C86C2",
",. c #6D93CC",
"<. c #6F9DC5",
"1. c #7493CC",
"2. c #7C93CA",
"3. c #7798CF",
"4. c #7C98CF",
"5. c #7A96C4",
"6. c #6B99D1",
"7. c #779AD1",
"8. c #7D9CD1",
"9. c #7FA3D5",
"0. c #77ACCC",
"q. c #8596AF",
"w. c #8497BA",
"e. c #8E92BB",
"r. c #96A8B9",
"t. c #87A6BB",
"y. c #858EC7",
"u. c #8193C6",
"i. c #8D9BCD",
"p. c #8495CB",
"a. c #9897CA",
"s. c #849DD1",
"d. c #889ED1",
"f. c #A89FCE",
"g. c #98BFC7",
"h. c #85A0D2",
"j. c #89A5D5",
"k. c #8CABDA",
"l. c #94AEDA",
"z. c #98A8D3",
"x. c #9CB2DC",
"c. c #92B3DE",
"v. c #A4A9CA",
"b. c #AAB9C6",
"n. c #BBBBC7",
"m. c #A3AAD2",
"M. c #ACABD5",
"N. c #A4B3DB",
"B. c #BAB5D9",
"V. c #B9B4D0",
"C. c #9BBBE3",
"Z. c #A8BEE3",
"A. c #C0B9DC",
"S. c #AFC0C9",
"D. c #A6C1D1",
"F. c #BDCDDE",
"G. c #B5D4DF",
"H. c #A6C0E4",
"J. c #ADC4E6",
"K. c #B3C3E3",
"L. c #BBC1E1",
"P. c #B8CDE9",
"I. c #B3D2EE",
"U. c #BBD3EE",
"Y. c #B4D5F1",
"T. c #BED9F2",
"R. c #BDD7F0",
"E. c #C2C9D7",
"W. c #C3D2DB",
"Q. c #DFEECF",
"!. c #E0EECB",
"~. c #EDF5DE",
"^. c #E1F0D8",
"/. c #F0F6D9",
"(. c #C7CDE4",
"). c #CBC8E4",
"_. c #C8D4EB",
"`. c #CAD8EB",
"'. c #D5DAE8",
"]. c #C4DDF4",
"[. c #CADFF4",
"{. c #CDEAF9",
"}. c #C8E8F7",
"|. c #DBE6F2",
" X c #D4EBFA",
".X c #DCEEFA",
"XX c #DEF1FC",
"oX c #DBF0F3",
"OX c #D7E3E5",
"+X c #E8EEED",
"@X c #F0F7E5",
"#X c #F4F9ED",
"$X c #FCFAED",
"%X c #E9EBF4",
"&X c #E6EAF5",
"*X c #E4F4FB",
"=X c #ECF6FB",
"-X c #EEF9FC",
";X c #EAF6F4",
":X c #F2F9F5",
">X c #FBFCF3",
",X c #F3F5FA",
"<X c #FAF6FA",
"1X c #F4FAFD",
"2X c #FBFBFD",
"3X c #F2F7F2",
"4X c None",
/* pixels */
"K K K K K J H K K J K K K A A N N A A N N V A N N C C C N C N A N A N N A N F K K K J J K K J K H K ",
"K K K J K K J K K K K J K L J K J J J J J J J J J F C J J C F F F J L ~ ^ K K K K K K K J J K K K K ",
"K J K K K K K K K K K K L L L K F J F J J J J A A C J C J J J C J J J L L K K K K K K J K K K K J K ",
"K K K K J K K K K K P P L P L F F F F K L L J J J C A J J K K G K J L L P K K K K K K K K K K K K K ",
"J H J K K J K P K P +.X.X.X.P K G G K P .. .J J J A J J J J P K K P L L ^ K K K H K K K K K K K K K ",
"K K K K H K K P P P X.O.o.#.P G J G G ^ ..` D J J J J J K J P K K +.~ X.+.P T Y T P ' K K K K K K J ",
"K K K K K K Y T @.=.9.j.h.d.i.} R R T .. . .! S S J G G G T P P K %.,.1.4.i.i.i.i.=.%.[ K F H K K K ",
"K K K K K K Y @.2.| b.n.n.V.B.a.y.y.T X.~ !  .! ! J P G G R P ^ L ,.s.z.M.B.A.B.M.i.5.=.E K K K J K ",
"K K K H T K @.C.J.].*X2X<X<X2X,X|._.7.o.+.#.! ~ ! A P G Y Y K &.7.C. X*X1X2X2X2X2X.XJ.l.4.T J K H J ",
"J K J K P #.C..X*X1X2X2X2X<X2X2X1X,XT.s.$.K ~ ~ ~ J Y Y Y Z =.k.J.*X-X1X2X2X2X2X<X1X1X{.I.1.K K K K ",
"K K K K $.7.I.*X-X1X1X2X2X<X2X#X:X,X XZ.s.T ~ ~ J J P Y Y Y d.Z.].*X-X1X2X2X2X2X2X1X1XoX}.k.K K K K ",
"J K K K 1.k.}.;X1X1X2X2X<X2X2X@X@X#X=X[.x.*.~ ~ L K Y T T Y x.P..X1X1X1X1X2X2X2X2X2X,X*XoXY.K K K K ",
"K G G @.l.Y.;X~.@X>X2X<X2X2X2X#X@X~.1X-XK.>.^ F F ^ Y Y Y @.[.*X1X1X1X2X1X1X-X1X1X2X>X@X^.}.T K K K ",
"F K K $.l.T.1X$X>X>X,X<X,X,X1X1X:X3X1X1X).a.R F F R J F G R *X=X1X1X1X-X1X1X1X1X2X2X$X/.Q.{.2.Y K H ",
"K K P +.l.I.1X>X3X+XE.v.m.M.`.-X,X:X1X2X).a.T G F T F F J R .X=X1X>XOXW.S.r.b.(.|.2X$X/.!.{.:.*.Y ;.",
"..^ L P j.I.1X2X+X'.e.s g I x.*X=X1X1X1X).f.R G K T C F ^ R .X=X1X>XE.r.) h z r.F.2X$X@XQ.{.-.W P ..",
"L ....X.c.}.,X(.v.e.- < < < 3 t.P.-X1X1X).a.Y K G T A K T ^  X*X1XE.) O X . . X h b.2X1X;X{.:.R ..L ",
"L S ..o.8.Z.<X%X} x 2 8 1 : + ( g.oX-X-XB./ Y Y P K ^ J J @.Z.}.-Xq.h ; . + $ & * e.1X-X*XT.*.' L ..",
"` ~ ~ ~ 7._.<X%X} x 2 2 1 > @ ( `.*X=X'.M.Q Y G K J J J L T C.P..Xw.f * @ : # , & u.1X*XXXJ.+.! ~ L ",
"L ~ ~ ~ =.P.,X%Xm.x 1 7 7 5   j +X1X*XL.a.U P K K K ~ J F ^ j.Z.].2.3 , = 6 : # , 2.1XXX XN.P ' ' L ",
"~ L ~ ~ P u.<X<Xi.V 1 : > 9 % D.;X,XI.y.R Z P G J J ^ K ~ F &.7.k.7.e 6 : q 5 7 q 4. X].Z.:.L L ~ L ",
"L L L L L 2.L.2X*.K 0 $ 9 9 S _.&X|.8.R Y E ^ L ~ J K ^ ^ J ~ X.&.1.B c w q w B J 1.,.h.2.P S ~ L L ",
"~ L L L L +.z.l.4X^ p 0 0 y X.P.&X_.@.@.Y G ^ J J J K ^ ^ L ~ ^ +.&.J v M w x A +.X...#.=.L L L P L ",
"L L L K P L $.T ^ ..D i p p @.x._.F.J T T T ^ K J J G K P P K ^ ^ o.K A C M N K %.o...' L ~ ..L P K ",
"P P J P L L ' ! ....X.P P K K T z.1.^ ^ K K J J J J C G K P P ^ ^ L L P P Y T T +.L ..S L ..L P K P ",
"P P P P P L ~ ~  . .L T Y K Z G K K @.F J A L J J J Z Z G P J ~ L L K K P Y @.T L  .L L ` L L P P K ",
"P P P P L P L L  ...P P Y K Z G K P R F J J A J J J Z G G P ~ L ^ L L J P T R P L S ! ~ ~ ~ P K P 4X",
"4XL P L P L L L L ~ K Z Z Z E @.P J ^ A F J L K P Y Y G Y P J J L ~ P K Z G R ^ S L L ~ ~ J P K P 4X",
"4X4XP K L L L L L ~ J F J L ^ ~ ^ ^ J J K ^ ^ K K G J G G J ~ ~ ....~ L K Z K Y ..S ..L L P K P 4X4X",
"4X4XL L P P P P L L G J J J J L K ^ J J K ^ L K K G Z J G J J ^ L ~ L K K Z G J L .. .L L P P P 4X4X",
"4X4X4XP P P L L L L K G K J J J J J J G K P K K G J J G J K J L L L K K G C Z L ~ ! L L P K P 4X4X4X",
"4X4X4XP L L P L D ~ K J J K J F F J G F J K G J G K J J K G J J J J J K K Z Z L ! ' L L P P 4X4X4X4X",
"4X4X4X4XL K P L L L K F J G K F G K K J C F Z G G P ~ P ~ J C Z C C K K K Z Y P ~ ~ L K P K 4X4X4X4X",
"4X4X4X4XL P P L J L K F J J J C F J G J J C Z G J J ..~ K J C C C C K J G C Z K L S L P P 4X4X4X4X4X",
"4X4X4X4X4XL P K L L P C F K N N N C J J C C C G G L ..~ ~ J F F F F K J C C Z G ~ ! L P P 4X4X4X4X4X",
"4X4X4X4X4X4XL P H J K K G F N t t M J K K K F J J L ..~ ~ J F J F J K N B x V V ~ L L K 4X4X4X4X4X4X",
"4X4X4X4X4X4X4XP J P K G J G B r u i S P J K Z J G K L L L L J J J ~ ~ B c x V C L ~ L L 4X4X4X4X4X4X",
"4X4X4X4X4X4X4X4Xb H K K G F B r u a ! L L J J J J J K L L J J J J K ~ N c M V J ' L L 4X4X4X4X4X4X4X",
"4X4X4X4X4X4X4X4Xh ' K G G G N i i a  .~ J J K J J J K L L L L L ~ L L B c v C K ' ! 4X4X4X4X4X4X4X4X",
"4X4X4X4X4X4X4X4X4X4XK G G Z C D D ! ! L K D L J J G K J P ^ ^ L ^ J K J J G ^ n J 4X4X4X4X4X4X4X4X4X",
"4X4X4X4X4X4X4X4X4X4X{ K Y Y K K J J J J J L ~ K K C C C J J J F F C Y K K K ' F 4X4X4X4X4X4X4X4X4X4X",
"4X4X4X4X4X4X4X4X4X4X4XT Y K Y G G F J K K K ~ K J G C J J J J J G Z G Y P H m 4X4X4X4X4X4X4X4X4X4X4X",
"4X4X4X4X4X4X4X4X4X4X4XP T G G Z G G F G F F X.K P J G J J J K G Z Z Z G P _ 4X4X4X4X4X4X4X4X4X4X4X4X",
"4X4X4X4X4X4X4X4X4X4X4X4X4X+.Z Z Z Z G G F C L K K C C C J J G Z Z Z Z K ' 4X4X4X4X4X4X4X4X4X4X4X4X4X",
"4X4X4X4X4X4X4X4X4X4X4X4X4X4X+.K K K Y K K G ^ K P K K K P P K G G K X.4X4X4X4X4X4X4X4X4X4X4X4X4X4X4X",
"4X4X4X4X4X4X4X4X4X4X4X4X4X4X4X4Xw P H K P G ^ P P G K P P P P P K @.4X4X4X4X4X4X4X4X4X4X4X4X4X4X4X4X",
"4X4X4X4X4X4X4X4X4X4X4X4X4X4X4X4X4X' ~ K G P ^ P P G K ^ ~ ~ X...X.| 4X4X4X4X4X4X4X4X4X4X4X4X4X4X4X4X",
"4X4X4X4X4X4X4X4X4X4X4X4X4X4X4X4X4X4X_ X.X.T P J J A L L ..` ] 4X4X4X4X4X4X4X4X4X4X4X4X4X4X4X4X4X4X4X",
"4X4X4X4X4X4X4X4X4X4X4X4X4X4X4X4X4X4X4X<.,.,.%.@.@.@.&.,.6.0.4X4X4X4X4X4X4X4X4X4X4X4X4X4X4X4X4X4X4X4X",
"4X4X4X4X4X4X4X4X4X4X4X4X4X4X4X4X4X4X4X4X4X%.%.@.#.@.&.,.6.4X4X4X4X4X4X4X4X4X4X4X4X4X4X4X4X4X4X4X4X4X"
};
