/* XPM */
static char *cobra_esquerda_xpm[] = {
/* columns rows colors chars-per-pixel */
"50 50 207 2 ",
"   c None",
".  c #1B467D",
"X  c #204B7E",
"o  c #304F71",
"O  c #435D7D",
"+  c #51647F",
"@  c #194A8A",
"#  c #18508B",
"$  c #1C4998",
"%  c #185790",
"&  c #234788",
"*  c #29518C",
"=  c #375482",
"-  c #234B92",
";  c #224699",
":  c #25499C",
">  c #344A9E",
",  c #36469B",
"<  c #3C5B98",
"1  c #3A448E",
"2  c #1D55A3",
"3  c #2C4EA0",
"4  c #264EA0",
"5  c #354CA0",
"6  c #2559A6",
"7  c #3254A3",
"8  c #3B5BA6",
"9  c #3A5AA8",
"0  c #2E63AD",
"q  c #3E62AC",
"w  c #3161AC",
"e  c #2D6BB2",
"r  c #316BB2",
"t  c #3A6BB2",
"y  c #2C73B6",
"u  c #4A5190",
"i  c #555F9F",
"p  c #4D6489",
"a  c #4C7F8E",
"s  c #446092",
"d  c #677E9D",
"f  c #475AA6",
"g  c #4464AD",
"h  c #4962AC",
"j  c #5166AE",
"k  c #4D6DB3",
"l  c #446BB2",
"z  c #546DB3",
"x  c #5A6EB3",
"c  c #4F71B5",
"v  c #4B77B9",
"b  c #4C7ABC",
"n  c #5572B6",
"m  c #5A72B6",
"M  c #5576B8",
"N  c #5A76B8",
"B  c #557ABB",
"V  c #5B7ABB",
"C  c #5D7CB7",
"Z  c #6270AF",
"A  c #666EB1",
"S  c #6273B6",
"D  c #6177B8",
"F  c #637BBB",
"G  c #6C7CBB",
"H  c #717EBC",
"J  c #7474B5",
"K  c #4B7EC0",
"L  c #557FC0",
"P  c #5A7FC0",
"I  c #827BB7",
"U  c #548292",
"Y  c #6D8191",
"T  c #708596",
"R  c #5A8BA9",
"E  c #5F90A4",
"W  c #4B8DBE",
"Q  c #5C85BB",
"!  c #5684B8",
"~  c #5B95B1",
"^  c #608CA4",
"/  c #6A90AB",
"(  c #769BAF",
")  c #6D82BE",
"_  c #6387B9",
"`  c #7283BF",
"'  c #6593B9",
"]  c #7391BF",
"[  c #4C84C2",
"{  c #4989C7",
"}  c #468AC7",
"|  c #5382C2",
" . c #5C83C1",
".. c #5D88C5",
"X. c #558AC7",
"o. c #6484C1",
"O. c #6A84C1",
"+. c #658AC5",
"@. c #6B8BC5",
"#. c #6C8FC8",
"$. c #7387C1",
"%. c #738BC5",
"&. c #7D8EC5",
"*. c #728FC8",
"=. c #7C86C0",
"-. c #6D93CB",
";. c #6C99CF",
":. c #6E9DC6",
">. c #7291C5",
",. c #7E94C7",
"<. c #7393CB",
"1. c #7D94CA",
"2. c #7798CD",
"3. c #7B99CD",
"4. c #7B9BC2",
"5. c #759CD1",
"6. c #7C9ED1",
"7. c #79A2D5",
"8. c #77ACCC",
"9. c #8496AF",
"0. c #8497B9",
"q. c #9396BE",
"w. c #888FB9",
"e. c #8CA4BB",
"r. c #99ABB8",
"t. c #868EC5",
"y. c #849DCF",
"u. c #8C9BCD",
"i. c #8595C9",
"p. c #9897C9",
"a. c #859FD1",
"s. c #A89FCC",
"d. c #9FA3C5",
"f. c #97BDC6",
"g. c #98BFC7",
"h. c #85A3D3",
"j. c #89A5D4",
"k. c #8DABD7",
"l. c #8DAEDA",
"z. c #94ABD6",
"x. c #95AFD9",
"c. c #99A6D2",
"v. c #89B3DF",
"b. c #94B2DC",
"n. c #9DB3DB",
"m. c #97B8DF",
"M. c #AAB9C6",
"N. c #BABBC7",
"B. c #A4ABD4",
"V. c #AAACD3",
"C. c #A6B3D9",
"Z. c #BAB4D5",
"A. c #BAB6D9",
"S. c #A2BCE0",
"D. c #ABBEE1",
"F. c #C0BADA",
"G. c #95C7D4",
"H. c #AFC0C9",
"J. c #BECDDF",
"K. c #9DC0E3",
"L. c #A7C0E2",
"P. c #ADC4E4",
"I. c #B6C8E6",
"U. c #B4D2ED",
"Y. c #B9D3EC",
"T. c #BED9EF",
"R. c #B5D6E2",
"E. c #B1D6F0",
"W. c #C2C9D7",
"Q. c #C4D3D8",
"!. c #DFEDCF",
"~. c #E1EDCB",
"^. c #E1EDD8",
"/. c #ECF5DF",
"(. c #F1F6DC",
"). c #C6CDE4",
"_. c #CAC8E1",
"`. c #D0CCE3",
"'. c #C6D6EA",
"]. c #D5DBE8",
"[. c #C3DDF2",
"{. c #C4E4F7",
"}. c #CCE1F4",
"|. c #CBEAF7",
" X c #DAECF5",
".X c #D3EAF8",
"XX c #DAEDF9",
"oX c #D5E6F5",
"OX c #D8E4E7",
"+X c #EAEFEE",
"@X c #EEF5E0",
"#X c #F2F7E5",
"$X c #F5F9EE",
"%X c #FBFAEE",
"&X c #E0EEF8",
"*X c #E8EEF0",
"=X c #E5F4FA",
"-X c #ECF6FA",
";X c #E9F6F5",
":X c #F4F8F4",
">X c #FCFBF5",
",X c #F1F5F9",
"<X c #F5F9FB",
"1X c #FAF9FA",
"2X c #FDFAFB",
"3X c #FBFBFC",
"4X c #F5F7F8",
/* pixels */
"                                                                | | Q V m x D                       ",
"                                                                | | P V m x D                       ",
"                                                          o. .| | | V N m n z n V +.                ",
"                                                        V M |  .....B o.O.O.m m N o.V               ",
"                                                      f V D *.2.7.b.j.k.x.x.*.@.V P N g             ",
"                                                    F N m F y.b.L.{.U.Y.T.U.l.2.o.F N V Q           ",
"                                                  ..N F G u.Y.}.=X<X<X<X<X;X|.U.m.$.N D F o.        ",
"                                              W { [ V F $.i.c.B.C.).3X>X%X/.4X=XXXm.O.F N V P       ",
"                                              } { |  .Q F G G H H V.+X%X>X#X<X-X=XP.>.) N V V q     ",
"                      R ! B V V V V B B V B | | [ |  .B V j f f f w.].+X2X>X<X<X<X{.4.@.V N N N m n ",
"                  _ N N m N N N n N M m N M M V V  .v t 9 > 5 , , 1 q.W.,X2X3X3X3X-XM.6. . .P V M z ",
"              V V S N x m m m z n z m m n n x V C V r 6 2 : 5 5 5 , u d.4X2X2X2X3X<XN.k... .L V M z ",
"              F V D x m m m m n n n m M m M x S V V t 6 2 ; 5 > > , i B.<X2X2X2X3X1XN.y.....L B B k ",
"            o.S N S x x n n m M M M M M B B x m S V l w 2 2 3 : : 3 S V.,X1X1X1X2X2XZ.a.o. .L B B z ",
"          o.x m m S z k l l l n n M M M B B D x x N +.| b % . @ % u C.'.3X3X2X2X2X2XZ.u.V V B B B k ",
"          m z x m N B e w 0 q z z n z B B B O.m N F 5.;.7.R a a U e.=X-X<X$X#X%X4X,Xp.` M m n n n k ",
"        8 m x x m B b e e e q z z m n M B V V V N V <.7.v.G.f.f.g.R.,X,X<X#X#X:X<XoXt.$.m m n m B k ",
"      ! V N x m n M K y y e l z n M n M B V n V V V @.h.K.XX=X=X&X-X<X<X:X/.$X4X<X'.t.G m n n n n n ",
"    E B V C m z m B K [ K b n M m N m n M B B o.O.P n P #.I.=X-X<X<X<X<X<X<X-X.X[.5.F F m m n z n k ",
"  :. .N N N m n n n B P B B M n n n n m M M n n M V o.O.O.t.I.].<X<X<X4X1X4X}.L.y. . .| L V M B m k ",
"  ;. .n N m n m M N B B B n n z n n m V n B n n m N F F G G p.V.Z._.`._._.D.n.y.@.o.K [ | L B M B k ",
"#.#.V N N m z n M M n c B M M n n n m V V V B n n N V N x A A J J s.s.s.p.=.) F m +.K [ W [ B M n z ",
"#.#.B  .L P B  .| B B n m m z z x m m B V | n n v M L V V V S N F F G F G P L L | [ [ K n v B c M k ",
"o.O.M V V V M V M n N M M m M m m x n m V n V M M M M M V M m N N N m z m n B B L K K B n n n n n k ",
"@.O.M V N V n V N M M N M m m m n m m m N n B M M M M M M M m M V x m x m c B B L B b b B c n n n k ",
"O.o.n N N N z n n z m n M M M B B V n m m m F m m z n B M B M N m V P G F P N M v c B n n z n n z z ",
"@.@.B M N n n m n z m B M B [ [ ! L B n n m S x n z M N V V B M B n n n m D F D N N N N n n n n n z ",
"-.-.B B V N n n z n M B B B L L L B m m n n S m x m M V V B B B M N n M m V F D D S m n B n n n n k ",
";.;.| V B B n n n n B B B B L L B L M m m M m m m B V V V B B n M o.N N x V G F F S x m B n n n n z ",
"  8.[ | V V n V B n L B B B B M m n M M M M N N N V V V B B B  .O.P F O.O.G S m x N O.F V n M n n k ",
"    ~ | V m m m B n B B B c n z z z m B B L B B B V B B B +.j.n.D.XXXX&X=X[.C.y.%.M V V V N n z n k ",
"      ! N m m m m n B B B B m z z z z B B | B B B L L  . .2.D.U.[.=X<X,X<X&XY.D.j.@.B N N N N n n z ",
"       .m m m x m z V B B B n z n z n M L K B L L L | o.+.k.[.XX,X3X<X<X<X<XXX[.P.5.L V N N m n n k ",
"      ' +.m x x x z B b B B m z z z m L | | B B B L  .@.>.2.4.0.9.W.3X3X<X<X<X=X=XS.-.+. .V M B M c ",
"          ..m m m D N B B B V M M N M M B L V M V B V n c w < u p Y W.OX-X3X<X<X-XXXy.-.L B v B b k ",
"            m m m m m k k l n n m M V M M B M V N N n l q 4 - - = + r.Q.<X3X<X<X3X=Xc.<.P B B B B c ",
"            Q V V m m g q q g n x N M x m N x V N N z g 9 ; & & . o Y M.3X3X3X<X3X3XB.i. .P V P B n ",
"              ^ ! B n h g g f z x x x z x x N F F N g 9 7 7 4 $ @ X O f.<X<X3X3X3X<XA.u.V V M M n k ",
"                  / P z j j j x S m x m N m F O.G F k g 9 3 $ $ $ & T M.<X-X2X3X3X2XF.p.F N m n n z ",
"                      N m z z m m S m m m S Q V P F N z l 5 $ : - o e.'.3X<X3X2X2X2XZ.u.F N m n n n ",
"                      _ Q V B N V F m N N N B B M  .@. .B 7 $ - * p J. X3X3X3X1X3X3XZ.i.F N S N N c ",
"                                              [ [ X.5.6.h.y.&.i.9.M.3X3X3X3X3X<X<XXXu.*.V V o.      ",
"                                                  } X.5.b..X<X<X<X3X>X%X%X>X<X<X<XP.1.@.Q '         ",
"                                                     .<.a.T.=X=X,X<X#X(.(.#X-XXX.Xz.$.F V           ",
"                                                    _ *.1.D..XXX=X;X!.!.~.^. X{.E.i.S m D           ",
"                                                        _ &.C.P.[..X|.|.|.|.U.S.z.O.S               ",
"                                                          C G $.$.&.t.&.&.%.G m z x D               ",
"                                                            O.G G H G ` $.` F F V                   ",
"                                                            _ F x S S S G G ) ) +.                  ",
"                                                                ] ] >.%.>.(                         "
};
