/* XPM */
static char *cobra_baixo_xpm[] = {
/* columns rows colors chars-per-pixel */
"50 50 208 2 ",
"   c None",
".  c #16457D",
"X  c #23477C",
"o  c #314E70",
"O  c #435D7C",
"+  c #50647E",
"@  c #1E4B8C",
"#  c #1A4983",
"$  c #1F459A",
"%  c #1B4A98",
"&  c #1B568E",
"*  c #274A8F",
"=  c #2E4F8A",
"-  c #224186",
";  c #3B438D",
":  c #385381",
">  c #23449B",
",  c #21499C",
"<  c #254795",
"1  c #34449B",
"2  c #35489E",
"3  c #3B479E",
"4  c #3C5996",
"5  c #1E50A1",
"6  c #2B4CA1",
"7  c #274CA0",
"8  c #324CA1",
"9  c #3C4DA1",
"0  c #2154A4",
"q  c #2B5CAA",
"w  c #3253A4",
"e  c #3B5AA9",
"r  c #385DA7",
"t  c #2E62AE",
"y  c #3E62AE",
"u  c #3160AD",
"i  c #2F68B3",
"p  c #326BB3",
"a  c #3B6AB3",
"s  c #3372B5",
"d  c #494F8E",
"f  c #445F90",
"g  c #565E9E",
"h  c #4C6388",
"j  c #4C7D8C",
"k  c #507E8F",
"l  c #6D7F8F",
"z  c #667D9C",
"x  c #4759A7",
"c  c #4362AD",
"v  c #4B62AD",
"b  c #5164AF",
"n  c #4466B0",
"m  c #4C6DB5",
"M  c #456AB3",
"N  c #5167B0",
"B  c #546DB4",
"V  c #596EB4",
"C  c #4E70B7",
"Z  c #4C7ABD",
"A  c #4B77BB",
"S  c #5571B7",
"D  c #5A71B7",
"F  c #5575B9",
"G  c #5A76B9",
"H  c #557ABD",
"J  c #5B7ABC",
"K  c #5F7BB5",
"L  c #626FAF",
"P  c #666DB3",
"I  c #6272B6",
"U  c #6275B9",
"Y  c #637BBC",
"T  c #6C7DBD",
"R  c #717EBD",
"E  c #7573B5",
"W  c #4C7EC0",
"Q  c #557FC0",
"!  c #5B7FC0",
"~  c #827AB9",
"^  c #568191",
"/  c #6F8394",
"(  c #5B8BA7",
")  c #4D8CBD",
"_  c #5B83B3",
"`  c #5883BB",
"'  c #5C94B0",
"]  c #668DA7",
"[  c #638AB7",
"{  c #6A81BE",
"}  c #6784B9",
"|  c #7481BF",
" . c #7491BD",
".. c #6594B7",
"X. c #4C84C4",
"o. c #4A89C8",
"O. c #498AC7",
"+. c #5482C2",
"@. c #5C83C2",
"#. c #5D88C6",
"$. c #578AC8",
"%. c #6383C2",
"&. c #6A84C2",
"*. c #668AC7",
"=. c #6B8AC6",
"-. c #6A8EC9",
";. c #678BC8",
":. c #7284C1",
">. c #728BC6",
",. c #7E8DC7",
"<. c #728FC9",
"1. c #7C8FC8",
"2. c #7C86C2",
"3. c #6C93CB",
"4. c #6F9DC5",
"5. c #7392CB",
"6. c #7D94CA",
"7. c #7798CF",
"8. c #7B98CF",
"9. c #7895C4",
"0. c #6B99D1",
"q. c #769CD2",
"w. c #7C9ED2",
"e. c #7AA3D6",
"r. c #77ACCC",
"t. c #8596AF",
"y. c #8497BA",
"u. c #8E92BB",
"i. c #96A8B9",
"p. c #87A6BB",
"a. c #858EC7",
"s. c #8C9ACD",
"d. c #8495CA",
"f. c #9897CA",
"g. c #849DD1",
"h. c #889ED1",
"j. c #A89FCE",
"k. c #97BEC6",
"l. c #98BFC7",
"z. c #86A1D3",
"x. c #89A5D5",
"c. c #8CABDA",
"v. c #83A6D8",
"b. c #94AEDA",
"n. c #98A6D3",
"m. c #94B2DD",
"M. c #9CB3DD",
"N. c #A4A9CA",
"B. c #AAB9C6",
"V. c #BBBBC7",
"C. c #A3ABD4",
"Z. c #ACABD5",
"A. c #A5B2DB",
"S. c #BAB5D9",
"D. c #B9B4D0",
"F. c #88B3E0",
"G. c #9BBBE3",
"H. c #A8BEE3",
"J. c #C0B9DC",
"K. c #95C7D4",
"L. c #AFC0C9",
"P. c #BDCDDE",
"I. c #B5D4DF",
"U. c #9CC0E5",
"Y. c #A6C0E4",
"T. c #ADC4E6",
"R. c #B6C8E7",
"E. c #B3D2EE",
"W. c #BBD3EE",
"Q. c #B4D5F1",
"!. c #BED9F2",
"~. c #BDD7F0",
"^. c #C2C9D7",
"/. c #C3D2DB",
"(. c #DFEECF",
"). c #E0EECB",
"_. c #EDF5DE",
"`. c #E1F0D8",
"'. c #F0F6D9",
"]. c #C7CDE4",
"[. c #CBC8E4",
"{. c #CAD8ED",
"}. c #D5DAE8",
"|. c #C4DDF4",
" X c #CADFF4",
".X c #CDEAF9",
"XX c #C9E7F7",
"oX c #D4EBFA",
"OX c #DCEEFA",
"+X c #DAE5F2",
"@X c #DDF1FB",
"#X c #DBF0F3",
"$X c #D7E3E5",
"%X c #E8EEED",
"&X c #F0F7E5",
"*X c #F4F9ED",
"=X c #FCFAED",
"-X c #E4F4FB",
";X c #ECF6FB",
":X c #EEF9FC",
">X c #EAF6F4",
",X c #F2F9F5",
"<X c #FBFCF3",
"1X c #F3F5FB",
"2X c #F2F9FD",
"3X c #F4FAFD",
"4X c #FBFBFD",
"5X c #F8F6F7",
/* pixels */
"G G G G G J G G G G G G F C m m S m C m m B C C C B B B m C m C m C m m C m F G G G G G G G G G G G ",
"G G G G G F G G G G F G F F A G F F S S F F F C S B S S S S B D S G H Q Q G G G F G G G G G H G G G ",
"G F G F G H G G F G G G H H H G S S S F F F F C C S S C S S S S S H H H J G G G G G G G G G G G H G ",
"G G G G G G G G G G J J ` @.H S S D G H F Q F F S S S F F F S G S G Z H H G G G G G G G G G G G F F ",
"G G G G G G G H G J %.#.@.@.J G S G G J Q X.A S F C F F F J S J G J H H ! G G G G H G G G G G G G G ",
"G G F G G G G K G K @.$.#.%.J U G D G H Q ) F F S S F G J J G G G %.Q @.%.Y J J Y J ` G G G G F G G ",
"G J G G G G K Y =.=.g.x.x.h.a.R R T U @.Q X.W Z W C G G F Y G ! J *.3.5.8.s.f.s.d.9.=.Y G G G G F G ",
"G G G G G G G &.9. .B.L.D.D.S.f.a.a.%.+.X.W X.W W F G G D R G ! Q 3.s.n.C.S.J.S.Z.s.6. .U G G G G K ",
"G G G H Y G =.G.T.|.;X3X4X5X4X1X+X{.w.@.#.*.W Q Q C G G I G G =.q.U.oX-X4X5X4X4X4XOXT.b.d.G G G G G ",
"G G G G J *.M.@X-X2X4X4X4X4X4X4X2X1X!.g.=.F Q Q Q S U U Y V >.x.T.@X:X3X4X4X4X4X5X2X5X.XQ.5.G G F F ",
"G G G G &.q.E.-X:X3X3X4X4X5X4X,X,X1XoXH.g.Y Q Q Q F G Y U D h.H.!.;X:X3X4X4X4X4X4X3X1X@XXXF.G G K G ",
"G G G S <.F.XX,X3X3X4X4X4X4X4X_.&X*X;X XM.:.Q F F F Y Y T I M.W.@X3X3X3X3X4X4X4X4X4X2X-X#XE.G G G G ",
"S F B &.b.W.>X_.&X<X4X4X4X4X4X*X_._.2X:XR.2.! F F Y U G U &. XOX3X3X3X4X3X3X:X3X4X4X<X&X`.XX} G G G ",
"G S G =.b.!.3X*X<X<X1X5X1X1X3X2X2X*X3X3X[.f.Y D S Y G D V T -X1X3X3X:X2X3X3X3X3X3X4X=X'.(..X1.J G H ",
"K G G %.c.W.2X<X,X%X^.N.N.C.{.:X1X2X3X4X[.f.Y D D Y D S Q T OX:X3X<X$X/.L.i.B.].+X4X=X'.)..X,.:.U 9.",
"` @.J @.x.E.2X4X%X}.u.d g P A.-X;X3X3X3X[.j.T D G Y C F G T OX;X3X<X^.i./ h z i.P.4X=X&X(..X,.R I  .",
"W Q Q #.F.|.1X[.N.u.; 1 1 2 4 p.I.>X3X5X[.f.Y D D Y F F %.! OX-X3X^./ + o X X : h B.4X3X>X.X1.T I  .",
"+.$.+.*.v.Y.-XA.R x 3 9 2 > @ ^ K.#X2X1XS.~ U U G J H F F %.H. X:Xt.h : X @ @ * = y.1X:X-X!.:.T V 9.",
"    +.+.7.b. XZ.R x 2 9 8 > # j K.-X;X}.Z.E G J G G F H F ! G.R.OXy.f = - $ $ < * d.2X-X@XR.:.T U   ",
"    ! Q <.x.W.n.R g 2 8 8 8 . j k.-X-XS.f.P U S G S H F H ! x.H.|.6.4 < - 7 , $ @ 6.:X-X.XA.T &.}   ",
"    @.H G Y s.d.T N 8 > , 0 & ( K.#XR.a.R P J G F F H J J F ;.q.c.7.r 0 > w 6 8 8 w.OX{.H.>.K       ",
"      Y G V Y :.Y F u $ 5 0 Z e.F.G.-.&.Y D J J J F J J ! F Q @.;.5.M x e w e n F x.F.x.d.Y         ",
"        x ! Y T Y Q a 0 q u @.q.e.v.%.%.Y U ! H H F J J J H H ! @.;.m m n e x C ! w.q.5.>.          ",
"          Y G ! ! ! W p a a *.q.3.-.F Y Y G J F F F G G J J H ! @.%.J B B n m J >.q.$.#.}           ",
"            #.Q +.+.+.J J J U Y Y ! ! J J F F F F C B G G J J ! ! H H J G U Y Y %.$.O.              ",
"              ) o.X.J Y G U V D G G %.F S F F F G G V V D G F Q Q H H G G Y &.J F X.                ",
"              O.o.+.H Y U D V D G Y T F F F C G F G V D D G Q H Q H H J G T T J Z X.                ",
"                  +.G V V V U &.! F ! C S F A J H G U D U J H F H H J G D D %.Y H                   ",
"                  ! S S F F ! Q ! ! F F F ! ! G J D G S S F Q Q +.+.W H G V G U G                   ",
"                  H G S F F F Q F J F F G ! F J G D S S G S J Q H +.H G G V D D G                   ",
"                  J G G J F F F F F S J G J F G G B S G S G G F H H F G G V V D G                   ",
"                  J G F F F F S S S D S D G G D G G J F F S F F F F G G S V V G G                   ",
"                  G G B S G G F S G G D S S V G V H ! H H F B B B B G G G D I U G                   ",
"                  H G S S G S m S S G S S B V D G F Q Q H F B B B S G S D V V D J                   ",
"                  J G S S G S m m S S S S S B G G H +.Q Q F B F B B F G C B V V G                   ",
"                  J G G G S M y y M F G G F B S S F X.Q Q G S S S G H m n x N B J                   ",
"                  ` G D D S M t i p Z H F F S G G G H H Q H F F F Q Q M y x b B !                   ",
"                  _ D D S D m t i s X.H H F G F G S H H H F F H H H Q m y n N S `                   ",
"                  ( G V V G m i p s X.Q H C G F F F F F H H H H H H H m e x S ! [                   ",
"                    G D D V B A Z W W H F F H G G S G H J @.Q J J G F F G G Y                       ",
"                    [ U G D U J G F F F F J H G G S B F C F F S S V G U G H ]                       ",
"                      J Y U D D D S F F F G +.F F B B S G G F B G V D G J _                         ",
"                      Y Y U D V V D S S S S @.G J S S S F F G G V V V D J ]                         ",
"                          Y V V V D D G S B H G S S B F F G V V V V V G _                           ",
"                            %.G K G G U G G ! J J G G J J J G G V G %.                              ",
"                                e G G G G G J J J G G J J J J G J %.                                ",
"                                  ` Q F G G ! J J G G F H +.@.+.+...                                ",
"                                    ( #.! Y H G S F F Q Q ) '                                       ",
"                                      4.3.;.-.*.*.&.=.3.0.r.                                        ",
"                                          3.-.&.&.*.;.3.0.                                          "
};
