/* XPM */
static char *cobra_cima_xpm[] = {
/* columns rows colors chars-per-pixel */
"50 50 207 2 ",
"   c None",
".  c #1B467D",
"X  c #204B7E",
"o  c #304F71",
"O  c #435D7D",
"+  c #51647F",
"@  c #194A8A",
"#  c #18508B",
"$  c #1C4998",
"%  c #185790",
"&  c #234788",
"*  c #29518C",
"=  c #375482",
"-  c #234B92",
";  c #224699",
":  c #25499C",
">  c #344A9E",
",  c #36469B",
"<  c #3C5B98",
"1  c #3A448E",
"2  c #1D55A3",
"3  c #2C4EA0",
"4  c #264EA0",
"5  c #354CA0",
"6  c #2559A6",
"7  c #3254A3",
"8  c #3B5BA6",
"9  c #3A5AA8",
"0  c #2E63AD",
"q  c #3E62AC",
"w  c #3161AC",
"e  c #2D6BB2",
"r  c #316BB2",
"t  c #3A6BB2",
"y  c #2C73B6",
"u  c #4A5190",
"i  c #555F9F",
"p  c #4D6489",
"a  c #4C7F8E",
"s  c #446092",
"d  c #677E9D",
"f  c #475AA6",
"g  c #4464AD",
"h  c #4962AC",
"j  c #5166AE",
"k  c #4D6DB3",
"l  c #446BB2",
"z  c #546DB3",
"x  c #5A6EB3",
"c  c #4F71B5",
"v  c #4B77B9",
"b  c #4C7ABC",
"n  c #5572B6",
"m  c #5A72B6",
"M  c #5576B8",
"N  c #5A76B8",
"B  c #557ABB",
"V  c #5B7ABB",
"C  c #5D7CB7",
"Z  c #6270AF",
"A  c #666EB1",
"S  c #6273B6",
"D  c #6177B8",
"F  c #637BBB",
"G  c #6C7CBB",
"H  c #717EBC",
"J  c #7474B5",
"K  c #4B7EC0",
"L  c #567FC0",
"P  c #557FC0",
"I  c #5A7FC0",
"U  c #827BB7",
"Y  c #548292",
"T  c #6D8191",
"R  c #708596",
"E  c #5A8BA9",
"W  c #5F90A4",
"Q  c #4B8DBE",
"!  c #5C85BB",
"~  c #5684B8",
"^  c #5B95B1",
"/  c #608CA4",
"(  c #6A90AB",
")  c #769BAF",
"_  c #6D82BE",
"`  c #6387B9",
"'  c #7283BF",
"]  c #6593B9",
"[  c #7391BF",
"{  c #4C84C2",
"}  c #4989C7",
"|  c #468AC7",
" . c #5181C2",
".. c #5382C2",
"X. c #5C83C1",
"o. c #5D88C5",
"O. c #558AC7",
"+. c #6484C1",
"@. c #6886C2",
"#. c #6B83C0",
"$. c #658AC5",
"%. c #6B8BC5",
"&. c #6C8FC8",
"*. c #7387C1",
"=. c #738BC5",
"-. c #7D8EC5",
";. c #728FC8",
":. c #7C86C0",
">. c #6D93CB",
",. c #6C99CF",
"<. c #6E9DC6",
"1. c #7291C5",
"2. c #7E94C7",
"3. c #7393CB",
"4. c #7D94CA",
"5. c #7798CD",
"6. c #7B99CD",
"7. c #7B9BC2",
"8. c #759CD1",
"9. c #7C9ED1",
"0. c #79A2D5",
"q. c #77ACCC",
"w. c #8496AF",
"e. c #8497B9",
"r. c #9396BE",
"t. c #888FB9",
"y. c #8CA4BB",
"u. c #99ABB8",
"i. c #868EC5",
"p. c #849DCF",
"a. c #8C9BCD",
"s. c #8595C9",
"d. c #9897C9",
"f. c #859FD1",
"g. c #A89FCC",
"h. c #9FA3C5",
"j. c #97BDC6",
"k. c #98BFC7",
"l. c #85A3D3",
"z. c #89A5D4",
"x. c #8DABD7",
"c. c #8DAEDA",
"v. c #94ABD6",
"b. c #95AFD9",
"n. c #99A6D2",
"m. c #89B3DF",
"M. c #94B2DC",
"N. c #9DB3DB",
"B. c #97B8DF",
"V. c #AAB9C6",
"C. c #BABBC7",
"Z. c #A4ABD4",
"A. c #AAACD3",
"S. c #A6B3D9",
"D. c #BAB4D5",
"F. c #BAB6D9",
"G. c #A2BCE0",
"H. c #ABBEE1",
"J. c #C0BADA",
"K. c #95C7D4",
"L. c #AFC0C9",
"P. c #BECDDF",
"I. c #9DC0E3",
"U. c #A7C0E2",
"Y. c #ADC4E4",
"T. c #B6C8E6",
"R. c #B4D2ED",
"E. c #B9D3EC",
"W. c #BED9EF",
"Q. c #B5D6E2",
"!. c #B1D6F0",
"~. c #C2C9D7",
"^. c #C4D3D8",
"/. c #DFEDCF",
"(. c #E1EDCB",
"). c #E1EDD8",
"_. c #ECF5DF",
"`. c #F1F6DC",
"'. c #C8CAE2",
"]. c #D0CCE3",
"[. c #C6D6EA",
"{. c #D5DBE8",
"}. c #C3DDF2",
"|. c #C4E4F7",
" X c #CCE1F4",
".X c #CBEAF7",
"XX c #DAECF5",
"oX c #D3EAF8",
"OX c #DAEDF9",
"+X c #D5E6F5",
"@X c #D8E4E7",
"#X c #EAEFEE",
"$X c #EEF5E0",
"%X c #F2F7E5",
"&X c #F5F9EE",
"*X c #FBFAEE",
"=X c #E0EEF8",
"-X c #E8EEF0",
";X c #E5F4FA",
":X c #ECF6FA",
">X c #E9F6F5",
",X c #F4F8F4",
"<X c #FCFBF5",
"1X c #F1F5F9",
"2X c #F5F9FB",
"3X c #FBFBFC",
"4X c #F5F7F8",
/* pixels */
"                                          ,.>.%.@.@.@.&.&.                                          ",
"                                        q.,.>.%.@.@.@.%.&.,.<.                                      ",
"                                      ^ Q P B M n n M B V X.X.W                                     ",
"                                ] X.......~ B N N V V I V N B B ~                                   ",
"                                +.V N V V B N M M N V I N N N N V 8                                 ",
"                              +.N m m m V V N N N V B X.m N N N m m N @.                            ",
"                          ! N z x x x m n n n n z M n B z m m N m x z x +.                          ",
"                        / V m Z x x m N M n n N n V N X.n n m z x x x S m F I                       ",
"                        ~ N m m z m n M n B n n z N N ..n N n n n m m m S D F                       ",
"                      ( B N N N z z n M B n z z n n M B N M B B M V N N S N V `                     ",
"                      X.m N N N M B V L B B M N N M M B c n B b K b c z x x m N                     ",
"                  ` N z h q l B B B B B B B B B n N N n B B L { y y e k m m x N E                   ",
"                  ! z j h q l L V B M B c B B B N M n N n B B b y e 0 l m m x N !                   ",
"                  B z j f g k L L M n B B B B B M m m m B n B b e e 0 l n m m m ~                   ",
"                  N z j h g k B N m n z B P L { B n n z M M M n l q q k n m m N V                   ",
"                  V x x z z M M z z z z n P P  .B m m z n z n M z z k n n n n N V                   ",
"                  N x S x n n N z n z z n V .. .B m m x z z n N n n z n M n z M V                   ",
"                  F N m m M N N z z z n n B B X.B x m x n n n N N m n n M n n M M                   ",
"                  N m Z z m N n n n n n n B n N N m n m N n n m n n n M M M n N B                   ",
"                  N m x z m M B B B M M n N N n n m N B V N N n M M n M M N m m V                   ",
"                  N m m x m M b ..L B B M N n m m N N B V V n n B B B B B m n m B                   ",
"                  N N S x N B B  . . .B B n m m m n N L V B M B I V L B M M n m V                   ",
"                  P F +.m m N V L B b B N S S m V V B n M n n V M V _ S x x x n  .                  ",
"                { B I G F N V B B L B B N m m x N n n B n n n +.V N m x m N V V  .} |               ",
"                { c V @.F m N B B L B B N m m x n M B n n n n @.V V N x D N F B  .} }               ",
"              | O.I X.F D N N V B L ..V V N n z n n n B M B V V V V F V N V V O. . .~ O.            ",
"          ` o. .8.%.N k h z n B +...I B V V N N n B n B N F +.n &.>.5.$.l t r b X.X.V N F           ",
"          =.5.8.9.! n g 9 g k c &.+.X.B B V V B n B B V N F @.I l.0.8. .w 6 6 t B X.@.V N f         ",
"        ` 4.f.N.l.n l 8 7 9 q l >.$.X.B M V I V M M N I S F G ;.G.m.0.b 2 2 $ 9 N ` @.G m N F       ",
"      V -.H.[.oXp.7 > 3 7 ; 3 9 5.x.5.$.M B B V M M M N A G i.R.OXK.E % 2 4 ; 5 j G s.a.F N M +.    ",
"  ` @.H G.oX=X2X2.$ $ ; 4 & - < 2.}.U.z.B M B B M N N N A d.F.;X=Xj.a . 3 5 5 5 f H n.T.l.;.L X.    ",
"  F G *.Y.OX;X2Xs.- ; $ ; @ * s e.OXR.N.I B B M N N N F J Z.{.:X=Xj.a @ 4 5 5 5 f H Z.+Xb.5.X.O.    ",
"1.x G ' }.;X:X2Xe.* - - @ . = p w.2X XU.+.M M B M N N F U D.1X2X=Xk.Y # - > 5 , f ' S.;XH.0.o... . .",
"[ S G i..X>X4X3XV.p = X & o + d ~.2X:XOXI +.N c V m S F d.'.2X2X:XQ.p.u , , , 1 t.A.'.2X}.B.o.P P P ",
"1.S H -.oX/.`.<X3X~.y./ O R u.~.3X3X2X=XF N M n F m x G g.].2X2X2X:X>XS.Z i u d.{.-X<X2XR.z.L B F X.",
"1.S ' -..X(.`.*X3XXX'.V.u.V.~.).2X2X:X=X#.m n n F m m F g.].2X2X,X1X>X XA.A.d.~.%X,X<X2XE.c.+.N B B ",
"1.G ' i..X/.`.*X3X2X2X3X3X2X2X1X2X2X:X;X#.m z m +.n n F d.'.2X2X,X2X3X3X:X2X3X1X<X<X*X2XW.b.@.N n m ",
") G ' =..X).%X<X3X3X3X:X2X3X3X3X2X2X=X}.#.D N D F n n I :.Y.2X2X_.%X&X3X3X3X3X3X<X%X_.>XR.b.#.x x x ",
"  @.G F R.XX>X2X3X3X3X3X3X2X2X2X2XOXE.S.D F F F N B B L *.Z.}.2X&X%X$X3X3X3X<X3X2X2X4X.Xc.;.m z D D ",
"  @.F m B..XOX2X3X3X3X3X3X3X2X2X:X}.G.a.x G F D M B c ..F p.U.oX,X,X,X3X3X3X3X3X2X:X;X!.5.@.n m     ",
"  $.V x v.!.oX1X2X2X3X3X3X3X2X1X;XY.x.%.x F D D n P L ..m %.f.}.2X2X3X3X3X3X3X3X2X:XOXB.+.I N V     ",
"      x #.2.b.Y.=X3X3X3X3X2X;XOXG.5.@.N m S m N c P b { $.+.X.6.[.+X1X<X<X3X3X>X|.Y.N.*.B F @.$.    ",
"      D S m ' 4.a.A.F.F.F.Z.n.f.>.B B V #.x m N c { { { K { ..+.i.i.d.D.D.C.C.V.7.;.#.N m N B       ",
"          S @.&.1.a.a.d.a.4.3.>.$.V V V F m N N n b c K {  .L F H H ' a.p.f.z.6.%.@.F F V g         ",
"          m F ! D F F F F X.I B X.V N V N M n B n c B c Q  .B m x m N I o.o.o.X.V N N F !           ",
"              ] V N N N V X.B B V N N N M B n n n n n B {  .B N m m N N X.X.o.o.N N V +.            ",
"                +.N m m M L B B B n n m N n n c n c c c B B M n m n N M L I I I N V X.              ",
"                  N n z M L B B M n n n n M n n z n n B M M M n c n n B B B V V N q                 ",
"                  N M n M B B B B z n n n n n n z n n B n n n n n n n P M M M M m                   ",
"                  c z z k c c k c k k c z z k z z k k c k z z k c c z k c k k z n                   "
};
