/* XPM */
static char *cobra_baixo_xpm[] = {
/* columns rows colors chars-per-pixel */
"40 40 195 2 ",
"   c None",
".  c #284A7A",
"X  c #425A7E",
"o  c #1D4887",
"O  c #1F4896",
"+  c #2E4E86",
"@  c #204488",
"#  c #244989",
"$  c #21469A",
"%  c #284A9F",
"&  c #264797",
"*  c #34469C",
"=  c #39499E",
"-  c #38479A",
";  c #255C9B",
":  c #3A5997",
">  c #325398",
",  c #2E4BA1",
"<  c #214EA1",
"1  c #324DA2",
"2  c #384BA0",
"3  c #2558A7",
"4  c #2651A2",
"5  c #315FAD",
"6  c #3C5BA9",
"7  c #3453A4",
"8  c #2E63AE",
"9  c #3764AF",
"0  c #2F69B2",
"q  c #3B67B1",
"w  c #316FB3",
"e  c #3F70B7",
"r  c #485194",
"t  c #4C678A",
"y  c #576F89",
"u  c #49669B",
"i  c #526A93",
"p  c #505DA8",
"a  c #4462AE",
"s  c #4E63AE",
"d  c #4A6BAB",
"f  c #5764AA",
"g  c #4F70A0",
"h  c #577BAF",
"j  c #4867B0",
"k  c #466AB3",
"l  c #4D6DB5",
"z  c #4365B0",
"x  c #5067B1",
"c  c #536EB5",
"v  c #596EB4",
"b  c #4E71B7",
"n  c #4576BA",
"m  c #4C74B9",
"M  c #457BBD",
"N  c #4D7CBF",
"B  c #5571B6",
"V  c #5A72B7",
"C  c #5A7AB4",
"Z  c #5575B9",
"A  c #5A76B9",
"S  c #557CBD",
"D  c #5A7ABC",
"F  c #527AB4",
"G  c #797DAF",
"H  c #6872B6",
"J  c #6177BA",
"K  c #637CBD",
"L  c #697EBE",
"P  c #7176B8",
"I  c #777EB4",
"U  c #547FC0",
"Y  c #5B7FC0",
"T  c #607FC0",
"R  c #6F8298",
"E  c #668F9E",
"W  c #6B929F",
"Q  c #4F81BC",
"!  c #5683B5",
"~  c #5F80BF",
"^  c #5982BB",
"/  c #788DAB",
"(  c #6880BF",
")  c #6086B9",
"_  c #4E81C2",
"`  c #5482C2",
"'  c #5B83C2",
"]  c #6384C3",
"[  c #6A85C3",
"{  c #6589C6",
"}  c #6D8AC4",
"|  c #648DC9",
" . c #6A8DC9",
".. c #7585C2",
"X. c #738DC6",
"o. c #7A89C4",
"O. c #689DC7",
"+. c #6B97CF",
"@. c #6694C1",
"#. c #7495CD",
"$. c #7A93C9",
"%. c #7B9BD1",
"&. c #8395A4",
"*. c #80A3B4",
"=. c #888EC6",
"-. c #8385C0",
";. c #8F91C7",
":. c #849ACE",
">. c #8395C6",
",. c #919ECF",
"<. c #9192C8",
"1. c #96ACCC",
"2. c #83A3D5",
"3. c #8CA5D5",
"4. c #86A9D8",
"5. c #94A6D3",
"6. c #9DA4D1",
"7. c #92ADDA",
"8. c #9BAED9",
"9. c #9BB2D9",
"0. c #A6B8CF",
"q. c #A2A5D2",
"w. c #A6B1D7",
"e. c #A6B9DF",
"r. c #ABB7D8",
"t. c #B5BCDD",
"y. c #B7B8D9",
"u. c #A8BFE3",
"i. c #A5BDE2",
"p. c #B8C6CE",
"a. c #B5C5D3",
"s. c #B6CCDB",
"d. c #A6C3E4",
"f. c #AFC8E7",
"g. c #AACBEA",
"h. c #AFC1E2",
"j. c #B4C3E3",
"k. c #B4CDEB",
"l. c #BDD3ED",
"z. c #BBD9EF",
"x. c #BED9F0",
"c. c #C1C9D7",
"v. c #C7CBDD",
"b. c #C7D3DB",
"n. c #E3EFCE",
"m. c #E3F0D5",
"M. c #C4C1E0",
"N. c #C7CDE7",
"B. c #CACBE5",
"V. c #C8DEE5",
"C. c #CAD5EB",
"Z. c #CDD9ED",
"A. c #C5D8E8",
"S. c #DADCED",
"D. c #C5DBF1",
"F. c #CBDFF4",
"G. c #E4DFED",
"H. c #D3E0E7",
"J. c #CAE4F4",
"K. c #D1E4F6",
"L. c #D6E8F5",
"P. c #DCECF8",
"I. c #D5EDFA",
"U. c #DFF0FC",
"Y. c #DDF1F1",
"T. c #E1E1E7",
"R. c #E1E9EC",
"E. c #E7F2EC",
"W. c #F2F7E3",
"Q. c #F3F8EC",
"!. c #F5F8E7",
"~. c #E5ECF5",
"^. c #EBEFF5",
"/. c #E0E6F4",
"(. c #E7F5F5",
"). c #EFF5F5",
"_. c #EFF8F4",
"`. c #E4F3FB",
"'. c #EEF7FC",
"]. c #EBF6FB",
"[. c #EEF8FC",
"{. c #F7F7F6",
"}. c #F2F9F3",
"|. c #FCFCF4",
" X c #F4F5FA",
".X c #F7FBFD",
"XX c #F6FAFD",
"oX c #F4FAFC",
"OX c #FBF8FB",
"+X c #F8FBFD",
"@X c #FBF9FC",
"#X c #FDFBFD",
"$X c #FEFBFC",
"%X c #FBFDFD",
"&X c #FBFCFC",
/* pixels */
"A A A A Z D C A A A b b b B b b c c b c c c c b b c m b m b V V A A Z A A A A A ",
"A A A A A A Z A A D S Z Z B B Z Z Z B B v c B B c B Z Z U D A A A A A C A Z A A ",
"A Z A A A A A A A D ^ D A B Z Z S Z B m c Z Z Z Z Z Z Z S Z A A A A A A A A S A ",
"A A A Z A A A A ' ' ' D A B Z A U U Z Z b Z Z A A V D S U Y A A A A A A A A C A ",
"A A A A D D D K { |  .] J A V D _ Q b Z B Z V D A A T ' ] [ T L L J D A A A A A ",
"A A A A A K [ X.1.1.6.6.-...( ' _ _ N N Z A V T D D { #.:.5.q.q.,.#.} J Z A A A ",
"A A A D D X.7.d.S.H.G.T.B.j.3.' ` ` _ U Z A V J D { %.f.Z.S.G.G.S.j.3.$.A C A A ",
"Z A A T } d.L.(.+X#XOX#XXX XD.2.{ Y U U Z A K V X.7.D.`.oX#X#XOX XoXK.g.[ A A A ",
"A A Z [ 4.J.(.oXXX#X+X#XQ.}.`.k.:.D S S A J K H 5.k.P.'.XX+X#X%X%XoX(.J.4.D A D ",
"A A A $.d.Y._.{.+X#X#X#XW.W._.P.8.[ S A A K J L j.K.].XXXXXXXX%X#X&X).Y.g.C C V ",
"Z A ] 3.D.}.!.|.{.OXoXXX}.Q.}.XXt.o.A V K A V T P.].oX XoXoXoXXX+X|.!.m.l.[ A D ",
"A A ~ 3.D.OX{.}.c.y.t.Z.[.[.oXXXM.=.A V K V A T `.oXXXY.b.p.a.A.(.|.W.n.z.o.L ( ",
"S Y ^ %.D.oXR.v.G r f $.L.(.oXXXM.<.H V D B A K U.[.E.p.&.y t / a.OX!.m.x.o.D D ",
"` S ' 4.D.^.r.I - * * > / A.[. Xy.-.A V S Z D T J.(.c.G X . # + i c.oX(.l...' U ",
"N _ ` #.C. X6.p = 2 * o W V.(.~.q.P A A A S Z ( i.J.0.y + o O # : r.].`.d.] U U ",
"S S S  .C.^.t.f * 2 , o W (.].A.<.H A A Z Z S D 7.k.9.s # & $ O > e.`.I.8.S Q S ",
"S S S D 5. Xw.A , < < ; s.^.N.:.P H Z Z U A Y Z { %.%.k , < 1 1 a 7.l.i...S S Z ",
"U ^ D S $.t.6.D 5 < 3 n C.P.8.[ K J Y Z Z Y Y Z Y Y  .B z 6 6 j D +.#.$.Q S S D ",
"U S S S ( #.{ D e 8 q Y u.C.:.T J Y Z Z Z A Y A U Y T A c j j Z { ' ' ' S S S D ",
"S S A S S S ` ` Y Z Z D o.5...Y A Z S Z c v V Y Y Y U Y A V V T ' ` S U U S D D ",
"A D D S S U ` _ D K V V A J T A Z Z Z Z V v V A Z U U Z A T T K N S ` Q Q D A D ",
"D D Z D S S U ` A A V v A A Y A Z Z Z U V V V A S U Z Y A A L T S S N S S D D   ",
"  D D D S D U U V Z V D Y Y U Z Z U Z A A V V V U U U U A V H A S _ U S D D D   ",
"    D S Z S S U V Z A Z Z Y V Z A Y A A V V V U A S U U Z V V Z U S U S D A     ",
"    D D S S S Q V Z A U Z c Z V A A A A V Z Z Z Z Z Z S A Z v Z S N S D D       ",
"      D D S S S Z Z Z Z Z V Z V Z Z V V Z Z S A Z B B A A V V A U N S D A       ",
"      S S D Z S V B Z B c Z V Z Z c v V U U S B c v c Z A v V A S U D D         ",
"        S D D S A B A b l c B V V c Z V D U U Z c c B V Z c c V U S S A         ",
"          D Z D A V A l q q m Z Z Z V B U U U S Z Z A Z l a s x U S S           ",
"            F C A A V l 8 0 e U Z Z Z V Z S S Z A Z S S k a s c Q S S           ",
"            u h A V V b 0 w e ` Z Z Z V A Z S S S Z S S k a x V S S             ",
"                V V V b m M U U S Z Z Z A A Z Y S S S A B c A B D               ",
"                ) V J J V A Z Z Z A Z Z B B B Z Z B c V V C C h                 ",
"                  J D V V V B B V U U A B B Z Z Z v v V J ^ C                   ",
"                    V V v V B B B Z A A V B Z B V v v v A ^                     ",
"                      ( V V A A V A Y A V A Z Y A V V T                         ",
"                          d D A V D D Y A A S ^ Y A ]                           ",
"                            ! D D D D A A D S ' ! Z )                           ",
"                              @. .{ ] ' Y ] | O.                                ",
"                                g  .{ [ [  .+.                                  "
};
