/* XPM */
static char *cobra_direita_xpm[] = {
/* columns rows colors chars-per-pixel */
"50 50 208 2 ",
"   c None",
".  c #16457D",
"X  c #23477C",
"o  c #314E70",
"O  c #435D7C",
"+  c #50647E",
"@  c #1E4B8C",
"#  c #1A4983",
"$  c #1F459A",
"%  c #1B4A98",
"&  c #1B568E",
"*  c #274A8F",
"=  c #2E4F8A",
"-  c #224186",
";  c #3B438D",
":  c #385381",
">  c #23449B",
",  c #21499C",
"<  c #254795",
"1  c #34449B",
"2  c #35489E",
"3  c #3B479E",
"4  c #3C5996",
"5  c #1E50A1",
"6  c #2B4CA1",
"7  c #274CA0",
"8  c #324CA1",
"9  c #3C4DA1",
"0  c #2154A4",
"q  c #2B5CAA",
"w  c #3253A4",
"e  c #3B5AA9",
"r  c #385DA8",
"t  c #2E62AE",
"y  c #3E62AE",
"u  c #3160AD",
"i  c #2F68B3",
"p  c #326BB3",
"a  c #3B6AB3",
"s  c #3372B5",
"d  c #494F8E",
"f  c #445F90",
"g  c #565E9E",
"h  c #4C6388",
"j  c #4C7D8C",
"k  c #507E8F",
"l  c #6D7F8F",
"z  c #667D9C",
"x  c #4759A7",
"c  c #4362AD",
"v  c #4B62AD",
"b  c #5164AF",
"n  c #4466B0",
"m  c #4C6DB5",
"M  c #456AB3",
"N  c #5167B0",
"B  c #546DB4",
"V  c #596EB4",
"C  c #4E70B7",
"Z  c #4C7ABD",
"A  c #4B77BB",
"S  c #5571B7",
"D  c #5A71B7",
"F  c #5575B9",
"G  c #5A76B9",
"H  c #557ABD",
"J  c #5B7ABC",
"K  c #5F7BB5",
"L  c #626FAF",
"P  c #666DB3",
"I  c #6272B6",
"U  c #6275B9",
"Y  c #637BBC",
"T  c #6C7DBD",
"R  c #717EBD",
"E  c #7573B5",
"W  c #4C7EC0",
"Q  c #557FC0",
"!  c #5B7FC0",
"~  c #827AB9",
"^  c #568191",
"/  c #6F8394",
"(  c #5B8BA7",
")  c #4D8CBD",
"_  c #5B83B3",
"`  c #5883BB",
"'  c #5C94B0",
"]  c #668DA7",
"[  c #638AB7",
"{  c #6A81BE",
"}  c #6784B9",
"|  c #7481BF",
" . c #7491BD",
".. c #6594B7",
"X. c #4C84C4",
"o. c #4A89C8",
"O. c #498AC7",
"+. c #5482C2",
"@. c #5C83C2",
"#. c #5D88C6",
"$. c #578AC8",
"%. c #6383C2",
"&. c #6A84C2",
"*. c #668AC7",
"=. c #6B8AC6",
"-. c #6A8EC9",
";. c #678BC8",
":. c #7284C1",
">. c #728BC6",
",. c #7E8DC7",
"<. c #728FC9",
"1. c #7C8FC8",
"2. c #7C86C2",
"3. c #6C93CB",
"4. c #6F9DC5",
"5. c #7392CB",
"6. c #7D94CA",
"7. c #7798CF",
"8. c #7B98CF",
"9. c #7895C4",
"0. c #6B99D1",
"q. c #769CD2",
"w. c #7C9ED2",
"e. c #7AA3D6",
"r. c #77ACCC",
"t. c #8596AF",
"y. c #8497BA",
"u. c #8E92BB",
"i. c #96A8B9",
"p. c #87A6BB",
"a. c #858EC7",
"s. c #8C9ACD",
"d. c #8495CA",
"f. c #9897CA",
"g. c #849DD1",
"h. c #889ED1",
"j. c #A89FCE",
"k. c #97BEC6",
"l. c #98BFC7",
"z. c #86A1D3",
"x. c #89A5D5",
"c. c #8CABDA",
"v. c #83A6D8",
"b. c #94AEDA",
"n. c #98A6D3",
"m. c #94B2DD",
"M. c #9CB3DD",
"N. c #A4A9CA",
"B. c #AAB9C6",
"V. c #BBBBC7",
"C. c #A3ABD4",
"Z. c #ACABD5",
"A. c #A5B2DB",
"S. c #BAB5D9",
"D. c #B9B4D0",
"F. c #88B3E0",
"G. c #9BBBE3",
"H. c #A8BEE3",
"J. c #C0B9DC",
"K. c #95C7D4",
"L. c #AFC0C9",
"P. c #BDCDDE",
"I. c #B5D4DF",
"U. c #9CC0E5",
"Y. c #A6C0E4",
"T. c #ADC4E6",
"R. c #B6C8E7",
"E. c #B3D2EE",
"W. c #BBD3EE",
"Q. c #B4D5F1",
"!. c #BED9F2",
"~. c #BDD7F0",
"^. c #C2C9D7",
"/. c #C3D2DB",
"(. c #DFEECF",
"). c #E0EECB",
"_. c #EDF5DE",
"`. c #E1F0D8",
"'. c #F0F6D9",
"]. c #C7CDE4",
"[. c #CBC8E4",
"{. c #CAD8ED",
"}. c #D5DAE8",
"|. c #C4DDF4",
" X c #CADFF4",
".X c #CDEAF9",
"XX c #C9E7F7",
"oX c #D4EBFA",
"OX c #DCEEFA",
"+X c #DAE5F2",
"@X c #DDF1FB",
"#X c #DBF0F3",
"$X c #D7E3E5",
"%X c #E8EEED",
"&X c #F0F7E5",
"*X c #F4F9ED",
"=X c #FCFAED",
"-X c #E4F4FB",
";X c #ECF6FB",
":X c #EEF9FC",
">X c #EAF6F4",
",X c #F2F9F5",
"<X c #FBFCF3",
"1X c #F3F5FB",
"2X c #F4FAFD",
"3X c #FDFDFE",
"4X c #FBFBFD",
"5X c #F8F6F7",
/* pixels */
"G G G G G J G G G G F G G J <.9. . .                                                                ",
"G G G G G F G G G G G J G G I I I V Y }                                                             ",
"G F G F G H G G G G G G G Y { T R T T {                                                             ",
"G G G G G G G G F F F G } 6.a.,.,.:.:.T K                                                           ",
"G J F G G G S G Y <.b.E.XX.X.X.XoX!.T.A.6.}                                                         ",
"G G G G G G D K 8.E.XX#X`.).(.(.>X-X@XoXH.6.<.}                                                     ",
"G G G G G J } &.b..XoX>X&X'.'._.,X;X-X@XW.g.5.@.                                                    ",
"G G G G G _ =.6.T.2X2X2X<X=X=X=X3X1X2X:XoXG.q.$.O.                                                  ",
"G G H G G J >.s.OX2X4X4X4X3X3X4XB.y.d.6.g.h.w.q.$.X.X.                                              ",
"G G G G K Y s.Z.3X5X2X4X4X4X+XP.h = < - w Q Y =.@.H H H G G G G U J J G J @.[                       ",
"G H G G G J s.S.4X4X4X3X2X4X/.p.o < $ $ 6 M C ! Y J J Y U D D D I D D B B G J                       ",
"S F G G G J f.J.4X3X3X3X;X2XB./ X < $ 7 6 e x m Y Y &.&.D D D V D D V N v N B Y ]                   ",
"m K G G G J s.S.5X4X4X4X2X2Xi.O X @ , 7 6 w x n U Y Y D V V V V D V B x x v v S H _ ]               ",
"C H H H %.` 8.C.4X4X2X4X2X2XL./ o X - - $ e n m G J G D G G S G G S B n y e y G J G J _             ",
"C H H H H @.5.n.-X2X2X2X4X2X/.i.+ : = < 6 n M S J J J G H F G G G S S C C M m G U D D J             ",
"C H Z F H H 3.h.oX;X1X2X2X2X$X^.l h f 4 r M S G J G J J Z H H G G D H H Q Q H G G D V V #.          ",
"C F F Q ! Y ;.-.G.-X;X;X2X4X2X4X^.t.y.9.7.5.*.%.H H H H X.Q H G B B B G Q H H H B B V V J %...      ",
"C S S S G J G Q q.T.|.OX2X2X2X2X2X2XOX|.c.;.%.@.Q Q H H +.Q H S B V C D S H H J V S V V S G @.      ",
"B S S G G G ! ! *.x.H.W.@X;X;X;X-XXXE.Y.7.@.@.! Q H Q H Q H H S V C B S H H H H S D D V D J @.      ",
"C S S S G ! G ! G >.h.M. X-X-X@XOXY.M.x.;.H H H J H H H Q H G S B S B S S H H ! F S D D G G Q '     ",
"B S F F D G Y T I V I U &.:.T Y J %.! J F H H J J J G J F G F G G S F F F H Q ! F F G H G ! Q ) r.  ",
"m S F S H G G D D Y T Y G D D G Y G H F H ! J J D D D I G S S H H H Q Q Q Q F ! F F S S G ! H Q 0.0.",
"B S S S S H G D G U U Y G D S H J F F H H J J J D D D I G S G G H Q Q Q F F H G S S S S G G Q Q 3.3.",
"B S S C S H G U G U G Y Y D S S S H H H J J J S V V V D S S S F Q +.+.W H Q F G C S S S G G G H ;.;.",
"B C C S S F C A S S F H J Y Y Y ! G F G F F F S S S S J D D S G Q F ! H F G F G V S S D G D G S &.&.",
"C C F C S F F W W Q H H S D S D D G G F G F H H S H G J D G G G D D B D G S F G S H G S G J J H *.*.",
"B C S F F C W W Q H H H S S D D D U G G Q F F F F H G J G G F D D D S D S F G F F H G H J J J S *.*.",
"C F F F A F Q X.X.+.Q Q ! Y Y T Y U U U G ! ! ! F A S A Q Q G D V S V S D F F G Q Q @.H ! ! ! H =.=.",
"m G H H W +.X.X.*.G J :.2.f.f.Z.j.~ E P P D G Y H S F F ! ! J G C S S G H A F F G D S S D G G Y -.-.",
"B S F H Q +.X.X.%.>.h.M.R.[.[.[.J.S.Z.f.R Y Y Y G F S F G G G D S S S S H F F F H S S D G G J %.3.  ",
"m S G F J H ! +.@.g.Y.|.;X4X2X4X1X1X}.S.a.T &.Y J S F S H F F D S D S G G Q Q H H S S D G G G +.4.  ",
"C S S D G D U %.w.~.oX:X2X1X2X2X2X2X:X-XE.-.! F Y %.%.G G F F S G G S F A W X.W F S S D G J ` ]     ",
"C S S S S D T a.{.1X,X*X_.*X1X2X>X-X-X-X#XU.v.-.J J J H ! H S D G S C M p p s W G S D V D H `       ",
"C F S S G D &.a.+X2X,X&X&X,X:X;XP.K.k.k.K.F.e.5.` U G J ! G F S S S B n i p p W H G V V G x         ",
"m S H S G G | f.1X4X*X_.*X2X;X-Xy.^ k j ( e.0.q.Y D D :.Q H S S S B m y u i i F G D D B G           ",
"m H H H J G s.D.4X4X4X3X4X2X{.A.4 @ # . & A +.;.J V V I H H H H G S S M M M M S D D I V %.          ",
"S F H ! @.#.s.V.5X5X4X4X4X;XZ.L 1 > 6 6 0 0 u a G D U V G H H S G S H D S D D V I G D &.            ",
"S H H ! #.#.s.J.5X4X4X4X3X2XC.g 1 3 1 8 7 0 q a J U G V S S S H F S S D D D D V G U Y               ",
"G G G H #.#.x.L.4X4X4X4X4X5XN.d 1 9 9 8 > % q i ! Y J V S S G G C S S G D D D D U Y `               ",
"G G G H ! @.w.B.;X4X4X4X4X1X^.u.; 3 3 8 8 q a A @.J J S G S D G G G G D D G D H [                   ",
"G F G G J J >.9.|.1X2X2X<X<X%X}.u.x x x N H ! @.$.+.+.+.J J H J H J J J J _ (                       ",
"G G G G K J { <.R.-X;X2X&X<X*X%XN.2.R E T Y Y ! +.O.O.                                              ",
"G G G G G G Y &.M.oX-X;X_.*X<X4X].A.C.n.d.:.%.! X.) O.                                              ",
"H G G G G G Y J &.G.E.XX>X2X2X2X2X-X XW.s.U U G #.                                                  ",
"G G G F G F G G G *.q.c.E.~.W.E.|.Y.m.z.Y D G Y                                                     ",
"G G J G G G F G Y Y ;.<.m.b.c.x.m.e.7.<.Y G x                                                       ",
"G G G G G G G G G G G D &.&.} Q #.@.@.H G J                                                         ",
"G G G G G G G G H G G G D J G H Q $.+.@.#.                                                          ",
"G G G G G G F F G H G G S G G ` ` +.                                                                ",
"G H G G G G K F G G G G D S J ` Q $.                                                                "
};
