/* XPM */
static char *cobra_direita_xpm[] = {
/* columns rows colors chars-per-pixel */
"50 50 207 2 ",
"   c #16457D",
".  c #23477C",
"X  c #314E70",
"o  c #435D7C",
"O  c #50647E",
"+  c #1E4B8C",
"@  c #1A4983",
"#  c #1F459A",
"$  c #1B4A98",
"%  c #1B568E",
"&  c #274A8F",
"*  c #2E4F8A",
"=  c #224186",
"-  c #3B438D",
";  c #385381",
":  c #23449B",
">  c #21499C",
",  c #254795",
"<  c #34449B",
"1  c #35489E",
"2  c #3B479E",
"3  c #3C5996",
"4  c #1E50A1",
"5  c #2B4CA1",
"6  c #274CA0",
"7  c #324CA1",
"8  c #3C4DA1",
"9  c #2154A4",
"0  c #2B5CAA",
"q  c #3253A4",
"w  c #3B5AA9",
"e  c #385DA8",
"r  c #2E62AE",
"t  c #3E62AE",
"y  c #3160AD",
"u  c #2F68B3",
"i  c #326BB3",
"p  c #3B6AB3",
"a  c #3372B5",
"s  c #494F8E",
"d  c #425F88",
"f  c #445F90",
"g  c #565E9E",
"h  c #4C6388",
"j  c #4D7D8C",
"k  c #507E8F",
"l  c #6D7F8F",
"z  c #667D9C",
"x  c #4958A6",
"c  c #4362AD",
"v  c #4B62AD",
"b  c #4C6AA0",
"n  c #526AAD",
"m  c #5472AC",
"M  c #4466B0",
"N  c #4C6DB5",
"B  c #456AB3",
"V  c #5167B0",
"C  c #546DB5",
"Z  c #596EB4",
"A  c #4E70B7",
"S  c #4D7ABD",
"D  c #4B77BB",
"F  c #5571B7",
"G  c #5A71B7",
"H  c #5C7EB7",
"J  c #5575B9",
"K  c #5A76B9",
"L  c #557BBD",
"P  c #5A7ABC",
"I  c #626FAF",
"U  c #666DB3",
"Y  c #6275B9",
"T  c #637BBC",
"R  c #6D7EBE",
"E  c #6173B7",
"W  c #717EBD",
"Q  c #7573B5",
"!  c #4C7EC0",
"~  c #547EC0",
"^  c #5B7FC0",
"/  c #827AB9",
"(  c #568191",
")  c #6F8394",
"_  c #5F8BA7",
"`  c #4F87BB",
"'  c #5983B9",
"]  c #5C94B0",
"[  c #6A80BF",
"{  c #648AB7",
"}  c #7481BF",
"|  c #6594B7",
" . c #4D84C4",
".. c #5481C2",
"X. c #5C83C2",
"o. c #5E88C6",
"O. c #5B8CC9",
"+. c #6383C2",
"@. c #6A84C2",
"#. c #658AC6",
"$. c #6B8AC6",
"%. c #6A8EC9",
"&. c #678BC8",
"*. c #7384C1",
"=. c #728BC6",
"-. c #7E8DC7",
";. c #728FC9",
":. c #7C8FC8",
">. c #7C86C2",
",. c #6D93CC",
"<. c #6F9DC5",
"1. c #7493CC",
"2. c #7C93CA",
"3. c #7798CF",
"4. c #7C98CF",
"5. c #7A96C4",
"6. c #6B99D1",
"7. c #779AD1",
"8. c #7D9CD1",
"9. c #7FA3D5",
"0. c #77ACCC",
"q. c #8596AF",
"w. c #8497BA",
"e. c #8E92BB",
"r. c #96A8B9",
"t. c #87A6BB",
"y. c #858EC7",
"u. c #8193C6",
"i. c #8D9BCD",
"p. c #8495CB",
"a. c #9897CA",
"s. c #849DD1",
"d. c #889ED1",
"f. c #A89FCE",
"g. c #98BFC7",
"h. c #85A0D2",
"j. c #89A5D5",
"k. c #8CABDA",
"l. c #94AEDA",
"z. c #98A8D3",
"x. c #9CB2DC",
"c. c #92B3DE",
"v. c #A4A9CA",
"b. c #AAB9C6",
"n. c #BBBBC7",
"m. c #A3AAD2",
"M. c #ACABD5",
"N. c #A4B3DB",
"B. c #BAB5D9",
"V. c #B9B4D0",
"C. c #9BBBE3",
"Z. c #A8BEE3",
"A. c #C0B9DC",
"S. c #AFC0C9",
"D. c #A6C1D1",
"F. c #BDCDDE",
"G. c #B5D4DF",
"H. c #A6C0E4",
"J. c #ADC4E6",
"K. c #B3C3E3",
"L. c #BBC1E1",
"P. c #B8CDE9",
"I. c #B3D2EE",
"U. c #BBD3EE",
"Y. c #B4D5F1",
"T. c #BED9F2",
"R. c #BDD7F0",
"E. c #C2C9D7",
"W. c #C3D2DB",
"Q. c #DFEECF",
"!. c #E0EECB",
"~. c #EDF5DE",
"^. c #E1F0D8",
"/. c #F0F6D9",
"(. c #C7CDE4",
"). c #CBC8E4",
"_. c #C8D4EB",
"`. c #CAD8EB",
"'. c #D5DAE8",
"]. c #C4DDF4",
"[. c #CADFF4",
"{. c #CDEAF9",
"}. c #C8E8F7",
"|. c #DBE6F2",
" X c #D4EBFA",
".X c #DCEEFA",
"XX c #DEF1FC",
"oX c #DBF0F3",
"OX c #D7E3E5",
"+X c #E8EEED",
"@X c #F0F7E5",
"#X c #F4F9ED",
"$X c #FCFAED",
"%X c #E9EBF4",
"&X c #E6EAF5",
"*X c #E4F4FB",
"=X c #ECF6FB",
"-X c #EEF9FC",
";X c #EAF6F4",
":X c #F2F9F5",
">X c #FBFCF3",
",X c #F3F5FA",
"<X c #FAF6FA",
"1X c #F4FAFD",
"2X c #FBFBFD",
"3X c #F2F7F2",
"4X c None",
/* pixels */
"K K K K K J H K H K K K K P 5.L ' ~ S ~ L P P L P K 4X4X4X4X4X4X4X4X4X4X4X4X4X4X4X4X4X4X4X4X4X4X4X4X",
"K K K J K K J K J K K J K K Y K ~ ~ ~ L L P P J P L G P 4X4X4X4X4X4X4X4X4X4X4X4X4X4X4X4X4X4X4X4X4X4X",
"K J K K K K K K K K J J K T } [ R ~ ~ L L L ~ P P P P P P P 4X4X4X4X4X4X4X4X4X4X4X4X4X4X4X4X4X4X4X4X",
"K K K K J K K K K K K J [ 2.:.-.-.*.+.' L S ~ ` L L P P P P P 4X4X4X4X4X4X4X4X4X4X4X4X4X4X4X4X4X4X4X",
"K K K K K J J K P :.l.I.}.{.{.{. XT.J.Z.:.P L L ! L ~ P P P P K H 4X4X4X4X4X4X4X4X4X4X4X4X4X4X4X4X4X",
"K K K K H K Y G 4.I.}.oX^.!.!.Q.;X*X.X XZ.2.;.L ~ L ~ ` K L P H K P P 4X4X4X4X4X4X4X4X4X4X4X4X4X4X4X",
"P K K K K K [ *.l.{.XX*X@X/./.~.:X-X*XXXU.j.#.~ L S ..S L L L P J L P J K 4X4X4X4X4X4X4X4X4X4X4X4X4X",
"K K K K K ' | 4.J.1X,X1X>X$X$X$X2X1X1X-X X1.~ ~ ..~ L ..S  .L ~ L L L L P ..4X4X4X4X4X4X4X4X4X4X4X4X",
"K K K K K P :.i.&X1X1X2X2X2X2X2Xb.w.u.2.s.1.X.+.L  .L S ..~ L ! ! L ~ L ~ ~ L 4X4X4X4X4X4X4X4X4X4X4X",
"K K J K K T p.M.2X1X2X2X2X2X|.F.d * , = q ^ ^ $.T L L ..` ~ L ~ ~ ~ ~ S ~ L ' J 4X4X4X4X4X4X4X4X4X4X",
"K K J K K P i.B.2X2X2X2X1X1XW.t.X < : # 5 M N ^ P P P T K J L L K K K C C K P m F 4X4X4X4X4X4X4X4X4X",
"K J K K K T i.B.2X2X2X2X1X1Xb.) . , # 6 5 w c V T @.[ [ E G Z Z E Z Z V v V C P H m 4X4X4X4X4X4X4X4X",
"N K K K K P i.B.<X2X2X1X1X1Xr.o . + $ 5 5 q x M Y T Y K Z Z C Z Z C C x c x v F J H _ 4X4X4X4X4X4X4X",
"A ' P P ^ X.s.m.2X2X1X1X2X1XS.) X . = = # w M N K K K K K K K K K J C M t c t K P P Y ' 4X4X4X4X4X4X",
"A ~ L J ~ ^ 2.z.*X1X1X1X2X,XW.r.h ; * & 6 c N J K K K K K J J K K F J N N B N K Y G K P 4X4X4X4X4X4X",
"A L D L J ~ %.h. X-X1X1X2X-XOXE.) h f 3 e N A K P ^ P ^ S L L K K K K P ~ ~ L K K G Z Z #.4X4X4X4X4X",
"A J ~ J ^ +.&.%.C.*X*X-X1X1X1X2XE.q.w.5.3.%.&.#.L L L L ! ~ ~ K C C C K ~ J J J F C Z Z K +.| 4X4X4X",
"A F F F K K P ~ 7.J.]..X1X2X1X1X1X1X X}.k.&.#.^ ~ P L L ~ ~ J F C C F G J J ~ K F G G Z K K X.4X4X4X",
"A Z F K K K P ^ &.j.Z.U.XX-X=X=X*X}.P.H.7.X.X.^ ~ L L L ~ P P F F C F F J J ~ ~ F G G Z K K ^ 4X4X4X",
"A F J K K K K ^ P *.s.x.[.*X*XXX XZ.x.j.#.P P P P P L L ~ ~ J F C C C F J ~ P ^ J F K G K P ~ ] 4X4X",
"C F F K P K T R Y Z E Y @.R R T T +.L L P K P P ^ K K K J J J J F F L F L L ~ ^ J J K J K ^ ~ ` 0.4X",
"C A F J J K K G G T T T G G K K +.K L P P L P P G G E E J K J K L P ~ ~ ~ P J ^ A J J F J ^ ~ ~ 6.6.",
"A F F A J J K G K Y Y T Y K J J K P L J L ^ P K K G G G G F K J ~ ^ ~ ~ L J J K F F F F K ^ K ~ ,.,.",
"C F F F J K K K Y Y Y T K G F J N J J L L P P K C Z Z E F G J K ~ ....! J L J K F F G F K K K L &.&.",
"V F F F A F J A A F J J T T T R ^ ^ J K J K J F A G K K K G K K ^ J J ^ J F J K F F F G K K K J @.@.",
"A A A A J J ! ! ~ ~ ~ L F F G G Z K K K J ~ J J J K J K K K J G C G K F G J K J J K K J P K P J $.#.",
"A F F J J A ! ! ~ ~ L L F G F G G Y K K J K J ~ J J J ^ K K K G G G G F K F J G J J K K P K P K #.$.",
"A J J J J J ! ~ ! ~ ~ ^ ^ T T T T Y Y K K ^ ^ ^ L A J A ^ ~ K G G G C Z G J K ~ ~ ~ X.~ ^ ^ ^ ~ &.$.",
"N J P L  . . .! &.J T *.>.a.a.M.f./ Q U U G K Y J J F J ^ ^ ^ G C F A J J J J J K K J C G K Y T %.%.",
"C F J J ~ .. . .#.$.s.x.Z.).).).A.B.M.a.R T T T K F J J J K K G F F G J L J L J K J F G K K K X.,.4X",
"N J J K P P ~ X.X.h.Z.[.1X2X1X<X,X1X'.B.y.R @.T ^ F J F J J J G F G G K ~ J ~ ~ J J F G K K J X.<.4X",
"N J F J J K Y +.7.T. X-X1X1X1X1X1X1X-X*XP.8.$.K ^ T +.K ^ J F F K K F A ! ! ! ! J F F K Y K ` _ 4X4X",
"C F F J G G R y.`.1X:X#X~.#X-X,X;X*X*X-X=X|.`.K.2.K P J ^ J J J K J C M i a a ! J J G Z K P ' 4X4X4X",
"A F J J G G [ y.|.1X3X#X@X:X-X-XP.g.OX+X%X&X&X(.z.K K P ^ J J J K C N M u i i ! K J Z Z G w 4X4X4X4X",
"A J J J K K } a.,X2X3X/.#X1X=X*Xw.( k j D.].P.x.T G K @.~ P J F F C N t 0 y u D K K G Z K 4X4X4X4X4X",
"A J J J L K i.V.<X2X2X2X2X1X`.N.3 + @   % S ' #.Y Z Z E ~ P J J K F C N B N N C G E G Z +.4X4X4X4X4X",
"A P L ~ X.X.d.n.<X<X<X<X2X=XN.I < : < 5 9 4 e p K K E Z K J J J J J J G F K G Z E K K +.4X4X4X4X4X4X",
"F K P ~ X.O.i.A.2X2X2X2X2X1Xm.g < < < 5 6 4 0 p K T K Z F K K J F F F K G G K G Y Y T 4X4X4X4X4X4X4X",
"K J K P O.O.j.S.<X2X2X2X<X<Xv.s < x 8 7 : 4 0 i ^ T T C J F J J F J F K G K G G K T T 4X4X4X4X4X4X4X",
"K K K P +.X.4.b.=X2X1X<X2X,XE.e.- 2 7 7 7 0 i D X.P P J J K G K J J K K K K K K { 4X4X4X4X4X4X4X4X4X",
"K K K K P P $.5.].1X1X1X>X>X+X'.e.x s x V ^ P X... . .~ ~ ` L L L ~ L L K H ' 4X4X4X4X4X4X4X4X4X4X4X",
"K K K K Y P @.1.J.*X=X,X@X$X#X+Xm.W W m.i.*.4X^ .. .~ ! L L L D L H K J F b d 4X4X4X4X4X4X4X4X4X4X4X",
"K K K K H K T @.C..X*X-X~.$X>X1X(.&X%X%X<X2Xx.T ..L L L P L L L P P H P L 4X4X4X4X4X4X4X4X4X4X4X4X4X",
"K J K K K K Y P @.C.I.}.;X1X1X1X1X<X<X,X<XB.z.&. .L ~ P L P L P L P P L 4X4X4X4X4X4X4X4X4X4X4X4X4X4X",
"K K K J K K J K G #.7.k.Y.T.I.I.}.Z._.P.u.2.X.L P L L P P L P K P J L 4X4X4X4X4X4X4X4X4X4X4X4X4X4X4X",
"K K H K K K J K T ^ $.;.l.l.k.j.c.9.1.,.P L P L P L L P L P P L L L 4X4X4X4X4X4X4X4X4X4X4X4X4X4X4X4X",
"K K K J K K P K K K K K @.$.+.' X.o.....~ P P P P P J L P P P L 4X4X4X4X4X4X4X4X4X4X4X4X4X4X4X4X4X4X",
"K K K K K K K K K K K K Z K P P L  .L L L L L P P P H L P P 4X4X4X4X4X4X4X4X4X4X4X4X4X4X4X4X4X4X4X4X",
"J K H J K K J K K J H J K K P ^ L ~ ..L L P ~ P P P P P 4X4X4X4X4X4X4X4X4X4X4X4X4X4X4X4X4X4X4X4X4X4X",
"K K K K K K K K K K K K G J P L ..S S L ` ~ ~ ~ P J P 4X4X4X4X4X4X4X4X4X4X4X4X4X4X4X4X4X4X4X4X4X4X4X"
};
