/* XPM */
static char *cobra_cima_xpm[] = {
/* columns rows colors chars-per-pixel */
"50 50 209 2 ",
"   c None",
".  c #16457D",
"X  c #23477C",
"o  c #314E70",
"O  c #435D7C",
"+  c #50647E",
"@  c #1E4B8C",
"#  c #1A4983",
"$  c #1D4799",
"%  c #1B568E",
"&  c #274A8F",
"*  c #284888",
"=  c #3B438D",
"-  c #385381",
";  c #23449B",
":  c #21499C",
">  c #254795",
",  c #34449B",
"<  c #35489E",
"1  c #3B479E",
"2  c #3C5996",
"3  c #1E50A1",
"4  c #2B4CA1",
"5  c #274CA0",
"6  c #324CA1",
"7  c #3C4DA1",
"8  c #2154A4",
"9  c #2B5CAA",
"0  c #3253A4",
"q  c #3B5AA9",
"w  c #385DA7",
"e  c #2E62AE",
"r  c #3E62AE",
"t  c #3160AD",
"y  c #2F68B3",
"u  c #326BB3",
"i  c #3B6AB3",
"p  c #3372B5",
"a  c #494F8E",
"s  c #445F90",
"d  c #565E9E",
"f  c #4C6388",
"g  c #4C7D8C",
"h  c #507E8F",
"j  c #6D7F8F",
"k  c #667D9C",
"l  c #4759A7",
"z  c #4362AD",
"x  c #4B62AD",
"c  c #5164AF",
"v  c #4466B0",
"b  c #4C6DB5",
"n  c #456AB3",
"m  c #5167B0",
"M  c #546DB4",
"N  c #596EB4",
"B  c #4E70B7",
"V  c #4C7ABD",
"C  c #4B77BB",
"Z  c #5571B7",
"A  c #5A71B7",
"S  c #5575B9",
"D  c #5A76B9",
"F  c #557ABD",
"G  c #5A7DBE",
"H  c #5B7ABC",
"J  c #5F7BB5",
"K  c #626FAF",
"L  c #666DB3",
"P  c #6272B6",
"I  c #6275B9",
"U  c #637BBC",
"Y  c #6C7DBD",
"T  c #717EBD",
"R  c #7573B5",
"E  c #4C7EC0",
"W  c #567FC0",
"Q  c #547EC0",
"!  c #5B7FC0",
"~  c #827AB9",
"^  c #568191",
"/  c #6F8394",
"(  c #5B8BA7",
")  c #4D8CBD",
"_  c #5B83B3",
"`  c #5883BB",
"'  c #5C94B0",
"]  c #668DA7",
"[  c #638AB7",
"{  c #6A81BE",
"}  c #6784B9",
"|  c #7481BF",
" . c #7491BD",
".. c #6594B7",
"X. c #4C84C4",
"o. c #4A89C8",
"O. c #498AC7",
"+. c #5680C1",
"@. c #5382C3",
"#. c #5C83C2",
"$. c #5D88C6",
"%. c #578AC8",
"&. c #6383C2",
"*. c #6887C5",
"=. c #6B83C2",
"-. c #668AC7",
";. c #6B8AC6",
":. c #6A8EC9",
">. c #678BC8",
",. c #7284C1",
"<. c #728BC6",
"1. c #7E8DC7",
"2. c #728FC9",
"3. c #7C8FC8",
"4. c #7C86C2",
"5. c #6C93CB",
"6. c #6F9DC5",
"7. c #7392CB",
"8. c #7D94CA",
"9. c #7798CF",
"0. c #7B98CF",
"q. c #7895C4",
"w. c #6B99D1",
"e. c #769CD2",
"r. c #7C9ED2",
"t. c #7AA3D6",
"y. c #77ACCC",
"u. c #8596AF",
"i. c #8497BA",
"p. c #8E92BB",
"a. c #96A8B9",
"s. c #87A6BB",
"d. c #858EC7",
"f. c #8C9ACD",
"g. c #8495CA",
"h. c #9897CA",
"j. c #849DD1",
"k. c #889ED1",
"l. c #A89FCE",
"z. c #97BEC6",
"x. c #98BFC7",
"c. c #86A1D3",
"v. c #89A5D5",
"b. c #8CABDA",
"n. c #83A6D8",
"m. c #94AEDA",
"M. c #98A6D3",
"N. c #94B2DD",
"B. c #9CB3DD",
"V. c #A4A9CA",
"C. c #AAB9C6",
"Z. c #BBBBC7",
"A. c #A3ABD4",
"S. c #ACABD5",
"D. c #A5B2DB",
"F. c #BAB5D9",
"G. c #B9B4D0",
"H. c #88B3E0",
"J. c #9BBBE3",
"K. c #A8BEE3",
"L. c #C0B9DC",
"P. c #95C7D4",
"I. c #AFC0C9",
"U. c #BDCDDE",
"Y. c #B5D4DF",
"T. c #9CC0E5",
"R. c #A6C0E4",
"E. c #ADC4E6",
"W. c #B6C8E7",
"Q. c #B3D2EE",
"!. c #BBD3EE",
"~. c #B4D5F1",
"^. c #BED9F2",
"/. c #BDD7F0",
"(. c #C2C9D7",
"). c #C3D2DB",
"_. c #DFEECF",
"`. c #E0EECB",
"'. c #EDF5DE",
"]. c #E1F0D8",
"[. c #F0F6D9",
"{. c #C7CDE4",
"}. c #CBC8E4",
"|. c #CAD8ED",
" X c #D5DAE8",
".X c #C4DDF4",
"XX c #CADFF4",
"oX c #CDEAF9",
"OX c #C9E7F7",
"+X c #D4EBFA",
"@X c #DCEEFA",
"#X c #DAE5F2",
"$X c #DDF1FB",
"%X c #DBF0F3",
"&X c #D7E3E5",
"*X c #E8EEED",
"=X c #F0F7E5",
"-X c #F4F9ED",
";X c #FCFAED",
":X c #E4F4FB",
">X c #ECF6FB",
",X c #EEF9FC",
"<X c #EAF6F4",
"1X c #F2F9F5",
"2X c #FBFCF3",
"3X c #F3F5FB",
"4X c #F4FAFD",
"5X c #FBFBFD",
"6X c #F8F6F7",
/* pixels */
"                                          w.5.;.*.*.*.;.:.                                          ",
"                                        y.w.5.;.=.*.-.:.:.w.6.                                      ",
"                                      ' ) Q F S S S S D } #.#.(                                     ",
"                                ..#.+.+.+.Q F D D H H ! H D F F `                                   ",
"                                &.H H H H H H D A H H ! S D D D G l                                 ",
"                              &.D A A D H F H D S H H H A A D U A D D &.                            ",
"                          _ H N N N N A S S S M M A S Q M A A A N N M N &.                          ",
"                        ] H A N N N A D D S M A S H H #.Z A Z S N A N A P U G                       ",
"                        _ D D A N M Z S S Z Z Z M H S Q S S S Z S D A P D I U                       ",
"                      ] F D D I M M S S S S Z M M S S Q H S S S S S D D D I I [                     ",
"                      &.M S D S S G G G Q G F D A D S D S S F E X.V C M N N P S                     ",
"                  [ H M x r b F F F F F F F F S S S S H C D Q X.p u y b A A A D (                   ",
"                  ` A m l z b Q F F F S F F F S S S S S S S Q E p y e b A A A A _                   ",
"                  G M x l r n Q Q S S S F F F F D A A A D D F V u y e n S A A D `                   ",
"                  H M c v v M H D S S A S Q Q @.F S A Z S S S S n r r n A A A A H                   ",
"                  D N N M M S S M M M M S Q Q @.F A A M M M S S M M b Z S S S D H                   ",
"                  H A A N Z S S M M M M S F F @.F A A M Z M A D S M M Z S S M D F                   ",
"                  U P P A D D S M M M A S F F #.F A A N Z S Z D D A S S S Z S D S                   ",
"                  D A A M A D F S Z S Z S D S D A S A A D S Z A S Z Z S D S D D H                   ",
"                  D A N M A S D F H F S S S D Z A D D F H D A S S S S F S S A A F                   ",
"                  D A A N A H F +.F F F S A S A S D D H H H S S F H F F F S Z A G                   ",
"                  D D I N D D E @.@.@.Q F Z A Z N D D Q G H S H G G F F S S S A G                   ",
"                  Q U =.A A H G Q F F F D I P P D H H B S Z Z F Z U =.P N N N S +.                  ",
"                X.S H =.U D D H F F F F D A A N A H S S S S S &.H H A N P D G H @.o.O.              ",
"                X.F H Y U D D F D Q Q D D A A A S S D C S S Z &.H I D N D I H H @.o.)               ",
"              O.%.&.G U I D D H Q ! Q H D S A M M S S S S H H H G G U H D H H #.@.@.@.$.            ",
"          } #.%.e.;.D n v b S F #.#.Q Q ! U S S S F S F D U Y S :.7.9.*.n i u C #.! ! D U           ",
"          7.7.e.r.&.M z l v v S ;.&.! D H ! H S S D F ! U U =.! n.t.e.X.t 9 9 i H ! =.D H l         ",
"        } 8.k.N.c.S v w 0 q r b 5.-.#.! S ! ! H Z W A ! A I =.2.J.H.t.E 3 3 $ q D U ;.U A A U       ",
"      J 3.K..X+Xj.4 0 < 6 $ 5 w 9.b.9.-.S H W H S S S ! L Y d.W.@XP.( % 3 ; ; 6 m Y g.f.U H H $.    ",
"  } =.Y D.oX@X3X8.$ ; ; 5 * & 2 8..XK.n.! S S S S S A I L h.W.:X:Xz.g . 4 6 6 , l T M.!.k.2.Q #.    ",
"  U =.=.W.$X:X3Xd.& $ $ $ * * s i.@XQ.B.! S ! ! S D D D R S. X>X@Xz.h @ 4 6 7 7 l T A.XXm.e.#.@.    ",
" .N Y ,.^.:X,X4Xi.& & $ @ X - f u.3XOXK.*.S D F D H D I ~ F.3X4X:XP.^ X ; < 7 1 l T D.:XK.t.$.@.X.@.",
" .P T 1.oX<X1X5XC.f - X X o + / (.4X:X@XH &.S S H A D U h.}.3X3X:XW.s.2 6 , , = p.V.{.4X.XJ.$.Q ` F ",
"<.P T 1.oX_.'.2X5X).a.k O / a.(.5X4X3X$X&.H S M Y A A Y l.{.4X4X4X>X:XD.K d a p. X*X5X4XQ.b.! F ` #.",
"q.I | 1.oX`.[.;X2X#X{.C.a.I.).&X5X4X>X$XY A S Z U A N U l.{.5X4X,X1X,X|.S.V.V.L.*X-X;X3XQ.b.U H D D ",
"H D U 3.oX_.[.;X5X4X5X4X1X4X4X<X4X4X>X:XY A A A &.M M U h.{.5X4X-X1X4X5X>X4X5X3X2X2X;X3X!.m.*.D D D ",
"D D S } OX].=X2X5X5X3X>X4X5X5X5X3X4X$XXX=.U D A H S Z ! 4.W.,X3X'.=X-X5X5X5X5X5X2X=X'.<X!.m.;.A Z D ",
"D D D D Q.%X:X1X5X5X5X5X5X4X4X4X>X@X!.B.I I U U H D S Q ,.B.XX>X-X=X'.5X5X5X5X5X3X4X1XOXb.2.A A D D ",
"D D D D b.OX$X,X5X5X5X5X5X5X4X,X>X.XK.k.A Y U U S F Q Q I j.K.+X1X1X-X5X6X5X5X5X4X>X:X~.e.*.S H D D ",
"D D D D 7.~.oX4X,X4X5X5X5X5X3X,X$XE.b.;.N I I U S Q Q @.D :.k./.4X3X5X5X5X5X5X5X4X:X$XJ.&.U D D D D ",
"D D D D H g.m.E.@X5X5X5X5X5X:X+XK.9.*.H I P A A B E Q @.-.&.#.r.|.#X3X5X5X5X4X<XOXE.B.=.H G D D D D ",
"D D D D D P =.8.f.S.F.F.F.A.M.j.:.Q H H Y A A U S E E X.E X.@.&.d.d.h.F.G.Z.Z.C.q.7.=.D D D D D D D ",
"D S D D A D } :.<.f.f.h.f.g.7.5.-.H H H U S S D S C C E X.Q Q U Y T T f.k.j.v.r.:.{ } H D F D D D D ",
"D D D S D D H _ D U U H G &.#.F U H H H D F S S S B S C ) Q F A N A S U $.$.$.#.D H D D D D D D D D ",
"D D D F D D D D D D D D H G F F ! D S H D S S S M S S S X.` H S A Z A ! #.$.$.#.H D H D D D F D F D ",
"D D D D D D D D D D D D D F F F F S S S D S S M S B S B F F S Z S S S D ` G F H D D D D D D D D D D ",
"D D D D D F D D D D S D D F F F D M S M S S S M M S S S F S S D Z S S S F F D D D D D D D D D D D D ",
"F S D S D D D D J D D D D ` F F S Z Z Z Z Z Z Z M Z Z B S D Z Z Z S S Q S D D D D S F D D D D D D D ",
"D J D D D D D S S F D Z b B B b B B B b b M M b M B B B M b b B b b M b b S D D D D S D D D D S D F "
};
