/* XPM */
static char *cobra_cima_xpm[] = {
/* columns rows colors chars-per-pixel */
"50 50 207 2 ",
"   c #16457D",
".  c #23477C",
"X  c #314E70",
"o  c #435D7C",
"O  c #50647E",
"+  c #1E4B8C",
"@  c #1A4983",
"#  c #1F459A",
"$  c #1B4A98",
"%  c #1B568E",
"&  c #274A8F",
"*  c #2E4F8A",
"=  c #224186",
"-  c #3B438D",
";  c #385381",
":  c #23449B",
">  c #21499C",
",  c #254795",
"<  c #34449B",
"1  c #35489E",
"2  c #3B479E",
"3  c #3C5996",
"4  c #1E50A1",
"5  c #2B4CA1",
"6  c #274CA0",
"7  c #324CA1",
"8  c #3C4DA1",
"9  c #2154A4",
"0  c #2B5CAA",
"q  c #3253A4",
"w  c #3B5AA9",
"e  c #385DA8",
"r  c #2E62AE",
"t  c #3E62AE",
"y  c #3160AD",
"u  c #2F68B3",
"i  c #326BB3",
"p  c #3B6AB3",
"a  c #3372B5",
"s  c #494F8E",
"d  c #425F88",
"f  c #445F90",
"g  c #565E9E",
"h  c #4C6388",
"j  c #4D7D8C",
"k  c #507E8F",
"l  c #6D7F8F",
"z  c #667D9C",
"x  c #4958A6",
"c  c #4362AD",
"v  c #4B62AD",
"b  c #4C6AA0",
"n  c #526AAD",
"m  c #5472AC",
"M  c #4466B0",
"N  c #4C6DB5",
"B  c #456AB3",
"V  c #5167B0",
"C  c #546DB5",
"Z  c #596EB4",
"A  c #4E70B7",
"S  c #4D7ABD",
"D  c #4B77BB",
"F  c #5571B7",
"G  c #5A71B7",
"H  c #5C7EB7",
"J  c #5575B9",
"K  c #5A76B9",
"L  c #557CBD",
"P  c #5A7ABC",
"I  c #626FAF",
"U  c #666DB3",
"Y  c #6275B9",
"T  c #637BBC",
"R  c #6D7EBE",
"E  c #6173B7",
"W  c #717EBD",
"Q  c #7573B5",
"!  c #4C7EC0",
"~  c #547EC0",
"^  c #5B7FC0",
"/  c #827AB9",
"(  c #568191",
")  c #6F8394",
"_  c #5F8BA7",
"`  c #4F87BB",
"'  c #5983B9",
"]  c #5C94B0",
"[  c #6A80BF",
"{  c #648AB7",
"}  c #7481BF",
"|  c #6594B7",
" . c #4D84C4",
".. c #5481C2",
"X. c #5C83C2",
"o. c #5E88C6",
"O. c #5B8CC9",
"+. c #6383C2",
"@. c #6A84C2",
"#. c #658AC6",
"$. c #6B8AC6",
"%. c #6A8EC9",
"&. c #678BC8",
"*. c #7384C1",
"=. c #728BC6",
"-. c #7E8DC7",
";. c #728FC9",
":. c #7C8FC8",
">. c #7C86C2",
",. c #6D93CC",
"<. c #6F9DC5",
"1. c #7493CC",
"2. c #7C93CA",
"3. c #7798CF",
"4. c #7C98CF",
"5. c #7A96C4",
"6. c #6B99D1",
"7. c #779AD1",
"8. c #7D9CD1",
"9. c #7FA3D5",
"0. c #77ACCC",
"q. c #8596AF",
"w. c #8497BA",
"e. c #8E92BB",
"r. c #96A8B9",
"t. c #87A6BB",
"y. c #858EC7",
"u. c #8193C6",
"i. c #8D9BCD",
"p. c #8495CB",
"a. c #9897CA",
"s. c #849DD1",
"d. c #889ED1",
"f. c #A89FCE",
"g. c #98BFC7",
"h. c #85A0D2",
"j. c #89A5D5",
"k. c #8CABDA",
"l. c #94AEDA",
"z. c #98A8D3",
"x. c #9CB2DC",
"c. c #92B3DE",
"v. c #A4A9CA",
"b. c #AAB9C6",
"n. c #BBBBC7",
"m. c #A3AAD2",
"M. c #ACABD5",
"N. c #A4B3DB",
"B. c #BAB5D9",
"V. c #B9B4D0",
"C. c #9BBBE3",
"Z. c #A8BEE3",
"A. c #C0B9DC",
"S. c #AFC0C9",
"D. c #A6C1D1",
"F. c #BDCDDE",
"G. c #B5D4DF",
"H. c #A6C0E4",
"J. c #ADC4E6",
"K. c #B3C3E3",
"L. c #BBC1E1",
"P. c #B8CDE9",
"I. c #B3D2EE",
"U. c #BBD3EE",
"Y. c #B4D5F1",
"T. c #BED9F2",
"R. c #BDD7F0",
"E. c #C2C9D7",
"W. c #C3D2DB",
"Q. c #DFEECF",
"!. c #E0EECB",
"~. c #EDF5DE",
"^. c #E1F0D8",
"/. c #F0F6D9",
"(. c #C7CDE4",
"). c #CBC8E4",
"_. c #C8D4EB",
"`. c #CAD8EB",
"'. c #D5DAE8",
"]. c #C4DDF4",
"[. c #CADFF4",
"{. c #CDEAF9",
"}. c #C8E8F7",
"|. c #DBE6F2",
" X c #D4EBFA",
".X c #DCEEFA",
"XX c #DEF1FC",
"oX c #DBF0F3",
"OX c #D7E3E5",
"+X c #E8EEED",
"@X c #F0F7E5",
"#X c #F4F9ED",
"$X c #FCFAED",
"%X c #E9EBF4",
"&X c #E6EAF5",
"*X c #E4F4FB",
"=X c #ECF6FB",
"-X c #EEF9FC",
";X c #EAF6F4",
":X c #F2F9F5",
">X c #FBFCF3",
",X c #F3F5FA",
"<X c #FAF6FA",
"1X c #F4FAFD",
"2X c #FBFBFD",
"3X c #F2F7F2",
"4X c None",
/* pixels */
"4X4X4X4X4X4X4X4X4X4X4X4X4X4X4X4X4X4X4X4X4X6.,.&.@.#.&.%.%.4X4X4X4X4X4X4X4X4X4X4X4X4X4X4X4X4X4X4X4X4X",
"4X4X4X4X4X4X4X4X4X4X4X4X4X4X4X4X4X4X4X4X0.6.,.%.@.@.@.%.%.,.<.4X4X4X4X4X4X4X4X4X4X4X4X4X4X4X4X4X4X4X",
"4X4X4X4X4X4X4X4X4X4X4X4X4X4X4X4X4X4X4X] ....~ J J K K L ' X.X._ 4X4X4X4X4X4X4X4X4X4X4X4X4X4X4X4X4X4X",
"4X4X4X4X4X4X4X4X4X4X4X4X4X4X4X4X| X.~ X.~ ~ P K K P P L K P J L ' 4X4X4X4X4X4X4X4X4X4X4X4X4X4X4X4X4X",
"4X4X4X4X4X4X4X4X4X4X4X4X4X4X4X4X+.P P P P P K K G P K ~ K K Y P ^ x 4X4X4X4X4X4X4X4X4X4X4X4X4X4X4X4X",
"4X4X4X4X4X4X4X4X4X4X4X4X4X4X4X+.K G G K P P P G K P P ^ G K K Y G G K +.4X4X4X4X4X4X4X4X4X4X4X4X4X4X",
"4X4X4X4X4X4X4X4X4X4X4X4X4X' P Z Z Z Z G J J J F Z K K ~ C J G K Z Z Z Z +.4X4X4X4X4X4X4X4X4X4X4X4X4X",
"4X4X4X4X4X4X4X4X4X4X4X4X_ P G Z Z G G G K J F F J P K X.G G G C G G Z G K T T 4X4X4X4X4X4X4X4X4X4X4X",
"4X4X4X4X4X4X4X4X4X4X4Xm H K K G Z Z C J J J J F C K J ~ K J K J J G G G E Y P 4X4X4X4X4X4X4X4X4X4X4X",
"4X4X4X4X4X4X4X4X4X4Xm T L K K Y C C J J J J C C F J J L K J J J J J K P E P Y { 4X4X4X4X4X4X4X4X4X4X",
"4X4X4X4X4X4X4X4X4XJ m P K K K K J P ^ ~ ^ P K K J K K L J J L ! ` D D C G G G G 4X4X4X4X4X4X4X4X4X4X",
"4X4X4X4X4X4X4X4XL ' P C v t B L L L ~ J L L L J J G J J D J ~  .a i i N G G G P ' h 4X4X4X4X4X4X4X4X",
"4X4X4X4X4X4X4X` ~ L G V x c N L L J J L L ~ J J J J J J J L ^ ! a i u B G K G G H b 4X4X4X4X4X4X4X4X",
"4X4X4X4X4X4XJ L ~ ~ C v c t B L ^ J J J J ~ ~ L J G G G J J P D i r r B K G G P L m L 4X4X4X4X4X4X4X",
"4X4X4X4X4X4XP J L ~ C V v c A P G G J J J ~ ~ ~ P J F Z J J J J B t t B F K G K L J P P 4X4X4X4X4X4X",
"4X4X4X4X4XP P L ~ S J Z V F F P C C C C J ~ ..~ L G G C F F F J C C N F K F G P L J P P L 4X4X4X4X4X",
"4X4X4X4X4XP P L ~ ~ K Z Z J J K C F F C J L ~ ~ P G G Z C F J G J C C J J C J K L J L L J L 4X4X4X4X",
"4X4X4X4XP P P L ! ~ K E G K K J C C F C J ~ P ~ J G G G C J J G G F J J G J C K L L L P P L 4X4X4X4X",
"4X4X4X4XP J L L ~ ~ K G C K K J J F F F J K J K K J G G G J G J F J J J J J J K L S L P P L L 4X4X4X",
"4X4X4XP P P L S S L ~ Z C G J J L ^ J J J J G F G K K L P K G J J J J K L K G G L L L L P P P 4X4X4X",
"4X4XP P P L ~ ~ ~ L L G Z K J L ~ ~ L P J G F G G K K J ^ K J K P P L L K J J G L L L P L P P J 4X4X",
"4X4XP K K L ~ ~ ~ ! Y G Z K J ~ ..~ ~ ~ J J G G K K K ^ P P J J P L ^ L J J F J ` L L L L P P P 4X4X",
"4XP P P L L L L ..L T [ E G K ^ ~ L J J P E E E P K K D J J J P J P @.E C Z Z K ~ ! L L L P P P P 4X",
"4XP K P L ~ `  .L L L [ T G P L L ~ ~ L P G G Z K K J J J J J +.T K G Z K Y T P ..~ L L P L L P P L ",
"P P P L L ` ~ ~ ! J P @.T K K P J ~ J ~ K G G G J J J J J J J +.P K G Z Y P T L .. ...L L P L P P P ",
"P K L L L L L ! ~ +.T T Y P P P ~ ^ ~ ^ ^ K F C C J J J J J ^ T :.z.T K K P L .... .L L L L P P L P ",
"P P P ~ ..L ~ ~ o.$.P N M N C J +.X.^ J K ^ K F J ~ J ^ P T T J K._.x.#.B p i D o.X.' %.L L P P L ~ ",
"L P L L S =.#...X.+.N x x M B J &.+.^ ^ K P ^ K J J J ^ Y T @.@.`.&XP...e 0 0 p L 4Xz.z.[ L L L L L ",
"P L ~ L ' u.j.,.1.K M w q w x B 1.#.X.~ J ^ ^ K G ~ G ^ G Y @.s.|.&X_.S 4 4 # w K @.2XF.y.L L L ~ L ",
"J L S L :.Z._. X4.q q 5 7 # 9 e 7.k.3.#.J ~ K ^ J J K ^ U W y.J.,X%XD.% 9 # # 7 V i.<X<Xp.P L L L L ",
"L ' ~ ^ Z.{.XX-X2., # 6 6 = , 3 u.].Z.k.^ K ~ J J G K K U a.L.*X,X%Xj   5 7 7 7 x M.%X,XP.=.~ ~ L ' ",
"~ ~ ~ T J.XX*X1X5.& , # > = * f w. XI.x.^ J J ~ K K G ^ Q M.'.=X*X`.k @ 5 7 8 7 x Q %X,X_.3.~ ~ ! ~ ",
"~ L L *.T.*X-X1Xw.* & $ + . ; h q.1X}.Z.@.K J L K K K T / B.,X1X.Xg.k & > 1 8 2 g W %X2XH.9.o.` ~ L ",
"~ ! @.-.{.;X:X2Xb.h ; . . X h l W.1X*X X^ T P N P K E T a.).<X1X=XG.t.3 < < < - e.v.(.1X].c.o.~ ~ L ",
"..P W y.{.Q.~.$X2XF.r.z o ) r.E.2X1X=X.X+.K K C T G Z T M.).1X1X1X-X*XN.I g s a.'.+X<X1XP.k.L P ' ~ ",
"=.E } -.{.Q.~.$X2X|.W.b.r.S.W.OX2X1X=X.XR G J J T G Z R a.).2X1X:X-X-X`.M.v.a.E.+X3X>X-XY.k.+.K K P ",
"H K T -.{.!./.$X2X1X1X1X>X1X:X-X1X1X=X*X@.G F G +.Z F T a.(.2X1X;X:X2X1X-X1X2X,X>X#X$X-XU.l.$.G K F ",
"K K J [ }.^.@X>X2X2X1X1X2X2X1X1X1X1X&X[.R E P T T J J T >.K.-X1X~.@X#X2X2X2X2X2X>X@X~.;XY.l.$.G G J ",
"K K K K I.oX*X1X2X2X2X2X2X1X1X1X1X XU.N.Y T T Y K J L ~ *.x.[.=X#X@X~.2X<X2X2X<X1X1X-X{.k.;.G G K K ",
"K P K J k.}.oX1X1X2X2X2X2X1X1X1X*X].Z.d.E T T T K L S ~ Y s.Z. X:X3X#X2X2X<X2X2X1X-X*XY.7.@.K K K K ",
"K K K K 1.I.{.1X1X2X2X2X2X2X1X=XXXJ.k.=.Z Y Y Y J ~ ~ ..G $.h.R.,X1X2X2X<X2X2X2X1X*XXXC.+.[ K K K K ",
"K K K K P 4.x.J..X2X<X2X<X2X*X XZ.3.#.K Y G G K A ~ ~  .#.o.o.7._.|.,X<X<X2X1X;X}.J.x.@.P P J K J P ",
"K K K K K E } 5.i.M.B.A.B.m.z.d.%.^ ^ P R G G P J ! S  .!  .X.[ y.y.a.B.V.n.n.b.5.1.@.E K K J P K J ",
"K K K K G G [ $.=.i.i.i.i.p.1.%.&.K P ^ T K G K J D D !  .....T R R *.i.d.h.j.8.$.@.T P K K K K K K ",
"K H K K K K P ' P T P P T X.^ ~ +.K K P J L K J J J A J ` ..L G G G K ^ o.o.O.X.P P K K K K K K K K ",
"K J K J K K K J P K K K P ^ L L P K K K K J J J N J D J  ...L K G K K P X.o.o.X.K K H K K K K K K K ",
"K J K K K K K K K K K K K K L J P J J J K J C A C J J J L L K G G F F K ' ^ L P K K K K L K K K J P ",
"K K K K K K K K K K K K K L L L J F F C J J J J C J A J J J J F F F F ~ L J K K K K K K K K K K K K ",
"K K P K K K K K K K K K K ' L S K F F F F J F F C F F J J F J F J J J J ~ K K K K K K K K K P K K K ",
"J H J J K K K K K K K J N A A A A N A N N C C N C N A A C N N A A N N A N F K J K K K J K K J K K K "
};
