/* XPM */
static char *cobra_baixo_xpm[] = {
/* columns rows colors chars-per-pixel */
"50 50 207 2 ",
"   c None",
".  c #1B467D",
"X  c #204B7E",
"o  c #304F71",
"O  c #435D7D",
"+  c #51647F",
"@  c #194A8A",
"#  c #18508B",
"$  c #1C4998",
"%  c #185790",
"&  c #234788",
"*  c #29518C",
"=  c #375482",
"-  c #234B92",
";  c #24489B",
":  c #344A9E",
">  c #36469B",
",  c #3C5B98",
"<  c #3A448E",
"1  c #1D55A3",
"2  c #2C4EA0",
"3  c #264EA0",
"4  c #354CA0",
"5  c #2559A6",
"6  c #3254A3",
"7  c #3B5BA6",
"8  c #3A5AA8",
"9  c #2E63AD",
"0  c #3E62AC",
"q  c #3161AC",
"w  c #2D6BB2",
"e  c #316BB2",
"r  c #3A6BB2",
"t  c #2C73B6",
"y  c #4A5190",
"u  c #555F9F",
"i  c #4D6489",
"p  c #4C7F8E",
"a  c #446092",
"s  c #677E9D",
"d  c #475AA6",
"f  c #4464AD",
"g  c #4962AC",
"h  c #5166AE",
"j  c #4D6DB3",
"k  c #446BB2",
"l  c #546DB3",
"z  c #5A6EB3",
"x  c #4F71B5",
"c  c #4B77B9",
"v  c #4C7ABC",
"b  c #5572B6",
"n  c #5A72B6",
"m  c #5576B8",
"M  c #5A76B8",
"N  c #557ABB",
"B  c #5B7ABB",
"V  c #5D7CB7",
"C  c #6270AF",
"Z  c #666EB1",
"A  c #6273B6",
"S  c #6177B8",
"D  c #637BBB",
"F  c #6C7CBB",
"G  c #717EBC",
"H  c #7474B5",
"J  c #4B7EC0",
"K  c #557FC0",
"L  c #5A7FC0",
"P  c #827BB7",
"I  c #548292",
"U  c #6D8191",
"Y  c #708596",
"T  c #5A8BA9",
"R  c #5F90A4",
"E  c #4B8DBE",
"W  c #5C85BB",
"Q  c #5684B8",
"!  c #5B95B1",
"~  c #608CA4",
"^  c #6A90AB",
"/  c #769BAF",
"(  c #6D82BE",
")  c #6387B9",
"_  c #7283BF",
"`  c #6593B9",
"'  c #7391BF",
"]  c #4C84C2",
"[  c #4989C7",
"{  c #468AC7",
"}  c #5382C2",
"|  c #5C83C1",
" . c #5D88C5",
".. c #558AC7",
"X. c #6484C1",
"o. c #6A84C1",
"O. c #658AC5",
"+. c #6B8BC5",
"@. c #6C8FC8",
"#. c #7387C1",
"$. c #738BC5",
"%. c #7D8EC5",
"&. c #728FC8",
"*. c #7C86C0",
"=. c #6D93CB",
"-. c #6C99CF",
";. c #6E9DC6",
":. c #7291C5",
">. c #7E94C7",
",. c #7393CB",
"<. c #7D94CA",
"1. c #7798CD",
"2. c #7B99CD",
"3. c #7B9BC2",
"4. c #759CD1",
"5. c #7C9ED1",
"6. c #79A2D5",
"7. c #77ACCC",
"8. c #8496AF",
"9. c #8497B9",
"0. c #9396BE",
"q. c #888FB9",
"w. c #8CA4BB",
"e. c #99ABB8",
"r. c #868EC5",
"t. c #849DCF",
"y. c #8C9BCD",
"u. c #8595C9",
"i. c #9897C9",
"p. c #859FD1",
"a. c #A89FCC",
"s. c #9FA3C5",
"d. c #97BDC6",
"f. c #98BFC7",
"g. c #85A3D3",
"h. c #89A5D4",
"j. c #8DABD7",
"k. c #8DAEDA",
"l. c #94ABD6",
"z. c #95AFD9",
"x. c #99A6D2",
"c. c #89B3DF",
"v. c #94B2DC",
"b. c #9DB3DB",
"n. c #97B8DF",
"m. c #AAB9C6",
"M. c #BABBC7",
"N. c #A4ABD4",
"B. c #AAACD3",
"V. c #A6B3D9",
"C. c #BAB4D5",
"Z. c #BAB6D9",
"A. c #A2BCE0",
"S. c #ABBEE1",
"D. c #C0BADA",
"F. c #95C7D4",
"G. c #AFC0C9",
"H. c #BECDDF",
"J. c #9DC0E3",
"K. c #A7C0E2",
"L. c #ADC4E4",
"P. c #B6C8E6",
"I. c #B4D2ED",
"U. c #B9D3EC",
"Y. c #BED9EF",
"T. c #B5D6E2",
"R. c #B1D6F0",
"E. c #C2C9D7",
"W. c #C4D3D8",
"Q. c #DFEDCF",
"!. c #E1EDCB",
"~. c #E1EDD8",
"^. c #ECF5DF",
"/. c #F1F6DC",
"(. c #C8CAE2",
"). c #D0CCE3",
"_. c #C6D6EA",
"`. c #D5DBE8",
"'. c #C3DDF2",
"]. c #C4E4F7",
"[. c #CCE1F4",
"{. c #CBEAF7",
"}. c #DAECF5",
"|. c #D3EAF8",
" X c #DAEDF9",
".X c #D5E6F5",
"XX c #D8E4E7",
"oX c #EAEFEE",
"OX c #EEF5E0",
"+X c #F2F7E5",
"@X c #F5F9EE",
"#X c #FBFAEE",
"$X c #E0EEF8",
"%X c #E8EEF0",
"&X c #E5F4FA",
"*X c #ECF6FA",
"=X c #E9F6F5",
"-X c #F4F8F4",
";X c #FCFBF5",
":X c #F1F5F9",
">X c #F6F9FB",
",X c #F5F9FB",
"<X c #FAF9FA",
"1X c #FDFAFB",
"2X c #FEFCFC",
"3X c #FBFBFC",
"4X c #F5F7F8",
/* pixels */
"                  b l l j j j l x x x x l l j j x l l j l j l x j l x x x j l l x                   ",
"                  n m m m N m m b b b b b M m x b l l b b b b b b m v N L b b b m                   ",
"                0 M B N N N N b b b b m m m x b b x b x b b l b b N v N K m b b M                   ",
"              L B M L K K L N b b n b m N N c b b b b b b m M b b m N N B m n n M X.                ",
"            X.V B V L  . .| B M b n n B } ] m b b b b b m m M M M B N N L B M M M B `               ",
"          W D M V V |  . .X.B M n z b K } E c m m b m m B M B M B | K L | D D D D V W V n           ",
"        0 D S D ( +.2.h.g.t.u._ o.G D | ] ] J c c b M M b D B B B O.=.,.u.y.y.i.y.&.@.o.S           ",
"      B M M M o.1.' m.M.M.C.C.i.r.r.D } K J ] J J m M n z o.B N N =.g.x.N.Z.Z.C.B.i.,.#.n S S       ",
"    O.X.D M o.n.L.'.*X3X3X;X1X:X.X_.5.|  .O.J J J b S n n n M +.1.J.}.&X3X<X2X2X1X$XL.l.<.( z       ",
"    V M W O.n. X*X>X3X2X1X3X2X3X3X:XY.g.+.M K K J b M S F z #.j.K.&X*X>X3X2X2X3X<X<X4X{.R.l.z V o.  ",
"    b n o.1.I.&X*X>X>X2X1X1X1X-X4X4X|.S.t.A K K N m D S F n t.A.].*X,X>X>X3X2X3X<X>X>X X].A.n D +.  ",
"S S l b =.k.{.:X>X>X3X2X1X3X1X+X+X@X:X'.V.#.K b m m V D A S V.U. X,X>X>X>X<X2X2X2X3X>X*X XI.D F X.  ",
"z z l o.z.U.=XOX+X;X1X1X1X3X3X@X+X^.>X:XS.r.L b b D S M M o.'.$X>X>X3X3X3X>X:X>X>X2X1X+X~.].%.( F / ",
"n n n +.v.Y.>X#X;X1X:X4X>X:X>X>X>X-X>X3X(.i.F b b D n n n G &X,X>X3X*X>X>X>X>X3X3X2X#X/.!.{.>._ F :.",
"B B M X.j.U.>X;X-XoXE.s.N.B._.:X4X4X>X3X(.i.D n b D b b M o.$X:X>X>XXXW.G.s.m.U.}.1X;X/.!.{.%._ A :.",
"L L B K h.I.>X1X%X`.i.y u C V.&X*X>X>X>X).a.F n M D b m M D $X*X;X-XH.e.Y O Y w.H.3X;X/.Q.|.%._ A :.",
"J } K  .v.].3X(.N.q.< > > : , / T.=X>X<X(.i.F n S S x M X.L  X&X3XE.U i o X . o i m.2X4X=X|.%.F S ' ",
"} } }  .6.K.&XB.#.y > d : ; % I F.$X:X,XZ.P A n M m N m m X.S.'.>X8.i = X @ $ - * 9.,X:X&XY.$.F z ' ",
"    } | 1.v.[.N.G d : 4 : ; @ I d.&X*X`.B.H M M n b N N m L b.U.}./ y * & $ $ ; - u.>X*X XP._ ( D   ",
"    | L &.p.U.x.G d : 4 2 : . I d.&X&XP.i.Z S n M M N m N L h.S.].1., ; & ; 3 $ $ <.,X$X|.V.F ( )   ",
"    O.m M D y.u.F h 4 ; ; 1 % T F.}.I.r.F Z B m m m B N N N O.1.j.1.8 3 ; 6 2 6 6 2.|._.S.%.B       ",
"      B M n D #.D M 8 $ 1 5 v 6.c.A.@.o.A n B N N m B B B m N | O.,.j 0 8 6 8 f m g.v.g.<.D         ",
"        d M S o.| B e 5 5 q | 4.6.g.| o.D S L m N b B B B N B | | O.x j f 8 d x | 5.4.1.&.          ",
"          D M L L } v e r r O.2.,.+.b D D B L b N b m B B B N K | X.M b x g j V +.1...| )           ",
"             .] } } | B B B M B | D B B B m N m m j b n n B B K K N N M M M D B | ..{               ",
"              E [ ] N B S M z M M B X.b b b x b m n z z n M N K K N B M M D o.D N ]                 ",
"              E [ } B B M A z n V B X.b b b b N m n z z n M N N } N N B M F F B m {                 ",
"                  } m z z z A ( B b N b b m b N N V n S n M N N N N B M n n X.L N                   ",
"                  N M b b N N K L L m m B B K M M n b n b m K K } } K N M z A S M                   ",
"                  B M b b N N N m N m m N B N M M n n b M m N N N } v m n z n n M                   ",
"                  B b n M N m m m m b n M B M M b n b n M m m N N N m m n l z n M                   ",
"                  N M b M b b n b b b n n m n b M b m M m b b b b m m M M l z n m                   ",
"                  N M l b m m b m M m b b l z n n B N N N m l l b l M M M z n M S                   ",
"                  B M b b m b l l b n b b b z n b m } } N m l l l l M b l z n A V                   ",
"                  N M l b m l j l b m b l l z n n N } K K m l l l l M b l z z z M                   ",
"                  B M n n n k 0 0 k b M m m b b b m ] K K m b b b M N j k d h l M                   ",
"                  B n n n b k 9 w w v N m m n b n m N N K N m m m N K k 0 d h l K                   ",
"                  Q S n b n k 9 w t J N N m n M m m m N N N N N N B K j 0 f h n W                   ",
"                  T M z n n j e w t ] K m c M b m b m m N N N N N N N k f g l B )                   ",
"                    M n z z l c v J J m m m N m M n M B N } N B N m B n m b L                       ",
"                    ) M S S n M m m m m m M N m b l l b b b b b l z S M M m ^                       ",
"                      D M S A n n b b m m m } M m b l b m m b b n z n n V Q                         ",
"                      L D n n z z n b z b b | M B b n b b N n n z z z M B ~                         ",
"                          X.z z z z n n n l N m M b b b b b n z z z l M W                           ",
"                            X.M M M M M M n L B V b M M B B m n n M |                               ",
"                                7 B V M M M K B M m M B B B B B M X.                                ",
"                                  Q N m M M B B B m m B B } } } | `                                 ",
"                                    R  .| B N m m b m N } E !                                       ",
"                                      ;.=.O.@.O.o.o.O.=.-.7.                                        ",
"                                          =.@.o.o.X.@.=.-.                                          "
};
