/* XPM */
static char *cobra_esquerda_xpm[] = {
/* columns rows colors chars-per-pixel */
"50 50 207 2 ",
"   c None",
".  c #16457D",
"X  c #23477C",
"o  c #314E70",
"O  c #435D7C",
"+  c #50647E",
"@  c #1E4B8C",
"#  c #1A4983",
"$  c #1F459A",
"%  c #1B4A98",
"&  c #1B568E",
"*  c #274A8F",
"=  c #2E4F8A",
"-  c #224186",
";  c #3B438D",
":  c #385381",
">  c #23449B",
",  c #21499C",
"<  c #254795",
"1  c #34449B",
"2  c #35489E",
"3  c #3B479E",
"4  c #3C5996",
"5  c #1E50A1",
"6  c #2B4CA1",
"7  c #274CA0",
"8  c #324CA1",
"9  c #3C4DA1",
"0  c #2154A4",
"q  c #2B5CAA",
"w  c #3253A4",
"e  c #3B5AA9",
"r  c #385DA7",
"t  c #2E62AE",
"y  c #3E62AE",
"u  c #3160AD",
"i  c #2F68B3",
"p  c #326BB3",
"a  c #3B6AB3",
"s  c #3372B5",
"d  c #494F8E",
"f  c #445F90",
"g  c #565E9E",
"h  c #4C6388",
"j  c #4C7D8C",
"k  c #507E8F",
"l  c #6D7F8F",
"z  c #667D9C",
"x  c #4759A7",
"c  c #4362AD",
"v  c #4B62AD",
"b  c #5164AF",
"n  c #4466B0",
"m  c #4C6DB5",
"M  c #456AB3",
"N  c #5167B0",
"B  c #546DB4",
"V  c #596EB4",
"C  c #4E70B7",
"Z  c #4C7ABD",
"A  c #4B77BB",
"S  c #5571B7",
"D  c #5A71B7",
"F  c #5575B9",
"G  c #5A76B9",
"H  c #557ABD",
"J  c #5B7ABC",
"K  c #5F7BB5",
"L  c #626FAF",
"P  c #666DB3",
"I  c #6272B6",
"U  c #6275B9",
"Y  c #637BBC",
"T  c #6C7DBD",
"R  c #717EBD",
"E  c #7573B5",
"W  c #4C7EC0",
"Q  c #557FC0",
"!  c #5B7FC0",
"~  c #827AB9",
"^  c #568191",
"/  c #6F8394",
"(  c #5B8BA7",
")  c #4D8CBD",
"_  c #5B83B3",
"`  c #5883BB",
"'  c #5C94B0",
"]  c #668DA7",
"[  c #638AB7",
"{  c #6A81BE",
"}  c #6784B9",
"|  c #7481BF",
" . c #7491BD",
".. c #6594B7",
"X. c #4C84C4",
"o. c #4A89C8",
"O. c #498AC7",
"+. c #5482C2",
"@. c #5C83C2",
"#. c #5D88C6",
"$. c #578AC8",
"%. c #6383C2",
"&. c #6A84C2",
"*. c #668AC7",
"=. c #6B8AC6",
"-. c #6A8EC9",
";. c #678BC8",
":. c #7284C1",
">. c #728BC6",
",. c #7E8DC7",
"<. c #728FC9",
"1. c #7C8FC8",
"2. c #7C86C2",
"3. c #6C93CB",
"4. c #6F9DC5",
"5. c #7392CB",
"6. c #7D94CA",
"7. c #7798CF",
"8. c #7B98CF",
"9. c #7895C4",
"0. c #6B99D1",
"q. c #769CD2",
"w. c #7C9ED2",
"e. c #7AA3D6",
"r. c #77ACCC",
"t. c #8596AF",
"y. c #8497BA",
"u. c #8E92BB",
"i. c #96A8B9",
"p. c #87A6BB",
"a. c #858EC7",
"s. c #8C9ACD",
"d. c #8495CA",
"f. c #9897CA",
"g. c #849DD1",
"h. c #889ED1",
"j. c #A89FCE",
"k. c #97BEC6",
"l. c #98BFC7",
"z. c #86A1D3",
"x. c #89A5D5",
"c. c #8CABDA",
"v. c #83A6D8",
"b. c #94AEDA",
"n. c #98A6D3",
"m. c #94B2DD",
"M. c #9CB3DD",
"N. c #A4A9CA",
"B. c #AAB9C6",
"V. c #BBBBC7",
"C. c #A3ABD4",
"Z. c #ACABD5",
"A. c #A5B2DB",
"S. c #BAB5D9",
"D. c #B9B4D0",
"F. c #88B3E0",
"G. c #9BBBE3",
"H. c #A8BEE3",
"J. c #C0B9DC",
"K. c #95C7D4",
"L. c #AFC0C9",
"P. c #BDCDDE",
"I. c #B5D4DF",
"U. c #9CC0E5",
"Y. c #A6C0E4",
"T. c #ADC4E6",
"R. c #B6C8E7",
"E. c #B3D2EE",
"W. c #BBD3EE",
"Q. c #B4D5F1",
"!. c #BED9F2",
"~. c #BDD7F0",
"^. c #C2C9D7",
"/. c #C3D2DB",
"(. c #DFEECF",
"). c #E0EECB",
"_. c #EDF5DE",
"`. c #E1F0D8",
"'. c #F0F6D9",
"]. c #C7CDE4",
"[. c #CBC8E4",
"{. c #CAD8ED",
"}. c #D5DAE8",
"|. c #C4DDF4",
" X c #CADFF4",
".X c #CDEAF9",
"XX c #C9E7F7",
"oX c #D4EBFA",
"OX c #DCEEFA",
"+X c #DAE5F2",
"@X c #DDF1FB",
"#X c #DBF0F3",
"$X c #D7E3E5",
"%X c #E8EEED",
"&X c #F0F7E5",
"*X c #F4F9ED",
"=X c #FCFAED",
"-X c #E4F4FB",
";X c #ECF6FB",
":X c #EEF9FC",
">X c #EAF6F4",
",X c #F2F9F5",
"<X c #FBFCF3",
"1X c #F3F5FB",
"2X c #F4FAFD",
"3X c #FBFBFD",
"4X c #F8F6F7",
/* pixels */
"                                                                +.Q @.J S D G G J G G G G G G G G H ",
"                                                                +.` ! J S D F G G F G G G F K G G F ",
"                                                          #.@.+.+.+.J G G D G G G G G G G G G F F G ",
"                                                        Y G +.@.#.#.J %.=.&.D G G G G G G G G G G G ",
"                                                      x G U <.7.e.m.x.c.m.m.5.&.` Y G G G G G G F G ",
"                                                    Y G D Y h.m.Y.XXE.E.W.E.c.7.%.J G G G G G G G G ",
"                                                  $.G Y Y s.W. X-X2X2X2X2X>XXXE.G.&.G J G G G G G G ",
"                                              O.O.Q Y %.:.d.n.C.A.].2X<X=X_.1X-XoXG.&.T G J G G G K ",
"                                              o.o.+.@.Y Y T T R E C.%X>X=X&X2X;X-XT.9.{ G J G G G F ",
"                      ( _ ` ! G G H J Q ! ! +.+.+.+.@.J H N x x x u.}.%X<X=X2X2X2XXX9.=.J G H G G F ",
"                  [ G G G D G G G G G D S D F G H @.A p r 8 3 2 9 ; a.^.1X3X3X3X3X-XB.w.! %.G G H G ",
"              J Y U D V D D D S S S F G S S B Y Y J p q % > 2 9 d 3 d N.2X3X3X3X3X3XV.x.$.#.! D G G ",
"              Y U G D D S D D S S S H S F F V U U ! p u 5 0 8 8 2 1 g N.3X3X3X3X3X3XD.z.#.$.! H F F ",
"            %.U D U V D D S G F F F G H F G V D I G a u 5 5 6 7 > 2 L A.1X3X4X4X3X4XD.s.%.@.! H F S ",
"          %.V V U G S m M M m B S S S H H Q I V V G *.Q W & . # @ 4 A.{.2X3X3X3X3X4XS.s.! J Q F H C ",
"          G B V D G F i t t y m S S S F Q Q T G G Y 7.q.q.( j k ^ p.-X;X4X*X&X*X3X1Xf.| G G S S S C ",
"        x G V V D H W p i i y m S D S F H ! J J G Y 5.e.F.K.l.l.K.I.>X1X,X&X&X,X2X+Xa.R F D S H S C ",
"      _ J G V S S F W s s p M S S F S H G ! S J J ! -.v.G.@X-X-X-X-X2X,X*X_.*X2X:X{.a.T D D D S S C ",
"    ( H J G D S S F W X.W W F S D G D S F H H %.&.! S ! -.E.-X;X1X2X2X2X1X2X:X.X!.w.%.Y D D S S S C ",
"  4.@.J G G D S S H F ! H H D S S S D F F F S F S G T %.T d.S.}.1X1X3X2X2X:X XH.h.@.+.Q H ! H F S C ",
"  3.@.G G D D D F H H F H H S S S S S G Q G F S D Q Y U Y R f.Z.S.J.[.[.[.H.M.g.=.%.W X.+.Q F F S S ",
"3.-.J J G D S S F G F S S H H B S S D ! J ! F S S F U I G P P E ~ j.j.j.f.2.:.Y F *.W X.) X.Q F F m ",
"-.-.H ` ! J Q @.Q Q H H G D S V V V G G G Q F F F Q Q ! ! D G U U Y T Y T ! Q Q +.X.X.Q S Z S F S C ",
"*.&.G J J J S G H S F S S S D S D S G G G G ! F F S S Q G Q G G J G D V S S F F Q Q W Z F F S C C C ",
"&.*.F J G J F G S F F D S D S D V V V G G G G H F F Q G Q F D G G D D V D F H Q H Q W Z A S A S S C ",
"&.&.S D G G S D S S D H H H H H Q Q H G F V Y D G m S S S F F G G Q Y Y T Y G G S A F S S S S S S B ",
";.;.H H G G S D S B H F H H Q W Q ! G S V S I V V S F G ! G Q F F S S S F U U J J D J D F S S S S N ",
"3.3.F ! ! G S S S S G H H H Q Q Q H F G S G I V V S G Q ! Q F Q Q G F F S J Y Y U G D G F F S S S m ",
"0.0.Q Q ! J F S S S ! F H Q Q Q H Q D F D S D D D D J J J G Q F F T Q G V G T U T D D D G F F S S B ",
"  r.) @.H G F G H F ! H H H F F S S S H D H J J J J J H F F ! ! %.! Y T :.&.I D V D &.Y J F F F S C ",
"    ' Q Q G D G S F ! H H S S S B S S G H H H H G ! Q H ! ;.x.M.H.OX@X@X-X XM.s.:.J J J K G F S S C ",
"      Q G G V V S B Q H H F V B B B S H H Q H H Q Q ! ! @.5.H.E. X-X1X;X;XOXW.H.c.;.J J G G F S S C ",
"      @.G D V D V S Q H H S S B B B S J Q +.H Q Q Q @.%.;.c.|.OX:X2X3X2X2X2X@X!.T.q.J J J F F S S C ",
"      ..%.J V V B S F F H Q D S B B F H +.X.H H H H %.;.3.q.6.y.t.^.3X2X2X2X:X;X-XU.3.*.%.J H G F C ",
"          %.V D D I G Q Q Q J H G G F H H H J H J H J S M r 4 f + / ^.$X:X3X2X2X:XoXh.3.H H H A H C ",
"            G D D J G m M m m S F G G F G H J G G J S M x 7 < = o + i./.2X2X2X2X2X-Xn.5.@.H H H H C ",
"            _ J J G S c x y M S D D G D G G D G G G B n e $ - # - o / L.:X2X2X2X3X3XC.8.@.! J H J C ",
"              ] _ F S v n x n N V D B V V V D Y Y J M e w 8 7 $ * X h i.2X2X3X3X3X3XS.s.Y G G G G C ",
"                  ] ! V N N N V V U V V D I &.T T Y m x e 6 7 $ % = / L.2X:X3X3X3X3XS.f.J G G G G F ",
"                      G V B N V D U D D G G J J J Y J B n 8 $ < * o p.].2X2X3X3X3X3XS.s.Y G F G G G ",
"                      [ @.! G G J Y D G G G Q H H ! -.! H w @ * = h /.+X3X3X3X2X4X3XZ.s.Y G G G G G ",
"                                              X.X.$.q.w.x.w.6.d.y.B.3X3X3X3X3X2X4XOXs.>.J J G G G F ",
"                                                  o.$.q.F.OX:X2X1X3X=X=X=X<X2X2X2XH.6.=._ G G G H F ",
"                                                    #.5.g.{.@X-X:X,X_.'.'.&X-XoXoXb.:.&.J G G G G G ",
"                                                    } <.6.A.oX@X-X>X(.(.).`.#XXXQ.d.G K G G G G G G ",
"                                                        Y 1.A.R.|..X.XXX.XXXQ.c.5.U G S G G G G G G ",
"                                                          K T :.2.,.,.9.9.T G G F G G G G G G G G K ",
"                                                            &.T T R R R Y G G G F G H G G F F G G F ",
"                                                            } Y V D I I G G G G G G G F G G F G G G ",
"                                                                 . .9.>.J G G G J G G G G G G G G G "
};
