/* XPM */
static char *cobra_direita_xpm[] = {
/* columns rows colors chars-per-pixel */
"50 50 207 2 ",
"   c None",
".  c #1B467D",
"X  c #204B7E",
"o  c #304F71",
"O  c #435D7D",
"+  c #51647F",
"@  c #194A8A",
"#  c #18508B",
"$  c #1C4998",
"%  c #185790",
"&  c #234788",
"*  c #29518C",
"=  c #375482",
"-  c #234B92",
";  c #224699",
":  c #25499C",
">  c #344A9E",
",  c #36469B",
"<  c #3C5B98",
"1  c #3A448E",
"2  c #1D55A3",
"3  c #2C4EA0",
"4  c #264EA0",
"5  c #354CA0",
"6  c #2559A6",
"7  c #3254A3",
"8  c #3B5BA6",
"9  c #3A5AA8",
"0  c #2E63AD",
"q  c #3E62AC",
"w  c #3161AC",
"e  c #2D6BB2",
"r  c #316BB2",
"t  c #3A6BB2",
"y  c #2C73B6",
"u  c #4A5190",
"i  c #555F9F",
"p  c #4D6489",
"a  c #4C7F8E",
"s  c #446092",
"d  c #677E9D",
"f  c #455FAA",
"g  c #4857A4",
"h  c #4464AD",
"j  c #4962AC",
"k  c #5166AE",
"l  c #4D6DB3",
"z  c #446BB2",
"x  c #546DB3",
"c  c #5A6EB3",
"v  c #4F71B5",
"b  c #4B77B9",
"n  c #4C7ABC",
"m  c #5572B6",
"M  c #5A72B6",
"N  c #5576B8",
"B  c #5A76B8",
"V  c #557ABB",
"C  c #5B7ABB",
"Z  c #5D7CB7",
"A  c #6270AF",
"S  c #666EB1",
"D  c #6273B6",
"F  c #6177B8",
"G  c #637BBB",
"H  c #6C7CBB",
"J  c #717EBC",
"K  c #7474B5",
"L  c #4B7EC0",
"P  c #557FC0",
"I  c #5A7FC0",
"U  c #827BB7",
"Y  c #548292",
"T  c #6D8191",
"R  c #708596",
"E  c #5A8BA9",
"W  c #5F90A4",
"Q  c #4B8DBE",
"!  c #5C85BB",
"~  c #5684B8",
"^  c #5B95B1",
"/  c #608CA4",
"(  c #6A90AB",
")  c #769BAF",
"_  c #6D82BE",
"`  c #6387B9",
"'  c #7283BF",
"]  c #6593B9",
"[  c #7391BF",
"{  c #4C84C2",
"}  c #4989C7",
"|  c #468AC7",
" . c #5382C2",
".. c #5C83C1",
"X. c #5D88C5",
"o. c #558AC7",
"O. c #6484C1",
"+. c #6A84C1",
"@. c #658AC5",
"#. c #6B8BC5",
"$. c #6C8FC8",
"%. c #7387C1",
"&. c #738BC5",
"*. c #7D8EC5",
"=. c #728FC8",
"-. c #7C86C0",
";. c #6D93CB",
":. c #6C99CF",
">. c #6E9DC6",
",. c #7291C5",
"<. c #7E94C7",
"1. c #7393CB",
"2. c #7D94CA",
"3. c #7798CD",
"4. c #7B99CD",
"5. c #7B9BC2",
"6. c #759CD1",
"7. c #7C9ED1",
"8. c #79A2D5",
"9. c #77ACCC",
"0. c #8496AF",
"q. c #8497B9",
"w. c #9396BE",
"e. c #888FB9",
"r. c #8CA4BB",
"t. c #99ABB8",
"y. c #868EC5",
"u. c #849DCF",
"i. c #8C9BCD",
"p. c #8595C9",
"a. c #9897C9",
"s. c #859FD1",
"d. c #A89FCC",
"f. c #9FA3C5",
"g. c #97BDC6",
"h. c #98BFC7",
"j. c #85A3D3",
"k. c #89A5D4",
"l. c #8DABD7",
"z. c #8DAEDA",
"x. c #94ABD6",
"c. c #95AFD9",
"v. c #99A6D2",
"b. c #89B3DF",
"n. c #94B2DC",
"m. c #9DB3DB",
"M. c #97B8DF",
"N. c #AAB9C6",
"B. c #BABBC7",
"V. c #A4ABD4",
"C. c #AAACD3",
"Z. c #A6B3D9",
"A. c #BAB4D5",
"S. c #BAB6D9",
"D. c #A2BCE0",
"F. c #ABBEE1",
"G. c #C0BADA",
"H. c #95C7D4",
"J. c #AFC0C9",
"K. c #BECDDF",
"L. c #9DC0E3",
"P. c #A7C0E2",
"I. c #ADC4E4",
"U. c #B6C8E6",
"Y. c #B4D2ED",
"T. c #B9D3EC",
"R. c #BED9EF",
"E. c #B5D6E2",
"W. c #B1D6F0",
"Q. c #C2C9D7",
"!. c #C4D3D8",
"~. c #DFEDCF",
"^. c #E1EDCB",
"/. c #E1EDD8",
"(. c #ECF5DF",
"). c #F1F6DC",
"_. c #C6CDE4",
"`. c #CAC8E1",
"'. c #D0CCE3",
"]. c #C6D6EA",
"[. c #D5DBE8",
"{. c #C3DDF2",
"}. c #C4E4F7",
"|. c #CCE1F4",
" X c #CBEAF7",
".X c #DAECF5",
"XX c #D3EAF8",
"oX c #DAEDF9",
"OX c #D5E6F5",
"+X c #D8E4E7",
"@X c #EAEFEE",
"#X c #EEF5E0",
"$X c #F2F7E5",
"%X c #F5F9EE",
"&X c #FBFAEE",
"*X c #E0EEF8",
"=X c #E8EEF0",
"-X c #E5F4FA",
";X c #ECF6FA",
":X c #E9F6F5",
">X c #F4F8F4",
",X c #FCFBF5",
"<X c #F1F5F9",
"1X c #F5F9FB",
"2X c #FEFDFD",
"3X c #FBFBFB",
"4X c #F5F7F8",
/* pixels */
"                        ) ,.,.&.[ [                                                                 ",
"                  #.+.O.H H D D D M F `                                                             ",
"                  C G G _ ' ' J J H J +.                                                            ",
"              F c c M ` &.y.<.*.*.%.%._ Z                                                           ",
"              D _ x.Z.W. X X X XOXR.U.Z.2.Z                                                         ",
"          M D M 2.W.}.oX/.^.^.^.:X-XoX XF.2.=._                                                     ",
"          C +.%.x.OXoX;X$X).).(.1X;X;X-X].j.1...                                                    ",
"        ] ! #.2.I.1X1X1X2X&X&X,X2X1X1X<XXXn.6.o.|                                                   ",
"      O.C C &.i.*X1X3X3X2X2X3X3XN.q.y.<.u.j.7.6.o.{ {                                               ",
"N N N B D G i.C.2X3X1X2X2X1X.XK.p * - ; 7 N ..#...n V P B N B N F B B N I ! `                       ",
"x M m M F G i.A.3X3X3X2X1X2XK.i.o - $ $ 7 h x B G C C C B M M c F M c x x m B                       ",
"x x m M B C a.G.3X2X2X2X;X1XJ.R X $ $ : 3 9 h l F +.+.O.D D c D c D c k k k x I (                   ",
"l N N N C G i.S.4X3X3X3X1X1Xt.O X $ ; : 7 7 8 h B H G M c c x c c c x j f f j M V ~ R               ",
"v V P C I ..4.V.3X2X3X1X3X1XJ.T o . & & $ 9 h x B B M M N M M M N M x h q h q N N C C ~             ",
"v V V V V ..1.v.-X3X1X1X1X1X!.t.+ = * - 3 h z N C N B V V N N N N M M l l z l N B B B B             ",
"v n V n V V ;.s.oX;X<X1X3X<X+XQ.T p s < 9 z m B C B V C V V V N N N N N P P B N F M M c X.          ",
"l N N V C O.@.;.D.-X;X1X1X3X1X2XK.0.q.5.3.;.#...V V V V { P V N x x x N C V V V x c c c B O.]       ",
"l m m M N N C I 1.I.{.oX1X1X1X3X4X4XoX{.l.@.O...P P P n  .P V m x x m M N V V V m c c c M B ..      ",
"m m m M N B C C @.l.F.T.*X;X<X;X;X|.Y.F.3.......P V P V P V N m x x x m N V V V v M M c M B  .      ",
"l m m M B C B C N %.s.m.|.-X*XoXXXF.n.k.@.P V V C V V V P V N m m c x x N N V P N M M B N B ! ]     ",
"x m m M N B C +.B c M D +.' H O.C +.! V N N V C C M C M V N N N M N N N V V V ..N N N M V V  .Q 9.  ",
"x N N N N N N M D G D H B M M N O.V V N V I C C B M D M m M M N V P P L V V V Z v N M m V C V { :.:.",
"l m l m N N B M B F G G B M M N N N V N V C V B B M M D M m M N V P P P V V V N x x M N N C B V ;.;.",
"x m x m M M B B F C F F F x N x m N V V C C B N x c c M m B m B P P { { V N N N x N N x N B B V #.#.",
"x x x m m N m b N m M N G G G O.F N B N N N M m x m B C M M m M V V V N m Z B M m m M c B N N M +.+.",
"l v m N m v b n L P n N N M M M B B M B N N V V m V m V B B m M c M M m M m N N M N B N C B C N +.@.",
"v m m m N v n L L P N N v M x M B B N M N V V V m N N V B B B m M M M m M M N N N N C N N C C N @.@.",
"v N v b b N P { { P  .P I G G H H G F C B C C C V N v N V V B M c M x x m N N B V P ..V I I I V #.#.",
"l M N V { Q { L @.M G %.-.a.a.d.a.U K S S M B B N m m N C C C B x m x N N v m N V N m c M N B C $.$.",
"x N N N P  .{ { O.#.u.m.F.`.'.'.Q.G.C.a.J G G G N m m m C V B N M m m m V V N b N m m M M N B O.:.  ",
"l N N N C P P ....s.F.{.1X3X3X1X1X1X[.G.y.+.O.O.B N N m V N B m M m m N V V P V N N m M M Z V ..>.  ",
"l m N M M M C G 7.{.XX;X1X1X3X1X1X1X<X*XU.$.I N C +.+.V B m m M N N M m n L { L N M x M C B V W     ",
"v M N x M c H y.].1X4X%X(.%X<X1X-X-X-X-XoXM.k.#.C C C N C V N m N m x z e y y L N M c c M C ~       ",
"l N N N m M %.y.OX1X>X$X$X4X<X;XE.h.h.h.H.b.8.;.C C B C C V N N M m x q e e e n N M c c B 8         ",
"l N m M M B ' a.<X2X%X$X,X1X;X;Xr.Y a a W 8.:.3.G M B +. .V m m m x l q 9 e r n N M c x B           ",
"l b N N C Z i.A.3X3X2X2X2X1X].Z.< @ @ . % n o.@.B c c D V V N m N m v l z z l x B B D c O.          ",
"m V C P ..O.u.A.,X3X3X,X1X<XZ.A , : > 3 4 2 w t B B F c N N V B N N N M M M M c D D D O.            ",
"l N V I X.X.s.B.,X3X3X3X2X1XV.i , 5 > 5 4 6 6 t C F B c m B N M m m m M c m M c B C F               ",
"l N V I X.o.k.B.3X3X3X3X3X3Xf.u , 5 5 5 $ $ 6 r C C C c m m m N x x M M M c c D F C I               ",
"x N C I ....7.N.;X3X3X3X3X<XQ.w.1 , 5 5 5 w r b ..C C N M M M N N N N B B B B N `                   ",
"m m B B C B #.5.{.<X1X3X3X,X=X[.e.g g g k Z C X. . . . . .C B V V B C B ! ~ E                       ",
"    q B D C +.1.F.;X<X1X$X,X>X=XC.' J H H G G ..{ } |                                               ",
"      ..C M G +.m.oX*X<X(.&X,X3X_.C.V.v.p.+.+.C  .| Q                                               ",
"        +.G F B &.M.W. X:X1X1X1X1X-XOXT.u.H F N X.                                                  ",
"          ! C C B +.6.z.T.R.T.Y.|.P.n.s.G M C G                                                     ",
"            q B O.I +.$.c.n.l.j.n.8.3.$.D M h                                                       ",
"              B O.N M M +.#.` I ..X...V N Z                                                         ",
"                @.B c c c N B V  .o. ...X.                                                          ",
"                      F c B C ..P  .                                                                ",
"                      F c m C C  . .                                                                "
};
