/* XPM */
static char *cobra_direita_xpm[] = {
/* columns rows colors chars-per-pixel */
"50 50 39 1 ",
"  c #1C2B53",
". c #1D2B53",
"X c #1D2C53",
"o c #1D2C54",
"O c #1E2C54",
"+ c #1E2D55",
"@ c #1F2D55",
"# c #1F2E55",
"$ c #202F56",
"% c #212F57",
"& c #253A72",
"* c #293E75",
"= c #2B4077",
"- c #AC1F52",
"; c #ED1A51",
": c #ED1B52",
"> c #ED2156",
", c #EE2F61",
"< c #EF3062",
"1 c #EF3162",
"2 c #EF3163",
"3 c #2C4486",
"4 c #2E4788",
"5 c #304887",
"6 c #3859AF",
"7 c #3A5BB0",
"8 c #3A5AB1",
"9 c #3F61BD",
"0 c #3E63C3",
"q c #4369CC",
"w c #4872E2",
"e c #4B77EC",
"r c #4A7DEC",
"t c #4E7CF6",
"y c #507DF6",
"u c #A7B6E7",
"i c #EDE3DB",
"p c #CFD0E0",
"a c None",
/* pixels */
"ttttttttttty5o     aaaaaaaaaaaaaaaaaaaaaaaaaaaaaaa",
"tttttttttttt3      aaaaaaaaaaaaaaaaaaaaaaaaaaaaaaa",
"tttttttttttt3      aaaaaaaaaaaaaaaaaaaaaaaaaaaaaaa",
"tttttttttttt3      aaaaaaaaaaaaaaaaaaaaaaaaaaaaaaa",
"tttttttttttt3      aaaaaaaaaaaaaaaaaaaaaaaaaaaaaaa",
"tttttttttttt3     $aaaaaaaaaaaaaaaaaaaaaaaaaaaaaaa",
"ttttttttttttteeeee9+ooo#oaaaaaaaaaaaaaaaaaaaaaaaaa",
"tttttttttttttttttt0      aaaaaaaaaaaaaaaaaaaaaaaaa",
"tttttttttttttttttt0      aaaaaaaaaaaaaaaaaaaaaaaaa",
"tttttttttttttttttt0      aaaaaaaaaaaaaaaaaaaaaaaaa",
"tttttttttttttttttt0      aaaaaaaaaaaaaaaaaaaaaaaaa",
"tttttttttttttttttt0     oaaaaaaaaaaaaaaaaaaaaaaaaa",
"uuuuuuttttttttttttw666668$o    aaaaaaaaaaaaaaaaaaa",
"iiiiiittttttttttttttttttt      aaaaaaaaaaaaaaaaaaa",
"iiiiiittttttttttttttttttt      aaaaaaaaaaaaaaaaaaa",
"iiiiiittttttttttttttttttt      aaaaaaaaaaaaaaaaaaa",
"iiiiiittttttttttttttttttt      aaaaaaaaaaaaaaaaaaa",
"iiiiiittttttttttttttttttt      aaaaaaaaaaaaaaaaaaa",
"ppppppttttttttttttttttttt&&&&&*aaaaaaaaaaaaaaaaaaa",
"ttttttttttttttttttttttttttttttt+     aaaaaaa;;;;;2",
"ttttttttttttttttttttttttttttttt      aaaaaaa;;;;;1",
"ttttttttttttttttttttttttttttttt      aaaaaaa;;;;;<",
"ttttttttttttttttttttttttttttttt      aaaaaaa;;;;;,",
"ttttttttttttttttttttttttttttttt      aaaaaaa;;;;;1",
"ttttttttttttttttttttttttttttttt      aaaaaaa;;;;;<",
"ttttttttttttttttttttttttttttttt      -;;;;:>aaaaaa",
"ttttttttttttttttttttttttttttttt      -;;;;;:aaaaaa",
"ttttttttttttttttttttttttttttttt      -;;;;;;aaaaaa",
"ttttttttttttttttttttttttttttttt      -;;;;;;aaaaaa",
"ttttttttttttttttttttttttttttttt      -;;;;;;aaaaaa",
"ttttttttttttttttttttttttttttttr     o-;;;;;;aaaaaa",
"ppppppttttttttttttttttttt&&&&&=aaaaaaaaaaaaaaaaaaa",
"iiiiiittttttttttttttttttt      aaaaaaaaaaaaaaaaaaa",
"iiiiiittttttttttttttttttt      aaaaaaaaaaaaaaaaaaa",
"iiiiiittttttttttttttttttt      aaaaaaaaaaaaaaaaaaa",
"iiiiiittttttttttttttttttt      aaaaaaaaaaaaaaaaaaa",
"iiiiiittttttttttttttttttt      aaaaaaaaaaaaaaaaaaa",
"uuuuuuttttttttttttw666667%OOoX aaaaaaaaaaaaaaaaaaa",
"tttttttttttttttttt0     +aaaaaaaaaaaaaaaaaaaaaaaaa",
"tttttttttttttttttt0     oaaaaaaaaaaaaaaaaaaaaaaaaa",
"tttttttttttttttttt0      aaaaaaaaaaaaaaaaaaaaaaaaa",
"tttttttttttttttttt0      aaaaaaaaaaaaaaaaaaaaaaaaa",
"tttttttttttttttttt0      aaaaaaaaaaaaaaaaaaaaaaaaa",
"tttttttttttteeeeeeqo     aaaaaaaaaaaaaaaaaaaaaaaaa",
"tttttttttttt3     @aaaaaaaaaaaaaaaaaaaaaaaaaaaaaaa",
"tttttttttttt3      aaaaaaaaaaaaaaaaaaaaaaaaaaaaaaa",
"tttttttttttt3      aaaaaaaaaaaaaaaaaaaaaaaaaaaaaaa",
"tttttttttttt3      aaaaaaaaaaaaaaaaaaaaaaaaaaaaaaa",
"tttttttttttt3      aaaaaaaaaaaaaaaaaaaaaaaaaaaaaaa",
"tttttttttttt4.   o aaaaaaaaaaaaaaaaaaaaaaaaaaaaaaa"
};
