/* XPM */
static char *cobra_cima_xpm[] = {
/* columns rows colors chars-per-pixel */
"50 50 22 1 ",
"  c #1C2B53",
". c #253A72",
"X c #6D2452",
"o c #772452",
"O c #ED1A51",
"+ c #324E9A",
"@ c #3554A5",
"# c #3859AF",
"$ c #436AD1",
"% c #456DD7",
"& c #4670DD",
"* c #4A75E9",
"= c #4B77EC",
"- c #4C79F0",
"; c #4E7CF6",
": c #5480F5",
"> c #5681F5",
", c #5882F4",
"< c #A7B6E7",
"1 c #EDE3DB",
"2 c #CFD0E0",
"3 c None",
/* pixels */
"3333333333333333333OOOOOO3333333333333333333333333",
"3333333333333333333OOOOOO3333333333333333333333333",
"3333333333333333333OOOOOO3333333333333333333333333",
"3333333333333333333OOOOOO3333333333333333333333333",
"3333333333333333333OOOOOO3333333333333333333333333",
"3333333333333333333OOOOOO3333333333333333333333333",
"3333333333333333333333333OOOOOO3333333333333333333",
"3333333333333333333333333OOOOOO3333333333333333333",
"3333333333333333333333333OOOOOO3333333333333333333",
"3333333333333333333333333OOOOOO3333333333333333333",
"3333333333333333333333333OOOOOO3333333333333333333",
"3333333333333333333333333OOOOOO3333333333333333333",
"3333333333333333333      Xooooo3333333333333333333",
"3333333333333333333            3333333333333333333",
"3333333333333333333            3333333333333333333",
"3333333333333333333            3333333333333333333",
"3333333333333333333            3333333333333333333",
"3333333333333333333            3333333333333333333",
"3333333333333333333............3333333333333333333",
"333333333333      .;;;;;;;;;;;;.      333333333333",
"333333333333      .;;;;;;;;;;;;.      333333333333",
"333333333333      .;;;;;;;;;;;;.      333333333333",
"333333333333      .;;;;;;;;;;;;.      333333333333",
"333333333333      .;;;;;;;;;;;;.      333333333333",
"333333333333      .;;;;;;;;;;;;.      333333333333",
"333333      @%%%%%&;;;;;;;;;;;;&%%%%%@      333333",
"333333      #;;;;;;;;;;;;;;;;;;;;;;;;#      333333",
"333333      #;;;;;;;;;;;;;;;;;;;;;;;;#      333333",
"333333      #;;;;;;;;;;;;;;;;;;;;;;;;#      333333",
"333333      #;;;;;;;;;;;;;;;;;;;;;;;;#      333333",
"333333      #;;;;;;;;;;;;;;;;;;;;;;;;#      333333",
"      $%%%%%*;;;;;;;;;;;;;;;;;;;;;;;;*%%%%%$      ",
"      =;;;;;;;;;;;;;;;;;;;;;;;;;;;;;;;;;;;;=      ",
"      =;;;;;;;;;;;;;;;;;;;;;;;;;;;;;;;;;;;;=      ",
"      =;;;;;;;;;;;;;;;;;;;;;;;;;;;;;;;;;;;;=      ",
"      =;;;;;;;;;;;;;;;;;;;;;;;;;;;;;;;;;;;;=      ",
"      =;;;;;;;;;;;;;;;;;;;;;;;;;;;;;;;;;;;;=      ",
"++++++-;;;;;;;;;;;;;;;;;;;;;;;;;;;;;;;;;;;;-++++++",
";;;;;;;;;;;;;;;;;;;;;;;;;;;;;;;;;;;;;;;;;;;;;;;;;;",
";;;;;;;;;;;;;;;;;;;;;;;;;;;;;;;;;;;;;;;;;;;;;;;;;;",
";;;;;;;;;;;;;;;;;;;;;;;;;;;;;;;;;;;;;;;;;;;;;;;;;;",
";;;;;;;;;;;;;;;;;;;;;;;;;;;;;;;;;;;;;;;;;;;;;;;;;;",
";;;;;;;;;;;;;;;;;;;;;;;;;;;;;;;;;;;;;;;;;;;;;;;;;;",
";;;;;;;;;;;;:,,,,,>;;;;;;;;;;;;>,,,,,:;;;;;;;;;;;;",
";;;;;;;;;;;;<111112;;;;;;;;;;;;211111<;;;;;;;;;;;;",
";;;;;;;;;;;;<111112;;;;;;;;;;;;211111<;;;;;;;;;;;;",
";;;;;;;;;;;;<111112;;;;;;;;;;;;211111<;;;;;;;;;;;;",
";;;;;;;;;;;;<111112;;;;;;;;;;;;211111<;;;;;;;;;;;;",
";;;;;;;;;;;;<111112;;;;;;;;;;;;211111<;;;;;;;;;;;;",
";;;;;;;;;;;;<111112;;;;;;;;;;;;211111<;;;;;;;;;;;;"
};
