/* XPM */
static char *cobra_esquerda_xpm[] = {
/* columns rows colors chars-per-pixel */
"40 40 201 2 ",
"   c None",
".  c #274A7A",
"X  c #3C537F",
"o  c #425A7D",
"O  c #1D4987",
"+  c #1E4897",
"@  c #2E4E86",
"#  c #204588",
"$  c #244989",
"%  c #21459A",
"&  c #264899",
"*  c #34469D",
"=  c #39499F",
"-  c #38479A",
";  c #235B99",
":  c #355597",
">  c #2F4CA1",
",  c #214EA1",
"<  c #324DA1",
"1  c #384BA0",
"2  c #2558A7",
"3  c #2651A2",
"4  c #3C5AA9",
"5  c #3259A8",
"6  c #2E62AE",
"7  c #3764AF",
"8  c #2F67B1",
"9  c #2F69B3",
"0  c #3B67B1",
"q  c #3F6FB6",
"w  c #316EB3",
"e  c #405B84",
"r  c #495195",
"t  c #4F698C",
"y  c #556D87",
"u  c #4B6B9B",
"i  c #49659E",
"p  c #526A93",
"a  c #505CA9",
"s  c #4462AD",
"d  c #4C63AE",
"f  c #4A6AA9",
"g  c #5864AB",
"h  c #577AAF",
"j  c #4B66B0",
"k  c #456AB3",
"l  c #4C6DB5",
"z  c #4466B0",
"x  c #536EB5",
"c  c #596EB5",
"v  c #4D71B7",
"b  c #4576BA",
"n  c #457ABD",
"m  c #4E7CBE",
"M  c #4875B9",
"N  c #5571B6",
"B  c #5A72B7",
"V  c #5078B1",
"C  c #5575B9",
"Z  c #5A76B9",
"A  c #557BBD",
"S  c #5A7ABC",
"D  c #597BB7",
"F  c #777BAD",
"G  c #6177BA",
"H  c #627BBC",
"J  c #697EBE",
"K  c #6772B6",
"L  c #7176B7",
"P  c #777EB4",
"I  c #4B7EC0",
"U  c #547EC0",
"Y  c #5D7FC0",
"T  c #607FC0",
"R  c #6F8298",
"E  c #658F9E",
"W  c #6A919F",
"Q  c #4F80BC",
"!  c #5783B5",
"~  c #5E81B3",
"^  c #5682BF",
"/  c #788EAC",
"(  c #6880BF",
")  c #608DBC",
"_  c #7FA2B3",
"`  c #4E82C2",
"'  c #5482C2",
"]  c #5B83C2",
"[  c #6384C2",
"{  c #6A85C3",
"}  c #648AC6",
"|  c #6C89C4",
" . c #648EC9",
".. c #6A8DC9",
"X. c #7585C2",
"o. c #738DC6",
"O. c #7A89C4",
"+. c #689DC7",
"@. c #6B97CF",
"#. c #6694C1",
"$. c #7595CC",
"%. c #7B93CA",
"&. c #7992C7",
"*. c #7A9BD1",
"=. c #8394A3",
"-. c #8184BF",
";. c #888EC6",
":. c #8E90C7",
">. c #8597CA",
",. c #839BCD",
"<. c #929ECF",
"1. c #9291C8",
"2. c #839BD0",
"3. c #95ACCC",
"4. c #83A3D5",
"5. c #8BA4D5",
"6. c #89A9D7",
"7. c #93A5D3",
"8. c #9DA4D1",
"9. c #91ACD9",
"0. c #9BADD9",
"q. c #99B2D9",
"w. c #A7B8CF",
"e. c #A3A5D2",
"r. c #A1A8D2",
"t. c #ABB3D6",
"y. c #A6B8DF",
"u. c #ABBADA",
"i. c #B6BCDD",
"p. c #B6B5D6",
"a. c #A8BFE2",
"s. c #A5BDE2",
"d. c #B6C5CF",
"f. c #BDC8CE",
"g. c #B4C4D2",
"h. c #BFC7D7",
"j. c #B7C0DF",
"k. c #B7CDDC",
"l. c #A7C3E4",
"z. c #AFC8E7",
"x. c #AACBEA",
"c. c #AFC1E2",
"v. c #B5C2E2",
"b. c #B4C8E7",
"n. c #B4CDEB",
"m. c #BAD3ED",
"M. c #BBD9EF",
"N. c #BFD9F0",
"B. c #C5C7DE",
"V. c #CAD3DC",
"C. c #C6D1DB",
"Z. c #E3EFCE",
"A. c #E3F0D5",
"S. c #C4C2E0",
"D. c #C7CEE7",
"F. c #CBCBE5",
"G. c #C3D4EC",
"H. c #CAD6EB",
"J. c #C1D8EE",
"K. c #C8DAE6",
"L. c #DADDEE",
"P. c #C4DBF1",
"I. c #CADEF3",
"U. c #E4DFED",
"Y. c #D3E0E7",
"T. c #DFF1EA",
"R. c #CAE1F3",
"E. c #CBEAF8",
"W. c #D3E5F4",
"Q. c #D6E9F7",
"!. c #DDEDF9",
"~. c #D5EDFA",
"^. c #DFF2F2",
"/. c #E0E1E8",
"(. c #E2EAED",
"). c #EEF2EE",
"_. c #F2F7E3",
"`. c #F3F7EB",
"'. c #F4F9EC",
"]. c #F5F8E4",
"[. c #E4EBF4",
"{. c #EFEFF7",
"}. c #E9EEF5",
"|. c #E1E7F4",
" X c #EFF7F4",
".X c #EFF8F4",
"XX c #E4F3FA",
"oX c #EBF6FB",
"OX c #EEF8FC",
"+X c #E7F5F5",
"@X c #F2F9F3",
"#X c #FCFCF4",
"$X c #F6F7FB",
"%X c #F3F5F9",
"&X c #F7FBFE",
"*X c #F5FAFC",
"=X c #FBF9FB",
"-X c #FAFAFD",
";X c #FDFBFD",
":X c #FAFCFD",
">X c #f2f2f2",
/* pixels */
"                                    S S A A A A A m A U S N Z Z Z Z Z C S B B S ",
"                                  S S S S A U A A U U ] C Z Z Z Z Z Z Z B S S Z ",
"                              S Z A A S S S C U U U ] ] T [ Z Z Z S Z Z S D Z C ",
"                          A S S S S A C A A U Z ..$.4.*.5.5.$.{ H S Z Z C B Z Z ",
"                        A C S A A C U U A Y >.<.H.H.P.P.P.P.l.6...Z Z Z S B C S ",
"                      S S S A C A S C U U &.v.{.{.{.[.%X$X@X^.R.l.o.H Z D S B B ",
"                  u N C S A m A A C U ` U { 7.t.i.e.t.(.@X]..XoXQ.9.{ S Z Z B S ",
"                  h D S A C A U U U U ` ' Y S Z g a / V.).#X*X*X+Xl.O.S S Z S Z ",
"              G D Z Z Z Z C Z B B N S S U q 5 > 1 1 - F B.>X=X-X$XY.3.} ] S Z C ",
"            H G B B B Z N N C C C c G G S 8 2 % 1 1 - r p.$X;X;X-XU.3. .] S C C ",
"          B G G c B B B B C C A C N G B N 7 2 , > > * g i.$X=X=X=XU.8...] S A N ",
"        T B B Z x l l l N C N C A S B c S ' M ; O O & >.H.:X;X=X;XU.8.T S A S v ",
"        B c B Z M 8 6 7 x x N C A Y G Z O.c.H.k.W E _ Q.OX@X_.'.&XF.O.G Z C C l ",
"      f B c N C n w 8 0 x N B C S S Z S 7.H.|.+X+XK.K.XX*X`._..XoXi.X.G N N C v ",
"    ! S Z B N C m n b M N Z B N C S Y T | ,.q.G.+XXXoX*X*X.X.X^.P.5.T B B N N N ",
"  #.S S Z B N C A U A C N B N C C C Z Z S H { >.D.[.$X&X&X*X!.n.5.{ ] U S Z C l ",
"u } Y Z C B C C C C C C N N C Z S C C N S G H L 1.e.p.S.S.i.0.2.{ ] ' ` U A C x ",
"..[ Y Z C C Z C C C C N N N B S S S C C Z Z G B K L ;.:.;.O.T T U ' ` ` I C C v ",
"| [ Z Y Y Z Y C C C C B B c B Z Z A C C C U Z U Z G G G Z Z Z Y U I I v C C N N ",
"| T C Y Z C C C C C C B N B N Z Z C A C C A Z Z C Z B B B x N U U U I C N C v v ",
"{ T C C B B N N C C Z U A A Z B B B B B N C C C C Z Z G T T G B C C C C N N c x ",
"..] C Y C N N N Z C U U ' U S N B B B B N Z Z U A A C N c B G G G G C C N v N x ",
"@. .Y Z Z C N N S C U U U Y A Z B B B B C Y Y S C C G G B G G T K B Z Z C C N v ",
"  +.U U A C C C Y U C C C C N C C Z Z Z Y Z C C Y ] T T T T G G B G T Z C C N N ",
"    ! A B B N C U Z C N N c N C S A C A S U Y } 9.s.I.!.XX!.b.9.o.S S Z Z Z N v ",
"    V S B B C N S A A N x c N C U U U A Y ] ] *.n.I.XXOX%XoXW.n.9. .S Z Z N N v ",
"    ) [ B c B x A A A N x N N S U U A A U [ ..*.q.w.V.$X&X*XoX!.P.*.[ H U C N v ",
"      e T c B B C S U S C N N A A U S A S S C k i p R f.T.*X*XOXXXz.$.] Z U C v ",
"        @ Z G Z N k k l N Z Z C C A Z Z Z x s 3 $ @ o =.V.%X&X&X*XH.,.[ A A A v ",
"          ( G D N s s s x N B B B B Z G Z z 4 & $ # . y g.&X&X&X;XL.7.[ S S A N ",
"            h D B j d d c c c c c G T T Z d 4 < , + # t g.*X&X;X;XU.r.( Z Z Z N ",
"              h N B x x B Z C A Z G H J H N d < % % @ / K.*X&X;X=XU.8.J S Z Z Z ",
"                A S A Q A m ^ m U I A A ] } ] s : : p g.}.:X:X:X*XL.<.( S B S D ",
"                  m A A U A I A U Q U A ' ]  .q.y.u.B.>X#X#X:X$XoXv.&.~ B S C B ",
"                    A S S S A A A A ' A A ] $.m.XXoX*X]._.]..X+XW.7.| S S B Z D ",
"                        S S S S A A m A m ] %.y.~.XX+XA.Z.A.T.E.x.O.G S C Z Z B ",
"                            S Z S S C A A A A | q.l.m.P.M.M.x.5.| S C B S B S C ",
"                                S Z S A A A ^ A A [ { O.O.{ Z S Z Z Z C C S B S ",
"                                  S S S S A A A A U Y H G D Z Z Z S Z Z B D Z B ",
"                                      S S S S A A A ' A ( H Z Z Z C Z Z S B C S "
};
