/* XPM */
static char *cobra_cima_xpm[] = {
/* columns rows colors chars-per-pixel */
"40 40 205 2 ",
"   c None",
".  c #274A7A",
"X  c #3C537F",
"o  c #425A7D",
"O  c #1D4987",
"+  c #1E4897",
"@  c #2E4E86",
"#  c #204588",
"$  c #244989",
"%  c #21459A",
"&  c #264899",
"*  c #34469D",
"=  c #39499F",
"-  c #38479A",
";  c #235B99",
":  c #355597",
">  c #2F4CA1",
",  c #214EA1",
"<  c #324DA1",
"1  c #384BA0",
"2  c #2558A7",
"3  c #2651A2",
"4  c #3C5AA9",
"5  c #3259A8",
"6  c #2E62AE",
"7  c #3764AF",
"8  c #2F67B1",
"9  c #2F69B3",
"0  c #3B67B1",
"q  c #3F6FB6",
"w  c #316EB3",
"e  c #405B84",
"r  c #495195",
"t  c #4F698C",
"y  c #556D87",
"u  c #4B6B9B",
"i  c #49659E",
"p  c #526A93",
"a  c #505CA9",
"s  c #4462AD",
"d  c #4C63AE",
"f  c #4A6AA9",
"g  c #5864AB",
"h  c #577AAF",
"j  c #4B66B0",
"k  c #456AB3",
"l  c #4C6DB5",
"z  c #4466B0",
"x  c #536EB5",
"c  c #596EB5",
"v  c #4D71B7",
"b  c #4576BA",
"n  c #457ABD",
"m  c #4E7CBE",
"M  c #4875B9",
"N  c #5571B6",
"B  c #5A72B7",
"V  c #5078B1",
"C  c #5575B9",
"Z  c #5A76B9",
"A  c #527DBE",
"S  c #527EBF",
"D  c #527CBD",
"F  c #557DBE",
"G  c #557BBD",
"H  c #5978BB",
"J  c #5A79BB",
"K  c #597ABB",
"L  c #597ABC",
"P  c #5A79BC",
"I  c #597DBE",
"U  c #5A7ABC",
"Y  c #597BB7",
"T  c #777BAD",
"R  c #6177BA",
"E  c #627BBC",
"W  c #697EBE",
"Q  c #6772B6",
"!  c #7176B7",
"~  c #777EB4",
"^  c #4B7EC0",
"/  c #547EC0",
"(  c #5D7FC0",
")  c #607FC0",
"_  c #6F8298",
"`  c #658F9E",
"'  c #6A919F",
"]  c #4F80BC",
"[  c #5783B6",
"{  c #5E81B3",
"}  c #5682BF",
"|  c #788EAC",
" . c #6880BF",
".. c #608DBC",
"X. c #7FA2B3",
"o. c #4E82C2",
"O. c #5482C2",
"+. c #5B83C2",
"@. c #6182C0",
"#. c #6384C3",
"$. c #6A85C3",
"%. c #648AC6",
"&. c #6C89C4",
"*. c #648EC9",
"=. c #6A8DC9",
"-. c #7585C2",
";. c #738DC6",
":. c #7A89C4",
">. c #689DC7",
",. c #6B97CF",
"<. c #6694C1",
"1. c #7595CC",
"2. c #7B93CA",
"3. c #7992C7",
"4. c #7A9BD1",
"5. c #8394A3",
"6. c #8184BF",
"7. c #888EC6",
"8. c #8E90C7",
"9. c #8597CA",
"0. c #839BCD",
"q. c #929ECF",
"w. c #9291C8",
"e. c #839BD0",
"r. c #95ACCC",
"t. c #83A3D5",
"y. c #8BA4D5",
"u. c #89A9D7",
"i. c #93A5D3",
"p. c #9DA4D1",
"a. c #91ACD9",
"s. c #9BADD9",
"d. c #99B2D9",
"f. c #A7B8CF",
"g. c #A3A5D2",
"h. c #A1A8D2",
"j. c #ABB3D6",
"k. c #A6B8DF",
"l. c #ABBADA",
"z. c #B6BCDD",
"x. c #B6B5D6",
"c. c #A8BFE2",
"v. c #A5BDE2",
"b. c #B6C5CF",
"n. c #BDC8CE",
"m. c #B4C4D2",
"M. c #BFC7D7",
"N. c #B7C0DF",
"B. c #B7CDDC",
"V. c #A7C3E4",
"C. c #AFC8E7",
"Z. c #AACBEA",
"A. c #AFC1E2",
"S. c #B5C2E2",
"D. c #B4C8E7",
"F. c #B4CDEB",
"G. c #BAD3ED",
"H. c #BBD9EF",
"J. c #BFD9F0",
"K. c #C5C7DE",
"L. c #CAD3DC",
"P. c #C6D1DB",
"I. c #E3EFCE",
"U. c #E3F0D5",
"Y. c #C4C2E0",
"T. c #C7CEE7",
"R. c #CBCBE5",
"E. c #C3D4EC",
"W. c #CAD6EB",
"Q. c #C6DAE7",
"!. c #DADDEE",
"~. c #C4DBF1",
"^. c #CADEF3",
"/. c #E4DFED",
"(. c #D3E0E7",
"). c #DFF1EA",
"_. c #CAE1F3",
"`. c #CBEAF8",
"'. c #D3E5F4",
"]. c #D6E9F7",
"[. c #DDEDF9",
"{. c #D5EDFA",
"}. c #DFF2F2",
"|. c #E2EAED",
" X c #E0E1E8",
".X c #EEF2EE",
"XX c #F2F7E3",
"oX c #F3F7EB",
"OX c #F4F9EC",
"+X c #F5F8E4",
"@X c #E4EBF4",
"#X c #ECEEF6",
"$X c #E1E7F4",
"%X c #EFF7F4",
"&X c #EFF8F4",
"*X c #E4F3FA",
"=X c #EBF6FB",
"-X c #EEF8FC",
";X c #E7F5F5",
":X c #F2F9F3",
">X c #FCFCF4",
",X c #F4F6FA",
"<X c #F5FAFC",
"1X c #FBFBFD",
"2X c #f2f2f2",
/* pixels */
"                                  ,.,.#.&.=.=.f                                 ",
"                                >.*.#.) ) ) #.*.<.                              ",
"                          ..h [ O./ C Z J J ( J I {                             ",
"                        e $.J J I J Z Z J J H H J J f                           ",
"                      @ ( B B Z J J Z Z Z J H B B B B B  .                      ",
"                    { J c c B B C C N N C L C N B B B c N B                     ",
"                  h J Z B c B N C N N N L L C C B C B B R B I                   ",
"                B J J Z B c N N C N N c N L L C C C Y B B R B  .                ",
"              J N Y N N C C / / ( / / Z C C C x S m M M x B B Z                 ",
"            S A B j s k L D L D C Z C N C / N / O.q w 8 l B B J h u             ",
"          A D A c d s k / L L C / / Z C c C C Z O.b 8 6 l B B J K v             ",
"          L L D x d s l L C N N N / / / C c c / K M 0 7 l B B B K K J           ",
"        J L D S c c x N C c x x N / / / C c c N N N x l N C N Z L K K K         ",
"        J L D S B c B C C x c N C / / Z B c x N B Z B N C C N C C K L D A       ",
"      J K L S S K c N Z C N x N C C / c C B C C N Z N N C C C Z D D A L J       ",
"      J K D S S C c B C K L C C C Z Z B B c ( Z C N C C C C C B S D L L J J     ",
"    J L L S / m H c B Z D / / L C B B C B Z ( / C Z / H H Z N C D L L L L C     ",
"  K Z L D S S / R Z B H / / S L / c c c C / Z Z C Z / ) Z C c C / D L D L L L   ",
"  J J L D / ^ L ) ) Z J L D S L Z B R Z / N N N C ( Z R c c R Z O.S L L L L L L ",
"J J J S S m / L E W R H C D / L R c c B C C C B Z ) J Z c R R / o.o./ I L L L L ",
"J J L / / / / +.R Z B H L / / I / B N N C C H / J &.i.:.R C C / +.O./ A D L L L ",
"J A S S +./ +.%.N j z x L #.( J Z ( Z C C / R R W 0.W.c.( 0 8 q / &.3.+.L L L / ",
"K G S A 2.1.=.J z 4 4 z C =.#./ H ( J C C J R ) $.d.$XW.b 2 , 6 J i.N.2.S L L / ",
"G G A -.v.G.d.z 5 > > > k 4.4.%.C / H Z C / c ! 9.E.%XD.; , % < B j.#Xq.J S L A ",
"G A I s.{.*Xl.: % & & $ i d.F.a./ C / C Z Z Q w.T.=X;X' O * < = g z.,XW.=.D A A ",
"S } @.A.[.-XA.: $ + O @ p f.^.v.) C C Z Z Q ! g.@X*X_.' O & < = a h.,XT.1./ D D ",
"A I -.G.;X<XM.p @ $ . o _ P.*X^.) J N H B R 6.x.,X-XH.5.@ * = - ~ j.#X~.t.+./ / ",
"} E :.H.U.OX2Xm.| t y 5.n.<X=X*X) J N ) B R 7.K.<X<X;X'.9.g r T L.|.-X~.t./ / / ",
" .W :.H.I.XX>X@XQ.m.b.L.@X<X=X*X) B B E B J 7.Y.<X<X,X-XW.z.x.K..X:X<X~.t.+.J J ",
"Z Z  .H.U.+X>X1X<X<X<X<X,X<X=X[.) Q B ) N C :.z.<X:XoX:X1X<X1X,X>X+XOX~.y. .B B ",
"Z Z J Z.).&X1X1X1X<X1X<X<X=X'.D.W R R R C L $.s.[.%XXXXX1X1X1X1X<X&X}.V.2.J B Z ",
"Z Z Y u.`.*X<X1X1X1X<X<X-X[.D.i.R E R H L A E e.F.[.OXOX1X1X1X<X<X=X_.u.%.Z J Z ",
"Z Y Y &.Z.'.-X<X1X1X1X<X*X~.a.;.R R R C / / / &.u.~.=X<X1X1X1X<X*X].A.=.E Z Z C ",
"Z Z J J 3.y.S.!././.!.W.D.4.%.J R B B C / ^ O.+.+.y.z.R./. X X!.V.a.;.J J Y Z Z ",
"J B B B B -.3.q.p.p.i.0.1.%./ J ) B C C ^ ^ o.o.( ) :.7.p.p.r.i.;.&.E B K C J Z ",
"K J J B Y  .U  .W W #.#.( ) H R J C C C N v o.O.( Z B B $.*.*.%.U J Z J B K B Z ",
"B K B K B K C Z H Z J H C H Z H H C N N m C ^ / H B N Z / ( +.( J J Z Z Z Z Z C ",
"K B K B K B K B Z Z H / D C C N C C N N N C C C C B C C / / H H J B Z Y Z C Z Z ",
"B K B K C K B K Z Z H / / N N N N N N N N v C C N N C C Z / Z Z J B J J J B K Z ",
"K B K C B K K B B N v v l C x l l x x x x v x x x v v x x x C Z B J J B B J C Y "
};
