/* XPM */
static char *tail_down_xpm[] = {
/* columns rows colors chars-per-pixel */
"40 40 99 2 ",
"   c None",
".  c #3C7AB4",
"X  c #3E76B9",
"o  c #4F67AF",
"O  c #4C6AAF",
"+  c #5267AF",
"@  c #5269AF",
"#  c #4F7BA5",
"$  c #4474AE",
"%  c #4D75AD",
"&  c #4B78A8",
"*  c #5B7BA7",
"=  c #5374AD",
"-  c #5178AF",
";  c #466EB3",
":  c #4D6DB3",
">  c #5167B0",
",  c #516CB2",
"<  c #596EB3",
"1  c #4574B4",
"2  c #4474B7",
"3  c #4575B7",
"4  c #4573B5",
"5  c #4971B0",
"6  c #4872B0",
"7  c #4871B3",
"8  c #4D70B0",
"9  c #4D71B1",
"0  c #4D70B2",
"q  c #4D71B3",
"w  c #4E70B3",
"e  c #4870B5",
"r  c #4970B5",
"t  c #4871B5",
"y  c #4971B5",
"u  c #4A70B4",
"i  c #4B70B4",
"p  c #4A70B5",
"a  c #4B70B5",
"s  c #4A71B5",
"d  c #4B71B5",
"f  c #4871B6",
"g  c #4971B6",
"h  c #4A71B6",
"j  c #4872B6",
"k  c #4972B6",
"l  c #4873B6",
"z  c #4973B6",
"x  c #4C70B4",
"c  c #4E70B5",
"v  c #4E71B5",
"b  c #4C70B6",
"n  c #4D74B5",
"m  c #4E70B5",
"M  c #4078B4",
"N  c #4D7DB2",
"B  c #4475B8",
"V  c #5273B1",
"C  c #5072B2",
"Z  c #5073B3",
"A  c #5571B0",
"S  c #5670B0",
"D  c #5670B2",
"F  c #5174B0",
"G  c #5374B2",
"H  c #5272B6",
"J  c #5273B7",
"K  c #5071B5",
"L  c #5A72B5",
"P  c #5B75B6",
"I  c #567CB0",
"U  c #587EB3",
"Y  c #5879B7",
"T  c #5B7FB4",
"R  c #5576B8",
"E  c #587BB8",
"W  c #5E78B9",
"Q  c #6377B6",
"!  c #627FB5",
"~  c #578897",
"^  c #51819D",
"/  c #5B859C",
"(  c #5884A4",
")  c #5281AD",
"_  c #5081AE",
"`  c #5982AD",
"'  c #5C81B1",
"]  c #6487AC",
"[  c #6B92AD",
"{  c #7592AF",
"}  c #6D8CB6",
"|  c #6E8DB6",
" . c #6180BB",
".. c #6988BB",
"X. c #6E8EBB",
"o. c #698BBC",
"O. c #698ABD",
"+. c #6888BE",
"@. c #7F98C4",
/* pixels */
"                          ` % $ O O @ @ > > : : $ & ^ ~                         ",
"                        X.I % 5 : : , + + + , : O % # ( [                       ",
"                { | +.! E Z : 9 : : : + @ , + : : O % I U +.O.O.                ",
"              * * = = : : : : v v : : : , : @ o : : : 9 : Z F F F               ",
"            , @ + + + + , , , : : j ; v : : : : : : : : , + @ < < <             ",
"        + + @ @ + + + < < , , ; ; ; : : O : O : : : : : , @ + + + < W           ",
"      Q + + + + + + > > , , , g ; : : : @ : : : ; : : v , + + + + @ P @.        ",
"      < + + @ + + + > > , , : v K : O + : o : : h h h ; : , @ + > + G ! |       ",
"    < < + + + + + + o o o : : v , O : O : : : : h h g h ; : > , + > , @ = ]     ",
"    + + + + + o , , + : , : : , : : : : : : ; h h j ; h : : + , , < @ < @ # /   ",
"  : + + + + : : : : : : : : : : : : h : : h g g ; : ; : : : : o o o + > @ @ =   ",
") @ + + + o ; 4 X X B B ; : o o : : h j h h g : : ; : : ; : ; : : o + > @ + G ' ",
") O + + , : 4 X . . . . j : o o : : j j g g v b : : : : : h 4 h ; O o > + > H T ",
"N 9 + + : ; M . . . . . M : : + O : ; : : ; ; : : : : ; h h B M ; ; o : < > , W ",
"n : O O : : 4 1 . $ 1 1 : : : : : : ; : : : : : : o : : ; j h j ; ; : > + + , R ",
"K , : : : : : ; O % : 7 : ; ; , : : : : : o , : : : : , : : : h : : : : : , : H ",
"b > > : : : : : : : : : e : : : : : : : : > : , : : : : : : b : b : : : : o , H ",
": > : > : : ; : : : b b : : : : : : : : : > , : : , , : : : : : b : : : > > , H ",
": > > : : : ; > o : : b b : : > : : : : , : : : , : : : : : b ; ; : : : b : > H ",
"b > > : : : : : : : : b e : : o o : : : : o , , : , : : b : b : : b : : : > : b ",
"> , > b : : : : : : : ; : b : : : : : : O o > : , : : : : : b : ; : ; : : , , b ",
", > : > : : e : : : : b : b : : : : : : o : : , : : : : : : ; b v : : : : , , : ",
", > > : : : : : : b : b : : : > : : : : : : : : , : : : : : : b : ; : : : > : v ",
", , > , o : ; : : > : b b b b , : : : : : > , : H , : : : b : ; : ; : , : , , : ",
"b > > : : b : > : : : b : : : : : : : : : , : : : : : : , b : b ; : H : , , , v ",
", , , > : : : b : : : ; v b : : : : : : , : , , : : : : , b b : b : : , : , , : ",
", , > : : : b : : : : : ; b : , : : : : : o : : , : : : b b b b b : , : : , , , ",
"J , , : : : : : : : b : : : , : : : : : , : , , , , H : > > : b ; : b , , , , : ",
", , , , : b : : : : v v v : : : : : , : , : , , , , , : : : b ; : : b : , , , : ",
"J , , , > b : : ; : v : : v : , : : : : : , , , K , v v : : : b ; : : : : , , v ",
", , , > : : b : : : : v v : : , , : : : , : , , , , : , : : , b : ; : : , , , , ",
"J , , > : : : : : , v : v v : , , : Z , , , , , , v , v K , H b : ; : : : , , K ",
", , , , , b , : : : H H : b : : H : , K , , , , J , J H K : K v : ; : : : , , v ",
"J > > , , b : : , : : : H : : , , : : , , , , , , , H b v , v v : h : : , : , , ",
"J , , , b , , b : : H H J J , , , H , K H , , , , , : H v : v v : v v , , , , , ",
", , , , , , b , , : : J b , : H : , K , , , : , H H : : , : K : b : v : : , , v ",
"J > , , J b , b , : H : : J : , , b , b , , , , , H K : v , v v v : v , : , , H ",
"J , , , , , b , : H : H J : : , , K v , , , , H : , K , v v v : h v K : : , , K ",
", , < , , , , , : , H b : H : : , v H , , , , , H , H : , : K v : : v , , @ , K ",
"J > > , b J J b : v b : H H : : , v v K , , , , , , K v v v v v h 5 : : : @ Z K "
};
