/* XPM */
static char *tail_up_xpm[] = {
/* columns rows colors chars-per-pixel */
"33 33 156 2 ",
"   c None",
".  c #3F76AF",
"X  c #3C79AD",
"o  c #3E77B7",
"O  c #377EB5",
"+  c #387FB1",
"@  c #3679BA",
"#  c #377ABB",
"$  c #3A7AB9",
"%  c #3879BA",
"&  c #4E63AC",
"*  c #4C67AD",
"=  c #4168AF",
"-  c #4F68AE",
";  c #4F69AF",
":  c #5063AC",
">  c #5064AD",
",  c #5164AD",
"<  c #5266AD",
"1  c #5066AE",
"2  c #5167AE",
"3  c #5367AE",
"4  c #5467AE",
"5  c #5068AF",
"6  c #5168AF",
"7  c #5169AF",
"8  c #5268AF",
"9  c #5368AF",
"0  c #5369AF",
"q  c #4575AB",
"w  c #4171AF",
"e  c #4775AE",
"r  c #4E74AF",
"t  c #4F7AA8",
"y  c #517DA7",
"u  c #5277AA",
"i  c #5171AF",
"p  c #5279AB",
"a  c #466BB2",
"s  c #426DB3",
"d  c #436DB3",
"f  c #466CB3",
"g  c #426FB4",
"h  c #456FB4",
"j  c #4B69B0",
"k  c #4B6BB1",
"l  c #4C6AB0",
"z  c #4D6BB1",
"x  c #4F6AB0",
"c  c #4F6BB0",
"v  c #4F6AB1",
"b  c #486CB2",
"n  c #496CB2",
"m  c #496DB3",
"M  c #4B6DB3",
"N  c #496FB3",
"B  c #4B6EB3",
"V  c #4A6FB3",
"C  c #4C6CB1",
"Z  c #4C6CB2",
"A  c #4D6CB2",
"S  c #4C6DB3",
"D  c #4D6DB3",
"F  c #4E6DB2",
"G  c #4F6DB3",
"H  c #4C6EB3",
"J  c #4D6EB3",
"K  c #4C6FB3",
"L  c #4D6FB3",
"P  c #4F6EB2",
"I  c #4E6FB4",
"U  c #5169B0",
"Y  c #5269B0",
"T  c #506AB0",
"R  c #516AB0",
"E  c #516BB0",
"W  c #516AB1",
"Q  c #526AB1",
"!  c #526BB1",
"~  c #516BB2",
"^  c #5469B0",
"/  c #5669B0",
"(  c #546AB0",
")  c #556AB0",
"_  c #546AB1",
"`  c #506CB1",
"'  c #506CB2",
"]  c #516CB2",
"[  c #506DB2",
"{  c #516DB3",
"}  c #526CB2",
"|  c #526DB2",
" . c #536DB2",
".. c #506EB3",
"X. c #516EB3",
"o. c #526EB3",
"O. c #556CB1",
"+. c #506FB4",
"@. c #516FB4",
"#. c #526FB4",
"$. c #586CB1",
"%. c #4176B1",
"&. c #4773B5",
"*. c #4671B6",
"=. c #4473B6",
"-. c #4573B6",
";. c #4772B6",
":. c #4076B6",
">. c #4675B7",
",. c #4476B7",
"<. c #4970B1",
"1. c #4B72B1",
"2. c #4B71B3",
"3. c #4E70B3",
"4. c #4F76B2",
"5. c #4870B5",
"6. c #4871B5",
"7. c #4971B5",
"8. c #4B70B4",
"9. c #4A70B5",
"0. c #4B70B5",
"q. c #4A71B5",
"w. c #4872B5",
"e. c #4A72B6",
"r. c #4B72B6",
"t. c #4C70B5",
"y. c #4C71B5",
"u. c #4F70B4",
"i. c #4E70B5",
"p. c #4E71B5",
"a. c #4F71B5",
"s. c #4974B6",
"d. c #4B75B6",
"f. c #4E74B7",
"g. c #4875B8",
"h. c #5070B5",
"j. c #5270B5",
"k. c #5072B6",
"l. c #5073B6",
"z. c #5173B6",
"x. c #5174B6",
"c. c #5D72B6",
"v. c #577AB3",
"b. c #5678B9",
"n. c #3880B0",
"m. c #5C8E92",
"M. c #5F8B97",
"N. c #51849C",
"B. c #5281A6",
"V. c #5388AD",
"C. c #4D84B1",
"Z. c #5D85B2",
"A. c #5980BA",
"S. c #6185A1",
"D. c #7897C4",
"F. c #7C98C3",
/* pixels */
"k.O.c [ p.V 3.k.[ k.[ +.+. .+._ +.I k._ [ p.k.+.+.P I p.[ _ _ +.  ",
"k._ c [ [ p.p.P p.+.k.[ k. ._ _ +.+.p._ k.[ P k.+.P I +.+._ _ k.  ",
"p._ c [ p.P [ p.+.P +.+.+.+._ +.[ I P [ +.p.P k.P [ P +.P [ _ +.  ",
"p._ c [ I V P k.p.P +.[ [  .[ O.O.P p._ +.+.p.[ P [ P I P _ _ +.  ",
"I _ c V V V I k.p.[ [ k.' +. .' [ k.P [ +.+.[ k.P P [ I _ c _ k.  ",
"p._ c c P V p.P p.P k.[ +.+. .' [ +.p._ [ k.p.I P _ P I P _ _ +.  ",
"I _ c P V V +.p.P P [ [ _ [ [ ' [ I I [ P p.V I V I I I I _ _ +.  ",
"p._ c c I V P P p.P P [ +.O._ c [ P 9._ P P P I I D I I c _ _ k.  ",
"I _ c c I M V V P [ [ P [ [ _ c I I V _ P P P I c V I I _ _ _ I   ",
"p._ c +.+.V P I V D _ I _ +.P c _ I V c D I V V c D D D M c _ +.  ",
"I _ c [ I V I V I ' I D P c c c D V V _ D I P I D D D V c c _ D   ",
"I _ c [ I P V V V I ' D I _ c c c I V _ c M V M D c D I m c _ '   ",
"p._ c +.I I V P I c ' I ' ' c c ' m I _ D I I I c m D I D _ U '   ",
"V _ c c I V I V V I ' D _ +.c c ' I V c ' m V P D c D D c c U '   ",
"9._ c D V V V P I I ' +.P +.c c _ m I U ' I V I D c D I c c U '   ",
"p._ c m P V I V V ' D ' P c c c D V V _ D V P I D D D D m _ ^ '   ",
"i.Q - D I c I V I ' I ' +.c c c _ V I _ D I V M c c m I c - U '   ",
"i.U D D V V V V I D ' ' _ I c c D I V c D P P I I m c I D c U '   ",
"z._ - D I m I P I D +.D P P c c _ m V U D I V I c m D D D c U '   ",
"z._ c c I m V P I D ' D I c c _ c I V _ P V I I I c D I D U  . .  ",
"b._ < _ [ d g.>.*.9.P M c D D D I V I - c V ;.%.o X o V D j - r.  ",
"b.U < c 7 s ,.,.g.;.M M c D V V 9.V p.& U D :.O X n.% V m M f C.  ",
"Z.< 4 _ _ = p.9.I V c M m I *.r.*.9.;.* U c g.# # # =.V I V f V.  ",
"  k.& < 7 & c c c M P V V V r.V r.r.9.M c D I I 2.P M c _ 9.*.    ",
"  M.M _ _ $.7 _ - I h *.r.9.V D c c c f.P P - _ 7 _ _ 7 c         ",
"    u i _ 9 _ 7 _ c V *.;.9.I c c - c p.I [ & 7 7 7 < _ p.        ",
"      F.[ < 7 4 _ c 9.9.V V c c c c c ;.+.[ 7 9 < : <             ",
"        +.& 4 4 < _ [ V I I c c _ D I d +.O._ 4 < : &             ",
"          c./ / _ 9 O.P M M c c V *.g.f [ _ _ 7 < 7 v.            ",
"            4.x.4.9.p.P c c _ c - c +.z.p.P V V p S.              ",
"                    B.p V V _ _ _ [ _ V 2.r D.                    ",
"                    m.N.q f c _ < & _ w q y                       ",
"                                                                  "
};
