/* XPM */
static char *tail_left_xpm[] = {
/* columns rows colors chars-per-pixel */
"40 40 120 2 ",
"   c None",
".  c #3C7AB4",
"X  c #3E76B9",
"o  c #4F67AF",
"O  c #4C6AAF",
"+  c #5267AF",
"@  c #5269AF",
"#  c #4F7BA5",
"$  c #4474AE",
"%  c #4D74AD",
"&  c #4C78AA",
"*  c #5C7CA6",
"=  c #5374AC",
"-  c #5178AF",
";  c #466EB3",
":  c #4D6DB3",
">  c #5167B0",
",  c #506EB4",
"<  c #516EB4",
"1  c #506FB4",
"2  c #516FB4",
"3  c #506FB5",
"4  c #516FB5",
"5  c #526EB4",
"6  c #526FB5",
"7  c #506DB4",
"8  c #516BB2",
"9  c #586BB3",
"0  c #596CB2",
"q  c #596FB2",
"w  c #4375B0",
"e  c #4376B3",
"r  c #4674B2",
"t  c #4373B5",
"y  c #4273B7",
"u  c #4470B5",
"i  c #4670B5",
"p  c #4772B6",
"a  c #4673B6",
"s  c #4773B6",
"d  c #4275B6",
"f  c #4574B4",
"g  c #4474B7",
"h  c #4575B7",
"j  c #4971B0",
"k  c #4872B0",
"l  c #4871B3",
"z  c #4A70B3",
"x  c #4D70B0",
"c  c #4D71B1",
"v  c #4D70B2",
"b  c #4D71B3",
"n  c #4E70B3",
"m  c #4F70B3",
"M  c #4870B5",
"N  c #4970B5",
"B  c #4871B5",
"V  c #4971B5",
"C  c #4A70B4",
"Z  c #4B70B4",
"A  c #4A70B5",
"S  c #4B70B5",
"D  c #4A71B5",
"F  c #4B71B5",
"G  c #4871B6",
"H  c #4971B6",
"J  c #4A71B6",
"K  c #4872B6",
"L  c #4972B6",
"P  c #4873B6",
"I  c #4973B6",
"U  c #4C70B4",
"Y  c #4D70B5",
"T  c #4E70B5",
"R  c #4F70B5",
"E  c #4E71B5",
"W  c #4C70B6",
"Q  c #4D74B5",
"!  c #4F70B5",
"~  c #4078B4",
"^  c #4D7DB2",
"/  c #4475B8",
"(  c #5273B1",
")  c #5070B3",
"_  c #5072B2",
"`  c #5073B3",
"'  c #5470B0",
"]  c #5473B3",
"[  c #5074B0",
"{  c #5070B5",
"}  c #5271B5",
"|  c #5B73B6",
" . c #567CB0",
".. c #587EB3",
"X. c #5879B7",
"o. c #5B7FB4",
"O. c #5576B8",
"+. c #5B7AB9",
"@. c #6377B7",
"#. c #617FB5",
"$. c #617FBA",
"%. c #588997",
"&. c #51819D",
"*. c #5A859C",
"=. c #5884A3",
"-. c #5281AD",
";. c #5081AE",
":. c #5882AC",
">. c #5C81B1",
",. c #6487AC",
"<. c #6B92AD",
"1. c #7692AF",
"2. c #6E8DB6",
"3. c #6D8CB6",
"4. c #6988BA",
"5. c #6D8EBB",
"6. c #698ABD",
"7. c #6A8BBD",
"8. c #6888BE",
"9. c #7F97C4",
/* pixels */
"4 5 6 6 6 4 4 4 4 4 4 4 4 7 7 8 7 8 7 8 : > : W 7 W ^  .;.                      ",
"@ 5 8 8 8 9 5 9 9 5 8 8 8 8 8 > 8 > 8 8 > : > > 7 : : : : O                     ",
"5 8 8 8 8 8 : @ 7 > 7 > 8 > 8 > 8 > > : : > > > : : o > + + + q                 ",
"@ : 8 8 : @ : 5 > 7 > 7 8 : : : : : > : > : : : : > o > + + + @ q @.            ",
"5 5 5 : : : 5 : : 7 7 7 : : : : : : : : : : : : : : O o + + + + + + +           ",
": ) : 5 5 : 5 : : : : : : : : : : : : : : : : : : : l : 8 + + + + + +           ",
"m m : m : 5 : : : W : : : : : : : : : ; : ; : : : y t t : : + + + + + ]         ",
": : 5 : : : : 5 : : : ; : : : : > : : : : : : : : e . X X : @ + + + + @ *       ",
": : 5 : : : 5 5 : : : : : : : : : : : : > : : : : . . . X : : > + + + @ * 1.    ",
"m ) : m 4 : : : : : : : : : : : : : : : : : : : O $ . . . : 8 + + + + + = 2.    ",
"m ) ) { E 4 4 E E : E : : W : : : : N : N : : : l $ . . / : > > > + + + = 4.    ",
": E { { { : E { E E : Z N : N N N : : : W W W N m r . ~ / : 8 O + + + 8 5 $.    ",
"E E E : { { : { : E E : Z Z : : : W : : N N : : : f f u Z : : : 8 8 8 9 : X.5.  ",
": { 4 E { E E 4 E : : : : : : : : N : N : : : N : : : : : : o : : 4 8 8 : m  .:.",
"m : 5 : : 4 : : : : : : : : : : : : : : : : > : : : : : o : : : : : : : : m % & ",
"5 : 8 8 4 8 5 8 4 8 8 8 : : : 8 : : : > : > : : : O o o o : 4 E Z : : : E m % $ ",
": 5 5 : : 5 5 : : 5 : 5 : : : : : : : : > : : : : : : : : : : : : : ; : Z E : O ",
"m ) : 5 5 5 : 5 : : : : : : : : : : : : : : : : : : : : ; : > : : : : u : : O O ",
": ) ) 4 : 5 5 : 5 : : : : : : : : : : : : : : : : : ; G p : : o O : : u : 8 @ 8 ",
": : : : 5 : : 5 5 : : : : : : : : : : : : : : : : : : ; p ; : > + : : : : : + > ",
"5 5 8 8 : 8 8 5 5 : : 8 : @ : o o : : : > : 8 : : : : K p W : : o : O : : @ > > ",
"8 8 8 8 8 8 8 8 @ : : : : 8 8 : : > > : : 8 : > : : Z K K K : : : o 8 : 8 8 8 > ",
"5 5 4 5 5 5 5 8 5 8 8 8 8 : 8 : : : > > : 8 : : : : : N N Z : : O : : : + 8 : 8 ",
"5 8 5 8 5 9 8 5 5 8 8 8 : @ : : > : : : > : 8 : > : : W N K ; : : : : : o : : : ",
"5 5 5 5 5 4 5 5 5 : 5 5 5 : : 5 7 : : 7 7 : 7 7 : : : : : ; G N K : : : : : : $ ",
"@ 5 4 { 5 : : 5 5 5 5 : 5 : : 5 : 7 7 7 : 8 : 7 8 : : O ; : G G Z Z Z : : : & & ",
"m : ) { 5 E E : : : : : O : : : : : : : : : : : : : : : : ; G G u E : 8 : % # &.",
"m m m : m : 4 ) 5 : 4 4 5 : : : : 7 : : 7 : : : : : : : : : G : : : : 8 m % =.%.",
"m : : 4 : E : ) 4 : 4 : 7 : : : : : : : : W : : : : ; : : : : ; : : : 8 m ..<.  ",
": 5 E E : 5 5 : : 8 : : : : : : : : : W : : : : : p p Z ; : > : 8 + + + ) 8.    ",
"m m { { E { E E 4 W : W : : N N : N : W : K Z : N p / K : : : o @ + @ @ ( 8.    ",
": E : E E : E E 4 W W N : G : N N : N : : K : : : / / p : o : > 8 + + 9 = 7.    ",
"Z l E E Z E : : K : N : : : G N : Z : p : : : ; : i u ; O O 8 + + + + 0 ]       ",
"l : : : : m Z ; : : ; : N : N : : ; ; : N ; : : ; ; ; : O @ 8 8 @ 8 > |         ",
"m : E : : m : : : G : : W : : : : : : : : : : : : : o o + @ @ 5 q | @.          ",
": 4 : : : : : : : : : : 4 8 : 4 : : : : : : : : : > > > + @ 9 = #.9.            ",
": : : : 8 : : 5 : 8 : 8 8 : : 8 : 8 : o : : : : : > > > > + @ = 2.              ",
"8 @ @ 8 8 @ @ 8 @ 8 8 8 8 8 8 > 8 : + : o o 8 5 > > > > @ @ = ,.                ",
"5 5 5 5 5 5 8 5 8 8 4 8 8 5 8 : 4 8 8 4 8 8 6 9 7 7 9 ] ' ) *.                  ",
") { { { : E 4 : : 4 : : 4 4 : : E : : : { : { { O.O.O.o.,.                      "
};
