/* XPM */
static char *tail_down_xpm[] = {
/* columns rows colors chars-per-pixel */
"32 50 102 2 ",
"   c None",
".  c #3B7BB4",
"X  c #3B77B9",
"o  c #3B79BA",
"O  c #4F66AF",
"+  c #4D6AAF",
"@  c #5266AE",
"#  c #5268AF",
"$  c #4B79A6",
"%  c #4474AE",
"&  c #4C74AC",
"*  c #4079AF",
"=  c #4B78A8",
"-  c #537CA6",
";  c #5B7AA5",
":  c #5374AC",
">  c #5478AA",
",  c #5C7FAA",
"<  c #466CB2",
"1  c #4D6DB3",
"2  c #5167B0",
"3  c #516BB2",
"4  c #596CB1",
"5  c #4177B7",
"6  c #4276B7",
"7  c #4274B6",
"8  c #4574B6",
"9  c #4474B7",
"0  c #4675B7",
"q  c #4673B4",
"w  c #4A71B2",
"e  c #4D71B2",
"r  c #4F70B2",
"t  c #4E74B2",
"y  c #4970B4",
"u  c #4870B5",
"i  c #4871B5",
"p  c #4971B5",
"a  c #4A70B4",
"s  c #4A70B5",
"d  c #4B70B5",
"f  c #4A71B5",
"g  c #4971B6",
"h  c #4A70B6",
"j  c #4A71B6",
"k  c #4872B6",
"l  c #4972B6",
"z  c #4873B6",
"x  c #4973B6",
"c  c #4873B7",
"v  c #4A72B6",
"b  c #4B72B6",
"n  c #4D70B5",
"m  c #4C71B5",
"M  c #4E70B5",
"N  c #4F71B5",
"B  c #4C71B6",
"V  c #4E72B6",
"C  c #4E70B5",
"Z  c #4C78B5",
"A  c #4476B8",
"S  c #4476B9",
"D  c #5072B0",
"F  c #5272B0",
"G  c #5070B5",
"H  c #5170B5",
"J  c #5071B5",
"K  c #5072B5",
"L  c #5377B4",
"P  c #5377B6",
"I  c #5475B6",
"U  c #5171B5",
"Y  c #5C73B6",
"T  c #5874B6",
"R  c #5875B6",
"E  c #5779B1",
"W  c #567BB3",
"Q  c #557CB3",
"!  c #597DB3",
"~  c #5576B8",
"^  c #5778B9",
"/  c #5A7FB8",
"(  c #607EB4",
")  c #667BB9",
"_  c #548597",
"`  c #5B8C90",
"'  c #5E8A96",
"]  c #51809F",
"[  c #5185AD",
"{  c #5387AC",
"}  c #4D83B0",
"|  c #5C83B1",
" . c #5D84B1",
".. c #5C82B4",
"X. c #6587A3",
"o. c #608CA1",
"O. c #628AAE",
"+. c #6889B2",
"@. c #6886BF",
"#. c #6886C0",
"$. c #809CC3",
"%. c #839FC9",
/* pixels */
"                    O.= % + 3 @ @ 3 1 < $ _ `                   ",
"                     .& % + # 3 3 @ 1 w $ - '                   ",
"                  %.! & w 1 3 # # # 1 1 & - O.                  ",
"            X., P H M e M M 1 + 3 1 # + e e t I W W             ",
"            ; : 3 1 1 3 1 1 1 1 1 # O 1 1 1 1 G : G             ",
"          E 3 # @ 4 3 3 1 8 8 1 1 1 1 1 1 3 3 @ 4 3 Y           ",
"          @ @ @ 2 3 3 3 1 < 1 1 1 + 3 1 1 1 1 @ @ @ 2 T         ",
"          @ @ O 2 4 3 3 8 < 1 1 + 1 1 1 1 1 1 @ @ @ 2 ^         ",
"          4 @ @ @ 2 3 3 j j 1 1 + + 1 1 < j 1 1 4 @ O 4 #.      ",
"      @.) 3 @ @ @ @ 1 3 M 1 + # 1 1 1 j j j 1 1 2 2 3 4 +.+.    ",
"      I # # # @ 3 O 3 1 M 1 1 + + 1 1 8 j j < 3 3 # # 3 : ,     ",
"      H # 3 # # @ 3 1 1 H 1 O + 1 1 1 j j 8 j 3 @ 3 4 4 3 G '   ",
"    #.1 3 3 1 1 1 1 + 1 1 1 1 1 1 1 j j q < M 1 1 # # @ 2 1 -   ",
"  8 j 3 1 1 1 1 3 1 1 1 + 1 j 1 < j j j < 1 < 1 + 3 @ @ @ @ 3   ",
"{ < 1 1 < 8 X o o S M 1 O 1 8 8 c j < 1 1 1 1 1 M 1 < @ @ 3 #  .",
"[ < < M 1 7 o o o 5 j 3 O 1 j j j j j 1 < 1 1 j j 8 1 @ @ @ # ..",
"} < < 1 1 . . . o X u O O 1 h h j j < 1 2 1 < g S 9 < 3 2 2 @ / ",
"t < + 1 < q * . % 9 h 1 O 1 1 h 1 w 1 1 1 1 h h g 9 < 3 3 2 2 ^ ",
"M 1 1 1 j 8 q % q q 1 1 2 1 h 2 1 1 1 3 1 1 < h g j 8 3 1 O 3 I ",
"3 + 1 1 1 1 1 1 1 1 1 1 1 1 1 1 3 1 3 1 3 1 H M j < 1 < 1 1 4 H ",
"3 3 1 1 M 1 1 1 1 < M 1 1 h 1 1 1 @ 3 1 1 1 1 3 1 h 1 M 1 1 2 U ",
"3 3 O 1 1 M 1 1 1 w < 1 2 1 h 1 + 1 1 3 3 1 1 1 1 1 < M 1 O 3 ~ ",
"3 2 1 1 1 < 1 1 1 j M 1 1 1 h 1 3 1 1 1 1 1 1 1 h M 1 < 1 2 3 3 ",
"3 2 O 1 1 1 1 1 1 M 1 1 2 1 1 1 1 @ 3 1 3 1 1 1 M < 1 1 1 1 3 V ",
"1 3 1 1 1 1 1 1 1 h < 1 3 1 1 1 2 1 3 1 3 M 1 1 < M 1 M 1 2 3 M ",
"3 2 O 1 1 1 1 1 M 1 1 M 1 1 h 1 1 3 1 1 1 1 1 1 < M < j 1 1 3 M ",
"1 2 1 1 < 1 1 1 1 M 1 M 1 1 h 1 1 2 1 3 1 M 1 1 M 1 h 1 1 O 3 1 ",
"3 3 2 1 M 1 2 1 M < M 1 2 1 1 1 1 2 3 1 3 1 1 1 < V < M 1 1 3 M ",
"1 2 2 1 1 < 1 1 1 h < 1 1 1 < 1 1 1 3 1 1 M 1 1 1 j 1 M 3 3 2 1 ",
"3 2 2 1 M 1 1 1 1 M M 1 2 1 M 1 2 1 1 3 3 1 M 1 j M < 1 1 1 3 V ",
"1 3 1 1 1 1 1 1 1 M 1 1 1 1 1 1 3 O 1 3 1 1 1 1 < M M V 3 1 3 < ",
"3 2 2 1 1 1 1 1 1 M < 1 1 1 1 1 1 1 3 1 3 1 1 1 j M < 3 1 3 3 U ",
"H 3 3 1 M 1 1 1 1 h 1 M 1 1 1 1 1 1 3 1 1 1 1 1 1 < M H 3 1 # H ",
"3 3 2 1 1 M 1 1 1 1 M 1 2 h 1 1 3 1 1 3 3 1 1 1 1 j 1 M 1 1 3 3 ",
"H 3 1 1 G 1 M 1 M M M 1 3 M h 1 1 3 3 1 3 1 1 M 1 M < H 1 3 3 H ",
"H 2 3 3 1 M < M 1 < 1 1 1 1 1 1 1 3 3 3 3 M 3 M j V < 1 3 # 3 H ",
"H 2 3 3 M 1 M 1 M 1 M 1 3 1 1 1 1 3 3 H 3 H 3 1 1 j 1 1 1 1 3 H ",
"H 3 3 3 M 1 < 1 M M M 1 3 1 M 1 1 3 3 3 1 1 M M M 1 < M 1 1 3 H ",
"H 3 3 3 M M 1 M 1 M M 1 3 1 M 1 M 3 3 3 3 M 3 1 M M < < 1 1 @ H ",
"H 3 3 3 1 1 1 3 1 M M M 3 M M 3 3 3 3 H 3 M V 1 M M M M 1 3 3 3 ",
"G 3 3 1 H M 1 H H M M 1 3 H 1 3 3 3 3 H H H 1 3 M H < M 1 3 3 M ",
"H 3 3 3 1 1 3 1 3 M H M 3 H V 3 H 3 H 3 H 3 H 1 H H < j 1 3 3 H ",
"H # 3 1 H 1 3 M M H M M 3 V V 3 H 3 3 3 1 3 M 3 M M 1 H 3 1 3 H ",
"U 3 3 1 H 1 1 3 M M M 3 3 3 H 1 3 3 3 ~ H M M 1 M M < M 3 + 3 H ",
"3 3 3 3 V 1 1 1 1 H H M 3 H M 3 3 3 U 3 H M H 1 H M j H 1 1 3 H ",
"U 4 3 3 U 1 3 V H M M M 3 M M M 3 H 3 U H 3 M H M M M M 3 1 3 H ",
"H 3 3 3 H 1 3 1 H M M 3 3 3 M 3 3 3 3 H 3 M 3 M M M < H 1 3 3 V ",
"U 3 3 1 H V 1 M H M M M H H M M 3 3 3 3 H H e M M M M H 3 3 3 U ",
"U 3 3 3 H e 3 e H H M 3 3 M H M 3 3 G 3 G G : 1 M M w M 1 1 3 t ",
"3 3 3 3 H H 1 M e M M e 1 H M 1 3 3 4 G G e 1 e M M 1 M 1 + 4 H "
};
