/* XPM */
static char *tail_down_xpm[] = {
/* columns rows colors chars-per-pixel */
"33 33 156 2 ",
"   c #3F76AF",
".  c #3C79AD",
"X  c #3E77B7",
"o  c #377EB5",
"O  c #387FB1",
"+  c #3679BA",
"@  c #377ABB",
"#  c #3A7AB9",
"$  c #3879BA",
"%  c #4E63AC",
"&  c #4C67AD",
"*  c #4168AF",
"=  c #4F68AE",
"-  c #4F69AF",
";  c #5063AC",
":  c #5064AD",
">  c #5164AD",
",  c #5266AD",
"<  c #5066AE",
"1  c #5167AE",
"2  c #5367AE",
"3  c #5467AE",
"4  c #5068AF",
"5  c #5168AF",
"6  c #5169AF",
"7  c #5268AF",
"8  c #5368AF",
"9  c #5369AF",
"0  c #4575AB",
"q  c #4171AF",
"w  c #4775AE",
"e  c #4E74AF",
"r  c #4F7AA8",
"t  c #517DA7",
"y  c #5277AA",
"u  c #5171AF",
"i  c #5279AB",
"p  c #466BB2",
"a  c #426DB3",
"s  c #436DB3",
"d  c #466CB3",
"f  c #426FB4",
"g  c #456FB4",
"h  c #4B69B0",
"j  c #4B6BB1",
"k  c #4C6AB0",
"l  c #4D6BB1",
"z  c #4F6AB0",
"x  c #4F6BB0",
"c  c #4F6AB1",
"v  c #486CB2",
"b  c #496CB2",
"n  c #496DB3",
"m  c #4B6DB3",
"M  c #496FB3",
"N  c #4B6EB3",
"B  c #4A6FB3",
"V  c #4C6CB1",
"C  c #4C6CB2",
"Z  c #4D6CB2",
"A  c #4C6DB3",
"S  c #4D6DB3",
"D  c #4E6DB2",
"F  c #4F6DB3",
"G  c #4C6EB3",
"H  c #4D6EB3",
"J  c #4C6FB3",
"K  c #4D6FB3",
"L  c #4F6EB2",
"P  c #4E6FB4",
"I  c #5169B0",
"U  c #5269B0",
"Y  c #506AB0",
"T  c #516AB0",
"R  c #516BB0",
"E  c #516AB1",
"W  c #526AB1",
"Q  c #526BB1",
"!  c #516BB2",
"~  c #5469B0",
"^  c #5669B0",
"/  c #546AB0",
"(  c #556AB0",
")  c #546AB1",
"_  c #506CB1",
"`  c #506CB2",
"'  c #516CB2",
"]  c #506DB2",
"[  c #516DB3",
"{  c #526CB2",
"}  c #526DB2",
"|  c #536DB2",
" . c #506EB3",
".. c #516EB3",
"X. c #526EB3",
"o. c #556CB1",
"O. c #506FB4",
"+. c #516FB4",
"@. c #526FB4",
"#. c #586CB1",
"$. c #4176B1",
"%. c #4773B5",
"&. c #4671B6",
"*. c #4473B6",
"=. c #4573B6",
"-. c #4772B6",
";. c #4076B6",
":. c #4675B7",
">. c #4476B7",
",. c #4970B1",
"<. c #4B72B1",
"1. c #4B71B3",
"2. c #4E70B3",
"3. c #4F76B2",
"4. c #4870B5",
"5. c #4871B5",
"6. c #4971B5",
"7. c #4B70B4",
"8. c #4A70B5",
"9. c #4B70B5",
"0. c #4A71B5",
"q. c #4872B5",
"w. c #4A72B6",
"e. c #4B72B6",
"r. c #4C70B5",
"t. c #4C71B5",
"y. c #4F70B4",
"u. c #4E70B5",
"i. c #4E71B5",
"p. c #4F71B5",
"a. c #4974B6",
"s. c #4B75B6",
"d. c #4E74B7",
"f. c #4875B8",
"g. c #5070B5",
"h. c #5270B5",
"j. c #5072B6",
"k. c #5073B6",
"l. c #5173B6",
"z. c #5174B6",
"x. c #5D72B6",
"c. c #577AB3",
"v. c #5678B9",
"b. c #3880B0",
"n. c #5C8E92",
"m. c #5F8B97",
"M. c #51849C",
"N. c #5281A6",
"B. c #5388AD",
"V. c #4D84B1",
"C. c #5D85B2",
"Z. c #5980BA",
"A. c #6185A1",
"S. c #7897C4",
"D. c #7C98C3",
"F. c None",
/* pixels */
"F.F.F.F.F.F.F.F.F.F.F.F.F.F.F.F.F.F.F.F.F.F.F.F.F.F.F.F.F.F.F.F.F.",
"F.F.F.F.F.F.F.F.F.F.F.t 0 q I 5 5 9 ! g w M.n.F.F.F.F.F.F.F.F.F.F.",
"F.F.F.F.F.F.F.F.F.F.S.e <.1.R T U U W A ,.r N.F.F.F.F.F.F.F.F.F.F.",
"F.F.F.F.F.F.F.A.i 7.A S K l.] _ Y T U x ` K t.e.3.3.3.F.F.F.F.F.F.",
"F.F.F.F.F.F.c.4 5 9 / { } p f.-.G ` x Z Z ' Q 8 ^ ^ ^ x.F.F.F.F.F.",
"F.F.F.F.F.F.: ; , 2 ( | ..s H D x x x H J J ] U 3 3 3 % h.F.F.F.F.",
"F.F.F.F.F.F.> : , 7 U } +.&.x x z z x J 9.0.9.c 8 8 8 : } D.F.F.F.",
"F.F.F.F.2.9 7 7 7 4 = ` P d.- - z l S 9.5.-.5.Z U U U ~ ) u y F.F.",
"F.F.F.F.j 9 / W 9 U - l L k.c c x Z N 0.5.&.4.F I I I #.#.Q j m.F.",
"F.F.=.B ' c Z H K y.P D l h 0.0.e.e.w.9.B N G Z x x x = 2 1 1 +.F.",
"F.B.d A H N *.+ $ @ f.] I & q.q.-.a.4.S C V S J t.t.t.* 7 7 3 , C.",
"F.V.v b A 4.# b.O o ;.S I < 9.9.0.w.M C l V A 6.>.>.>.a U 6 2 > Z.",
"F.s.k j C 9.X .   $.%.N x 4 H G S D Z _ _ Z S 8.:.:.:.f ' T 4 7 v.",
"F.X.U z Z H S Z D H J G F E J G ` x x ] ] F F F H H H n H Z c ) z.",
"F.[ U z Z H S Z D H J G F E J G ` x x ] ] F F F H H H m H Z c / z.",
"F.' U z Z H S Z D H J G F E J G ` x x ] ] F F F J J J m H Z c W i.",
"F.' U z Z H S Z D H J G F E J G ` x x ] ] F F F J J J m H Z c W i.",
"F.' U z Z H S Z D H J G F E J G ` x x ] ] F F F J J J N J Z c W u.",
"F.' U Y Z H S Z D H J G F E J G ` x x ] ] F F F J J J N J D x W r.",
"F.' U Y Z H S Z D H J G F E J G ` x x ] ] F F F J J J N K ] x W r.",
"F.' 9 E Z H S Z D H J G F E J G ` x x ] ] F F F J J J N y.] x W r.",
"F.[ W x Z H S Z D H J G F E J G ` x x ] ] F F F J J J N y.] x / u.",
"F.[ W x Z H S Z D H J G F E J G ` x x ] ] F F F J J J N y.] x / u.",
"F.[ W x Z H S Z D H J G F E J G ` x x ] ] F F F H H H N y.] x / u.",
"F.h.W Q ' P H S H P K K L Q r.K ] ` Q } } L L L J J J m H ` x / u.",
"F.h.W Q ' P H S H P K K L Q r.K ] ` Q } } L L L K K K m G Z x / u.",
"F.h.W Q ' P H S H P K K L Q r.K ] ` Q } } L L L y.y.y.N J D x / u.",
"F.h.W Q ] O.L ] L O.y.y.O.Q y.O.} { { .. .O.O.L y.y.y.N J D x / i.",
"F.h.W Q ] O.L ] L O.y.y.O.Q y.O.} { { .. .O.O.L y.y.y.N J D x ) i.",
"F.h.W Q ] O.L ] L O.y.y.O.Q y.O.} { { .. .O.O.L y.y.y.N y.] x ) i.",
"F.h.W Q ] O.H ] L O.y.y.O.Q y.O.} { { ....O.O.L y.y.y.N y.] x ) i.",
"F.h.W Q [ g.K L O.g.y.y.O.Q p.y.[ { { X.@.+.O.O.y.y.y.J y.] x ) j.",
"F.h.W Q [ g.K L O.g.y.y.O.Q p.y.[ { { X.@.+.O.O.y.y.y.J y.] x o.j."
};
