/* XPM */
static char *tail_right_xpm[] = {
/* columns rows colors chars-per-pixel */
"33 33 153 2 ",
"   c None",
".  c #3F76AF",
"X  c #3C79AD",
"o  c #3E77B7",
"O  c #377EB5",
"+  c #387FB1",
"@  c #3679BA",
"#  c #377ABB",
"$  c #3A7AB9",
"%  c #3879BA",
"&  c #4E63AC",
"*  c #4C67AD",
"=  c #4168AF",
"-  c #4F68AE",
";  c #4F69AF",
":  c #5063AC",
">  c #5064AD",
",  c #5164AD",
"<  c #5266AD",
"1  c #5066AE",
"2  c #5167AE",
"3  c #5367AE",
"4  c #5467AE",
"5  c #5068AF",
"6  c #5168AF",
"7  c #5169AF",
"8  c #5268AF",
"9  c #5368AF",
"0  c #5369AF",
"q  c #4576AB",
"w  c #4172AF",
"e  c #4775AD",
"r  c #4E74AF",
"t  c #4F7AA8",
"y  c #517EA7",
"u  c #5277AA",
"i  c #5171AF",
"p  c #5279AB",
"a  c #466BB2",
"s  c #426DB3",
"d  c #436DB3",
"f  c #466CB3",
"g  c #426FB4",
"h  c #466FB4",
"j  c #4B69B0",
"k  c #4B6BB1",
"l  c #4C6AB0",
"z  c #4D6BB1",
"x  c #4F6AB0",
"c  c #4F6BB0",
"v  c #4F6AB1",
"b  c #486CB2",
"n  c #496CB2",
"m  c #496DB3",
"M  c #4B6DB3",
"N  c #496FB3",
"B  c #4B6EB3",
"V  c #4A6FB3",
"C  c #4C6CB1",
"Z  c #4C6CB2",
"A  c #4D6CB2",
"S  c #4C6DB3",
"D  c #4D6DB3",
"F  c #4E6DB2",
"G  c #4F6DB3",
"H  c #4C6EB3",
"J  c #4D6EB3",
"K  c #4C6FB3",
"L  c #4D6FB3",
"P  c #4F6EB2",
"I  c #4E6FB4",
"U  c #5169B0",
"Y  c #5269B0",
"T  c #506AB0",
"R  c #516AB0",
"E  c #516BB0",
"W  c #516AB1",
"Q  c #526AB1",
"!  c #526BB1",
"~  c #5469B0",
"^  c #5669B0",
"/  c #546AB0",
"(  c #556AB0",
")  c #546AB1",
"_  c #506CB1",
"`  c #506CB2",
"'  c #516CB2",
"]  c #506DB2",
"[  c #516DB3",
"{  c #526CB2",
"}  c #526DB2",
"|  c #536DB2",
" . c #506EB3",
".. c #516EB3",
"X. c #526EB3",
"o. c #556CB1",
"O. c #506FB4",
"+. c #516FB4",
"@. c #526FB4",
"#. c #586CB1",
"$. c #4176B1",
"%. c #4773B5",
"&. c #4671B6",
"*. c #4473B6",
"=. c #4573B6",
"-. c #4772B6",
";. c #4076B6",
":. c #4675B7",
">. c #4476B7",
",. c #4970B1",
"<. c #4B72B1",
"1. c #4B71B3",
"2. c #4E70B3",
"3. c #4F76B2",
"4. c #4870B5",
"5. c #4871B5",
"6. c #4971B5",
"7. c #4B70B4",
"8. c #4A70B5",
"9. c #4B70B5",
"0. c #4A71B5",
"q. c #4872B5",
"w. c #4A72B6",
"e. c #4B72B6",
"r. c #4C70B5",
"t. c #4C71B5",
"y. c #4F70B4",
"u. c #4F71B5",
"i. c #4974B6",
"p. c #4B75B6",
"a. c #4E74B7",
"s. c #4875B8",
"d. c #5070B5",
"f. c #5270B5",
"g. c #5072B6",
"h. c #5073B6",
"j. c #5173B6",
"k. c #5174B6",
"l. c #5D72B6",
"z. c #577AB3",
"x. c #5677B8",
"c. c #3880B0",
"v. c #5C8E92",
"b. c #5F8B97",
"n. c #51849C",
"m. c #5281A6",
"M. c #5388AD",
"N. c #4D84B1",
"B. c #5D85B2",
"V. c #5980BA",
"C. c #6185A1",
"Z. c #7897C4",
"A. c #7C98C3",
/* pixels */
"                    B.z.x.k.g.d.u.H u.d.t.2.f.2.f.2.f.a.2.t.f.f.f.",
"                b.O.2 2 Y o.~ Q Q Q Q Q } 0 7 o.9 o.7 o.o.) ) } o.",
"              u Z 9 2 2 Y c c c A Y c c 7 ; ; ; Z 7 ; 7 ; 7 ; Z Z ",
"            A.i Y 2 9 9 Y H A A A A H H Z } d.} } Z 2.Z 2.Z } } } ",
"          f.} ) #.4 9 Y } H Z 2.H H t.Z f.t.t.d.2.Z 2.Z 2.t.f.2.2.",
"        l.& : ) #.* = s g B B M M H B B ,.Z M M M M ,.M ,.M 2.Z Z ",
"      k.) 4 9 Y Y c e.>.:.H 2.M H H H H t.2.M t.Z t.2.d.2.d.t.f.d.",
"      k.4 4 9 Y Y c e.:.:.H Z 2.H H t.H Z 2.2.Z Z 2.d.2.d.d.t.2.f.",
"      3.) 4 4 9 Y } e.>.:.2.Z t.H H H H t.B H H 2.2.d.2.d.2.2.t.O.",
"      p.4 ) } Z Z Z M e.e.Z } Z O.O.H Q H Y O.H 2.Z 2.; r } } } O.",
"  v.m.t.Y Z e.,.e.M Z M Z } d.Z H O.H O.O.Y O.} Z 2.Z d.O.O.t.O.O.",
"  n.t 2.} M e.&.&.,.; Z Z } Z } H Q Q H O.H H } d.} d.} O.O.O.O.O.",
"  e ,.} Z M e.&.&.M M ; Z } 7 2.O.Y H O.} } Z Z } } o.} } } O.O.O.",
"  &.M c Z Z 2.e.e.e.M ; } Z d.d.Q O.} } Z } } } } } O.O.} O.O.} O.",
"  Y } Y } } ; Z M e.4.h Z 7 ; ; c c c c c c c c Y Y Y O.O.Y o.} } ",
"  9 Y Y Z 7 ; Z M e.p.e.Z 7 2.; c c c c c c c c } O.Y O.) O.Y } } ",
"  ; 9 9 Z c c c c e.&.e.H } } Z c Q H Q } Z } Z } } } } } } } } } ",
"  9 c } &.Z c ; c e.&.B B H Z 2.H H H H Z M Z 2.M 2.Z f.f.t.} t.t.",
"  Y } Z s.H Y c c e.e.e.H H e.Z B e.H t.e.M Z e.e.t.t.t.2.d.f.t.f.",
"  w 2.f.h d &.a.t.k * * Y Y Y Y Y Y Y Y Y Y } Y Y } Y Y Y } Y } Y ",
"  q ,.2.} } O.H } c Y c ; 2.Z O.H H O.Z O.} O.} Z d.d.Z f.} f.O.O.",
"  y 3.Z } ) } } c Z Q H M M 2.Z H H H H H H Z Z 2.2.Z f.2.t.d.t.O.",
"    Z.Z ) ) Y * c H :.>.p.M 2.Z H H t.H H H H t.2.Z 2.t.2.d.d.2.t.",
"      2.~ 4 U U Y t.# O $.t.Z t.H H } H H H H H 2.2.H f.} t.} f.f.",
"      p 9 2 2 4 ) Z % c.o ; Z } H Q H H } H H Q Z 2.t.} } 2.} 2.O.",
"      C.; & 2 9 Y H # c.X Z Z Z A A A Q c A A A Z Z Z Z Z } } Z } ",
"        z.2 : 2 ) Z =.# o Z Z H H H A H H H H H t.Z 2.} d.Z 2.2.t.",
"              4 Y c B B 2.2.2.Z O.H H H H H H H O.O.H f.} f.H f.H ",
"              2.k O.Z H A A A A A A A A H A A A Y } } Z } Z } } } ",
"                  B H k k c c c Y c c Y Y c c c } } Y } } Y } } } ",
"                  =.f M c U Y Y U U U U ) Y Y Y Y Y Y Y } Y Y Y Y ",
"                    M.N.s.Q O.Q Q O.Q Q Q O.O.O.f.f.f.f.f.f.f.f.f.",
"                                                                  "
};
