/* XPM */
static char *tail_right_xpm[] = {
/* columns rows colors chars-per-pixel */
"50 32 121 2 ",
"   c None",
".  c #3B7BB4",
"X  c #3B77B9",
"o  c #3B79BA",
"O  c #4F66AF",
"+  c #4D6AAF",
"@  c #5266AE",
"#  c #5268AF",
"$  c #4B7AA5",
"%  c #4474AE",
"&  c #4C74AC",
"*  c #4079AF",
"=  c #4B78A8",
"-  c #547CA6",
";  c #5B7AA6",
":  c #5374AC",
">  c #5478AA",
",  c #5C7FAA",
"<  c #466CB2",
"1  c #4D6DB3",
"2  c #5167B0",
"3  c #506EB4",
"4  c #516EB4",
"5  c #506FB4",
"6  c #516FB4",
"7  c #506FB5",
"8  c #526EB4",
"9  c #526BB2",
"0  c #5A6CB1",
"q  c #4771B1",
"w  c #4773B3",
"e  c #4177B0",
"r  c #4574B0",
"t  c #4575B3",
"y  c #4771B5",
"u  c #4772B5",
"i  c #4771B6",
"p  c #4177B7",
"a  c #4574B6",
"s  c #4474B7",
"d  c #4675B7",
"f  c #4474B6",
"g  c #4A71B2",
"h  c #4B70B3",
"j  c #4D71B2",
"k  c #4F70B2",
"l  c #4E70B3",
"z  c #4970B4",
"x  c #4970B5",
"c  c #4871B5",
"v  c #4971B5",
"b  c #4A70B4",
"n  c #4A70B5",
"m  c #4B70B5",
"M  c #4A71B5",
"N  c #4971B6",
"B  c #4A70B6",
"V  c #4A71B6",
"C  c #4872B6",
"Z  c #4972B6",
"A  c #4873B6",
"S  c #4973B6",
"D  c #4873B7",
"F  c #4A72B6",
"G  c #4B72B6",
"H  c #4C70B5",
"J  c #4D70B5",
"K  c #4C71B5",
"L  c #4E70B4",
"P  c #4F70B4",
"I  c #4E70B5",
"U  c #4F70B5",
"Y  c #4F71B5",
"T  c #4C71B6",
"R  c #4E72B6",
"E  c #4E74B4",
"W  c #4C71B4",
"Q  c #4C78B5",
"!  c #4476B8",
"~  c #4476B9",
"^  c #5272B0",
"/  c #5070B4",
"(  c #5170B4",
")  c #5070B5",
"_  c #5071B5",
"`  c #5072B5",
"'  c #5072B6",
"]  c #5273B7",
"[  c #5671B4",
"{  c #5377B4",
"}  c #5274B7",
"|  c #5270B5",
" . c #5D72B6",
".. c #5874B6",
"X. c #5875B7",
"o. c #567BB3",
"O. c #5378B6",
"+. c #5779B1",
"@. c #597DB3",
"#. c #5576B8",
"$. c #5778B9",
"%. c #5A7FB8",
"&. c #607FB4",
"*. c #667BB9",
"=. c #548697",
"-. c #5C8C90",
";. c #5E8A96",
":. c #52809F",
">. c #5F8BA1",
",. c #5286AD",
"<. c #4D83B0",
"1. c #5D83B1",
"2. c #5D84B1",
"3. c #5C82B4",
"4. c #6587A3",
"5. c #628AAE",
"6. c #6889B2",
"7. c #6886BF",
"8. c #6886C0",
"9. c #809CC3",
"0. c #849FC9",
/* pixels */
"                            5.%.%.$.#.] ] ] 7 7 T 7 1 T 1 T 1 T ] ] 1 ] ] ^ ] ] 9 T T ] ] ] ] T T ] ",
"                      ;.; 7 # @ @ @ 2 2 9 9 9 9 9 9 2 1 9 9 9 9 2 2 2 2 2 9 2 2 2 0 9 9 2 2 9 0 9 0 ",
"                  6.> + + @ @ # @ @ 9 1 2 2 1 1 9 2 1 2 1 1 9 1 1 9 1 1 9 1 9 + 9 + 9 1 9 + 1 9 1 1 ",
"                9.3.: 1 9 @ @ @ 9 # 9 1 < 1 1 1 1 1 1 1 9 9 1 9 1 9 1 1 1 1 1 1 1 1 9 1 1 1 9 1 1 1 ",
"            X.X.[ 9 9 0 2 @ @ @ # 9 1 1 1 1 B 1 1 c 1 c 1 c T 7 T T 1 1 c 1 h 1 1 h T T ] 1 T ] T k ",
"           .@ O @ @ # 0 2 @ < < < < y 1 1 < 1 1 1 < 1 1 1 1 1 1 1 1 1 1 1 < 1 1 < 1 1 1 1 1 1 1 1 1 ",
"      o.^ 0 @ @ # 9 # # 9 9 c c s s i 1 1 1 c 1 c 1 1 c 1 c c 1 c 1 1 c 1 c 1 T T 1 T T T 1 T T T k ",
"      o.^ 0 @ @ # # 9 # # 1 T D ! s D 1 c 1 1 c 1 c c 1 c 1 1 c 1 1 T 1 T 1 ] T T ] ] 1 T ^ ] 1 T T ",
"      O.k # 9 @ 2 1 1 1 1 1 1 D B B B 1 1 1 1 1 1 1 1 1 1 1 1 1 1 1 1 1 1 1 1 7 1 ^ k 9 1 ^ 7 7 9 k ",
"-.>.5.E 1 9 9 1 1 1 < 1 1 1 1 < 1 B 1 1 1 1 1 9 1 1 1 1 1 1 1 1 7 1 7 9 1 k k 9 T 9 T T 7 T 9 7 k k ",
"=.- - h 1 1 1 1 c c i i < c 1 1 1 1 1 1 7 1 1 1 1 1 1 1 1 1 1 1 1 1 9 1 7 T 9 T 7 7 T 9 7 7 7 7 T 1 ",
"$ = & 1 1 1 1 1 T c c i 1 < 1 1 1 1 1 1 9 1 1 1 1 7 7 7 1 9 7 7 1 7 1 1 9 9 k 7 9 7 7 9 7 7 | | 9 ] ",
"% + 1 1 1 1 1 1 T c < i c c 1 1 1 1 2 1 9 1 1 9 1 9 9 1 7 1 7 1 9 1 9 9 7 9 9 7 7 ] 7 9 7 9 8 8 ^ 7 ",
"1 1 1 # 1 + 1 1 1 1 1 1 c T c T < 1 1 1 1 1 9 1 9 1 1 1 2 1 2 9 1 1 9 9 2 7 9 7 9 9 7 9 7 7 8 2 7 0 ",
"9 # 9 9 @ 1 + # 9 1 + 1 1 R D c < 1 1 2 1 @ 1 1 1 2 2 1 2 1 1 1 1 9 9 9 7 9 1 9 7 9 0 1 9 9 1 0 9 9 ",
"# # # 9 1 1 + 1 + 1 2 1 1 c D c c 1 1 1 9 1 2 2 1 1 9 1 1 1 2 9 9 1 1 1 9 7 9 9 9 9 9 7 9 7 9 7 7 9 ",
"@ @ @ 1 1 c 1 1 1 + # + 1 c i i c B 1 1 1 1 1 1 1 1 1 1 1 1 1 1 1 1 1 1 1 1 1 9 T 7 9 ] 9 7 1 1 1 9 ",
"1 9 9 1 1 s 1 1 1 @ 1 1 1 h D h 1 1 1 1 B 1 1 1 B 1 1 B 1 1 < 1 1 1 1 T 1 k 1 1 ^ 1 1 1 T 1 ] 1 ] T ",
"+ + 1 ^ T c i < 1 1 1 7 1 1 1 1 1 1 1 1 1 1 1 1 1 1 1 1 1 1 B 1 1 1 1 1 1 T 1 ] 1 ] 7 9 1 ] ] 9 1 7 ",
"% % k T 1 1 1 1 1 1 c k 1 1 O O O 1 2 1 1 9 1 1 2 1 2 B 2 1 1 2 1 7 9 9 1 9 9 9 9 9 9 7 9 9 9 9 9 9 ",
"= & & 1 1 9 ] | 1 1 1 1 1 1 # 1 2 1 1 1 1 1 1 1 1 1 1 1 1 1 1 B 1 1 1 1 1 1 1 7 1 ] 7 9 T 9 9 T T k ",
"5.1.@.1 1 9 9 2 9 1 1 9 1 1 T 1 < 1 c 1 1 1 1 1 B 1 B 1 B 1 B 1 1 1 c T k T 1 1 T 1 T k ] T T 1 ] 1 ",
"    0.T 9 0 2 2 2 # # 1 1 1 ! p X t w k 1 c c c 1 B B B B 1 1 1 T 1 k T 1 T T ] ] T ] ] T k T ] 1 ] ",
"      #.^ # 2 @ @ 2 @ @ 9 T o o . * t 1 1 1 1 1 1 1 7 1 1 B 1 1 1 1 T 9 T 1 1 1 1 9 1 1 9 ] ] 1 ^ T ",
"      , : 9 @ @ @ @ @ @ 9 1 X o . % q 1 1 1 1 1 1 1 1 1 1 1 1 1 1 1 1 1 1 1 1 1 1 k 9 1 9 T 1 ] 1 1 ",
"      4.; # @ O @ @ @ 9 1 1 X . . . r 1 2 < 1 1 2 1 B 2 2 B 1 2 1 1 1 1 B 1 1 7 7 9 T 1 1 9 1 7 T 1 ",
"          o.@ @ 0 # @ 9 9 1 < X . s s 1 1 B 1 B B B 1 B B 1 B 1 1 1 1 1 1 1 1 7 1 9 9 k T 1 1 1 9 k ",
"                  *.9 @ 1 1 1 1 q h B 1 1 1 1 1 1 1 1 1 1 B 1 1 1 1 T T 1 R D 1 ^ T T k 9 ] 7 7 ] T ",
"                  8.#.] 7 1 1 c 1 1 1 1 1 1 2 1 1 1 1 2 2 1 1 B 1 1 9 9 7 9 1 9 1 1 7 1 1 1 7 7 9 9 ",
"                        8.c 1 1 < 1 1 + 1 9 1 2 2 1 2 9 2 1 2 2 9 9 1 9 9 9 9 9 9 9 9 9 0 8 9 9 9 9 ",
"                          i < < < 1 + 2 2 2 2 9 2 2 9 2 9 2 9 9 2 2 2 2 9 9 9 9 0 2 9 9 2 2 9 9 9 9 ",
"                            ,.,.<.E c 1 7 1 9 1 1 1 1 9 9 7 9 1 7 7 | 8 7 7 7 7 ] 8 8 7 | 7 ^ 9 ] ] "
};
