/* XPM */
static char *cobra_cauda_xpm[] = {
/* columns rows colors chars-per-pixel */
"32 32 221 2 ",
"   c #3F77B6",
".  c #3E79B1",
"X  c #3E79B2",
"o  c #3C79B5",
"O  c #3D79B6",
"+  c #4F68AF",
"@  c #4F6BAF",
"#  c #496EAE",
"$  c #5064AD",
"%  c #5166AD",
"&  c #5166AE",
"*  c #5166AF",
"=  c #5167AF",
"-  c #5266AE",
";  c #5267AE",
":  c #5267AF",
">  c #5367AF",
",  c #5467AF",
"<  c #5168AE",
"1  c #5168AF",
"2  c #5268AF",
"3  c #5368AF",
"4  c #5269AF",
"5  c #536FAD",
"6  c #4E7CA2",
"7  c #4674AC",
"8  c #4D74AB",
"9  c #4872AF",
"0  c #4D73AF",
"q  c #4D79A9",
"w  c #517CA7",
"e  c #5471AF",
"r  c #5778AF",
"t  c #5E7EA8",
"y  c #456BB2",
"u  c #446DB4",
"i  c #466EB4",
"p  c #4B6AB0",
"a  c #4A6BB2",
"s  c #4F68B0",
"d  c #4F69B0",
"f  c #4F69B1",
"g  c #4D6AB1",
"h  c #4E6AB1",
"j  c #4F6AB1",
"k  c #4E6BB1",
"l  c #4F6BB1",
"z  c #4C6BB2",
"x  c #4E6AB2",
"c  c #4E6BB2",
"v  c #4F6BB2",
"b  c #4B6EB1",
"n  c #4B6CB3",
"m  c #4A6DB3",
"M  c #4B6DB3",
"N  c #4B6EB2",
"B  c #4A6EB3",
"V  c #4C6CB2",
"C  c #4D6CB2",
"Z  c #4C6DB2",
"A  c #4D6DB2",
"S  c #4C6CB3",
"D  c #4D6CB3",
"F  c #4C6DB3",
"G  c #4D6DB3",
"H  c #4E6CB2",
"J  c #4F6CB2",
"K  c #4E6CB3",
"L  c #4F6CB3",
"P  c #4E6DB3",
"I  c #4F6DB3",
"U  c #4D6EB2",
"Y  c #4D6FB2",
"T  c #4C6EB3",
"R  c #4E6FB2",
"E  c #4E6EB3",
"W  c #4F6EB3",
"Q  c #4E6FB3",
"!  c #486DB4",
"~  c #496DB4",
"^  c #4A6DB4",
"/  c #486EB4",
"(  c #486FB4",
")  c #496FB4",
"_  c #496FB5",
"`  c #4A6EB4",
"'  c #4B6EB4",
"]  c #4A6FB4",
"[  c #4B6FB4",
"{  c #4A6FB5",
"}  c #4B6FB5",
"|  c #4C6DB4",
" . c #4D6DB4",
".. c #4E6DB4",
"X. c #4C6EB4",
"o. c #4D6EB4",
"O. c #4C6FB4",
"+. c #4D6FB4",
"@. c #4D6FB5",
"#. c #4E6EB4",
"$. c #4F6EB4",
"%. c #4E6FB4",
"&. c #4F6FB4",
"*. c #5069B0",
"=. c #5169B0",
"-. c #5268B0",
";. c #5368B0",
":. c #5269B0",
">. c #5369B0",
",. c #516AB0",
"<. c #506AB1",
"1. c #516AB1",
"2. c #506BB1",
"3. c #516BB1",
"4. c #526AB0",
"5. c #526AB1",
"6. c #536AB1",
"7. c #536BB1",
"8. c #506AB2",
"9. c #506BB2",
"0. c #516BB2",
"q. c #536AB2",
"w. c #526BB2",
"e. c #546AB0",
"r. c #556AB0",
"t. c #546AB1",
"y. c #506CB2",
"u. c #506CB3",
"i. c #516CB3",
"p. c #506DB3",
"a. c #516DB3",
"s. c #526CB3",
"d. c #526DB3",
"f. c #506EB3",
"g. c #516EB3",
"h. c #546CB2",
"j. c #506DB4",
"k. c #516DB4",
"l. c #526DB4",
"z. c #506EB4",
"x. c #516EB4",
"c. c #506FB4",
"v. c #516FB5",
"b. c #526FB4",
"n. c #526FB5",
"m. c #586DB2",
"M. c #586DB3",
"N. c #4673B0",
"B. c #4673B1",
"V. c #4773B3",
"C. c #4573B4",
"Z. c #4672B5",
"A. c #4672B6",
"S. c #4773B7",
"D. c #4077B4",
"F. c #4076B6",
"G. c #4077B6",
"H. c #4674B7",
"J. c #4B71B2",
"K. c #4D70B2",
"L. c #4970B5",
"P. c #4871B5",
"I. c #4971B5",
"U. c #4A70B4",
"Y. c #4A70B5",
"T. c #4A71B5",
"R. c #4B71B5",
"E. c #4872B4",
"W. c #4972B5",
"Q. c #4870B6",
"!. c #4871B6",
"~. c #4971B6",
"^. c #4A71B6",
"/. c #4B71B6",
"(. c #4872B6",
"). c #4972B6",
"_. c #4C70B5",
"`. c #4D70B5",
"'. c #4E70B4",
"]. c #4F70B4",
"[. c #4E70B5",
"{. c #4F70B5",
"}. c #4F71B5",
"|. c #4E73B4",
" X c #4E7BB1",
".X c #5772B2",
"XX c #5676B0",
"oX c #5777B2",
"OX c #5676B3",
"+X c #5070B5",
"@X c #5270B5",
"#X c #5172B5",
"$X c #5173B5",
"%X c #5071B6",
"&X c #5072B6",
"*X c #5173B7",
"=X c #5273B6",
"-X c #5574B5",
";X c #5476B7",
":X c #577BB6",
">X c #5A7EB4",
",X c #6D7EBB",
"<X c #588796",
"1X c #4F82AF",
"2X c #5E81A6",
"3X c #6586BA",
"4X c #6C87BB",
"5X c #7C9DB0",
"6X c #7493BE",
"7X c #7997BB",
"8X c #7C9CBC",
"9X c #6B87C1",
"0X c #7892C5",
"qX c #819AC9",
"wX c #879DCA",
"eX c #8FA5C9",
"rX c #8DA5CD",
"tX c #8EA6CC",
"yX c #95ACC2",
"uX c #91A6D1",
"iX c None",
/* pixels */
"iXiXiXiXiXiXiXiXiXiXiXiXiXiXiXiXiXiXiXiXiXiXiXiXiXiXiXiXiXiXiXiX",
"iXiXiXiXiXiXiXiXiXiX>X:X;X=X#X{.[.[.`.`.[.{.{.{.{.{.}.}.}.%X&X&X",
"iXiXiXiXiXiXiX5X2X5 : * -.q.5.5.5.5.5.5.5.6.t.t.t.t.q.q.q.q.h.h.",
"iXiXiXiXiXiX7Xr @ = > -.f x x x x c l l l l l l l l l l l l l l ",
"iXiXiXiXiXwX4X.X4.= : =.v D D D D G P I I I P D G P P I I I I I ",
"iXiXiXiXiXi.w.t.e.1 s h D X.X.X.' ' [ +.[.[.+.X.[ [ [ @.[.[.[.[.",
"iXiXiXiXM.& * >.4.p y u i ~ ^ ^ ^ ` ` ` ` ` ` ^ ' ' ' ' ' O.O.O.",
"iXiXtXoXr., 2 =.j A ).H.~.O.X.' [ [ [ [ [ X.O.O.`.{.{.{.{.{.{.{.",
"iXiXrXOXe.3 =.<.l U W.S.~.O.X.X.X.X.X.X.X.X.o.+.%.&.&.&.&.{.{.{.",
"iXiX6X$X,.2.D | | X.} { X...................W W W W W W W &.&.&.",
"iX<Xw K.y.#.T.P._ ' F F  ...................W W W &.&.&.&.&.&.&.",
"iX6 8 R P O.I.P.) B V C K ..................I f.f.$.&.&.c.v.v.v.",
"iX9 b H D ' Y.I.L.] F H J I I I I I I I I I p.a.a.z.z.z.x.b.b.b.",
"iXF c <.H P T [ Y.{ ' F H J J J J J J J J J y.i.i.a.k.k.k.l.l.l.",
"iX5.5.1.v l k V ' ^.I.[ A l l l l l l l l l v 9.9.i.s.s.s.s.s.s.",
"iX:.:.<.P k j c T R.^.} G v v v v v v v v v J L L i.i.i.i.i.i.i.",
"iX-.1.H [ A j h Z R.^.}  .G G G G G G G G G E E E f.f.f.f.$.$.$.",
"iX:.3.o.~.o.k h F R./._.X.[ [ [ [ [ [ [ [ [ O._._.[.{.{.{.{.}.}.",
"iX# Y {.( / [ +.G V z c K K K K K K K K K K P I I p.a.a.a.g.g.g.",
"iX7 J.'.G X.`.[.E h + d l L L L L L L L L L I p.p.p.p.p.p.p.p.p.",
"iXq 0 Q a.d.z.P H H H C F o.o.o.o.o.o.o.o.o.o.%.%.&.{.{.{.{.{.{.",
"iX8X3X].w.7.1.j c O.P.E.U.O.O.O.O.O.O.O.O.O.+.+.+.{.{.{.{.{.{.{.",
"iXiXqX#X4.;.1 *.H (.G.D.V.O.o.o.o.o.o.o.o.o.+.%.%.&.&.&.&.+X+X+X",
"iXiXeXXX4 - & = J A.O X B.T P P P P P P P P o.o.o.W W W W &.&.&.",
"iXiXyXt < $ & = J Z.o . N.N D D D D D D D D  .| | P I I I W W W ",
"iXiXiXiXe % % ; <.) F.  C.` | | | | | | | |  .o.o.E W W o.+.+.+.",
"iXiXiXiXiXiX,Xm.1.C ) !.Y.X.o.o.o.o.o.o.o.o.o.%.%.&.&.&.&.{.{.{.",
"iXiXiXiXiXiX0X-Xc K X.M S D D D D D D D D D L u.u.I I I I j.j.j.",
"iXiXiXiXiXiXiXuX9X*Xm n z h j j j j <.8.v l 9.0.0.0.0.0.0.w.w.w.",
"iXiXiXiXiXiXiXiXiXQ.! a g *.=.=.=.=.:.:.5.5.5.5.5.5.5.5.5.5.5.5.",
"iXiXiXiXiXiXiXiXiXiX1X X|.z.u.u.u.u.u.u.u.j.x.n.@X@X@X@X@X@X@X@X",
"iXiXiXiXiXiXiXiXiXiXiXiXiXiXiXiXiXiXiXiXiXiXiXiXiXiXiXiXiXiXiXiX"
};
