/* XPM */
static char *tail_up_xpm[] = {
/* columns rows colors chars-per-pixel */
"32 50 124 2 ",
"   c None",
".  c #3B7BB4",
"X  c #3B77B9",
"o  c #3B79BA",
"O  c #4F66AF",
"+  c #4D6AAF",
"@  c #5266AE",
"#  c #5268AF",
"$  c #4B79A6",
"%  c #4474AE",
"&  c #4C74AC",
"*  c #4079AF",
"=  c #4B78A8",
"-  c #537CA6",
";  c #5B7AA5",
":  c #5374AC",
">  c #5478AA",
",  c #5C7FAA",
"<  c #466CB2",
"1  c #4D6DB3",
"2  c #5167B0",
"3  c #546CB2",
"4  c #566CB2",
"5  c #576CB2",
"6  c #506DB4",
"7  c #516DB4",
"8  c #506EB4",
"9  c #516EB4",
"0  c #506FB4",
"q  c #516FB4",
"w  c #506FB5",
"e  c #516FB5",
"r  c #526EB4",
"t  c #516BB2",
"y  c #596CB1",
"u  c #4773B3",
"i  c #4177B0",
"p  c #4574B0",
"a  c #4575B3",
"s  c #4772B5",
"d  c #4771B6",
"f  c #4572B6",
"g  c #4673B7",
"h  c #4274B6",
"j  c #4177B7",
"k  c #4276B7",
"l  c #4574B6",
"z  c #4474B7",
"x  c #4675B7",
"c  c #4771B4",
"v  c #4A70B3",
"b  c #4E70B3",
"n  c #4970B4",
"m  c #4870B5",
"M  c #4970B5",
"N  c #4871B5",
"B  c #4971B5",
"V  c #4A70B4",
"C  c #4A70B5",
"Z  c #4B70B5",
"A  c #4A71B5",
"S  c #4971B6",
"D  c #4A70B6",
"F  c #4A71B6",
"G  c #4872B6",
"H  c #4972B6",
"J  c #4873B6",
"K  c #4973B6",
"L  c #4A72B6",
"P  c #4B72B6",
"I  c #4C70B5",
"U  c #4D70B5",
"Y  c #4C71B5",
"T  c #4E70B5",
"R  c #4F70B5",
"E  c #4F71B5",
"W  c #4D73B5",
"Q  c #4C71B6",
"!  c #4E72B6",
"~  c #4C71B4",
"^  c #4C78B5",
"/  c #4476B8",
"(  c #4476B9",
")  c #5070B3",
"_  c #5170B3",
"`  c #5270B3",
"'  c #5070B4",
"]  c #5070B5",
"[  c #5170B5",
"{  c #5071B5",
"}  c #5270B5",
"|  c #5072B6",
" . c #5273B7",
".. c #5670B4",
"X. c #5274B7",
"o. c #5475B6",
"O. c #5273B3",
"+. c #5874B6",
"@. c #5A74B6",
"#. c #567BB2",
"$. c #597DB3",
"%. c #5576B8",
"&. c #5778B9",
"*. c #5A7FB8",
"=. c #607EB4",
"-. c #667BB9",
";. c #548597",
":. c #5E8A96",
">. c #5B8C90",
",. c #51809F",
"<. c #5185AD",
"1. c #5387AC",
"2. c #4D83B0",
"3. c #5D84B1",
"4. c #5C82B4",
"5. c #5C83B1",
"6. c #6587A3",
"7. c #608CA1",
"8. c #628AAE",
"9. c #6889B2",
"0. c #6886BF",
"q. c #6886C0",
"w. c #809CC3",
"e. c #839FC9",
/* pixels */
"| 3 + 1 1 v E E b b b ) ) 3 6 t 1 1 | 3 b E E 1 b 1 b | 3 t t | ",
"E 3 1 1 | 1 Z 1 b 3 1 ) 3 3 3 t 1 | 3 1 e 1 1 | ) 1 b 1 1 t t 3 ",
"| 3 t 3 E 1 E E 1 | e | | e 3 1 1 E 1 e | | E e ) 1 b E e t t e ",
"| t 1 1 E Z 1 E E 1 e 1 3 3 1 3 e E 1 t 1 E 1 e b 3 E E t t t } ",
"| t 1 6 E Z E E b E 1 3 e 4 t 6 1 | 1 6 e 1 E | 3 1 1 | e t t e ",
"e 2 t 1 1 1 1 E 3 1 E e e 6 4 t e 1 e 1 1 | | 1 b e 1 1 t t t | ",
"| t t 1 Q D E E 1 | 1 t e t 6 6 3 1 e 3 e | 1 e 1 1 1 E 6 t t 3 ",
"e t 1 1 E 1 1 E e 1 e e e 6 4 6 1 E e t 1 | | 1 3 1 e 1 t t t | ",
"| t t 3 Z 1 F 1 1 1 | e e t 6 t 3 1 e 6 1 E E 1 E 1 1 1 3 1 t e ",
"1 t 1 1 F < E E e E e 1 e 3 t 6 1 1 e 6 1 E E E 1 1 1 E 1 3 t | ",
"| # 1 1 Z 1 E E 1 E 1 e e t t 6 3 E e t | E E 1 3 1 E 1 e t # 3 ",
"e t # 1 < 1 E E 1 1 1 3 6 t 6 1 1 Z 1 e 1 1 1 E 1 1 1 E t t t | ",
"e t + 1 1 < Z 1 1 3 ) 3 1 3 1 t 1 1 1 1 1 E Z 1 1 1 1 E 3 t t e ",
"3 t 1 1 1 1 Z 1 1 b 1 1 3 1 t 1 1 E 1 3 1 1 1 E D 1 1 1 1 t t e ",
"E t t t 1 1 1 Z 1 3 E 3 3 3 1 1 1 v 1 1 1 E Q 1 1 1 1 E t t t e ",
"E t t 1 1 1 d 1 b 1 1 1 1 1 3 1 1 E 1 3 1 E 1 1 1 D 1 1 1 t t e ",
"e t t 1 Q F F 1 1 e 1 1 1 t 1 O 1 1 1 1 1 D 1 D 1 1 1 1 1 1 2 6 ",
"e 2 1 6 E < 1 1 1 1 1 1 1 1 # 1 1 1 1 1 1 D 1 1 1 1 D 1 1 O 6 6 ",
"1 t t 1 E 1 1 F 1 1 1 3 t 1 1 t 1 1 1 1 1 1 1 D 1 O D 1 1 6 2 6 ",
"E t 1 1 Q 1 1 D 1 1 1 1 1 t # 1 1 1 1 1 D 1 1 1 1 1 1 1 O 6 2 6 ",
"E t 1 1 D 1 1 < 1 1 1 6 6 1 t 1 1 1 1 O D 1 D 1 1 1 1 1 1 6 2 6 ",
"1 t 1 t 1 1 D 1 1 1 1 1 1 t 1 2 1 1 1 1 1 1 1 1 1 1 1 1 1 2 2 6 ",
"1 t # 1 D 1 D D 1 1 1 6 1 1 1 1 1 1 1 1 D D 1 1 1 1 1 1 1 t 2 6 ",
"E # 1 1 D D 1 1 1 1 1 6 t 1 2 2 1 1 1 1 1 1 1 D 1 1 1 1 1 t 2 6 ",
"1 t < 1 1 1 1 < 1 1 1 6 1 6 t 1 1 D 1 1 1 1 Z 1 1 1 1 1 1 O 6 6 ",
"E t 2 1 1 1 1 F 1 1 1 6 1 6 1 6 1 1 1 O D 1 Z Z 1 < D 1 1 O 2 6 ",
"E t 1 1 1 1 Z Z 1 1 1 1 6 1 2 O 1 1 1 1 1 1 1 1 1 1 D 1 1 2 2 6 ",
"E t 2 1 1 1 d 1 1 6 1 6 1 2 1 6 1 1 1 1 D 1 F 1 1 O 1 1 1 1 2 6 ",
" .2 O 1 1 1 D 1 1 1 1 6 6 6 6 O 1 1 1 O 1 1 F 1 1 1 1 1 1 2 2 1 ",
" .6 1 1 D < D 1 6 D 6 1 1 1 O 6 1 D 1 1 1 1 Z 1 1 1 1 1 1 2 6 1 ",
" .4 1 1 1 1 1 1 1 1 1 6 6 1 O 1 1 1 1 1 1 1 1 1 1 1 1 1 < 2 2 e ",
"%.2 2 1 1 < g g D 1 O 1 6 1 1 1 D 1 1 O 1 < f p p i d 1 1 1 1 E ",
"%.2 t t 2 < f / Z 1 1 1 t 1 1 1 1 Z 1 + 1 1 a * * * i v 1 < < J ",
"*.2 @ # # < h k g < < 1 1 < Z 1 Z Z 1 O 1 v j . . . . Z 1 < 1 2.",
"9.@ @ 2 # < d Z Z 1 1 < 1 Z d J Z J 1 O + 1 X o . o h 1 Z 1 1 <.",
"4.@ @ @ # < v 1 Z 1 1 1 1 Z Z x Z Z < # t 1 / o o X h 1 1 1 < 1.",
"  e # # # # # 1 1 1 1 Z Z d Z J 1 v 1 < 1 1 1 1 1 1 1 1 1 1 /   ",
"  - + # 2 # 1 # 1 1 d v d 1 Z 1 < 1 1 1 1 1 3 1 1 1 t 2 1 q.    ",
"  :.1 t y y t # < 1 d d Z 1 1 1 1 1 1 e 1 + 2 t t t 2 # e       ",
"    > : t t @ t 1 1 d d Z 1 < 1 O 1 3 E 1 1 # t # # # t }       ",
"    9.=.3 @ 2 2 < 1 d d Z 1 1 + O 1 1 Z 1 1 # 2 @ # t -.0.      ",
"      w...@ @ y 1 1 Z Z Z 1 + 1 + 1 1 1 e 3 2 @ @ @ y           ",
"        @.# @ @ # 1 1 1 1 1 1 + 1 1 Z < 3 3 t @ @ O #           ",
"        @.2 @ @ 2 t 1 1 1 1 # 1 1 1 c < e 3 # @ @ @ #           ",
"          @.y t # t # 1 1 1 1 1 1 d d 1 3 t t # @ @ :           ",
"            ) : ) b b 1 1 O t 2 1 1 Z E 1 1 t & : ;             ",
"            $.$.o.W 1 1 1 # t 2 1 t | E 1 E | o., 6.            ",
"                  8.- & < 1 t # # t 1 Z & $.e.                  ",
"                  7.,.= 1 1 # # 2 1 + % & 5.                    ",
"                  >.;.$ c 1 t O # # + % = 8.                    "
};
