/* XPM */
static char *tail_left_xpm[] = {
/* columns rows colors chars-per-pixel */
"50 50 142 2 ",
"   c None",
".  c #3B7BB4",
"X  c #3D76B9",
"o  c #3B79BA",
"O  c #4F67AF",
"+  c #476DAE",
"@  c #4D69AF",
"#  c #5267AF",
"$  c #5169AF",
"%  c #4D7AA5",
"&  c #4374AE",
"*  c #4C74AC",
"=  c #4079AF",
"-  c #4F7BAA",
";  c #537CA6",
":  c #5B7AA6",
">  c #5273AC",
",  c #567BAF",
"<  c #5B7EAB",
"1  c #466CB2",
"2  c #4D6DB3",
"3  c #5167B0",
"4  c #516DB3",
"5  c #516CB3",
"6  c #526CB2",
"7  c #526DB2",
"8  c #526CB3",
"9  c #526DB3",
"0  c #516FB2",
"q  c #506EB3",
"w  c #526EB2",
"e  c #526EB3",
"r  c #546CB2",
"t  c #506DB4",
"y  c #516DB4",
"u  c #506EB4",
"i  c #516EB4",
"p  c #506FB4",
"a  c #516FB4",
"s  c #506FB5",
"d  c #516FB5",
"f  c #526EB4",
"g  c #526BB1",
"h  c #596EB3",
"j  c #4771B2",
"k  c #4773B3",
"l  c #4177B0",
"z  c #4574B0",
"x  c #4475B2",
"c  c #4575B3",
"v  c #4671B5",
"b  c #4771B5",
"n  c #4572B6",
"m  c #4773B7",
"M  c #4375B5",
"N  c #4274B6",
"B  c #4177B7",
"V  c #4276B7",
"C  c #4574B6",
"Z  c #4673B6",
"A  c #4B72B0",
"S  c #4871B3",
"D  c #4A71B2",
"F  c #4E70B3",
"G  c #4C72B3",
"H  c #4E75B0",
"J  c #4C77B1",
"K  c #4870B4",
"L  c #4970B4",
"P  c #4870B5",
"I  c #4871B5",
"U  c #4971B5",
"Y  c #4A70B4",
"T  c #4A70B5",
"R  c #4B70B5",
"E  c #4A71B5",
"W  c #4971B6",
"Q  c #4A70B6",
"!  c #4A71B6",
"~  c #4872B6",
"^  c #4972B6",
"/  c #4873B6",
"(  c #4973B6",
")  c #4873B7",
"_  c #4A72B6",
"`  c #4B72B6",
"'  c #4D70B5",
"]  c #4E70B5",
"[  c #4F70B5",
"{  c #4F71B5",
"}  c #4D73B5",
"|  c #4C71B6",
" . c #4E72B6",
".. c #4D70B5",
"X. c #4178B2",
"o. c #4C78B5",
"O. c #4376B9",
"+. c #4476B8",
"@. c #5070B3",
"#. c #5170B3",
"$. c #5270B3",
"%. c #5573B0",
"&. c #5070B4",
"*. c #5070B5",
"=. c #5071B5",
"-. c #5270B5",
";. c #5072B5",
":. c #5377B4",
">. c #5272B4",
",. c #5D71B3",
"<. c #5E73B5",
"1. c #5975B2",
"2. c #557BB3",
"3. c #597DB3",
"4. c #5E78B7",
"5. c #5576B8",
"6. c #5778B9",
"7. c #5A7FB8",
"8. c #607EB4",
"9. c #637EBB",
"0. c #548597",
"q. c #5B8A95",
"w. c #51809F",
"e. c #59879F",
"r. c #5185AD",
"t. c #5387AC",
"y. c #5A84AB",
"u. c #4D83B0",
"i. c #5C83B1",
"p. c #5D83B3",
"a. c #6485A3",
"s. c #628DA1",
"d. c #628AAE",
"f. c #6484B3",
"g. c #658CB0",
"h. c #6B8BB2",
"j. c #7090BF",
"k. c #7695BD",
"l. c #8193C7",
"z. c #809CC3",
"x. c #869FCA",
"c. c #9AB2CC",
/* pixels */
"-.-.8 -.-.-.-.-.-.-.-.-.-.-.-.-.2 2 8 2 t 8 8 2 3 t 8 2 8 8 8  .o.u.r.r.                            ",
"7 7 8 r 8 8 -.8 8 8 8 8 8 8 8 8 8 8 8 8 8 t 8 2 2 8 2 8 2 3 8 2 D A * 7 2                           ",
"g g g g g g g g g g g g 7 g g g 3 3 g g 3 3 3 @ 3 8 3 3 g 3 g 2 2 O # # $ g                         ",
"7 g g g g g g 7 g g g 2 g g g g g 2 2 g t 3 3 @ @ 3 2 3 2 O 2 2 @ # # # # # # <.l.                  ",
"7 8 2 8 8 8 2 g 8 2 8 7 3 8 8 8 2 2 @ 2 @ 8 2 2 t @ @ 2 2 2 2 @ 2 # # # # # # # # ,.                ",
"2 2 8 8 8 2 2 2 2 8 2 8 8 2 8 8 2 2 2 2 2 2 2 2 t 2 2 2 2 O 2 2 2 2 # # # # # # # # # 3             ",
"-.[ [ [ -.8 8 2 2 2 [ 2 2 2 2 Q 2 2 2 2 2 2 2 2 2 2 2 2 2 2 2 2 1 Y 2 2 # # # # # # # #             ",
"[ -.-.[ [ 2 [ [ -.2 [ 8 Q 2 2 2 2 2 2 2 2 2 2 2 2 2 Q 2 P 2 2 1 2 b 1 2 g # # # # # # $             ",
"F F 2 F 2 2 F 2 8 -.2 F P 2 Q Q 2 1 2 2 2 2 P 2 2 2 1 2 2 2 2 n & . b b 2 O # # # # # # %.          ",
"F 2 7 2 @.2 7 2 2 2 2 2 2 2 2 2 2 2 2 t 2 2 2 2 2 2 2 2 2 1 2 n = . . O.2 2 # # # # # # g :         ",
"2 F F 2 2 2 7 2 2 8 2 2 2 P 2 2 2 2 @ t 2 1 2 2 2 2 2 2 2 2 2 1 . . o o 2 2 # # # # # # # : a.      ",
"F F 8 @.-.2 2 F [ 2 2 2 2 2 Y 2 2 2 2 2 2 2 2 2 2 2 2 2 2 2 2 N . . . o 2 2 g # # # # # # > <       ",
"F F 2 [ F 7 2 7 2 @.2 2 2 2 2 2 2 2 2 2 2 2 2 2 2 2 2 2 2 2 2 N = . . o 2 2 $ O $ # # # $ > ,       ",
"F @.[ -.[ [ [ 2 2 [ [ 2 [ [ F [ 2 2 2 2 Y 2 2 2 2 Y 2 2 2 2 2 & X.. . o [ g g g $ # # # $ @.:.      ",
"[ [ [ [ [ [ [ [ -.[ [ D [ [ 2 2 P Q Q 2 [ 2 Y 2 Y Y [ 2 Y 2 2 j k . B O.2 2 # O # # # g g 7 ;.x.    ",
"[ [ [ [ [ [ [ [ [ [ [ [ 2 Y Y [ 2 2 Q 2 Y 2 Y [ Y 2 Y 2 Y Y 2 j k M C b 2 7 g # g g # r g 2 -.j.k.  ",
"[ [ [ [ [ -.[ [ [ [ [ [ F [ F [ 2 P 2 2 1 2 1 Q 2 Q t Q Q 1 Q Q D D 2 2 2 2 2 2 g g g r 7 2 2 3.i.d.",
"[ 2 [ [ [ 2 [ [ F [ 2 2 2 2 2 2 2 2 2 Q 2 2 t t 2 t 1 t t t t t 2 2 2 2 2 2 2 2 2 g 8 8 2 2 2 * * - ",
"F 2 [ 2 2 2 [ 2 2 8 2 2 2 2 2 2 1 2 2 2 2 2 2 2 2 t t 1 t 1 t 1 2 O O O 2 2 2 [ [ [ -.2 2 2 F D * * ",
"2 7 8 8 8 8 8 8 8 8 g 7 7 2 2 7 3 t t t t t 2 2 3 1 t 3 t 3 t 3 O O O @ @ 2 2 [ W W 1 2 2 [ [ D & & ",
"@.2 7 2 8 2 8 2 2 2 8 2 2 2 2 8 2 2 2 2 1 t 2 3 2 2 2 2 t t t 3 2 2 O 2 2 2 2 2 [ 2 1 b 1 [ 8 F + + ",
"@.7 8 -.[ 8 [ 8 [ 8 2 [ [ 2 2 2 2 2 2 2 2 t 2 t 2 2 2 2 t 1 2 2 2 2 2 2 2 2 8 2 2 2 2 1 b [ 2 2 O + ",
"[ [ [ [ [ 2 2 [ [ [ -.[ [ 2 2 2 2 2 2 Q 2 2 Q 2 2 2 2 2 Q 1 1 Q 2 W Y b b 2 2 O 2 2 2 2 C [ 2 g g 3 ",
"F [ [ [ [ @.7 @.2 8 2 2 2 [ 2 2 2 2 2 2 2 2 2 1 2 2 2 t t 2 t t Y Y W b b 2 2 O 2 O 2 2 Y 2 2 g # g ",
"2 2 2 8 2 2 8 [ 8 2 8 2 2 [ 2 2 2 2 2 2 2 2 2 2 2 1 2 2 2 2 2 2 2 ~ W ~ Y 2 @ O O 2 2 F 2 2 2 $ 3 3 ",
"7 7 2 8 8 8 8 8 2 8 8 2 7 2 2 g 2 O 2 g 2 $ 2 2 3 t 2 3 2 3 2 2 2 [ W ~ W 2 2 2 O O 2 O 2 2 g # # g ",
"2 7 8 8 8 8 8 2 8 8 g 2 2 2 8 2 2 3 2 2 2 # 2 g 2 2 1 2 t t t 2 2 Q W ) ) 2 2 2 2 O O 2 2 2 2 # 3 3 ",
"g 7 8 8 8 8 8 8 8 8 8 2 g 2 8 2 $ 2 $ 2 O 2 O 2 t 3 3 3 3 3 3 1 Q W W ) W [ 2 2 2 2 2 O 2 $ g # g g ",
"8 7 7 -.8 8 8 -.8 -.7 7 g 7 2 7 2 2 $ 2 g 2 2 g 2 O 2 2 t @ t 2 @ 2 Q P W Y Y 2 2 2 2 O 2 # # $ 2 2 ",
"-.7 7 8 8 8 7 7 8 8 7 7 7 g g g 2 g g 2 2 2 g 2 8 2 8 8 t 2 @ t 1 2 2 1 W W Y Y D 2 2 2 2 O 2 2 2 2 ",
"@.7 8 8 8 -.8 [ 8 -.[ 8 2 8 7 2 2 2 2 g 2 8 2 8 2 2 2 2 t t t t 2 2 P 2  .2 Y W Y 2 D 2 2 2 + 2 1 j ",
"@.@.-.-.[ 8 -.2 2 [ 8 8 2 8 7 2 7 7 2 2 2 8 2 2 2 8 2 2 t t 3 1 2 2 2 2 2 b b b b Y Y 2 2 2 2 * * * ",
"@.8 -.-.7 2 -.8 [ 8 2 7 2 2 7 2 t 2 2 t 2 2 t t t t 2 t t t t 1 @ 1 t 1 1 W W b Y W 2 2 2 2 F * % % ",
"F @.2 [ [ [ [ 2 [ [ -.2 7 [ 2 7 2 t t 2 2 t Q 2 t 2 2 2 Q 2 t 2 t t t @ 2 ~ ~ ~ W Y 2 2 2 2 F ; w.0.",
"F 2 [ [ 8 [ [ F [ [ [ F 7 2 2 -.2 2 2 8 2 2 2 2 t 2 2 t t 2 2 2 2 2 2 2 1 Y Y 1 W Y 2 2 7 [ G y.e.q.",
"F @.@.2 F [ 2 F F 2 2 7 F @.2 2 t t t Q t 2 2 t 2 2 2 2 Q 2 2 2 1 1 2 2 2 2 2 2 Y 2 8 2 g F G g.s.  ",
"F @.[ 2 [ 2 2 2 2 2 2 2 2 2 2 2 2 2 Q 2 Q 2 2 P Q 2 t 2 t 2 2 Q Q O.Y 2 2 2 2 2 g g # # # @.2.      ",
"F F F 2 8 F [ [ @.[ -.[ 2 F 2 F Q 2 2 2 2 2 P 2 Q 2 P 2 Q 2 2 Q P O.~ 2 2 2 g 2 g # # # # @.2.      ",
"F [ [ [ [ [ [ [ [ [ [ [ [ [ D 2 Q 2 2 P 2 P b 2 2 Q 2 2 2 2 2 O.~ O.W W 2 O O $ 3 # # # r > 2.      ",
"[ [ [ [ [ [ [ [ [ [ Y [ 2 2 Y Y 2 2 P 2 P 2 2 ~ 2 1 Q P 2 Q 2 Q ~ O.~ 2 O 2 g $ g # # # r @.2.      ",
"Y Y [ W Y W [ Y Y [ W P 2 P 2 2 2 Y Y b 2 b Y 2 Q Q 2 2 2 Q 2 1 N 1 1 2 7 $ r $ # # 3 3 r @.        ",
"Y 2 Y 2 2 2 2 2 1 2 2 2 P 2 1 2 Y 2 2 2 2 2 2 2 1 2 2 2 2 P 1 1 1 1 1 1 $ $ h # # # O g <.          ",
"[ [ [ [  . .[ [ Y Y 2 Y 2 P Q Q [ [ [ [ Y 2 W W P 2 2 Q Q 2 2 2 2 O $ O # # r r g r %.,.            ",
"F [ [ -.2 2 2 2 2 Y 2 Y 2 2 t 8 2 [ 2 8 2 P 2 2 2 t 2 Q 2 2 2 2 g g $ $ $ # r $ ,.4.9.9.            ",
"2 @ 7 2 2 7 2 2 2 2 2 2 2 2 3 t 8 2 2 2 2 t 2 t 2 2 @ t 2 2 O g g O # # # $ g > 8.z.                ",
"2 2 7 2 g 2 2 g g 2 g 8 2 1 @ 2 2 g g 2 8 @ 2 t 2 1 t @ 2 2 2 O $ # # # $ O 2 > f.c.                ",
"2 g 2 $ g g g g 2 g g g 8 8 8 8 g g 2 8 2 @ 8 @ t @ @ t g g 3 2 # # # # g $ > < h.                  ",
"g 7 r g g 3 g g g g g g 3 3 r 3 g r 3 3 r 3 t 3 3 t 3 3 g g g g # # # # 2 : q.                      ",
"@.7 -.8 -.-.-.8 -.7 [ 7 7 2 8 8 8 -.2 2 7 2 2 8 8 [ 2 F -.$.8 -.,.:.1.1.                            ",
";.-.;.;.[ [ [ [ [ } [ [ [ [ [ [ [ [ [ Y Y [ Y [ [ [ -.[ 5.;.5.5.6.7.p.p.                            "
};
