/* XPM */
static char *tail_down_xpm[] = {
/* columns rows colors chars-per-pixel */
"50 50 57 1 ",
"  c #3B7BB4",
". c #3D76B9",
"X c #3B79BA",
"o c #4F67AF",
"O c #476DAE",
"+ c #4D69AF",
"@ c #5267AF",
"# c #5169AF",
"$ c #4D7AA5",
"% c #4374AE",
"& c #4C74AC",
"* c #4079AF",
"= c #4F7BAA",
"- c #537CA6",
"; c #5B7AA6",
": c #5273AC",
"> c #567BAF",
", c #5B7EAB",
"< c #466CB2",
"1 c #4D6DB3",
"2 c #5167B0",
"3 c #516CB2",
"4 c #596EB3",
"5 c #4573B5",
"6 c #4D71B5",
"7 c #4178B2",
"8 c #4C78B5",
"9 c #4476B9",
"0 c #5271B4",
"q c #5B74B3",
"w c #557BB3",
"e c #5C7BB5",
"r c #5576B8",
"t c #5778B9",
"y c #5A7FB8",
"u c #607EB4",
"i c #637EBB",
"p c #548697",
"a c #5B8A95",
"s c #5280A0",
"d c #5987A0",
"f c #5286AD",
"g c #5A84AB",
"h c #4D83B0",
"j c #5C83B2",
"k c #6485A3",
"l c #628DA2",
"z c #628AAE",
"x c #6584B3",
"c c #658CB0",
"v c #6B8BB2",
"b c #7493BE",
"n c #8193C7",
"m c #809CC3",
"M c #869FCA",
"N c #9AB2CC",
"B c None",
/* pixels */
"BBBBBBBBBBBBBBBBc=&%OO@22222115$$paBBBBBBBBBBBBBBB",
"BBBBBBBBBBBBBBBbj&&%112232#311<&$-plBBBBBBBBBBBBBB",
"BBBBBBBBBBBBBBMbe8&<1132###231<&=-gzBBBBBBBBBBBBBB",
"BBBBBBBBBBkg>w0161106311233232136&00rrwjBBBBBBBBBB",
"BBBBBBBBB;;:::131166661111132+111616q#330BBBBBBBBB",
"BBBBBBBBq##22#@@333<<656<11211111332#@444qBBBBBBBB",
"BBBBB@@@@@@@@@@43q3<6511131+1111<332@@@@2@0iBBBBBB",
"BBBBB@@@@@@@2@333311<6111+#1111<6611#@@2@@qiBBBBBB",
"BBBBq@@@@@@@@@22416661+1+31o11666666++32@@3umNBBBB",
"BBBn@@@@@@@@@2o2316611+3#1o11<66<6561332@@3quxvBBB",
"BBBq@@@@#@@@o2@1110661+++o+1115565511222@233::eBBB",
"BBB2@@@@@@22##@1211011++11115151551512+23443333,BB",
"BB#@@#@@2211111311111116166<165166<111o1@3@@2224BB",
"B1@@@@@111111136111o<1<66666566<6<111+11#@@@2224BB",
"f##@@@#65..XXX95<12o119696696<611+16<161<+#@2422qj",
"f0##@@1<9.  X 99612o1166<99666<111<<6665<<##2222wj",
"h52223<5    XX.<61+2111<969111<112<1999<9<222222tt",
"8112+1<65**  999<112211111111111111<9699<<3321220t",
"611111<65%%%%69<<112<11<11<1112111111699<<1222220t",
"33+2111<111111161111111111232311111r1111119111131t",
"3321111111111<61<62111111111113111111111916111233r",
"6322+111111111661611111111221331111111111116211200",
"312111111+11116661111111121331131111169<<611111236",
"332211111111116611121111111213111111111611111<2236",
"132111111121111<111311<11211311311111111<661111306",
"1332111111<1116111111161112112113111166166<1<23310",
"312111111111111611111111121113313616116<6<61121236",
"33221111<11111611112111111122311113611196611113216",
"333221111<11<666<111+111121111311113116<6161133336",
"3321111111111116611111<61122311311131661<661132316",
"1322111111111116<11111111131331111111<66661113231r",
"13+21111111111111111111111121311111116<61661131211",
"13331111111111161111111111123113111111<<666r122231",
"133231111111116<111111111112113136111636666111333r",
"3333331111<1166661131166131333r33111116<1<66333231",
"03333116111611616113211111133233331r1161111113323r",
"0333330611611161613163311311333111636116<<11112211",
"r3232311616166166613366111313311333116616116113211",
"3333331011161161636316<61131333r611336r66<6611323r",
"r333311111363066631333r6333333333r16136666<1133416",
"r233311311363160r11113330333414131631166616111323r",
"3r22311r11136006111333630333310111r611r16<<1112416",
"r233311111111110r1133663033314411r1136r1616613123r",
"r3233111113111r61r3363r333333111311r31661166133316",
"1333316r1111310r1113111103331466111111r11161131231",
"33233336111r6011r61313r113114114r11r111611r113331r",
"r33336r0631311r1111336r11333413011111rr619r113323r",
"r324331016161r61r1632r11r3333143311r11166166333300",
"1223336r1100300016133101143341313r3361661166331360",
"r33233136136666606631160113114r136666666666113231r"
};
