/* XPM */
static char *tail_right_xpm[] = {
/* columns rows colors chars-per-pixel */
"50 50 126 2 ",
"   c None",
".  c #3B7BB4",
"X  c #3D76B9",
"o  c #3B79BA",
"O  c #4F67AF",
"+  c #476EAE",
"@  c #4D69AF",
"#  c #5267AF",
"$  c #5269AF",
"%  c #4D7AA5",
"&  c #4374AE",
"*  c #4C74AC",
"=  c #4079AF",
"-  c #4F7BA9",
";  c #537CA6",
":  c #5A7AA6",
">  c #5273AC",
",  c #577BAF",
"<  c #5B7EAB",
"1  c #466CB2",
"2  c #4D6DB3",
"3  c #5167B0",
"4  c #516CB2",
"5  c #596EB3",
"6  c #4772B5",
"7  c #4771B6",
"8  c #4773B6",
"9  c #4571B5",
"0  c #4574B6",
"q  c #4474B7",
"w  c #4674B7",
"e  c #4675B7",
"r  c #4574B4",
"t  c #4A70B3",
"y  c #4D71B2",
"u  c #4F70B2",
"i  c #4E70B3",
"p  c #4E73B2",
"a  c #4E74B2",
"s  c #4970B4",
"d  c #4970B5",
"f  c #4871B5",
"g  c #4971B5",
"h  c #4A70B4",
"j  c #4B70B4",
"k  c #4A70B5",
"l  c #4B70B5",
"z  c #4A71B5",
"x  c #4971B6",
"c  c #4A71B6",
"v  c #4872B6",
"b  c #4972B6",
"n  c #4873B6",
"m  c #4973B6",
"M  c #4873B7",
"N  c #4A72B6",
"B  c #4B72B6",
"V  c #4C70B4",
"C  c #4C70B5",
"Z  c #4D70B5",
"A  c #4C71B5",
"S  c #4E70B4",
"D  c #4E70B5",
"F  c #4F70B5",
"G  c #4F71B5",
"H  c #4E70B4",
"J  c #4178B2",
"K  c #4C78B5",
"L  c #4476B8",
"P  c #4376B9",
"I  c #5071B1",
"U  c #5072B0",
"Y  c #5272B0",
"T  c #5272B1",
"R  c #5070B3",
"E  c #5170B3",
"W  c #5270B3",
"Q  c #5771B2",
"!  c #5270B5",
"~  c #5072B6",
"^  c #5273B7",
"/  c #5470B4",
"(  c #5571B5",
")  c #5671B4",
"_  c #5772B5",
"`  c #5274B7",
"'  c #5377B6",
"]  c #5674B4",
"[  c #5170B5",
"{  c #5877B0",
"}  c #5876B1",
"|  c #5C73B6",
" . c #5E72B5",
".. c #567BB3",
"X. c #557CB3",
"o. c #5479B4",
"O. c #5E78B7",
"+. c #597DB3",
"@. c #5576B8",
"#. c #5778B9",
"$. c #5A7FB8",
"%. c #607EB4",
"&. c #627DBA",
"*. c #637EBB",
"=. c #548597",
"-. c #588993",
";. c #5E8A96",
":. c #51809F",
">. c #5987A0",
",. c #5286AD",
"<. c #5A84AB",
"1. c #4D83B0",
"2. c #5D84B1",
"3. c #5C82B4",
"4. c #5C83B1",
"5. c #6486A3",
"6. c #628DA2",
"7. c #628AAE",
"8. c #6585B3",
"9. c #658CB0",
"0. c #6C8CB3",
"q. c #7393BE",
"w. c #8194C7",
"e. c #809CC3",
"r. c #85A0CA",
"t. c #9BB2CB",
/* pixels */
"                            8.4.$.#.' ' ^ ^ F ~ ~ ~ ~ N N ~ 2 N [ [ 4 ~ F F 2 F F F B [ 2 [ [ ~ ~ ~ ",
"                            { { ) ) [ 4 ! 5 4 4 2 2 4 4 2 4 4 2 4 4 4 4 [ 4 4 2 4 4 4 [ 4 2 4 [ [ [ ",
"                      ;.: [ $ # # 3 4 5 4 4 3 3 4 3 3 3 4 4 3 4 # 3 3 5 4 5 # 5 3 4 4 5 4 5 5 4 4 5 ",
"                  0.< * @ $ # # # 3 O 2 3 2 2 3 2 O 4 2 2 4 2 4 2 4 2 4 4 2 2 $ 4 @ 2 2 @ 2 @ 4 2 4 ",
"                t.8.> 2 @ # # # # 3 # 2 2 O 2 1 2 2 1 2 4 2 2 $ 2 2 4 2 2 1 2 2 4 4 2 2 4 2 2 4 2 4 ",
"                e.%.> $ # # # # # 4 4 2 2 2 2 2 2 2 2 2 2 4 4 2 4 2 2 4 2 2 2 2 2 2 2 2 2 4 2 2 4 1 ",
"            *.*.O.) $ 4 $ # O # 3 2 3 2 2 2 2 2 2 1 2 2 F 2 2 2 F 2 2 2 2 2 2 2 2 2 x p 2 4 F F 2 2 ",
"            ) ) 4 5 $ 5 5 # O O 4 2 2 1 2 2 2 2 2 2 x 2 F 2 F F 2 N 2 2 2 2 2 x 2 2 F F 2 F F F p F ",
"          | 4 # # # # 5 $ $ + 1 1 1 1 c 2 1 1 c 2 2 1 x 2 2 9 2 2 x 2 2 2 1 2 2 7 2 2 2 2 2 x 2 2 2 ",
"        I 5 # # # # $ $ 4 @ 1 2 9 7 7 c 2 c 2 2 2 2 2 x s 2 2 x 9 2 2 1 2 x x 2 l 2 N 2 x F F x x p ",
"      X.> 5 # # # # $ 4 2 $ 2 x 9 P 7 2 2 c c 2 9 2 x 2 2 s s 2 2 2 x 2 x F F x F l F x F F F F x F ",
"      ..$ 5 # # # 4 $ # $ @ x x P P 7 2 2 2 2 c 2 x 2 x x s 2 x x 2 2 x 2 F F F F F F F F F F F 2 x ",
"      o.I # # # # 2 2 O 2 2 x x 7 7 7 2 2 2 2 c k k 2 l 2 2 2 x 2 2 F F F 2 2 I 2 ~ 2 F ^ 2 2 F I 2 ",
"      ' I # # # O 2 2 2 2 2 9 2 7 7 x 2 F 2 2 2 2 2 2 2 2 2 2 2 2 2 2 2 2 F 4 2 2 4 2 2 2 2 4 ~ p F ",
"  6.9.a [ 4 4 4 2 2 9 2 1 1 2 2 2 x 2 2 2 2 2 2 2 2 2 2 2 2 2 2 2 2 F 4 2 p F F F 2 [ F 4 ~ F F 4 p ",
"-.>.<.p 2 4 2 2 2 2 9 x 2 2 2 2 2 2 2 2 2 4 2 2 2 2 2 2 F 2 2 2 2 2 2 2 4 2 4 2 F F [ 2 2 F 2 F p 2 ",
"=.>.% p 2 2 2 2 x x 7 N 7 l 2 2 2 2 2 2 F F 2 2 2 2 2 2 2 4 2 2 2 2 [ 4 F 2 2 F F F 2 [ 2 ! F ~ 2 p ",
"% % * p 2 2 2 2 x x x 9 1 1 2 2 2 1 2 2 3 2 2 2 F F 2 F F F F 2 2 4 4 2 4 4 4 [ 4 F 4 2 F ! ! 3 4 [ ",
"* * @ @ 2 2 1 2 F x 9 x 2 7 2 1 2 2 3 2 3 F F 3 3 F 3 3 F 2 3 2 2 2 4 2 F F 4 2 2 ^ [ 2 ! 4 4 ! [ [ ",
"9 + 2 2 2 2 2 2 2 x N 7 2 N 2 2 2 3 2 2 F 2 2 F 2 F 2 F 3 3 F F F 4 2 4 4 4 4 [ 4 4 [ 4 ! 4 ! ! 4 I ",
"2 2 2 @ @ 2 2 2 2 s s s x x 2 2 2 2 2 2 3 2 3 2 2 2 4 2 2 2 3 F 4 2 4 4 4 4 4 ! 4 4 3 ! 5 4 3 ! 4 [ ",
"2 + 2 $ # 2 2 2 2 2 2 2 x N 2 N 1 2 2 2 2 2 2 2 4 # 2 2 2 3 3 2 2 3 4 4 4 4 4 4 5 [ ! 4 3 ! ! ! 4 5 ",
"4 $ # 4 $ 2 @ 2 O 2 2 2 2 N N N x 2 3 3 4 2 3 2 @ 4 2 4 4 2 2 2 3 2 4 3 4 2 4 4 4 4 4 ! ! ! 3 3 4 4 ",
"3 # # 4 4 2 2 O 2 2 + 2 2 x L 7 x 2 x 3 3 2 2 3 O 2 4 2 2 3 2 3 2 2 F 2 4 2 2 4 4 2 ! 3 3 ! ! 2 4 4 ",
"3 3 $ 4 2 2 2 @ 3 2 O 2 2 l N N c c 2 3 2 2 3 2 2 4 2 2 2 3 2 2 3 2 2 2 2 2 4 4 4 4 2 4 ! 3 ! 3 4 4 ",
"# 4 # @ 2 2 2 2 2 O O 2 2 l 7 7 c 2 2 2 2 2 2 2 2 2 2 2 2 2 2 2 2 2 2 2 2 2 2 2 ~ 4 4 ^ 3 F 2 F 2 F ",
"O # 4 2 2 x 2 2 1 3 3 3 2 x 7 N c 2 1 2 2 2 2 2 2 2 2 2 2 2 2 2 2 2 F 2 3 2 2 2 2 4 4 4 F F F 2 F 2 ",
"3 4 3 2 2 9 2 2 2 2 3 3 2 9 N N 2 1 2 c 2 2 2 1 1 2 2 2 2 2 1 2 2 k F F F F 2 ~ F F 2 2 F ~ F ! F F ",
"+ @ 2 2 F 9 x 2 k 2 2 F 2 1 2 1 2 3 2 2 2 2 2 2 2 2 2 2 2 2 2 2 2 2 2 2 2 F 2 ! 2 2 ! 2 4 ! F 2 [ 4 ",
"+ 2 p [ F 1 9 1 l F 2 F 2 k 3 1 2 2 3 2 3 2 2 2 2 k 3 2 2 2 2 2 2 2 2 2 3 2 2 2 4 ! 3 ! 2 ! 2 ! 2 p ",
"& + s I F 2 2 1 x x F F 2 3 O 3 3 3 3 2 2 2 2 2 3 2 2 2 2 2 O 3 2 3 4 3 ! 2 3 ! 3 2 ! 3 4 4 4 4 4 4 ",
"* * s p 2 2 2 F 2 F F 2 k 3 3 3 3 2 1 2 2 2 2 2 2 2 3 2 2 2 2 2 2 F 2 2 2 2 2 F F F F ~ F 2 4 2 2 p ",
"% * a p 2 4 4 4 ) 4 2 2 2 2 3 2 2 2 @ 2 2 2 2 2 2 2 2 2 2 2 2 l 2 l 2 2 2 2 2 F 2 F F 2 F F 2 [ 2 F ",
"7.4.$.2 2 4 4 4 4 4 4 @ 2 2 2 2 s s s p 2 2 2 2 2 2 2 N x 2 2 2 l 2 2 2 F 2 F F F F F F F F F F F F ",
"  q.q.F @ 5 # 5 4 2 # 2 2 2 9 q 9 s s 2 2 x 2 x 2 x 2 7 F 2 x 1 2 x l 2 2 x 2 F F F F F F F F F F F ",
"    r.F 2 5 # # 3 # O @ 2 p P P . J r 2 x 2 x 2 x 2 x 2 2 x 2 2 x 2 2 ~ F 2 l F F F F F F F F F F 2 ",
"      ' $ $ # # # 3 $ # 4 F o o . = * p 2 2 2 2 2 2 2 2 2 2 2 2 2 2 l 2 F 2 2 F 2 F F 4 F 4 [ [ [ p ",
"      , > $ # # # # $ 4 4 2 o . . = & + 2 2 2 2 2 2 2 2 2 2 2 2 2 2 2 l 2 l F F 4 F 2 2 2 p F 2 I 2 ",
"      <.> $ $ # # # # # 2 s o o = . 9 2 2 2 2 2 2 2 2 2 2 2 2 2 2 2 2 2 l l 2 3 p 4 F p 2 F F 2 2 p ",
"      5.: $ $ # # # $ $ @ 2 o o . . & 1 2 2 2 2 2 2 2 2 2 2 2 2 2 2 2 2 2 2 k 2 2 2 4 2 4 2 F 4 2 2 ",
"        : $ # # # # # # 2 2 X X o = r 2 2 1 2 2 2 3 k 3 3 1 2 2 2 2 l 2 2 2 2 2 4 2 2 4 2 2 2 2 2 p ",
"          ) $ # # # # # # 2 9 r o P q 2 2 2 2 2 x x 2 k k 2 2 2 k 2 2 l l F 2 2 F 4 2 F F F 2 p 2 F ",
"            # # # # # # # 2 2 9 7 l 1 2 2 2 2 2 3 x 2 2 2 2 2 2 2 k F 2 2 2 2 F F [ F F 2 ^ [ [ [ ^ ",
"            # # # # 3 # # # @ 2 1 7 2 2 2 2 2 2 2 2 k 2 2 2 2 2 2 2 2 F 2 F ~ 4 2 2 2 4 2 4 [ 2 4 ^ ",
"            # # # # # # # # # # O 2 2 2 3 k 2 2 2 x 3 x 2 2 2 2 3 k 3 2 2 4 2 2 4 2 2 2 2 4 ~ 2 3 4 ",
"                | # # # # # # # 3 O 2 2 2 2 3 2 3 2 3 3 2 4 2 2 k 3 2 3 4 4 3 3 2 4 4 4 4 4 4 4 4 4 ",
"                  w.| # # # # # 3 2 2 3 3 1 2 3 3 2 3 2 3 4 3 2 4 3 F 3 4 4 4 4 4 4 3 3 4 4 3 ! 4 4 ",
"                        # # # # O 2 2 3 3 3 3 2 3 3 3 4 4 3 4 3 3 4 3 3 3 4 5 4 4 3 3 5 4 4 4 3 4 4 ",
"                          2 > 2 a a p 4 4 4 4 2 4 4 2 4 4 4 3 4 ! ! 3 ! F 3 ! 3 4 5 3 3 ! 4 4 4 4 ! ",
"                            ,.,.1.K B 4 4 2 3 4 2 4 3 4 4 2 2 ! 2 ! ! ! ! ! ^ ^ ! ! ^ ^ ! ^ ! ! 4 ^ "
};
