/* XPM */
static char *tail_up_xpm[] = {
/* columns rows colors chars-per-pixel */
"40 40 46 1 ",
"  c None",
". c #3C7AB4",
"X c #3E76B9",
"o c #4F67AF",
"O c #4C6AAF",
"+ c #5267AF",
"@ c #5269AF",
"# c #4F7BA5",
"$ c #4474AE",
"% c #4D74AD",
"& c #4C78AA",
"* c #5C7CA6",
"= c #5374AC",
"- c #5178AF",
"; c #466EB3",
": c #4D6DB3",
"> c #5167B0",
", c #516CB2",
"< c #596DB2",
"1 c #4573B5",
"2 c #4C70B5",
"3 c #4078B4",
"4 c #4D7DB2",
"5 c #4475B8",
"6 c #5171B4",
"7 c #5B73B6",
"8 c #567CB0",
"9 c #597DB5",
"0 c #5576B8",
"q c #5B7AB9",
"w c #6377B7",
"e c #617FB5",
"r c #617FBA",
"t c #588997",
"y c #51819D",
"u c #5A859C",
"i c #5884A3",
"p c #5181AE",
"a c #5882AC",
"s c #5C81B1",
"d c #6487AC",
"f c #6B92AD",
"g c #7692AF",
"h c #6E8DB6",
"j c #6A8ABC",
"k c #7F97C4",
/* pixels */
"6,,::::::::2,,,,,,,,:::0,:::2::::0::>,,<",
"6,,,:,;2:02:620,,6,,,:::,:::0:2::::<,,,,",
"66,::6:2222:220,,,,,:0,0,:00::2:::::::,:",
"2,,,::22::026,,,,,,,::,:,:::002,:,0:<>,0",
":,>,,6:20:::::,,,7,,::::,::0:2,::::,,,,,",
",,,:::2:::::::0:,:,,,0:,,:0,::2,::0,,,,0",
"2,,::1:220,20:0:,7,,,:0,,::2::,:::::,,::",
"6,,::::2::0:::,,,,,,::,,,::0202,:<::>,<2",
"6,,,::;222,20,:,<,::::::,::0:0::::::,>,<",
"2,,,::;:2:,,2,:,,,:>::::,:2:::2::::,,:,:",
":,,::::;:22,::,,,,>::,::,::2:2::::::,,,<",
",,,>:::222:2:::0,,:::0::,::222::::::>:,0",
"2,,>::;22:::::,,,,:,:::::::2::::;:::,,,,",
",,,,,:2:::::::,:,:>:::::::::2::::::::,,:",
"6,,::6:22;::::::>:::::::::222:::::::>>,,",
"2,,:,22:2:2::::,:,:>::::>::;:::::::2>:,,",
"2>>::::522:::::,:,:>::;::::;2:::O:::oo,,",
"2:>:::::::::::,:,::::::>::::2:::::::2>,:",
"::>::::22;::::,:::>:::::::::::::::::>:>:",
":,:::;;::2::,0::,,:>::::>::;:::::::::>>:",
"0,>:::;;2::::::::>>:::::::::2:::;::::+,,",
":::>::::;2::::::,:::::::::2;2:::>;::::+:",
"0,>:::2:2::::::::>:>::::::22;::::::::+:,",
"0,>::2:;:::::>>::,:,:::>:::::::::::::o,,",
"0>,:::::2::::::::::::::::::;:::;::::::@6",
"0:>>>:;5552:::::::::::::>::;55;13;:::O22",
"0<>>>>:;55;;:::::;2:;::O>>;5.....1;:>>:4",
"q7>>>>;;;52:;:::::121:;:>>:5X....1:+ooOp",
"a7++>>o;::;:::::2;5211::oO:2XXXX11:+++,p",
" =@+>>>>::::;2;22222:::::::::::::@++++: ",
" u=O><>,>::22;12:::::o:::::+,:,,@+++++  ",
"  d7,,,>>>:22;;;2:;::,:,2::oo>++++++@<  ",
"   he<@++,::::1:::o:oo::22,,+>++++++<   ",
"    k7,++++::122::O,O:::;:,,>+++++++w   ",
"     q,o+++<:::;:::O:::;;,,,++>>++++    ",
"      7<<++@::::o::::21;:,,<,++>@7      ",
"       7=662:2,::+,:::22,2::,68**       ",
"        jjj96%%:o:,+@,,22:2qdjhg        ",
"           fi#%O:o@+,@:O2%8h            ",
"            ty&$::,+,@OO$&a             "
};
