/* XPM */
static char *tail_left_xpm[] = {
/* columns rows colors chars-per-pixel */
"50 32 118 2 ",
"   c None",
".  c #3B7BB4",
"X  c #3B77B9",
"o  c #3B79BA",
"O  c #4F66AF",
"+  c #4D6AAF",
"@  c #5266AE",
"#  c #5268AF",
"$  c #4B79A6",
"%  c #4474AE",
"&  c #4C74AC",
"*  c #4079AF",
"=  c #4B78A8",
"-  c #537CA6",
";  c #5B7AA5",
":  c #5374AC",
">  c #5478AA",
",  c #5C7FAA",
"<  c #466CB2",
"1  c #4D6DB3",
"2  c #5167B0",
"3  c #506EB4",
"4  c #526EB4",
"5  c #506DB4",
"6  c #526BB2",
"7  c #596CB1",
"8  c #4771B2",
"9  c #4773B3",
"0  c #4177B0",
"q  c #4574B0",
"w  c #4575B3",
"e  c #4771B5",
"r  c #4771B6",
"t  c #4572B6",
"y  c #4673B7",
"u  c #4274B6",
"i  c #4177B7",
"p  c #4276B7",
"a  c #4574B6",
"s  c #4675B7",
"d  c #4573B6",
"f  c #4A71B2",
"g  c #4D71B2",
"h  c #4F70B2",
"j  c #4E70B3",
"k  c #4E74B2",
"l  c #4970B4",
"z  c #4870B5",
"x  c #4970B5",
"c  c #4871B5",
"v  c #4971B5",
"b  c #4A70B4",
"n  c #4A70B5",
"m  c #4B70B5",
"M  c #4A71B5",
"N  c #4971B6",
"B  c #4A70B6",
"V  c #4A71B6",
"C  c #4872B6",
"Z  c #4972B6",
"A  c #4873B6",
"S  c #4973B6",
"D  c #4873B7",
"F  c #4A72B6",
"G  c #4B72B6",
"H  c #4D70B5",
"J  c #4C71B5",
"K  c #4E70B5",
"L  c #4F70B5",
"P  c #4F71B5",
"I  c #4D73B5",
"U  c #4C71B6",
"Y  c #4E72B6",
"T  c #4E70B5",
"R  c #4C78B5",
"E  c #4476B8",
"W  c #4476B9",
"Q  c #5272B0",
"!  c #5070B3",
"~  c #5170B3",
"^  c #5270B3",
"/  c #5070B4",
"(  c #5070B5",
")  c #5170B5",
"_  c #5071B5",
"`  c #5270B5",
"'  c #5072B5",
"]  c #5377B4",
"[  c #5377B6",
"{  c #5475B6",
"}  c #5172B6",
"|  c #5974B6",
" . c #5779B1",
".. c #567BB3",
"X. c #557CB3",
"o. c #597DB3",
"O. c #5576B8",
"+. c #5778B9",
"@. c #5A7FB8",
"#. c #607EB4",
"$. c #667BB9",
"%. c #548597",
"&. c #5B8C90",
"*. c #5E8A96",
"=. c #51809F",
"-. c #5185AD",
";. c #5387AC",
":. c #4D83B0",
">. c #5C83B1",
",. c #5D83B3",
"<. c #6587A3",
"1. c #608CA1",
"2. c #628AAE",
"3. c #6889B2",
"4. c #6886BF",
"5. c #6886C0",
"6. c #809CC3",
"7. c #839FC9",
/* pixels */
"` ` ` ` ` 4 ` ` ` ` ` ` ` ` 3 3 3 6 3 6 5 5 6 5 6 1 1 6 1 5 5 Y R :.-.;.                            ",
"6 6 6 6 6 6 6 6 6 6 6 6 6 6 6 6 6 6 6 6 2 2 2 2 6 2 2 1 2 2 6 1 1 < < < s                           ",
"6 6 6 6 6 6 6 6 6 6 6 6 6 6 6 6 2 1 6 2 2 5 2 5 1 2 2 2 1 2 6 1 1 < < 1 1 5.                        ",
"6 6 3 1 3 3 1 6 1 6 1 1 6 6 1 1 1 1 1 1 5 1 < 1 1 1 1 1 1 + 1 1 1 1 b 1 1 1 ` } 5.                  ",
"L ` L ` 3 L L 1 L 1 ` L b L L b 1 1 1 < 1 1 1 1 1 B 1 1 1 1 1 z 1 < f 1 1 6 # 6 $.                  ",
"j 1 j L 1 1 1 3 3 1 1 1 1 1 1 1 1 1 1 1 1 < 1 1 1 1 < 1 1 1 1 t % . u e 1 6 6 @ 6 7 @ @  .          ",
"1 j 1 1 ! 1 3 1 1 3 1 1 1 1 1 1 1 1 1 1 1 1 1 1 1 1 1 2 1 1 1 u . . . X 1 6 6 @ @ @ @ O 6 ; <.      ",
"j ! ` 1 ! 1 L 6 3 1 1 B 1 1 1 1 1 1 1 1 1 1 1 1 1 1 1 1 1 1 1 % . . o X 1 6 6 @ @ @ @ @ # : >.      ",
"j ! ` L L L j 1 ` L 1 L L 1 L L 1 1 1 1 K 1 K 1 1 < 1 K 1 1 K t 0 . o o L 6 # + 2 @ @ @ 6 & ]       ",
"j L L L L L L L L L L j L 1 b 1 B K B K B 1 B 1 K K K K B 1 1 e 9 . i E L 1 # @ 2 2 2 7 6 1 ` 7.    ",
"L ` L L L L L L L L L 1 L f j L 1 < B 1 1 < 1 B 1 B 1 < b 1 1 < < b 1 1 1 1 + 1 6 6 6 6 6 6 1 o.>.2.",
"j j L 1 1 L L L 1 j L 1 1 1 1 1 1 1 5 1 1 1 1 < 1 1 1 1 1 1 1 1 1 2 1 1 1 1 1 1 3 4 4 4 3 1 f k & = ",
"1 6 6 3 6 3 6 6 6 3 6 1 6 6 1 6 5 1 5 5 5 5 5 2 1 1 2 1 1 1 1 2 6 O O O 1 1 ` L L b b 1 1 L L f % % ",
"! 1 3 1 3 3 ` 1 3 3 1 1 1 L 1 1 1 1 5 5 1 1 1 5 1 1 1 1 1 1 1 1 1 1 1 1 1 1 1 1 1 1 < e e b L 1 + + ",
"L L L ` L 3 1 L 3 L j L L b 1 L 1 < < 1 1 < K < 1 1 < K K < 1 1 b B b b b 1 2 + 1 1 1 1 b 1 1 6 1 6 ",
"1 L 1 3 1 3 6 ` 6 L 6 L 1 j 1 j 1 1 1 1 1 1 1 1 1 1 1 1 1 1 1 1 1 b y e e 1 1 O O 1 1 1 1 1 + 6 @ @ ",
"3 6 6 6 6 3 6 3 3 6 3 1 1 1 1 1 5 5 2 1 1 2 1 1 6 1 1 6 1 1 2 1 1 e B y b 1 1 1 2 2 1 O 1 1 @ # # # ",
"6 6 4 4 4 6 3 6 6 6 3 6 6 3 6 6 2 1 1 2 6 1 1 2 1 2 2 1 2 1 1 1 1 y y B B b 1 1 1 1 + 1 1 # 6 # 6 6 ",
"4 6 6 4 6 4 6 ` 4 4 3 6 6 6 6 6 1 6 1 1 1 2 < 2 1 1 6 1 # 1 6 1 1 1 < < B B b b 1 1 1 1 + 1 # 1 1 1 ",
"` 6 4 4 4 3 ` 6 3 4 3 6 3 3 3 1 1 1 1 6 5 5 1 1 6 1 1 6 1 1 6 1 1 1 1 1 Y b b B < 1 1 1 1 1 1 1 + 8 ",
"^ ` 6 ` ` 1 3 3 3 3 3 6 6 1 6 6 6 1 1 1 1 5 5 5 5 5 1 5 1 6 1 1 1 1 1 1 b b e e e b 1 1 1 1 1 & = $ ",
"! ` ` L 3 L L 1 3 3 1 1 ` 1 L j 1 1 5 5 1 1 5 5 1 1 1 5 1 1 1 1 1 1 1 1 1 b e e b b 1 1 1 L j - =.%.",
"j ! L 1 L j j L L L ` 1 1 1 L 1 1 1 1 1 5 1 1 B 1 1 1 1 K 1 6 1 1 < 1 b 1 1 1 1 b 1 1 6 6 1 k 2.;.&.",
"j 1 j L L 6 j 6 1 1 L 6 L 1 1 1 5 1 1 1 5 B 5 5 1 1 K < 1 1 1 1 b y e < 1 1 1 6 1 1 2 2 @ ! [       ",
"L L L L L L L L L L L Y L 1 1 b 1 1 b 1 b B B 1 1 B < K K K 1 D E E e L 1 1 # 6 @ 7 @ @ 6 Q o.      ",
"b L L L b L L L L L L b L b b 1 B e 1 e b < 1 1 1 B K K 1 < K B t t e b 1 # # 6 2 @ @ @ 7 Q o.      ",
"f 1 f 1 b 1 1 e 1 < 1 1 1 < B B 1 < 1 1 1 1 < B < < 1 < 1 < < z < < < + @ 6 7 # # @ @ 6 |           ",
"L L L L L L L L e 1 b f 1 1 1 1 Y Y L L L B 1 1 K K 1 K B 1 1 1 6 2 O @ @ @ 6 6 7 6 | |             ",
"1 6 6 1 1 1 6 1 1 1 1 1 1 1 1 6 1 1 3 1 1 1 1 1 1 < 1 1 1 1 1 2 6 2 2 @ # # # > 3.5.                ",
"1 1 1 6 1 1 1 6 # 6 1 # O 6 1 6 6 1 1 6 2 1 6 1 1 2 2 5 5 2 1 2 2 2 @ 7 # # # >.3.                  ",
"6 6 6 3 6 6 6 2 6 6 6 6 6 6 6 6 6 6 2 6 6 6 6 6 2 5 6 6 6 4 5 2 2 2 # # ` - 1.                      ",
"} ` ` ` ` L L ` L L ` ` 3 3 L ` 3 ` L 1 K K K Y 5 5 } 5 ` } ) O.+.,.>.>.                            "
};
