/* XPM */
static char *tail_up_xpm[] = {
/* columns rows colors chars-per-pixel */
"50 50 158 2 ",
"   c None",
".  c #3B7BB4",
"X  c #3D76B9",
"o  c #3B79BA",
"O  c #4F67AF",
"+  c #476DAE",
"@  c #4D69AF",
"#  c #5267AF",
"$  c #5169AF",
"%  c #4D7AA5",
"&  c #4374AE",
"*  c #4C74AC",
"=  c #4079AF",
"-  c #4F7BAA",
";  c #537CA6",
":  c #5B7AA6",
">  c #5273AC",
",  c #567BAF",
"<  c #5B7EAB",
"1  c #466CB2",
"2  c #4D6DB3",
"3  c #5167B0",
"4  c #546AB1",
"5  c #5469B0",
"6  c #506CB2",
"7  c #516CB2",
"8  c #506DB2",
"9  c #506CB3",
"0  c #516CB3",
"q  c #506DB3",
"w  c #516DB3",
"e  c #526CB2",
"r  c #526DB2",
"t  c #526CB3",
"y  c #526DB3",
"u  c #536CB2",
"i  c #506EB3",
"p  c #516EB3",
"a  c #516FB2",
"s  c #526EB3",
"d  c #546CB2",
"f  c #506DB4",
"g  c #516DB4",
"h  c #506EB4",
"j  c #516EB4",
"k  c #506FB4",
"l  c #516FB4",
"z  c #506FB5",
"x  c #516FB5",
"c  c #526EB4",
"v  c #526FB4",
"b  c #536FB4",
"n  c #526AB1",
"m  c #596EB3",
"M  c #4773B3",
"N  c #4177B0",
"B  c #4574B0",
"V  c #4475B2",
"C  c #4575B3",
"Z  c #4471B5",
"A  c #4571B5",
"S  c #4770B5",
"D  c #4671B5",
"F  c #4772B5",
"G  c #4572B6",
"H  c #4773B6",
"J  c #4773B7",
"K  c #4375B5",
"L  c #4274B6",
"P  c #4177B7",
"I  c #4276B7",
"U  c #4574B6",
"Y  c #4474B7",
"T  c #4674B7",
"R  c #4675B7",
"E  c #4771B4",
"W  c #4871B3",
"Q  c #4A70B3",
"!  c #4C70B3",
"~  c #4E70B3",
"^  c #4C72B3",
"/  c #4C77B1",
"(  c #4870B4",
")  c #4970B4",
"_  c #4870B5",
"`  c #4970B5",
"'  c #4871B5",
"]  c #4971B5",
"[  c #4A70B4",
"{  c #4B70B4",
"}  c #4A70B5",
"|  c #4B70B5",
" . c #4A71B5",
".. c #4971B6",
"X. c #4A71B6",
"o. c #4872B6",
"O. c #4972B6",
"+. c #4873B6",
"@. c #4973B6",
"#. c #4A72B6",
"$. c #4B72B6",
"%. c #4C70B4",
"&. c #4C70B5",
"*. c #4D70B5",
"=. c #4C71B5",
"-. c #4E70B4",
";. c #4E70B5",
":. c #4F70B5",
">. c #4F71B5",
",. c #4D73B5",
"<. c #4B71B4",
"1. c #4178B2",
"2. c #4C78B5",
"3. c #4376B9",
"4. c #4476B8",
"5. c #5070B3",
"6. c #5170B3",
"7. c #5270B3",
"8. c #5070B4",
"9. c #5070B5",
"0. c #5270B5",
"q. c #5072B6",
"w. c #5273B7",
"e. c #5571B5",
"r. c #5274B7",
"t. c #5674B4",
"y. c #5372B3",
"u. c #5877B1",
"i. c #5D72B5",
"p. c #557BB3",
"a. c #5C7BB5",
"s. c #5576B8",
"d. c #5778B9",
"f. c #5A7FB8",
"g. c #607EB4",
"h. c #637EBB",
"j. c #548597",
"k. c #5B8A95",
"l. c #51809F",
"z. c #59879F",
"x. c #5185AD",
"c. c #5387AC",
"v. c #5A84AB",
"b. c #4D83B0",
"n. c #5D84B1",
"m. c #5C82B4",
"M. c #5C83B1",
"N. c #6485A3",
"B. c #628DA1",
"V. c #628AAE",
"C. c #6484B3",
"Z. c #658CB0",
"A. c #6B8BB2",
"S. c #7393BE",
"D. c #8193C7",
"F. c #809CC3",
"G. c #869FCA",
"H. c #9AB2CC",
/* pixels */
"q.7.d @ 2 2 ~ >.E Q >.>.X.2 ~ ~ ~ 7.7.7.l l d l l i 2 >.q.>.i ~ >.2 >.2 >.>.~ 2 ~ ~ 7.7.l 3 l d l q.",
"q.l d 2 3 2 ~ ~ 2 >.2 >.2 ~ 7.2 2 7.7.i d d i 3 3 l q.;.l 3 i 2 2 q.>.>.q.2 ~ i i ~ 7.~ l 3 3 3 i e.",
"q.l d 3 i 2 q.2 X.X.>.>.7.7.2 q.l l i i t t t 9 l l 2 2 l l i i 2 q.l q.q.q.2 2 2 2 >.2 l l 3 d d e.",
"q.l d 2 i i 2 >.2 >.2 >.~ 2 >.2 l l 7.i t t t t 9 2 l >.l l 3 2 >.2 >.2 i 2 i i q.2 q.l l 3 i 3 l t ",
"q.9 5 2 2 i 2 >.2 X.X.2 2 >.2 q.l l l l 9 t t 9 l 2 l 2 2 2 9 l 2 q.q.>.q.l 2 i i 2 q.l l 9 i d t l ",
"2 l 5 $ 3 2 2 >.2 >.>.>.q.2 7.2 2 l l l t t t 9 9 2 l l l l 9 2 2 >.2 q.2 2 l 2 2 2 2 l 2 3 l 3 t q.",
">.l 5 2 i 2 q.2 X.2 2 q.i 2 q.i >.l l l t t t l 9 l l l l l 9 l q.l 2 >.l 2 i i 2 2 >.2 l 3 l 3 t e.",
">.l d 2 i 2 2 >.2 2 >.q.2 i 2 2 2 l 2 l t t t l 9 9 9 X.9 9 9 9 2 >.>.l q.2 2 2 i i 2 l 2 l 3 i t q.",
">.l 3 3 2 2 2 2 1 2 >.>.2 2 q.>.2 l l 9 t t t 9 9 l l 2 l l 9 2 q.>.2 2 q.l 2 l l 2 >.l 9 9 9 t t q.",
">.l d l i 2 2 2 X.X.;.2 7.2 2 7.l 9 l l t t t 9 9 l l 2 l 2 9 l 2 >.q.>.2 2 l 2 2 l 2 2 2 9 5 t t e.",
"q.i d 3 2 2 2 X.2 X.;.;.>.2 >.7.2 l l l t t 9 9 9 l i l l l 9 l 2 >.>.>.l 2 q.2 2 l l 2 9 3 5 3 t t ",
"q.3 d 2 2 2 2 X.2 ;.;.;.7.2 2 2 2 l i l i d l 2 9 9 2 2 2 2 3 2 2 X.2 2 2 2 2 2 2 2 2 2 9 l 9 t t q.",
"2 i d 3 2 2 2 1 1 X.2 2 2 >.i i 2 3 2 l i i 3 3 2 2 2 >.2 l 9 2 2 >.2 >.2 2 2 2 2 2 X.2 g 9 3 9 t e.",
"l i d i 2 2 2 2 X.2 X.2 2 2 2 i l l l l i 3 l l 2 2 2 2 2 2 9 2 2 2 >.2 x X.2 2 2 2 X.2 g 3 g 3 t q.",
"q.l d 3 2 2 2 2 2 X.2 2 2 2 2 2 2 3 3 l i i 2 3 l 2 2 >.2 2 9 2 2 2 2 X.X.2 X.2 2 2 l 2 g 9 g 3 t e.",
"2 l 5 3 O 3 2 >.2 1 X.2 X.2 >.2 2 l l 2 3 i i i 2 2 2 >.2 l 3 2 l X.2 2 x 2 2 2 X.X.2 2 2 3 9 3 q.t ",
"l 9 d 9 g 2 X.z f 2 2 S f f f f 2 2 l 2 2 2 $ @ 3 2 2 X.2 2 2 2 2 2 2 2 X.2 2 2 2 } 2 2 2 2 O 9 i l ",
"2 9 5 3 2 g 2 z S X.1 f f 1 f f 2 l 2 l 3 i 2 i 2 2 2 2 2 2 O 2 X.2 X.2 2 2 2 2 2 1 2 2 2 9 2 O 3 i ",
";.l 5 9 9 2 2 z 2 f f S S f f 1 2 l 2 3 2 2 2 2 2 2 2 2 2 9 2 2 X.2 2 2 2 2 2 2 2 2 2 } 9 O 9 t l l ",
">.2 9 3 2 9 2 } 1 S S f S f 2 2 2 2 l 2 3 2 $ 3 3 2 2 Q 2 9 2 2 2 2 X.2 2 2 2 2 2 9 } 9 9 9 9 3 3 9 ",
"2 2 9 3 9 2 2 9 X.2 ..2 S 2 f S 2 2 2 l 2 3 $ 2 9 2 9 } 2 1 3 2 2 2 X.X.2 2 2 2 2 2 2 2 1 9 9 3 l 2 ",
"X.2 3 i 2 9 2 } 2 ..2 ..f f f f 2 l 9 9 2 2 2 i 2 2 2 1 2 9 2 2 2 X.2 2 2 2 2 2 2 2 2 2 2 9 9 3 3 l ",
">.i 3 i 9 2 2 ..1 2 ..2 S 2 f f 2 2 9 2 3 2 3 2 O } 2 2 2 2 9 9 2 2 1 2 2 2 2 2 1 2 2 2 2 1 3 3 3 9 ",
"2 l 3 2 2 2 2 2 ....2 ..2 S f f 2 9 l 2 2 i 2 3 9 9 2 2 2 2 9 2 X.2 X.2 2 2 2 2 2 2 2 2 2 2 3 3 l 9 ",
">.2 3 2 2 O 2 2 1 } } } 9 2 2 2 2 2 2 9 9 9 2 3 9 2 2 2 2 2 2 1 2 2 X.2 2 2 2 2 2 2 2 2 2 2 2 5 3 2 ",
">.l 5 2 2 2 2 2 2 } } 2 } 2 2 9 2 9 9 2 1 2 9 2 1 2 2 2 2 2 3 9 2 X.2 X.2 2 2 2 9 } 2 2 9 2 O O 9 l ",
">.i 3 2 2 2 2 2 2 1 } 2 2 2 2 2 2 g 2 9 3 9 3 2 O } 9 2 2 2 9 2 2 1 X.2 X.2 2 2 2 } 2 2 1 O 2 5 3 2 ",
">.l 3 2 9 2 X.2 2 2 } } 2 2 2 2 2 9 2 2 9 9 9 2 9 9 2 } 1 2 9 2 2 2 2 X.2 2 2 2 2 2 2 2 2 2 2 O 9 l ",
"w.l 5 9 1 2 2 2 1 } 9 } 2 2 2 2 2 2 g 2 3 9 3 9 9 1 f f 9 9 9 2 2 2 X.2 2 2 2 2 2 2 2 2 2 O 2 5 9 9 ",
"w.9 5 9 O 2 2 2 2 2 } 9 f 2 2 2 2 g 9 2 1 9 9 3 9 2 2 f 9 2 2 2 2 2 2 X.2 2 2 2 2 2 2 1 2 2 O 5 9 9 ",
"w.x 3 9 1 9 2 X.} } X.2 f f 2 2 2 9 9 2 9 2 O 2 9 2 f 1 2 2 2 2 2 2 2 2 2 2 2 2 2 2 2 2 2 O 2 5 d l ",
"d.t 5 3 3 9 9 2 1 J J J S S 2 2 2 2 2 9 2 2 2 2 2 2 1 2 2 2 O O 2 1 V E V V V 1 Z G ....2 1 @ 2 2 >.",
"d.e.9 5 $ 5 3 2 1 G Y Y +.X.Q 2 2 3 2 2 2 2 2 2 2 2 2 X.2 @ $ @ 2 Q E V . . & . % . X.2 2 O 2 @ Q 2.",
"f.t.# 5 # $ 3 3 1 Z Y I Y X.2 2 1 2 2 2 2 1 X.X.X.X.X.X.2 @ O 2 2 2 Y . . . . . . . 1 1 2 $ $ O / b.",
"g.u.# 3 # # $ $ 1 1 X.X.E X.1 2 1 2 2 2 2 1 J X.X.X.G X.2 @ O $ 2 2 G P o o . . . I G 2 # # $ $ ~ c.",
"n.u.# # $ $ $ $ 1 1 2 X.Q X.Q 2 2 2 1 2 2 2 X.4.Y G X.X.2 1 O $ 2 >.Y Y o o o o Z 1 2 2 # $ # # 7.c.",
"    l 3 $ $ # # $ @ 2 3 2 2 2 1 2 G 2 2 X.X.X.X.>.Q X.X.2 2 1 2 2 2 2 2 2 >.~ 2 2 1 5 # # # # # 2   ",
"    ; $ O 5 d $ d $ $ @ @ 2 2 2 2 Q G X.2 X.2 2 Q 2 2 2 2 2 2 2 2 2 2 2 3 i i 3 5 5 3 # # # 5 O     ",
"    k.> 2 3 d d d d 3 2 2 2 2 G G X.G Q E 2 2 2 2 2 @ 3 2 ~ >.2 2 2 O $ 3 3 i # 5 3 # # $ $ #       ",
"      < > > $ d # # 3 $ O 2 2 X.G Q X.G X.2 2 @ 2 O O @ 2 2 >.>.2 3 @ $ 3 $ $ $ # # 3 # $ $ i.      ",
"      A.g.g.t.m # d # # 5 O 2 1 X.G X.X.2 2 i 2 2 $ O 2 2 2 >.>.2 2 5 $ # # # # 3 # # # # # D.      ",
"        H.F.g.t $ $ # # $ 5 2 X.X.X.Q Q 2 2 @ @ O @ 2 2 1 2 X.2 9 3 5 5 # # $ # # # # 3 $ m         ",
"            h.e.# # # # 3 3 2 2 2 1 2 2 2 2 @ 2 2 2 2 2 X.2 X.2 l t 5 5 # # $ # # # # # #           ",
"            h.e.$ $ # # d 3 9 2 2 2 2 2 2 2 2 @ @ 2 2 2 1 G 1 2 t t 5 # # # $ $ # # # # #           ",
"                i.m m d # # # i i 2 2 2 2 2 i 2 2 2 X.G G 2 2 2 t t 5 d $ $ $ $ $ u.                ",
"                  7.> 7.7.i 2 7.~ 2 2 2 2 3 $ 2 2 2 2 2 >.>.2 2 l 2 2 3 ~ > > : :                   ",
"                    p.p.p.p./ 7.2 2 2 @ $ $ 3 3 2 3 2 2 2 q.2 2 2 2 q.q.t., < N.                    ",
"                            V.v.; * * 2 2 2 d 3 $ $ $ $ 2 ~ Q * / p.S.G.                            ",
"                            B.z.l.% * & 2 2 $ O 3 3 3 i 2 + & * * n.S.                              ",
"                              k.j.% * Q 2 2 O 5 3 3 3 3 @ + & * ; V.                                "
};
