/* XPM */
static char *tail_left_xpm[] = {
/* columns rows colors chars-per-pixel */
"33 33 156 2 ",
"   c None",
".  c #3F76AF",
"X  c #3C79AD",
"o  c #3E77B7",
"O  c #377EB5",
"+  c #387FB1",
"@  c #3679BA",
"#  c #377ABB",
"$  c #3A7AB9",
"%  c #3879BA",
"&  c #4E63AC",
"*  c #4C67AD",
"=  c #4168AF",
"-  c #4F68AE",
";  c #4F69AF",
":  c #5063AC",
">  c #5064AD",
",  c #5164AD",
"<  c #5266AD",
"1  c #5066AE",
"2  c #5167AE",
"3  c #5367AE",
"4  c #5467AE",
"5  c #5068AF",
"6  c #5168AF",
"7  c #5169AF",
"8  c #5268AF",
"9  c #5368AF",
"0  c #5369AF",
"q  c #4575AB",
"w  c #4171AF",
"e  c #4775AE",
"r  c #4E74AF",
"t  c #4F7AA8",
"y  c #517DA7",
"u  c #5277AA",
"i  c #5171AF",
"p  c #5279AB",
"a  c #466BB2",
"s  c #426DB3",
"d  c #436DB3",
"f  c #466CB3",
"g  c #426FB4",
"h  c #456FB4",
"j  c #4B69B0",
"k  c #4B6BB1",
"l  c #4C6AB0",
"z  c #4D6BB1",
"x  c #4F6AB0",
"c  c #4F6BB0",
"v  c #4F6AB1",
"b  c #486CB2",
"n  c #496CB2",
"m  c #496DB3",
"M  c #4B6DB3",
"N  c #496FB3",
"B  c #4B6EB3",
"V  c #4A6FB3",
"C  c #4C6CB1",
"Z  c #4C6CB2",
"A  c #4D6CB2",
"S  c #4C6DB3",
"D  c #4D6DB3",
"F  c #4E6DB2",
"G  c #4F6DB3",
"H  c #4C6EB3",
"J  c #4D6EB3",
"K  c #4C6FB3",
"L  c #4D6FB3",
"P  c #4F6EB2",
"I  c #4E6FB4",
"U  c #5169B0",
"Y  c #5269B0",
"T  c #506AB0",
"R  c #516AB0",
"E  c #516BB0",
"W  c #516AB1",
"Q  c #526AB1",
"!  c #526BB1",
"~  c #516BB2",
"^  c #5469B0",
"/  c #5669B0",
"(  c #546AB0",
")  c #556AB0",
"_  c #546AB1",
"`  c #506CB1",
"'  c #506CB2",
"]  c #516CB2",
"[  c #506DB2",
"{  c #516DB3",
"}  c #526CB2",
"|  c #526DB2",
" . c #536DB2",
".. c #506EB3",
"X. c #516EB3",
"o. c #526EB3",
"O. c #556CB1",
"+. c #506FB4",
"@. c #516FB4",
"#. c #526FB4",
"$. c #586CB1",
"%. c #4176B1",
"&. c #4773B5",
"*. c #4671B6",
"=. c #4473B6",
"-. c #4573B6",
";. c #4772B6",
":. c #4076B6",
">. c #4675B7",
",. c #4476B7",
"<. c #4970B1",
"1. c #4B72B1",
"2. c #4B71B3",
"3. c #4E70B3",
"4. c #4F76B2",
"5. c #4870B5",
"6. c #4871B5",
"7. c #4971B5",
"8. c #4B70B4",
"9. c #4A70B5",
"0. c #4B70B5",
"q. c #4A71B5",
"w. c #4872B5",
"e. c #4A72B6",
"r. c #4B72B6",
"t. c #4C70B5",
"y. c #4C71B5",
"u. c #4F70B4",
"i. c #4E70B5",
"p. c #4E71B5",
"a. c #4F71B5",
"s. c #4974B6",
"d. c #4B75B6",
"f. c #4E74B7",
"g. c #4875B8",
"h. c #5070B5",
"j. c #5270B5",
"k. c #5072B6",
"l. c #5073B6",
"z. c #5173B6",
"x. c #5174B6",
"c. c #5D72B6",
"v. c #577AB3",
"b. c #5678B9",
"n. c #3880B0",
"m. c #5C8E92",
"M. c #5F8B97",
"N. c #51849C",
"B. c #5281A6",
"V. c #5388AD",
"C. c #4D84B1",
"Z. c #5D85B2",
"A. c #5980BA",
"S. c #6185A1",
"D. c #7897C4",
"F. c #7C98C3",
/* pixels */
"                                                                  ",
"j.j.j.j.j.j.j.j.j.! #.! #.! G ! ! ! ! #.d.C.V.                    ",
"Q Q Q Q Q Q Q Q Q Q Q Q Q Q 7 Q 7 Q Q Q k a a ,.                  ",
"Q ! ! ! ! ! ! ! 7 G ; G Q ; Q ; Q l Q l k k B B                   ",
"#.! G ! ! ! ! G ! G B l B G l B G l G B k B G G B G               ",
"j.#.1.h.a.a.G a.K G G B G B G G B G B G 0.M G l 7 Q               ",
"K K 1.h.G G B G G B B G B G G B G B G G o % ,.B 0 0 , , v.        ",
"G G 7 G G G G B B G l G l k k G B G k l X n.@ G O., : & 7 S.      ",
"h.G G 1.#.G G G B G G G G G G G ; G G G %.+ % 1.7 7 0 , 7 p       ",
"j.a.j.! #.K a.B a.B G B K K G B 2.B B G %.O % a.Q 7 , 7 0 1.      ",
"K a.a.a.K j.G B 1.B B 2.M M K K 2.1.B B -.,.>.G 7 ; Q O.0 B D.    ",
"j.#.#.1.#.1.2.a.G G B B M G K K B G G B B B G G l Q ! ! ! G l.y   ",
"K #.a.! a.a.#.G G G G G G G K ' G G G G ; 7 7 l G G h.! ! 1.1.q   ",
"! Q Q Q Q Q Q _ ! 7 Q Q Q Q Q Q Q Q Q l ; ; * k f.f.-.s f x.1.w   ",
"a.a.K a.a.a.0.K 0.K K K M K K K K K K K G 0.-.0.7 ; G B >.G Q Q   ",
"a.a.#.#.! a.1.K 1.K K K M M K K K K K K B 0.0.2.G ; ; G d.! Q ,   ",
"! j.! h.h.! ! a.1.! G ! ! G G ! Q l #.Q B 2.>.0.G ; ; ; 2.G 7 7   ",
"! ! ! ! ! ! G ! ! ; ; G ; Q l G l Q ! l G 0.d.0.l B ; G G 7 7 7   ",
"! j.! ! ! ! ! ! ! G ! ; G ; l Q ; ; G ; G f -.0.B G ; ; Q _ _ Q   ",
"! h.h.! h.j.! ! ! ! 1.7 G G Q K 1.G ! G Q B G B 0.0.2.G G l l -.  ",
"j.h.! h.G ! h.O.h.! 1.! Q K Q Q ! ! ! G G l B B 0.-.0.G B G e e   ",
"j.h.! h.a.! G 1.G G K ! G G K #.K a.G G l G B B -.-.0.B Q B u N.  ",
"j.! h.h.j.a.! 1.G G #.G G G #.' #.G G G G G B G h 0.a.G ! a.B.m.  ",
"a.h.1.! ! 1.G G G G G G G G G K G G G G 0.-.B l G G l Q 7 0.      ",
"1.j.a.K j.j.a.G B G 2.B G 2.K K G 2.G B >.,.0.Q ; Q 4 4 _ l.      ",
"K a.#.1.a.K 1.G 2.G B 2.2.B K 1.2.B B G >.,.a.l Q 7 0 4 _ l.      ",
"j.a.G a.a.a.a.G B G B a.G 2.B B B B G B >.,.1.Q 7 7 4 4 0 x.      ",
"G 2.B B B B B B B B B M B B B B B B B f =.s = 7 _ _ , & c.        ",
"j.1.j.1.B B B B 1.a.1.a.1.2.G B G G B G ! Q 7 7 $.O.O.z.          ",
"! G ! G G G ; G ! h.! ! ! G G G G B B ; Q 7 7 , ! i F.            ",
"G ; G ; ; ! ; G ! ; G ; l ! G ; Q l ; l 7 4 0 , B u               ",
"O.! O.O.! 0 0 7 0 0 0 _ Q Q Q Q Q Q _ Q 7 , , #.M.                ",
"x.j.a.a.a.0.a.a.a.0.a.a.0.0.0.a.a.a.a.x.b.A.Z.                    "
};
