/* XPM */
static char *tail_right_xpm[] = {
/* columns rows colors chars-per-pixel */
"40 40 46 1 ",
"  c None",
". c #3C7AB4",
"X c #3E76B9",
"o c #4F67AF",
"O c #4C6AAF",
"+ c #5267AF",
"@ c #5269AF",
"# c #4F7BA5",
"$ c #4474AE",
"% c #4D74AD",
"& c #4C78AA",
"* c #5C7CA6",
"= c #5374AC",
"- c #5178AF",
"; c #466EB3",
": c #4D6DB3",
"> c #5167B0",
", c #516CB2",
"< c #596DB2",
"1 c #4573B5",
"2 c #4C70B5",
"3 c #4078B4",
"4 c #4D7DB2",
"5 c #4475B8",
"6 c #5171B4",
"7 c #5B73B6",
"8 c #567CB0",
"9 c #597DB5",
"0 c #5576B8",
"q c #5B7AB9",
"w c #6377B7",
"e c #617FB5",
"r c #617FBA",
"t c #588997",
"y c #51819D",
"u c #5A859C",
"i c #5884A3",
"p c #5181AE",
"a c #5882AC",
"s c #5C81B1",
"d c #6487AC",
"f c #6B92AD",
"g c #7692AF",
"h c #6E8DB6",
"j c #6A8ABC",
"k c #7F97C4",
/* pixels */
"           ssq0060:022:22,,22,22:0::020:",
"         t=66<>,,,,:,>,,,,,,<,,,,,,,,:,,",
"        d=@+++@,,>o:>>::,>,,,><>>>,,,,,>",
"       h=O@++@@:::o:::::::,:,:::::,,,,,:",
"      ke<,++>>>::::::::::,:::::::::::,::",
"     q7<><@+>>:,::::;:::2::2::::2::2:,2:",
"    7,,@,,>O;:;;;:;:;:;:::2:2:;::22222:2",
"   6<++@>>o:;;2;:::::::2222;:;::222::222",
"  j6<+++>@,:555:;::5222222:;22:::22:2222",
"  j6++++>,O2252;::::22:22:2:2::20::0:::0",
"  j6+>o:::::252:::::::::::::2,22::::0:::",
" f82,::::2:::;;::::::::::::2,2,20,::::::",
"ti-2@::2;;;::;::::::::::,,2,,,,20::0,:::",
"y#%2:::1122;:,:::::::2:::2,22,,2::::0:0:",
"&&O:::221::::::,:,:::,2,2,2,2,,20::::,0:",
"%2:::::1:11:;>::,::::,,:,,,,,,,,,,,0,,,,",
"::o:o:::;52:;::::,,:>:>>:::,,,,,,0,<,,,,",
":@,+:::::22;2:::,:,,:::::>:>,,,,,,,,,,,0",
"o>,:::o:>:2522:>::,::>>:::>:,:,,,,,,,,,,",
">>>::o:o>:2252:,>>:,:>:>>:::::,,,,,,,,,,",
">+,:2;:o>>2512;::::::::::::::,2,,0:,::,:",
",+O:2:>::;;2:;:::::::::::::::2::,::::0::",
"O:,::;::>::2::O:::::::::::::::::::,:0,::",
"O:,25;:2,::;::o:::::::::::::,:,:,0,,::::",
"$%22::1::,:ooo:::>::::::,,::,,:,0,,,,,:,",
"&%2:,,,:::::o:::::::::::::::::::::::,:::",
"a86:,,,,::::::::::::::::2::::2:,:::20:20",
" j9:,>,,o::2111:::::5:::2:222:2220:0:0::",
"  j:<<++o,:5XX5::5::::5:22:2::2::02::::0",
"  j=>>+>>,:XXX;;::::::::::::2:::::::00::",
"  h=++++>>5XX.;:::::::::::::2::0,:0:2:::",
"  g*++++>>;X..55:::::::::::::::::,,:::::",
"   *@++++@:1..1::>;::::::>:::2::,::::,::",
"    6+++++::;.1::::::;:::;;:::2:::::0:::",
"     ++++++::::::::::::::::::::::0:,0:,:",
"     +++++++o:;::;o:::::;:::,,,,,:,:,,::",
"      w<@+@@oo::o:::::o:>::,,,,,,,,,,,,,",
"        <+@@>oo::>>,+>,,>>,,,,,,,,,,,,>,",
"          :@@2::,,>,:+,,>,,,,,,,,,,,,,<,",
"           pp42,,,::,,,,,2,,,,0,:,0,,,,0"
};
