/* XPM */
static char *clock_xpm[] = {
/* columns rows colors chars-per-pixel */
"40 40 102 2 ",
"   c #000000",
".  c #0D0605",
"X  c #0F0806",
"o  c #0E0E0D",
"O  c #110907",
"+  c #1C0E0C",
"@  c #1F100D",
"#  c #121212",
"$  c #1E1E1D",
"%  c #22110E",
"&  c #2C1712",
"*  c #2E1813",
"=  c #331A15",
"-  c #3D1F19",
";  c #3F201A",
":  c #262624",
">  c #282826",
",  c #2B2B29",
"<  c #31312E",
"1  c #363634",
"2  c #383735",
"3  c #393936",
"4  c #3C3C39",
"5  c #44231C",
"6  c #4A261E",
"7  c #4D2720",
"8  c #542B22",
"9  c #5A2E25",
"0  c #5F3127",
"q  c #613127",
"w  c #643329",
"e  c #6A362C",
"r  c #6E392D",
"t  c #723A2E",
"y  c #773D31",
"u  c #7B3F32",
"i  c #42413E",
"p  c #7E4033",
"a  c #494946",
"s  c #4C4C49",
"d  c #53524F",
"f  c #565551",
"g  c #595955",
"h  c #5D5D59",
"j  c #62625D",
"k  c #676662",
"l  c #6A6A65",
"z  c #6F6F6A",
"x  c #71706B",
"c  c #777771",
"v  c #787772",
"b  c #7C7C76",
"n  c #7E7D78",
"m  c #844336",
"M  c #8A4739",
"N  c #8E493A",
"B  c #934B3C",
"V  c #9E5040",
"C  c #A45343",
"Z  c #A95645",
"A  c #AE5947",
"S  c #B55C4A",
"D  c #B95E4C",
"F  c #BD614E",
"G  c #807F79",
"H  c #C0624E",
"J  c #C46450",
"K  c #C96652",
"L  c #CC6954",
"P  c #D26B56",
"I  c #D76E58",
"U  c #D96F59",
"Y  c #DD715B",
"T  c #E5755E",
"R  c #E8765F",
"E  c #EA7760",
"W  c #EB7860",
"Q  c #F77E65",
"!  c #83827C",
"~  c #878780",
"^  c #888781",
"/  c #8B8A84",
"(  c #8F8F88",
")  c #94938C",
"_  c #9B9B93",
"`  c #A3A39B",
"'  c #B4B3AB",
"]  c #BBBAB2",
"[  c #C3C2B9",
"{  c #CDCCC2",
"}  c #D2D1C7",
"|  c #D4D3C9",
" . c #D9D8CE",
".. c #DEDDD3",
"X. c #E0DFD5",
"o. c #E2E1D7",
"O. c #E5E4DA",
"+. c #E8E7DC",
"@. c #EBEADF",
"#. c #EDECE2",
"$. c #F0EFE4",
"%. c None",
/* pixels */
"%.%.%.%.%.%.%.%.%.%.%.%.%.%.%.%.                  %.%.%.%.%.%.%.%.%.%.%.%.%.%.%.",
"%.%.%.%.%.%.%.%.%.%.%.%.        O * 8 w q 8 - .         %.%.%.%.%.%.%.%.%.%.%.%.",
"%.%.%.%.%.%.%.%.%.%.      - m D F N t r Z Q Q Q U M &       %.%.%.%.%.%.%.%.%.%.",
"%.%.%.%.%.%.%.%.%.    - K Q 8 X         8 Q Q Q Q Q Q H 9     %.%.%.%.%.%.%.%.%.",
"%.%.%.%.%.%.%.    & A Q Q Q u 7 N D L F J I Q Q Q Q Q Q Q K +     %.%.%.%.%.%.%.",
"%.%.%.%.%.%.    8 S = Z Q Q F u = .           6 r L Q Q Q Q Q 9     %.%.%.%.%.%.",
"%.%.%.%.%.    t C X X Z D -   . , j v ~ / v g :     5 S Q Q Q Q t     %.%.%.%.%.",
"%.%.%.%.    r M . & F e X o z [ #.#.$._ ` $.#.$.[ x     r Q Q Q Q q     %.%.%.%.",
"%.%.%.%.  q B . * L =   s } #.$.$.$.$.1 , $.$.$.$.O.X.d   * R Q Q Q 8   %.%.%.%.",
"%.%.%.  % D O % K % o ~ $.f $ $.$.$.$.d a $.$.$.O.1 g $.)   + R Q Q W @   %.%.%.",
"%.%.    A - . S * o ` $.$._   ) $.$.$...O.$.$.$.!   ^ $.$.'   % Q Q Q J     %.%.",
"%.%.  7 m   N e   _ $.$.$.$.: o $.$.$.a 3 $.$.$.# 3 O.$.$.$.`   8 Q Q Q 6   %.%.",
"%.    D % = Z . h $.$.$.$.$.{ / #.$.$.1 , #.$.$.^ ] $.$.$.$.$.s   K Q Q Y     %.",
"%.  = Z   N 5 o | l ) $.$.$.$.$.$.$.$.1 , $.$.$.$.$.$.$.#.) s X.o 6 Q Q Q %   %.",
"%.  m 5 X F   l @.,   , [ $.$.$.$.$.$.1 , #.$.$.$.$.$.[ ,   < O.j   I Q Q N   %.",
"%.  K . 8 u   { $.$.^   b $.$.$.$.$.$.2 , $.$.$.$.$.$.n o ~ o.$.X.  u Q Q R   %.",
"  + F   C 5 , $.$.$.$.$.$.$.$.$.$.$.$.1 , #.$.$.$.$.$.$.#.$.$.$.$.$ % Q Q Q X   ",
"  = M   K   h $.$.$.$.$.$.$.$.$.$.$.$.1 , #._ s  .$.$.$.$.$.$.$.#.l . Q Q Q =   ",
"  8 u   F   x $.$.$.$.$.$.$.$.$.$.$.$.1 # <   , ..$.$.$.$.$.$.$.$.c   U Q Q 0   ",
"  w w   H   ( / 1 1 a } $.$.$.$.$.$.$.1   o ~ o.$.$.$.$.} 3 1 3 _ ^   H Q Q w   ",
"  q S 6 K   ~ ) , , 1 { $.$.$.$.$.$.$.b s } $.$.$.$.$.$...1 > , ^ ^   F Q Q q   ",
"  8 Q Q E   n #.#.$.$.$.$.$.$.$.$.$.$.$.$.#.$.$.$.$.$.$.$.$.$.#.$.!   P Q Q 8   ",
"  = Q Q Q   f $.$.$.$.$.$.$.$.$.$.$.$.$.$.$.$.$.$.$.$.$.$.$.$.$.$.g   Q Q Q 5   ",
"  X Q Q Q % o $.$.$.$.#.$.$.$.$.$.$.$.$.$.$.$.$.$.$.$.$.$.$.$.$.$.> = Q Q Q @   ",
"    I Q Q t   } $.o.! o ^ $.$.$.$.$.$.$.$.$.$.$.$.$.$./ . ! $.$.{   y Q Q L     ",
"%.  N Q Q U   z $.1   1 [ $.$.$.$.$.$.$.$.$.$.$.$.$.$.[ $   , $.v   D Q Q N   %.",
"%.  & Q Q Q - .  .g ~ o.$.$.$.$.$.$.$.$.$.$.$.$.$.$.$.$.$.~ d } # 6 Q Q Q ;   %.",
"%.    P Q Q K   s $.$.$.$.$.[ b $.$.$.$.$.$.$.#.b [ $.$.$.$.$.k   D Q Q D     %.",
"%.%.  7 Q Q Q w   _ #.$.$.o.4 o $.$.$.{ | $.$.#.o > $.$.$.$.(   e Q Q Q 8   %.%.",
"%.%.    D Q Q Q &   ' $.$./   ! $.$.#.a i $.$.$.~   _ $.$.` o * R Q Q S     %.%.",
"%.%.%.  @ Q Q Q T +   / $.h , +.$.$.#.1 1 $.$.$.$.: s #./ o % Y Q Q R =   %.%.%.",
"%.%.%.%.  6 Q Q Q Y *   f o.o.$.$.$.$.1 2 $.$.$.$.$. .j   = I Q Q W 8   %.%.%.%.",
"%.%.%.%.    m Q Q Q Q q     l } $.$.$._ ) $.$.$.[ l o   e R Q Q Q M     %.%.%.%.",
"%.%.%.%.%.    M Q Q Q Q K 6     < g n ) _ ! k , .   ; J Q Q Q Q m     %.%.%.%.%.",
"%.%.%.%.%.%.    9 Q Q Q Q Q H u *           . - u K Q Q Q Q R 0     %.%.%.%.%.%.",
"%.%.%.%.%.%.%.    & D Q Q Q Q Q Q Q P F F K W Q Q Q Q Q Q D %     %.%.%.%.%.%.%.",
"%.%.%.%.%.%.%.%.%.    8 P Q Q Q Q Q Q Q Q Q Q Q Q Q Q D 8     %.%.%.%.%.%.%.%.%.",
"%.%.%.%.%.%.%.%.%.%.      5 p I Q Q Q Q Q Q Q Q K M & .     %.%.%.%.%.%.%.%.%.%.",
"%.%.%.%.%.%.%.%.%.%.%.%.        . 5 9 w w 9 * O         %.%.%.%.%.%.%.%.%.%.%.%.",
"%.%.%.%.%.%.%.%.%.%.%.%.%.%.%.%.                %.%.%.%.%.%.%.%.%.%.%.%.%.%.%.%."
};
