/* XPM */
static char *cobra_corpo_xpm[] = {
/* columns rows colors chars-per-pixel */
"40 40 241 2 ",
"   c #3B7FAB",
".  c #3D7CAC",
"X  c #3C7EAC",
"o  c #3C7EAF",
"O  c #3F76B5",
"+  c #3E7CB2",
"@  c #3B79B6",
"#  c #3A7BB6",
"$  c #3B7AB7",
"%  c #3D79B7",
"&  c #3E7AB7",
"*  c #3C7EB6",
"=  c #3F78B8",
"-  c #3F79B9",
";  c #3F7ABA",
":  c #3E7CBB",
">  c #407CA7",
",  c #407CA9",
"<  c #4178AE",
"1  c #407CAC",
"2  c #4F66B0",
"3  c #4E67B0",
"4  c #456BB2",
"5  c #436FB6",
"6  c #4F68B1",
"7  c #4F69B1",
"8  c #4F69B2",
"9  c #4D6BB3",
"0  c #4F6AB2",
"q  c #4E6AB3",
"w  c #4F6AB3",
"e  c #4E6BB3",
"r  c #4F6BB3",
"t  c #4C6CB3",
"y  c #4D6CB3",
"u  c #4E6CB3",
"i  c #4C6EB3",
"p  c #496DB5",
"a  c #4A6CB4",
"s  c #4B6CB4",
"d  c #4B6DB4",
"f  c #4A6DB5",
"g  c #4B6DB5",
"h  c #496FB5",
"j  c #4A6EB5",
"k  c #4B6EB5",
"l  c #4B6FB5",
"z  c #486FB6",
"x  c #496FB6",
"c  c #4A6EB6",
"v  c #4B6EB6",
"b  c #4A6FB6",
"n  c #4B6FB6",
"m  c #4C6CB4",
"M  c #4D6CB4",
"N  c #4C6DB4",
"B  c #4D6DB4",
"V  c #4C6DB5",
"C  c #4D6DB5",
"Z  c #4E6CB4",
"A  c #4F6CB4",
"S  c #4E6DB4",
"D  c #4F6DB4",
"F  c #4E6DB5",
"G  c #4F6DB5",
"H  c #4C6EB4",
"J  c #4C6FB4",
"K  c #4C6EB5",
"L  c #4D6EB5",
"P  c #4C6FB5",
"I  c #4D6FB5",
"U  c #4E6EB5",
"Y  c #4F6EB5",
"T  c #4E6FB5",
"R  c #4F6FB5",
"E  c #4C6EB6",
"W  c #4C6FB6",
"Q  c #4D6FB6",
"!  c #4E6FB6",
"~  c #4F6FB6",
"^  c #5067B0",
"/  c #5167B0",
"(  c #5267B0",
")  c #5367B0",
"_  c #5467B0",
"`  c #5168B1",
"'  c #5069B1",
"]  c #5269B1",
"[  c #506AB2",
"{  c #516AB2",
"}  c #506AB3",
"|  c #506BB3",
" . c #536AB2",
".. c #526BB3",
"X. c #516CB3",
"o. c #526CB3",
"O. c #506CB4",
"+. c #516CB4",
"@. c #506DB4",
"#. c #506DB5",
"$. c #516DB5",
"%. c #526CB4",
"&. c #526DB5",
"*. c #506EB5",
"=. c #516EB5",
"-. c #506FB5",
";. c #536FB5",
":. c #506EB6",
">. c #506FB6",
",. c #516FB6",
"<. c #526FB6",
"1. c #4271B7",
"2. c #4771B7",
"3. c #4572B7",
"4. c #4672B7",
"5. c #4971B6",
"6. c #4870B7",
"7. c #4971B7",
"8. c #4A70B6",
"9. c #4B70B6",
"0. c #4A70B7",
"q. c #4A71B7",
"w. c #4A73B7",
"e. c #4C70B6",
"r. c #4D70B6",
"t. c #4D70B7",
"y. c #4D71B7",
"u. c #4E70B6",
"i. c #4F70B6",
"p. c #4E70B7",
"a. c #4F70B7",
"s. c #4E71B7",
"d. c #4F71B7",
"f. c #407AB6",
"g. c #4172B8",
"h. c #4373B8",
"j. c #4672B8",
"k. c #4772B8",
"l. c #4673B9",
"z. c #4274B8",
"x. c #4277B8",
"c. c #4377BA",
"v. c #4474B8",
"b. c #4575B8",
"n. c #4575B9",
"m. c #4476B9",
"M. c #4477BA",
"N. c #4871B8",
"B. c #4972B8",
"V. c #4973B8",
"C. c #4B72B8",
"Z. c #4D73B8",
"A. c #4E72B8",
"S. c #4F72B8",
"D. c #4278B9",
"F. c #4278BA",
"G. c #5070B6",
"H. c #5170B6",
"J. c #5171B7",
"K. c #5270B6",
"L. c #5370B6",
"P. c #5271B7",
"I. c #5371B7",
"U. c #5272B7",
"Y. c #5372B7",
"T. c #5373B7",
"R. c #5471B6",
"E. c #5571B6",
"W. c #5471B7",
"Q. c #5472B7",
"!. c #5572B7",
"~. c #5672B7",
"^. c #5673B7",
"/. c #5872B7",
"(. c #5173B8",
"). c #5372B8",
"_. c #5273B8",
"`. c #5373B8",
"'. c #5472B8",
"]. c #5572B8",
"[. c #5573B8",
"{. c #5673B8",
"}. c #5773B8",
"|. c #5673B9",
" X c #5074B9",
".X c #5174B9",
"XX c #5274B8",
"oX c #5374B8",
"OX c #5274B9",
"+X c #5374B9",
"@X c #5275B9",
"#X c #5375B9",
"$X c #5176BA",
"%X c #5376BA",
"&X c #5377BB",
"*X c #5474B8",
"=X c #5574B8",
"-X c #5474B9",
";X c #5574B9",
":X c #5575B9",
">X c #5674B8",
",X c #5774B8",
"<X c #5674B9",
"1X c #5675B9",
"2X c #5775B9",
"3X c #5676B9",
"4X c #5476BA",
"5X c #5576BA",
"6X c #5577BA",
"7X c #5477BB",
"8X c #5676BA",
"9X c #5777BA",
"0X c #5677BB",
"qX c #5777BB",
"wX c #5478BB",
"eX c #5278BC",
"rX c #5378BC",
"tX c #5379BC",
"yX c #5578BC",
"uX c #5678BC",
"iX c #5679BC",
"pX c #5779BC",
"aX c #547ABC",
"sX c #557ABD",
"dX c #567ABC",
"fX c #567ABD",
"gX c #577BBD",
"hX c #567BBE",
"jX c #567CBE",
"kX c #577DBF",
"lX c #587BBD",
"zX c #587CBE",
"xX c #597CBF",
"cX c #587DBF",
"vX c #597DBF",
"bX c #587EBF",
"nX c #597EC0",
"mX c #597FC0",
"MX c #3C82A2",
"NX c #3C81A4",
"BX c #3C81A9",
/* pixels */
"9XgXnXtXeXgXyX9X/./.^.2X2X9XU.&.'.!.U.U.+XXX+X$XaXwX2X2X}././.}.9X9XwXjXnXvXlXnX",
"9XlXnXgXtXrX9X!.!.!.!.^.!.!.!.!.!.U.>.!.U.+X+X+X9X9X'.}.!.!.!.2X^.9X+XjXgXgXgXwX",
"9XgXnXnXtX9X9X'.!.;.!.!.!.!.!.!.!.!.!.!.U.).+X+X!.!.'.'.!.!.!.'.+X+X+X9X$XwX9X9X",
"+XgXgXgX+X+X+X).U.!.&.&.!.>.&.!.;.&.&.>.U.+XZ.U.U.!.U.>.U.U.U.).XX+X+XXX+X+XXXXX",
"X.t.U.t.C.t.t.! ! >.! >.>.>.>. . .X.! %.! t.Z.U...>.! ! t.A.>.! ! ! ! ! >.>.>.! ",
"X.R t.t.8.t.t.! ! ! >.>.&.&.&.%...;.%.%.>.! t.>...>.>.U.U.! >.! ! 0 ! ! >.! %.%.",
"0 R t.t.! t.t.>.! >.>.U.U.>.&.%.....>.>.! U.t.>...>.>.t.U.! >.! R R ! ! >.>.%.! ",
"0 R t.t.b t.t.>.>.! >.U.&.>.&.%.X.;.%.%.>.! t.>.X.X.>.t.t.>.! R ! ! ! U.>.>.>.r ",
"0 R ! ! b t.t.>.! >.! U.>.>.&.%.%.%.%.%.! ! a.>.X.>.! ! U.).! ! ! ! ! >.>.>.! %.",
"R R ! ! b t.t.>.>.! t.X.>.>.&.%.%...! >.>.! ).>...>.! U.t.! ! ! r ! b ! >.>...! ",
"0 R ! b b t.i.G.! ! >.>.>.>.>.%.%.%.0 >.>.! t.>.X.R ! ! A.! ! >.%.! r ! >.! ..! ",
"0 R t.! s i.i.t.X.X.! >.>.! %...r %.R ..>.>.>.>.X.R ! ! t.>.! 0 ! r ! >.! >.R 0 ",
"0 ! ! b b ! t.X.! ! ! >.>.>.>...%.%.! r ! >.>.>...>.>.t.t.! >.! r ! ! ! >.! ! %.",
"0 ! ! b b ! t.! ! X.>.>.>.>.%.>.%.r ..! X.>.! >...! >.! U.! ! >.! r ! >.! ! 0 ! ",
"0 s b b b b ! X.! ! >.>.>.>.X.X.....! ..>.>.! >...! ! A.! >.>.r r ! 0 ! >.! ! r ",
"R R ! b ! ! ! ! X.! ! >.>.>.>...%.>.0 R >.>.>.! ..! >.! t.! >.! %.! ! >.! >.r ! ",
"0 0 b b b b ! ! ! ! ! >.%.>.r r 0 r ! 0 ! ! b R 0 R R b ! ! ! 0 r b ! ! ! r r r ",
"r ! ! ! ! ! ! ! ! 0 R ! ! ! %.%.r r ! r 0 R ! ! 0 0 ! ! ! b ! b g g ! ! ! ! ! r ",
"r b b b b ! ! ! R t ! 0 >.%.%.r r r %.r ! b b ! R 0 ! ! b ! ! ! g r ! ! ! ! r r ",
"0 R r b t b b ! ! ! ! %.>.! ! r r r r r ! ! ! ! 0 R ! b ! ! ! g g g ! ! ! ! r r ",
"0 ! b b g b ! r t r b ! ! r r r r r ! r ! b v t.0 g ! ! b ! R t r g g ! b ! g r ",
"0 ! ! ! g b r b r b ! r ! ! r r r r r r ! r v r r 0 g b ! b b 0 g r r b r v r g ",
"0 >.! ! v C.v r r b r ! ! r r r r r ! g g ! b b r r r b b t ! 0 r g g ! ! g g r ",
"0 ! ! b v v v ! b r g ! ! t.r r r r r r r b ! r r g ! ! b R ! b g r g ! v r r g ",
"0 ! ! ! b b b ! v E r r t.! ! r r r r g ! b v r 8 r t.v v ! b 0 g r b r b r g r ",
"0 >.! ! b b b ! r v v t.! r r r r r r r r ! v ! r g r v t.! b r r g g ! ! v r g ",
"0 ! ! ! b ! ! R t.r r ! ! ! r r r r r g b ! v ! 8 g r t.b r ! r g r g ! ! r g r ",
"0 ! b b b b b t v r g t.! r r r r r r r b r v v r r v v ! b ! g r r g b b r r g ",
"0 b b b g b b r v t.r r t.r t.r r r ! g ! b ! r r r ! ! 8.! s R g r b r ! b r g ",
"0 r ! ! b b b ! r v v ! ! t.r r r r r r r b b r r g r b t.! ! t r g g ! r r g r ",
"r r g b g b ! ! ! r r ! r ! r r r r g r r ! v r r g r b b t s 0 g r b r b r r g ",
"0 ! ! g p g ! b v r b r ! ! r r r r r g b ! v g r r ! b ! R ! b r r g ! b ! g r ",
"g ! b r p b b R t g r ! ! ! r r r r b b r b ! r r r g v 8.R R t 0 b g ! r b r g ",
"3 r ! b s ! ! R b r g ! r ! r r r r 0 r r ! b g r g r t.8.R s R g 0 t ! ! g g r ",
"0 0 ! g b s R ! r ! g ! ! ! r r r r ! 0 b b ! ! r g v v 8.R b 0 r t g ! r ! t g ",
"g ! r b s b s b b r r ! ! t.r r r r 0 0 r ! b r 8 r ! t.8.s R R b 0 b g b g r t ",
"^ 0 r ! 1.z.F.b.j.b g r r 0 g t ! g g b b t b 0 ^ r r g j.O < . . , f.2.2.8.t g ",
"_ ..%.r g.; : F.j.p g 0 r g 0 b b 8.b ! b ! R 0 ^ 3 %.b g.@ . NXMXNX* z.2.p t t ",
"^ _ ..0 5 z.F.n.j.b g t t 0 g b 8.8.C.8.b b ! ! ^ %.3 v j.= + X X X ; 2.2.b b b ",
"_ ^ ^ 3 4 8.V.C.b ! g 0 t t g b p j.C.j.C.C.8.b ^ ^ 8 r C.n.; @ @ % z.2.8.b R s "
};
