/* XPM */
static char *cobra_corpo_xpm[] = {
/* columns rows colors chars-per-pixel */
"50 50 243 2 ",
"   c #3D7DA9",
".  c #3D7EAA",
"X  c #3C7BB1",
"o  c #3C7BB2",
"O  c #3B7DB0",
"+  c #3E79B7",
"@  c #3E7CB5",
"#  c #3A78B9",
"$  c #3B78B9",
"%  c #3A7AB8",
"&  c #3F79BA",
"*  c #3E7ABA",
"=  c #3F7BBB",
"-  c #3D7DB8",
";  c #3E7CBB",
":  c #417BA8",
">  c #417BA9",
",  c #4278AD",
"<  c #4D67B0",
"1  c #4E66B0",
"2  c #4569B1",
"3  c #436CB4",
"4  c #436FB7",
"5  c #4F68B1",
"6  c #4D69B2",
"7  c #4F69B2",
"8  c #4D6BB3",
"9  c #4F6AB2",
"0  c #4E6AB3",
"q  c #4F6AB3",
"w  c #4E6BB3",
"e  c #4F6BB3",
"r  c #4C6CB3",
"t  c #4D6CB3",
"y  c #4E6CB3",
"u  c #4C6EB3",
"i  c #486DB5",
"p  c #496DB5",
"a  c #4A6CB4",
"s  c #4B6CB4",
"d  c #4B6DB4",
"f  c #4B6DB5",
"g  c #4B6EB4",
"h  c #4A6EB5",
"j  c #4B6EB5",
"k  c #4B6FB5",
"l  c #496FB6",
"z  c #4A6EB6",
"x  c #4B6EB6",
"c  c #4A6FB6",
"v  c #4B6FB6",
"b  c #4C6CB4",
"n  c #4D6CB4",
"m  c #4C6DB4",
"M  c #4C6DB5",
"N  c #4D6DB5",
"B  c #4E6CB4",
"V  c #4F6CB4",
"C  c #4E6DB4",
"Z  c #4F6DB4",
"A  c #4E6DB5",
"S  c #4F6DB5",
"D  c #4C6FB4",
"F  c #4C6EB5",
"G  c #4D6EB5",
"H  c #4C6FB5",
"J  c #4D6FB5",
"K  c #4E6EB5",
"L  c #4F6EB5",
"P  c #4E6FB5",
"I  c #4F6FB5",
"U  c #4C6EB6",
"Y  c #4C6FB6",
"T  c #4D6FB6",
"R  c #4E6FB6",
"E  c #4F6FB6",
"W  c #5066B0",
"Q  c #5067B0",
"!  c #5267B0",
"~  c #5367B0",
"^  c #5467B0",
"/  c #5068B1",
"(  c #5168B1",
")  c #5069B1",
"_  c #5169B1",
"`  c #5368B0",
"'  c #5369B1",
"]  c #5069B2",
"[  c #506AB2",
"{  c #506BB3",
"}  c #516BB3",
"|  c #526BB3",
" . c #526CB3",
".. c #506CB4",
"X. c #516CB4",
"o. c #506DB4",
"O. c #516DB4",
"+. c #506DB5",
"@. c #516DB5",
"#. c #526CB4",
"$. c #526DB5",
"%. c #506EB5",
"&. c #516EB5",
"*. c #526EB5",
"=. c #536EB5",
"-. c #536FB5",
";. c #506EB6",
":. c #506FB6",
">. c #516FB6",
",. c #526FB6",
"<. c #4176B2",
"1. c #4170B7",
"2. c #4671B7",
"3. c #4771B7",
"4. c #4673B7",
"5. c #4075B7",
"6. c #4970B5",
"7. c #4870B6",
"8. c #4970B6",
"9. c #4870B7",
"0. c #4A70B6",
"q. c #4B70B6",
"w. c #4A71B7",
"e. c #4A72B7",
"r. c #4B72B7",
"t. c #4C70B6",
"y. c #4D70B6",
"u. c #4D70B7",
"i. c #4D71B7",
"p. c #4E70B6",
"a. c #4F70B6",
"s. c #4E70B7",
"d. c #4F70B7",
"f. c #4E71B7",
"g. c #4F71B7",
"h. c #407AB4",
"j. c #4079B7",
"k. c #4278B7",
"l. c #4171B8",
"z. c #4572B8",
"x. c #4473B8",
"c. c #4672B8",
"v. c #4773B8",
"b. c #4673B9",
"n. c #4175B9",
"m. c #4176B8",
"M. c #4376B8",
"N. c #4377B8",
"B. c #4277BA",
"V. c #4377BA",
"C. c #4674B8",
"Z. c #4675B9",
"A. c #4574BA",
"S. c #4776BA",
"D. c #4871B8",
"F. c #4973B8",
"G. c #4A72B8",
"H. c #4D73B8",
"J. c #4E72B8",
"K. c #4F73B8",
"L. c #4874B9",
"P. c #4F74B9",
"I. c #4078BA",
"U. c #4278BA",
"Y. c #5070B6",
"T. c #5170B6",
"R. c #5171B7",
"E. c #5270B6",
"W. c #5370B6",
"Q. c #5271B7",
"!. c #5371B7",
"~. c #5172B7",
"^. c #5272B7",
"/. c #5372B7",
"(. c #5273B7",
"). c #5373B7",
"_. c #5570B6",
"`. c #5471B6",
"'. c #5571B6",
"]. c #5472B7",
"[. c #5572B7",
"{. c #5573B7",
"}. c #5672B7",
"|. c #5673B7",
" X c #5872B7",
".X c #5172B8",
"XX c #5173B8",
"oX c #5372B8",
"OX c #5373B8",
"+X c #5373B9",
"@X c #5472B8",
"#X c #5572B8",
"$X c #5573B8",
"%X c #5673B8",
"&X c #5773B8",
"*X c #5174B8",
"=X c #5274B8",
"-X c #5374B8",
";X c #5275B8",
":X c #5274B9",
">X c #5374B9",
",X c #5275B9",
"<X c #5076B9",
"1X c #5376BA",
"2X c #5377BA",
"3X c #5377BB",
"4X c #5575B9",
"5X c #5674B8",
"6X c #5674B9",
"7X c #5675B9",
"8X c #5775B9",
"9X c #5476BA",
"0X c #5576BA",
"qX c #5577BA",
"wX c #5477BB",
"eX c #5577BB",
"rX c #5676BA",
"tX c #5776BA",
"yX c #5478BB",
"uX c #5578BB",
"iX c #5678BB",
"pX c #5778BB",
"aX c #5178BC",
"sX c #5278BC",
"dX c #5379BC",
"fX c #5479BC",
"gX c #5579BC",
"hX c #5779BC",
"jX c #557ABD",
"kX c #547BBD",
"lX c #577ABD",
"zX c #567BBE",
"xX c #567CBE",
"cX c #577CBE",
"vX c #577DBF",
"bX c #587DBF",
"nX c #597DBF",
"mX c #587EBF",
"MX c #597EC0",
"NX c #597FC0",
"BX c #3C82A2",
"VX c #3C82A3",
"CX c #3B80B4",
/* pixels */
"tXhXvXvXhXaXaXlXlXtX`.tX`.tXtXtX&X&XY.Y.-.@X`.Y.@X@XtX2X*X2XsXtXtXtX@X X X X XtX`.&XpXhXNXNXNXNXmXmX",
"tXhXNXNXvXaXpXpXpX`.`.&X`. X&XtX&X&XY.tX@X@X`.@XY.tXY.2X2X2X2XtX&XtX&X@X`. X@X`.tX&XsXpXlXlXlXlXlXpX",
"tXhXNXNXmXaXpXtXtXtX`. X`.`.`.`.`.tX`.`.`.`.-.@X`.@XtX+X+X2XtXY.@X@X@X`.@X`.tXtXtX*XpXsXsXsXsX2XpX2X",
"tXhXNXNXmXaX2XtXtX@X`.`.`. X`. X`.`.tX`.-.@X_._.`.Y.Y.2X+X@XtX@X`.tX`.@X`.@X`.tX&XtX2XsXpXsXpXpXtXtX",
"Y.tXaXhXhXP.2X+X@X+X+.Y.Y.`.Y.`.`.-.`.-.-.-.-.-.+.+XY.P.P.2X`.Y.Y.+X+.Y.2XY.`.Y.Y.*XY.2X*X*X&X*X*X*X",
"+.T 2X+XH.t.H.T H.+.T +.+.Y.+.+.+.+.+.| | | #.+.+.+.H.P.t.t. .+.T +X+Xt.T Y.Y.+.y T T Y.Y.Y.Y.+.{ y ",
"y +.Y.t.t.z T s.s.T Y.t.+XT +.Y.Y.-.+.| | #.#.+.+.t.t.Y.H.+. .+.T +.+.t.Y.Y.Y.T T t.t.t.Y.Y.Y.+.+.+.",
"{ y t.Y.t.z s.s.s.H.+.+.+.T `.Y.Y.-.-.| | -.#.#.+.Y.T +XY.Y. .+.Y.+.H.+XY.t.Y.y T { T +.Y.Y.Y.+.+.+.",
"y { t.Y.t.T H.s.s.+.+.H.+XT +.Y.:.-.$.#.| | | +.+.+.t.+Xt.Y.#.+.+.+.H.t.s.+.Y.T T +.T Y.Y.Y.Y.+.+.+.",
"{ T Y.t.t.t.T s.s.T +.+.+.t.Y.Y.:.:.$.#.| -.| +.+.Y.+.t.Y.Y.{ +.T T :.+X+Xt.Y.+.T T T t.Y.Y.Y.+.+.+.",
"{ T t.Y.T z H.Y.H.+.H.+.+.Y.Y.Y._.+.$.#.-.| -.#.+.+.Y.+X+X+. .+.+.+Xs.T T T +.T +.T T +.Y.Y.Y.+.+.+.",
"{ { Y.t.T T T t.s.+.H.+.Y.Y.Y.Y.:.-.$.-.| |  .+.+.t.Y.H.t.Y. .+.t.+.s.+X+XT Y.T T y t.t.Y.Y.+.+.+.+.",
"9 y t.Y.t.T T Y.T +.Y.y Y.t.Y.+.:.+.-.#.+. .+.+.+.+.s.:.Y.+.{ +.T +.H.:.Y.t.+.T +.9 T T Y.T +.+.{ Y.",
"y +.Y.t.T z T t.t.Y.+.+.+.+.Y.+.:.+.+.#. .+. .+.+.+.+.:.+XT { T Y.Y.s.H.+X+.+.T +.T y T Y.+.Y.T y { ",
"{ +.t.Y.T z T t.t.+.T t.Y.Y.Y.Y.:.+.+.#.-.{ +.{ T +.Y.H.+X+.{ +.t.+.+Xt.T T +.+.T +.T +.Y.t.+.T Y.a.",
"y y t.t.T z T T Y.Y.+.+.T +.+.Y.:.+.+.#.{ +.{ +.+.+.+.Y.T +.{ +.+.T T H.+.+.T +.+.+.y T +.T Y.{ y { ",
"{ y T T T z T Y.t.y +.+.+.Y.Y.Y.:.-.+.+.| +.| +.{ Y.Y.+XT +.+.+.T +.H.+.Y.T +.+.T T T +.Y.T +.+.y { ",
"y y z t.z z T t.Y.a.Y.t.T Y.+.+.:.+.+.| +.| +.{ { +.+.Y.s.+.+.+.Y.Y.s.H.+X+.T +.+.+.T T Y.+.Y.T +.T ",
"{ y T z q.z T Y.t.Y.+.+.+.Y.Y.Y.:.+.-.#. .+.{ +.+.Y.Y.t.+X+.{ +.t.+.t.Y.T T +.+.#.T { T Y.t.+.T y +.",
"{ T T t.z z T t.t.Y.T +.+.T Y.Y.:.+.+.#.+.{ +.{ { Y.Y.Y.t.+.{ +.+.T +Xt.T +.Y.T T +.{ T +.T Y.{ +.y ",
"y y t.t.z z t.Y.Y.y a.y { t.+.{ +.+.+.{ { { T { y +.t.t.t.T { y { t.t.Y.T +.T T n n n T T T T +.y +.",
"{ y z T T z T t.t.Y.y t.T T +.Y.+.+.{ { { { y +.{ y a.t.t.T { y T T T t.T T T z n T T T T +.T { +.y ",
"9 T t.T z z T t.Y.t.t.T T { +.+.+.+.{ { { { { { T T t.t.T T { T T { T t.T T T 9 a a T n T T +.+.9 +.",
"9 9 T T T s T T t.+.T y T t.+.+.Y.+.+.{ { { T { { { y q.T T { { T +.T T T T T T T n T T +.T t.+.T y ",
"9 T T T z z z z T T T T T n +.+.+.#.#.{ { n n n T T T z t.T 9 y T T T T T T T z n z T T T T T 9 { #.",
"{ y T T T a z y T n n n T n n T T n n { { 9 #.#.{ y T T T y 9 T n T T T T z T 9 n 9 n a T T T T n n ",
"9 y T T z s T y T n T n n n T T T { #.n 9 n 9 n T T T T T n 9 n n n T t.T z y z n n n T y T T y n n ",
"n +.t.Y.t.z z T T n n n n T T #.T { n 9 { { #.n 9 T y z z T 9 n T T T t.y T T 9 n n a T y T z 9 n n ",
"y { t.Y.T z T T T T 9 T T T +.t.T { { y n { { n n n T z T n n n T n z t.n T T n n n z n T y T a n n ",
"{ { Y.t.T z t.z T T z n y y T { T { T { 9 { 9 n n n T T T T { n n n T z T T n n n n a T T y T 9 n n ",
"y +.t.Y.t.z z t.z T n T T n T T T { { { n { { n n n T T z T 1 n n T T z T n T n n n n T z T T n n n ",
"{ y Y.t.T z z T T T n n n T { T T { T 9 9 { { n n T T z T n #.n T y T T T T T n n n n a y T T n n n ",
"y { t.t.T z z z t.T T n n n T T { { T y { 9 { n n n T T x T n n n s.s.z z T y z 9 T n T T T n 9 n n ",
"{ T t.t.t.z t.T t.y n T T n n T T T { { { y { n n T T T s.n ] n n n z T y T T 9 z 9 a T n T T a n n ",
"{ T T T z z T t.T T y 9 n T T +.{ { { T 9 { 9 n 9 n T T z n #.n n T T T y T z 9 9 T a n T T T 9 n n ",
"9 y T T q.z z z z T T T n 9 T T T T { 9 T { 9 n n T y z T n n n n T t.z T T T T z 9 T a 9 T T n n n ",
"9 T z T z z z T T T T n T T T n T { { { n 9 { n n T T T T 9 Q n T n t.t.T T T 9 n a n a z y T 9 n n ",
"9 9 T z z a T t.T T n n n n T +.T { { y { { { n n n T z T z n n T n z T T T z 9 n 9 T T T T T z n n ",
"n n T T y s z z z T n T n T T +.T { n 9 { 9 { n n n T T z n 9 n n n s.z T T T z n n a n T y y 9 n n ",
"9 n T n z z z T T n n T n 9 T T T T #.{ { n { n n T T z T T 9 n n T x s.9 T y 9 n n T a T T T z a 9 ",
"9 T T t.s z z z T T n n T s.n T T { { { y { { n n n T T T n 9 n T T T t.y T T z n n T a T T T n 9 T ",
"9 y y y z s T T T n T n n n n T T y +.y y 9 n 9 n n T T T n n n 9 y T t.T T y y n n n a T n n n z 9 ",
"9 n z T y z T y T T n n n n T +.+.{ +.y { { { T n n T z z T 9 n z T t.t.T y T 9 n n T T T T T n 9 z ",
"n n y T s l T T n n n T T n T T T T 9 9 9 T 9 9 n T T T T n 9 z T n z T T z T y n n a n n n T n T y ",
"9 n T T z z z z T z T T n n T T T y T y 9 9 y y n n T T z T { 9 n T z T t.t.y 6.6.y z q.T z z 9 9 s ",
"1 { #.{ n 4 M.M.5.c.l z T n #.n y y 9 s T s T y z T z n T y ~ 9 9 9 z 2.5.<., : : : h.j.z l z z a a ",
"^ | { { T l.I.CX; U.c.G.z a n n y 9 y s z z t.t.T z T 9 y y ~ { { 9 z c.$ o   BXBXBXCX@ x.2.2.s s i ",
"^ ^ | { s.l.I.I.I.V.c.z z n n 9 y y s z z y t.z z z T T y 9 ~ Q { 9 q.c.$ o   BXBXBXCX; c.2.2.s s s ",
"^ ^ { ~ 9 3 2.x.x.C.q.q.s s y y s s s 2.z q.q.q.q.q.G.t.q.y 1 9 9 1 T z M.U.@ CX. O $ M.c.z z z s T ",
"^ ~ 1 ~ < 2 q.q.F.q.q.q.y s s y 9 T z l 2.z L.x.L.L.L.F.F.q.1 9 9 { T T x.I.$ % $ @ M.M.z z z T T y "
};
