/* XPM */
static char *cobra_corpo_h_xpm[] = {
/* columns rows colors chars-per-pixel */
"50 32 169 2 ",
"   c #3D7EA9",
".  c #3B7DAF",
"X  c #3E7CB4",
"o  c #3A78B9",
"O  c #3A79BA",
"+  c #3F79B9",
"@  c #3E7CBB",
"#  c #3E7ABC",
"$  c #417CA8",
"%  c #4279AD",
"&  c #4E66B0",
"*  c #4568B1",
"=  c #436CB4",
"-  c #4F69B2",
";  c #4D6BB3",
":  c #4E6AB3",
">  c #4F6AB3",
",  c #4E6BB3",
"<  c #4F6BB3",
"1  c #4E6CB3",
"2  c #486DB5",
"3  c #496DB5",
"4  c #4A6CB4",
"5  c #4B6CB4",
"6  c #4B6DB5",
"7  c #4A6EB5",
"8  c #4B6EB5",
"9  c #4B6FB5",
"0  c #496FB6",
"q  c #4A6EB6",
"w  c #4B6FB6",
"e  c #4C6CB4",
"r  c #4D6CB4",
"t  c #4C6DB4",
"y  c #4C6DB5",
"u  c #4D6DB5",
"i  c #4E6CB4",
"p  c #4F6CB4",
"a  c #4E6DB4",
"s  c #4F6DB4",
"d  c #4E6DB5",
"f  c #4F6DB5",
"g  c #4C6EB5",
"h  c #4D6EB5",
"j  c #4E6EB5",
"k  c #4F6EB5",
"l  c #4C6EB6",
"z  c #4C6FB6",
"x  c #4D6FB6",
"c  c #4E6FB6",
"v  c #4F6FB6",
"b  c #5066B0",
"n  c #5067B0",
"m  c #5267B0",
"M  c #5367B0",
"N  c #5467B0",
"B  c #5168B1",
"V  c #5169B1",
"C  c #506AB2",
"Z  c #506BB3",
"A  c #516BB3",
"S  c #526BB3",
"D  c #506CB4",
"F  c #516CB4",
"G  c #506DB4",
"H  c #506DB5",
"J  c #516DB5",
"K  c #526CB4",
"L  c #506EB5",
"P  c #516EB5",
"I  c #526EB5",
"U  c #536FB5",
"Y  c #506FB6",
"T  c #516FB6",
"R  c #546FB5",
"E  c #4370B7",
"W  c #4870B6",
"Q  c #4870B7",
"!  c #4871B7",
"~  c #4A70B6",
"^  c #4B70B6",
"/  c #4A71B7",
"(  c #4C70B6",
")  c #4D70B6",
"_  c #4D70B7",
"`  c #4C71B7",
"'  c #4D71B7",
"]  c #4E70B6",
"[  c #4E70B7",
"{  c #4F70B7",
"}  c #4E71B7",
"|  c #4F71B7",
" . c #407BB7",
".. c #4171B8",
"X. c #4373B9",
"o. c #4672B8",
"O. c #4772B8",
"+. c #4075B8",
"@. c #4277BA",
"#. c #4676B9",
"$. c #4574BA",
"%. c #4871B8",
"&. c #4973B8",
"*. c #4A72B8",
"=. c #4D73B8",
"-. c #4E72B8",
";. c #4874B9",
":. c #4876BA",
">. c #4378B9",
",. c #5070B6",
"<. c #5170B6",
"1. c #5270B6",
"2. c #5370B6",
"3. c #5371B6",
"4. c #5271B7",
"5. c #5371B7",
"6. c #5272B7",
"7. c #5372B7",
"8. c #5570B6",
"9. c #5471B6",
"0. c #5571B6",
"q. c #5471B7",
"w. c #5571B7",
"e. c #5472B7",
"r. c #5572B7",
"t. c #5672B7",
"y. c #5673B7",
"u. c #5872B7",
"i. c #5372B8",
"p. c #5373B8",
"a. c #5472B8",
"s. c #5572B8",
"d. c #5473B8",
"f. c #5573B8",
"g. c #5673B8",
"h. c #5773B8",
"j. c #5074B9",
"k. c #5174B9",
"l. c #5274B9",
"z. c #5374B9",
"x. c #5275B9",
"c. c #5375B9",
"v. c #5176BA",
"b. c #5377BB",
"n. c #5575B9",
"m. c #5674B8",
"M. c #5674B9",
"N. c #5775B9",
"B. c #5576BA",
"V. c #5676BA",
"C. c #5776BA",
"Z. c #5478BB",
"A. c #5578BB",
"S. c #5778BB",
"D. c #5178BC",
"F. c #5278BC",
"G. c #5379BC",
"H. c #5578BC",
"J. c #5779BC",
"K. c #547BBD",
"L. c #577ABD",
"P. c #567BBD",
"I. c #577CBE",
"U. c #587DBF",
"Y. c #587EBF",
"T. c #597EBF",
"R. c #597FC0",
"E. c #3C83A2",
"W. c #3A81B8",
/* pixels */
"N N N N V : : : < < & < < & : Z : Z Z Z Z Z : Z Z Z Z Z Z Z : Z Z Z : Z Z Z K z V V K z K m.m.A.m.L.",
"n V V K K z z z z K z z 2 l z -.z ( ( ( ( -.( ( z z z z z z z z z z ( ( ,.( ( K z ( K z ( I.R.R.U.U.",
"n V V K V z z z z z z z z z z l z z ,.( z K z z z z K ( z -.z z z z ( ( ( j.z z ( ( ( ( ( U.R.R.U.I.",
"* = ......2 4 5 2 2 4 : 2 z 2 l z z 2 z z 2 z 4 2 2 2 2 2 l 2 2 z 2 z z z 2 z z z z ( ( Q G.H.H.G.G.",
"( ;.@ @ @.z G z z z z z z z z z z z l -.z z z z z z ( ( ( ,.( ,.,.( ,.( z -.j.l ,.-.-.l -.h.h.H.S.L.",
"( @.@ # >.z z 1 z z z z z z z z z z l l z z K z z ( ( K ,.( ,.( ( ,.( ,.( K z -.T z l -.l j.H.h.S.H.",
"( ;.@.;.Q z z < : z z : : z : z z z : z z : z z K z K z z K K z K ( K ( K z K -.z K -.-.-.K y.,.y.h.",
"z z ( 2 z z : z z : z z : z z < : z z : : z z : < z z z z z ( K ( K ( K ( K ( K K -.z K K j.y.R y.h.",
"1 4 2 z z z < < z z z : z 1 z z : z < z z z V z z z K ( z ( ,.( z K -.z K -.j.z -.K z j.,.,.y.K y.m.",
"< < < < < G z z z V K z G z K z z K z G z K z z K G ( K K K ,.K K j.K -.-.K K R ,.,.K K K K h.y.h.m.",
"< 5 < < z z z z K z z z z G z z z K z z K z z 1 z K z K ,.K ,.,.z K T T K z K j.,.,.K j.( y.y.y.m.m.",
"5 5 < 5 1 K V < 1 G G G z K V < z 1 G G z V G z G G G G K z K K j.K K K K j.K ,.K R K R Z j.h.j.m.m.",
"2 2 2 z 1 1 < < < < < < < < < < V < < < : Z : < Z Z Z Z z V K K K K K Z K K K K K K K K Z R h.h.j.R ",
"Q Q z z 2 V < < < < < < < < < < G < < < Z V K < Z Z Z V V G K K K K K z K Z K K K K K K Z R y.K R j.",
";.Q ( ( z V G < < < < < < < < z < < < < : z Z V : z : z < z z V Z Z z K K K K K K K K K Z R R y.y.R ",
"&.Q ( ( z 1 1 z z < < 4 : z < : 5 < z < : z : z Z Z Z z V K z K z K Z K K z z T K l K K Z y.,.K j.R ",
";.-.z z 2 : z : z : z z z z z : z : z : : z : : z K z K z K z K K l K K z K z K -.z K -.K j.h.h.m.,.",
"Q 2 < z z z z z z z z l z l l z z z ( 2 z z l ;.;.l ( ( ( ( z j.T l -.j.l -.T j.-.T -.-.-.j.j.j.z.z.",
";.( z Z z z z z z z l l z z z z z z ( z z z z 2 z z z z ( ( j.K j.T K j.j.T j.T K j.K -.-.j.h.j.z.z.",
"& n N N n Z < < Z Z : : B Z Z V : Z Z Z Z Z Z V V Z Z Z Z Z Z Z Z Z Z Z Z Z V Z K Z Z K Z j.h.h.G.K.",
"V & V < G z < z : l z : z V z z : z z : z : < z z z z z z z K ,.( K -.z -.K K ( ( K K -.z h.j.w.m.m.",
"< < < V 1 1 z : z : z l z 1 z : : z z K z z z z z z K K K z K ( K z K -.z z -.K z -.-.K -.K h.h.m.A.",
"( Q o.o.Q ( z z ( ( l l z z z z l z ( z z z z z z K ,.( ( ( -.-.-.-.-.K j.z -.-.j.-.( z -.j.y.,.h.u.",
";.@.o o X.z z z z K z z z z 1 z z z z z z z K z z ( z z z -.K ( -.K z z j.T T -.K -.T j.K j.R h.y.h.",
" .@ E.  % z z z 2 z z z z z z z z 2 z z z z z z z z K z z z K j.l j.K l T T K -.,.( ,.K K j.j.z.y.u.",
"o . E.E.  : : : < z < < < < < z < < < z < < < z < z z z z : Z z K Z z Z K z K z ,.K ( z z h.m.m.m.h.",
"o X E.E.$ : : z < : : < < < : : < : < : < 5 < : < : 2 : z : K z K z z K z Z z z z K K z z y.m.m.m.m.",
"@.>.W.W. .2 : z z z 2 < 2 z 2 z z 2 z : z 2 2 < z z z z z z K z z z K z z z z K ( ( z z z j.G.z.H.H.",
"2 Q o.o.;.z z z 1 z z z 1 z z z z G z 1 < z z z z -.( K z z K -.,.z K ,.K z -.K ,.,.,.,.,.z.H.G.U.R.",
"( 2 o.o.;.: V z z z 1 z z z 1 z z z z z z z 1 z z K z z K z -.K ( K ( ,.-.-.K j.,.,.,.,.,.m.G.A.I.R.",
"z z 4 4 2 : z < : z 2 : < < < 4 < z < < : z z : : z K z K V z K K z G z K z z K K K K z K j.m.A.H.U.",
"z 1 4 4 4 < z : < < z < z : z : < 2 : < < z : : z V : Z z z V z 1 G 1 K 1 G K K z z K K z m.A.m.L.R."
};
