/* XPM */
static char *cobra_corpo_xpm[] = {
/* columns rows colors chars-per-pixel */
"32 32 53 1 ",
"  c #3D7EA9",
". c #3A79BA",
"X c #3E7CBB",
"o c #3E7ABC",
"O c #4E66B0",
"+ c #4568B1",
"@ c #4F69B2",
"# c #4D6BB3",
"$ c #4E6BB3",
"% c #486DB5",
"& c #496DB5",
"* c #4A6CB4",
"= c #4B6FB6",
"- c #4C6DB4",
"; c #4D6DB5",
": c #4F6CB4",
"> c #4D6EB5",
", c #5067B0",
"< c #5367B0",
"1 c #5467B0",
"2 c #506AB2",
"3 c #506BB3",
"4 c #516BB3",
"5 c #526BB3",
"6 c #526CB4",
"7 c #526EB5",
"8 c #506FB6",
"9 c #4870B7",
"0 c #4A70B6",
"q c #4C70B6",
"w c #4D70B7",
"e c #4171B8",
"r c #4574BA",
"t c #4D73B8",
"y c #4E72B8",
"u c #4876BA",
"i c #5070B6",
"p c #5570B6",
"a c #5872B7",
"s c #5372B8",
"d c #5572B8",
"f c #5773B8",
"g c #5275B9",
"h c #5674B8",
"j c #5674B9",
"k c #5776BA",
"l c #5478BB",
"z c #5178BC",
"x c #5779BC",
"c c #547BBD",
"v c #597FC0",
"b c #3C83A2",
"n c #3A81B8",
/* pixels */
"1<<####582;;2:8:::*2:>5:5>5#7kkk",
"<55>>>>>9;;88;;;8%8;%s>>>>wwwvvc",
"O55>>>>>t9;;&t88;;%8%>w>wqqqgcvv",
"+ee%%%*%;00%8%%%%0;%t%>%>w>qtlzc",
"tXo>>>%>;0;t>>>>0t;t88>s8>>t>dcg",
"0Xo>>>w>0;0;>>>%>t>>t;t>0tswskkx",
"%rr>:>>>;;:>>>>:>>>8>88288i7wpdd",
">0%:>>>>;:>>>>:>>>>88>>88>>i>ppk",
">%>>>>>>>>>:>>>>>88888888>>>7a7f",
">::>8>>>8>8>7>>>828888888sd8t7dk",
"##:>>>%:>8:>%>>>8288888888d8>7ff",
"*##52>2:82>25>5:8282887887777kdk",
"*%>>22##2:###5##2:26272775755ppi",
"t>%22:5#::5#5#5#7222827277555pkp",
"r0t:::::2::##:5:::82722555575p7i",
"00*>:>#:::*:#:#::::8>2i>7>5iipif",
"t>8%;;;;&8;;;8;;8;;t%888>8>>8sss",
"r>%;%0;;8t%0%0;;;0;88d88tdsttsgg",
"t>*:t8;;;%8;08:;;80s7>8st>ddtggg",
"O<<::;::::O::;827>22::::22228d8v",
"O:<>>>>::;;;>>:%%>>i7>>8s>s>8ddd",
":2::>t:>&;;;>t>:>>>i7i88>>788pjj",
"09%%00;t;08;00;>wwwwttttst>t7sdd",
"r..;;;;0;;;;;;;*>w>i>77>>8tqsddf",
"o  >>%>>>>>>>>>>88>87>>>8t888ddd",
".bb>>::>*::*:::>%>>2>7>7>>7>>ddk",
".bb;::>:>::>*;::>*>>>7i7>>7>>dkd",
"rnn;*>>*:>***:%%>>>>>>>>>t>>%cxx",
"%99>%>>>>>>>0;;;8;08wiiiiiiwwxgv",
"%r%>>>>>%:>>>;;;8888i%i>iii7ixxv",
"%%**:*>::*%:>::;:::8:::777%7%kkc",
">>:**:::::*::>*::::;:::27>777xkv"
};
