/* XPM */
static char *cobra_corpo_v_xpm[] = {
/* columns rows colors chars-per-pixel */
"32 50 169 2 ",
"   c #3D7EA9",
".  c #3B7DAF",
"X  c #3E7CB4",
"o  c #3A78B9",
"O  c #3A79BA",
"+  c #3F79B9",
"@  c #3E7CBB",
"#  c #3E7ABC",
"$  c #417CA8",
"%  c #4279AD",
"&  c #4E66B0",
"*  c #4568B1",
"=  c #436CB4",
"-  c #4F69B2",
";  c #4D6BB3",
":  c #4E6AB3",
">  c #4F6AB3",
",  c #4E6BB3",
"<  c #4F6BB3",
"1  c #4E6CB3",
"2  c #486DB5",
"3  c #496DB5",
"4  c #4A6CB4",
"5  c #4B6CB4",
"6  c #4B6DB5",
"7  c #4A6EB5",
"8  c #4B6EB5",
"9  c #4B6FB5",
"0  c #496FB6",
"q  c #4A6EB6",
"w  c #4B6FB6",
"e  c #4C6CB4",
"r  c #4D6CB4",
"t  c #4C6DB4",
"y  c #4C6DB5",
"u  c #4D6DB5",
"i  c #4E6CB4",
"p  c #4F6CB4",
"a  c #4E6DB4",
"s  c #4F6DB4",
"d  c #4E6DB5",
"f  c #4F6DB5",
"g  c #4C6EB5",
"h  c #4D6EB5",
"j  c #4E6EB5",
"k  c #4F6EB5",
"l  c #4C6EB6",
"z  c #4C6FB6",
"x  c #4D6FB6",
"c  c #4E6FB6",
"v  c #4F6FB6",
"b  c #5066B0",
"n  c #5067B0",
"m  c #5267B0",
"M  c #5367B0",
"N  c #5467B0",
"B  c #5168B1",
"V  c #5169B1",
"C  c #506AB2",
"Z  c #506BB3",
"A  c #516BB3",
"S  c #526BB3",
"D  c #506CB4",
"F  c #516CB4",
"G  c #506DB4",
"H  c #506DB5",
"J  c #516DB5",
"K  c #526CB4",
"L  c #506EB5",
"P  c #516EB5",
"I  c #526EB5",
"U  c #536FB5",
"Y  c #506FB6",
"T  c #516FB6",
"R  c #546FB5",
"E  c #4370B7",
"W  c #4870B6",
"Q  c #4870B7",
"!  c #4871B7",
"~  c #4A70B6",
"^  c #4B70B6",
"/  c #4A71B7",
"(  c #4C70B6",
")  c #4D70B6",
"_  c #4D70B7",
"`  c #4C71B7",
"'  c #4D71B7",
"]  c #4E70B6",
"[  c #4E70B7",
"{  c #4F70B7",
"}  c #4E71B7",
"|  c #4F71B7",
" . c #407BB7",
".. c #4171B8",
"X. c #4373B9",
"o. c #4672B8",
"O. c #4772B8",
"+. c #4075B8",
"@. c #4277BA",
"#. c #4676B9",
"$. c #4574BA",
"%. c #4871B8",
"&. c #4973B8",
"*. c #4A72B8",
"=. c #4D73B8",
"-. c #4E72B8",
";. c #4874B9",
":. c #4876BA",
">. c #4378B9",
",. c #5070B6",
"<. c #5170B6",
"1. c #5270B6",
"2. c #5370B6",
"3. c #5371B6",
"4. c #5271B7",
"5. c #5371B7",
"6. c #5272B7",
"7. c #5372B7",
"8. c #5570B6",
"9. c #5471B6",
"0. c #5571B6",
"q. c #5471B7",
"w. c #5571B7",
"e. c #5472B7",
"r. c #5572B7",
"t. c #5672B7",
"y. c #5673B7",
"u. c #5872B7",
"i. c #5372B8",
"p. c #5373B8",
"a. c #5472B8",
"s. c #5572B8",
"d. c #5473B8",
"f. c #5573B8",
"g. c #5673B8",
"h. c #5773B8",
"j. c #5074B9",
"k. c #5174B9",
"l. c #5274B9",
"z. c #5374B9",
"x. c #5275B9",
"c. c #5375B9",
"v. c #5176BA",
"b. c #5377BB",
"n. c #5575B9",
"m. c #5674B8",
"M. c #5674B9",
"N. c #5775B9",
"B. c #5576BA",
"V. c #5676BA",
"C. c #5776BA",
"Z. c #5478BB",
"A. c #5578BB",
"S. c #5778BB",
"D. c #5178BC",
"F. c #5278BC",
"G. c #5379BC",
"H. c #5578BC",
"J. c #5779BC",
"K. c #547BBD",
"L. c #577ABD",
"P. c #567BBD",
"I. c #577CBE",
"U. c #587DBF",
"Y. c #587EBF",
"T. c #597EBF",
"R. c #597FC0",
"E. c #3C83A2",
"W. c #3A81B8",
/* pixels */
"C.U.R.D.H.H.C.t.d.N.N.d.t.t.0.2.k.k.d.K.C.C.t.t.u.t.d.L.R.R.U.U.",
"C.U.I.G.S.S.t.t.d.t.d.d.2.2.0.k.d.k.v.S.C.C.t.t.t.d.d.S.U.I.L.L.",
"C.R.R.G.C.C.t.t.t.t.s.s.2.2.t.2.k.z.k.d.s.s.2.t.t.z.C.b.S.b.S.C.",
"C.R.R.G.C.C.2.2.t.t.s.s.t.2.t.2.d.d.k.N.s.s.i.i.s.C.z.b.b.b.z.C.",
"z.H.I.z.k.z.2.2.R 2.2.R 8.J R 8.2.k.z.k.t.2.i.2.2.t.2.z.v.c.d.k.",
"c -.-.-.( ( c c Y Y Y Y S S S _ ( =.=.A 2.( ( -.( c ( ( 2.( <.A ",
"C ( ( c i.( c c c Y J J S S Y S 2.( ( A c c 2.2.2.c 1 ( 2.( A ( ",
"C ( ( q c ( Y c c i.i.J S Y S J ( 2.2.A c c ( -.2.c c ~ 2.2.Y A ",
"A ( 2.~ _ _ Y Y c 2.2.Y K K K J c 2.i.S c c i.-.( c c c c ( A Y ",
"A ( ( q _ c Y c Y Y Y Y K Y K S c -.( S Y c -.J Y c c c Y 2.A Y ",
", 2.( ( ( i.c Y c t.Y R S S S S c -.( S c Y c _ Y c c ( Y Y c Y ",
", ( ( c ( c Y c Y Y Y Y S Y S Y c 2.i.C Y c -.-.2.1 1 ( 2.Y Y C ",
"C ( ( c c ( A c c Y Y A A Y S Y c c J Y Y c -.i.c < c c c Y 1 Y ",
"Y ( c q 2.( c Y Y Y Y Y A A S Y c Y J C c Y ( J Y c , 1 c c A 1 ",
"C ( ( q ( 2.c 1 c Y Y Y Y C Y C c J -.S Y c -.c c Y Y c Y Y c 1 ",
"C c ( c ( ( c Y Y Y Y A C R C Y Y _ -.S c Y c Y c < 1 c Y ( c A ",
"A q q q ( 2.( A Y Y Y Y S S S S Y c J Y Y c -.Y Y c c c c Y < c ",
"1 c ( q ( ( Y c Y Y Y S c S c c Y Y J C c Y ( Y c Y < c Y c c S ",
", c c q ( 2.1 Y c Y Y Y S S Y < c J -.S Y Y ( Y Y c < < Y c , c ",
"A q q c ( ( c c Y Y Y Y c S S < Y _ -.S ( 2.( c c S c c c Y c C ",
"1 q ( q ( 2.1 1 c c Y S < < < c Y c ( C c 1 ( c c q 5 c c c C < ",
", c c q ( c c c c S Y c S < < < c q ( 1 c c ( c c < 5 c c c C c ",
"1 ~ q q c c c 1 1 Y S c S < < < c q ( A 1 1 ( 2.c c 5 c c c < c ",
"A 1 c 4 q c c c c Y Y C < < c < c c ( A c c ( ( c 5 q c c c < S ",
"1 c c 5 q q c c c c c Y C C < c c ( q S 1 c ( ( c 5 q c c c < < ",
"C q q q c 1 q 1 < c 1 1 < C < < c q c C c c ( q c < < 5 c < < q ",
"1 ( c q 4 c c , < c c , < < < , < q q , < c ( c q 5 < c c q 5 < ",
"C ( ( c c c 5 c c 1 c c < < < c c q c , q < ~ 1 c < 5 q c c < q ",
", 2.( q q c 1 c < c c 1 < < < < c q ( S 5 c q q c , , 5 c 1 5 , ",
", ( ( q c q , q , c c , < < < q < q q < c < c c q q < c 5 c q < ",
"C ( c q q c c < q c c < < < < < c q c < , q ~ 1 c , , q c q , < ",
"A ( c q c q c q < c c c < < < 5 < c q < c c ( c q , , q 1 c , q ",
"A ( ( c c q c q c c c 1 C c C , < w w < < w q c c , < q 1 c 5 q ",
"1 c q q q c c < c , c 1 , C < < c c w < w < c q c 5 < 5 c 4 , 1 ",
", c c q c q < c 5 c c , < C < q q q c < l < w c q < 5 q c c , q ",
", ( q q q c q q < c c , < , , , < c q < < _ w _ c 5 < c c q < < ",
", c c q q c 5 < , c c c < < < c c q c C c 1 ~ c c , 5 5 c c q , ",
", q q q ( q c , c c 1 1 < < , , c q q , 5 c ( 1 c 5 , c 5 c < 5 ",
", , c q c c c c < c c , < < , < < q q < c < ( c c < 5 q c c , , ",
", c c * q ( 1 q 5 c c c < < < < c c q < < q q c 5 , < q c 5 5 , ",
", 1 1 2 c q < c < c c C , C c , < q q , c < ( c c , , 1 c c , 5 ",
", c q q c c q q 5 c c , C 1 , , c c c , < q q c q 5 c q 1 q , c ",
", c 1 q 1 q 5 < c c < c C , , < 5 q c C c < w q 1 , , q q c 5 , ",
", q q q 1 c c c 5 c c , , , , c c c q , 5 c w c q c , q c 1 , c ",
", c c 2 q c c 1 c c c 1 C , , , c q c , c c q 1 1 , c 5 1 ( 1 1 ",
"b C c = >.>.o.q 5 1 1 1 c 5 c c q c 1 C , 1 ~ + % $ $ + ~ o.4 4 ",
"N S C ..@ @ $.~ q , 1 1 q 4 q q q 1 1 N , n o.o   E.E.W.o.o.4 4 ",
"N S S ..@ @ $.q < , 1 1 4 c ( q c c 1 b C C o.o   E.E.W.o.o.4 4 ",
"N C C * #.#.&.~ 1 1 1 , q q &.&.~ c ~ & C , w $.X X . + o.q q c ",
"N b b * -.~ q c 4 , 5 q 0 o.#.~ &.&.&.& , n -.#.# O O +.4 4 1 ( "
};
