/* XPM */
static char *heart_left_xpm[] = {
/* columns rows colors chars-per-pixel */
"20 40 77 1 ",
"  c #C60407",
". c #CC0307",
"X c #CC060A",
"o c #D70006",
"O c #DA0007",
"+ c #D3060D",
"@ c #DB0109",
"# c #D2080F",
"$ c #DC0510",
"% c #D60912",
"& c #DB0A15",
"* c #DE0D1B",
"= c #D91111",
"- c #DF101E",
"; c #E3010B",
": c #E9020D",
"> c #E30612",
", c #EA0511",
"< c #E30915",
"1 c #EB0915",
"2 c #E30D1B",
"3 c #EA0D1A",
"4 c #E1101F",
"5 c #ED111E",
"6 c #E31423",
"7 c #EA1524",
"8 c #ED1827",
"9 c #E51B2B",
"0 c #EB1C2C",
"q c #F11624",
"w c #F11D2C",
"e c #E61F30",
"r c #EB1F30",
"t c #E62234",
"y c #EB2334",
"u c #EA2638",
"i c #EB2A3C",
"p c #F32435",
"a c #F42A36",
"s c #F12739",
"d c #F32B3C",
"f c #EC2E41",
"g c #F32F42",
"h c #ED3245",
"j c #EE3749",
"k c #EE3A4B",
"l c #F43244",
"z c #F83345",
"x c #F2364A",
"c c #F9374A",
"v c #F33B4D",
"b c #F83B4D",
"n c #F33E51",
"m c #F93E51",
"M c #F44355",
"N c #F94255",
"B c #F54658",
"V c #FB4658",
"C c #F6495B",
"Z c #FA4C5E",
"A c #F64E61",
"S c #FB4E61",
"D c #F75265",
"F c #FA5466",
"G c #F75568",
"H c #FA5669",
"J c #FA5B6E",
"K c #FC5E72",
"L c #FC6174",
"P c #FD6679",
"I c #FE6A7E",
"U c #FD6D81",
"Y c #FE7185",
"T c #FE758A",
"R c #FF798E",
"E c #FF7B90",
"W c None",
/* pixels */
"WWWWWWWWWyaapWWWWWWW",
"WWWWWWpdifxxxzddWWWW",
"WWWWWpdgkMMAVBNbcWWW",
"WWWWpdlxkCGGKJHZNbWW",
"WWWpsglnMDGPUIPLHZNW",
"WWwpsgxnCGPUTTYIIJZN",
"W0wyifxnCGLUTTTTYIKS",
"W70rufjMCGLPYTTTTTYL",
"W66rthjMCDJPUYTTTTRT",
"W269tihkMAGLPIUYTRRR",
"*-69tihkMCDGLPPUYTTE",
"**-9ttihkMAGGLPPIUYR",
"&*66etfhkkMAGGLLIIYT",
"$*-69ttfhkMCDGJLPPUY",
"=&2-9etihkkMCADJKPII",
"W&*669tuihkMMCADHKLP",
"W%**69etufjjnnBAFHJL",
"W%%*-69etffgxvmBVZSF",
"W%%*-699ttifhxxmNVVZ",
"WW#%*699etuuffgxbbmN",
"WWX%&*69e9rryusgglzc",
"WWWX#*-699rrrrysdddg",
"WWWXX**66999000rpppa",
"WWWWX#*4669768880wwp",
"WWWW X%*6666777788qw",
"WWWWWX%&266622233qqq",
"WWWWWWX%*666223<3355",
"WWWWWW X&*2222>><133",
"WWWWWWW +&22<<;;:>,1",
"WWWWWWWW $22<>;;;:,,",
"WWWWWWWWWX$&&;OOO;;:",
"WWWWWWWWWWo$<@;OO;;:",
"WWWWWWWWWWW@@@@@OO;;",
"WWWWWWWWWWWW@@@oOO;;",
"WWWWWWWWWWWWW@@oO@@:",
"WWWWWWWWWWWWWWooOO;;",
"WWWWWWWWWWWWWWWoo@@:",
"WWWWWWWWWWWWWWWWW@@:",
"WWWWWWWWWWWWWWWWWW@;",
"WWWWWWWWWWWWWWWWWWWW"
};
