/* XPM */
static char *heart_right_xpm[] = {
/* columns rows colors chars-per-pixel */
"20 40 72 1 ",
"  c #E7040E",
". c #E9030F",
"X c #E70510",
"o c #EA0612",
"O c #EC0915",
"+ c #ED0D1A",
"@ c #F10E1B",
"# c #ED111E",
"$ c #F1111F",
"% c #EF1422",
"& c #EE1827",
"* c #EE1B2A",
"= c #F11523",
"- c #F31827",
"; c #F21C2C",
": c #F41F30",
"> c #F5202F",
", c #F42333",
"< c #F72638",
"1 c #F52A3B",
"2 c #F82A3C",
"3 c #F7303F",
"4 c #F72F40",
"5 c #F82F41",
"6 c #F53243",
"7 c #F83243",
"8 c #F53649",
"9 c #F83649",
"0 c #F73A4C",
"q c #F9394B",
"w c #F53F52",
"e c #FA3E51",
"r c #F74254",
"t c #FA4355",
"y c #F64759",
"u c #FA4659",
"i c #F64B5D",
"p c #FB4B5D",
"a c #FB4F61",
"s c #FC5365",
"d c #FC5669",
"f c #FC596C",
"g c #FD5E71",
"h c #FD6275",
"j c #FD667A",
"k c #FE6A7D",
"l c #FE6E82",
"z c #FE7285",
"x c #FE768A",
"c c #FF7A8E",
"v c #FF7D91",
"b c #FF8296",
"n c #FF869A",
"m c #FF8A9D",
"M c #FF8EA2",
"N c #FF92A6",
"B c #FF96A9",
"V c #FF9AAD",
"C c #FF9EB1",
"Z c #FFA2B4",
"A c #FFA6B9",
"S c #FFABBC",
"D c #FFAFC0",
"F c #FFB3C3",
"G c #FFB8C6",
"H c #FFBCCA",
"J c #FFC0CE",
"K c #FFC5D2",
"L c #FFCBD6",
"P c #FFCED9",
"I c #FFD0DA",
"U c None",
/* pixels */
"UUUUUUUUUUUUUUUUUUUU",
"UUUU39qettq7UUUUUUUU",
"UU7qupdffgfsuqUUUUUU",
"U9tafkzcbbbzjduUUUUU",
"9tdjzbmNVZZVnzfuUUUU",
"tdjxnNCADHJGZMxftUUU",
"dkcnNCSFHKLKHAMzs9UU",
"kcmNZAFHKPPIKGZnjuUU",
"cnNVADGHLLPPLJFVcs7U",
"bNVZADGHKLPPPKGZmhqU",
"nMVZADFHKKPPPKHSNlyU",
"bNBCADFHHKLLPKKDBzpU",
"bmNVZSDGHKKLLKHDBziU",
"vnMBCASFGHHKKHHANziU",
"cbmNVCADFFHHHGDCMkyU",
"xvbmNVCADDFFGFSCbhrU",
"kxvbmNVZAAASSAZMxf8U",
"hkzcbmNVCZZZZVNbki6U",
"dhkzvbmNBBBBBMbzfr1U",
"pfhkzvbmmmmmnvzhi6UU",
"tpdgjzxccccxzjfy6,UU",
"quafhjkzlkkjhdy81UUU",
"7euadhhjhhffar81*UUU",
"29eusdfdsiir06,*UUUU",
"<2qeupaputq72>&%UUUU",
";16qtuteq72>*%#UUUUU",
"-,17qqq72,;-#+UUUUUU",
"=;,1262<,-$@OUUUUUUU",
"#&;<2<,-=$+oUUUUUUUU",
"+%-;,>-=@@OUUUUUUUUU",
"O+---==@OoUUUUUUUUUU",
"O+=--@++oUUUUUUUUUUU",
"oO+%$+OOUUUUUUUUUUUU",
"oO++#OOUUUUUUUUUUUUU",
"oo++OoUUUUUUUUUUUUUU",
"oXOooUUUUUUUUUUUUUUU",
"XXooUUUUUUUUUUUUUUUU",
".XUUUUUUUUUUUUUUUUUU",
".UUUUUUUUUUUUUUUUUUU",
"UUUUUUUUUUUUUUUUUUUU"
};
