/* XPM */
static char *maca_xpm[] = {
/* columns rows colors chars-per-pixel */
"40 40 76 1 ",
"  c #717331",
". c #CF3A38",
"X c #DD363E",
"o c #DE363E",
"O c #DF373E",
"+ c #D63D39",
"@ c #DA383C",
"# c #E0373E",
"$ c #E1383E",
"% c #E2383E",
"& c #E3383E",
"* c #E3383F",
"= c #E3393F",
"- c #E4393F",
"; c #E5393F",
": c #E53A3F",
"> c #E63A3F",
", c #E73A3F",
"< c #E83B3F",
"1 c #E93B3F",
"2 c #EA3C3F",
"3 c #EB3C3F",
"4 c #EC3C3F",
"5 c #904B1F",
"6 c #954C22",
"7 c #AB4629",
"8 c #EC3C40",
"9 c #EC3D40",
"0 c #ED3D40",
"q c #EE3D40",
"w c #EE3E40",
"e c #EF3E40",
"r c #F04143",
"t c #F04245",
"y c #F14548",
"u c #F14649",
"i c #F1484B",
"p c #F2484C",
"a c #F2494C",
"s c #F2494D",
"d c #F24A4E",
"f c #F24C4F",
"g c #F34D51",
"h c #F45054",
"j c #F45155",
"k c #F45256",
"l c #F45358",
"z c #F45458",
"x c #F5555A",
"c c #F5565B",
"v c #F5575C",
"b c #F6585D",
"n c #F65A5F",
"m c #F65C61",
"M c #F75F65",
"N c #F86167",
"B c #F8646A",
"V c #F8646B",
"C c #F8656B",
"Z c #F9656B",
"A c #F9656C",
"S c #F9666D",
"D c #F9676E",
"F c #539B43",
"G c #549B44",
"H c #559B44",
"J c #549C44",
"K c #5BA24B",
"L c #5DA44C",
"P c #5EA54D",
"I c #62A951",
"U c #66AD55",
"Y c #68AE57",
"T c #69AF58",
"R c #6AAF58",
"E c None",
/* pixels */
"EEEEEEEEEEEEEEEEEEEEEEEEEEEEEEEEEEEEEEEE",
"EEEEEEEEEEEEEEEEEEEEEEEEEEEEEEEEEEEEEEEE",
"EEEEEEEEEEEFKUYEEEEEEEEEEEEEEEEEEEEEEEEE",
"EEEEEEEEEEEJFJITREEEEEEEEEEEEEEEEEEEEEEE",
"EEEEEEEEEEEEFFFLYTEEEEEEEEEEEEEEEEEEEEEE",
"EEEEEEEEEEEEJFFFJPTEEEEEEEEEEEEEEEEEEEEE",
"EEEEEEEEEEEEEHFFFFFEE5EEEEEEEEEEEEEEEEEE",
"EEEEEEEEEEEEEEEEJJGE55EEEEEEEEEEEEEEEEEE",
"EEEEEEEEEEEEEEEEEEE 5EEEEEEEEEEEEEEEEEEE",
"EEEEEEEEEEEeeeeEEEE5EEEEEeeeEEEEEEEEEEEE",
"EEEEEEEEee02,=;1qeE6Eeq2,:-;<0eEEEEEEEEE",
"EEEEEEeeeeeeee1#X*+72&oXXXXXXX%2eEEEEEEE",
"EEEEEeeerknlyeee2;@.XXXXXXXXXXXX<eEEEEEE",
"EEEEEeegCDDDDmdeeee0<>$$##$>1<;XX2EEEEEE",
"EEEEeetVDDDDDDDNvhfdsaeeeeeeeee8XoeEEEEE",
"EEEEeejDDDDDDDDDDDDDDDZueeeeeeee-X<EEEEE",
"EEEEeezDDDDDDDDDDDDDDDDjeeeeeeee=X=eEEEE",
"EEEweepDDDDDDDDDDDDDDDSieeeeeeee#XoeEEEE",
"EEEeeeebDDDDDDDDDDDDDDxeeeeeeee2XXXqEEEE",
"EEEeeeeehZDDDDDDDDDDAkreeeeeeee%XXX2EEEE",
"EEEeeeeeeefcMDDDDSBxueeeeeeeee,XXXX2EEEE",
"EEEeeeeeeeeeeeruyreeeeeeeeeee<XXXXX1EEEE",
"EEEeeeeeeeeeeeeeeeeeeeeeeeeq;XXXXXX2EEEE",
"EEEeeeee8220eeeeeeeeeeeeeq1#XXXXXXX0EEEE",
"EEEeeee,oXXXX$-,24wewq81-oXXXXXXXXXeEEEE",
"EEEeeeqoXXXXXXXXXXXXXXXXXXXXXXXXXX$eEEEE",
"EEEEee9XXXXXXXXXXXXXXXXXXXXXXXXXXX;eEEEE",
"EEEEee9XXXXXXXXXXXXXXXXXXXXXXXXXXX1EEEEE",
"EEEEeeqXXXXXXXXXXXXXXXXXXXXXXXXXXOqEEEEE",
"EEEEEeeOXXXXXXXXXXXXXXXXXXXXXXXXX:eEEEEE",
"EEEEEee;XXXXXXXXXXXXXXXXXXXXXXXXo0EEEEEE",
"EEEEEee0XXXXXXXXXXXXXXXXXXXXXXXX;eEEEEEE",
"EEEEEEee=XXXXXXXXXXXXXXXXXXXXXX#qEEEEEEE",
"EEEEEEEeqXXXXXXXXXXXXXXXXXXXXXo9EEEEEEEE",
"EEEEEEEEe2XXXXXXXXXXXXXXXXXXX#3EEEEEEEEE",
"EEEEEEEEEe1XXXXXXXXXXXXXXXXX$0EEEEEEEEEE",
"EEEEEEEEEEe8-XXXXXO-#XXXXo$2eEEEEEEEEEEE",
"EEEEEEEEEEEEee1139eeew2120eEEEEEEEEEEEEE",
"EEEEEEEEEEEEEEEEEEEEEEEEEEEEEEEEEEEEEEEE",
"EEEEEEEEEEEEEEEEEEEEEEEEEEEEEEEEEEEEEEEE"
};
