/* XPM */
static char *maca_castanha_xpm[] = {
/* columns rows colors chars-per-pixel */
"40 40 87 1 ",
"  c #531E1E",
". c #6E1400",
"X c #4F2727",
"o c #4E2B2B",
"O c #542323",
"+ c #5A2525",
"@ c #5F2B21",
"# c #522529",
"$ c #532E2E",
"% c #5D2A2A",
"& c #56302C",
"* c #59312B",
"= c #563030",
"- c #5B3232",
"; c #612F2F",
": c #633636",
"> c #683737",
", c #663838",
"< c #693A3A",
"1 c #713F3F",
"2 c #6F4242",
"3 c #744343",
"4 c #7D4545",
"5 c #7D5252",
"6 c #883709",
"7 c #8E4412",
"8 c #85441C",
"9 c #9B5831",
"0 c #814747",
"q c #854949",
"w c #8A4C4C",
"e c #835C5B",
"r c #965353",
"t c #9A5555",
"y c #AD7454",
"u c #8C6767",
"i c #957171",
"p c #9C7B7B",
"a c #398C27",
"s c #3D8E2B",
"d c #3F932C",
"f c #40902F",
"g c #469335",
"h c #4A963A",
"j c #4E983E",
"k c #53A43F",
"l c #519941",
"z c #58A745",
"x c #5CA44B",
"c c #66AE55",
"v c #74AE67",
"b c #77B768",
"n c #7BB86C",
"m c #7DB371",
"M c #A58787",
"N c #A78A8A",
"B c #A98E8E",
"V c #AD9292",
"C c #B69E9E",
"Z c #8CBC81",
"A c #A9A981",
"S c #BEAAAA",
"D c #C29C84",
"F c #C6A28C",
"G c #C1ADAD",
"H c #C6B3B3",
"J c #CCBBBB",
"K c #A2C999",
"L c #ADD3A4",
"P c #BCDAB5",
"I c #CDC0C5",
"U c #D2C3C3",
"Y c #D7CACA",
"T c #DFD4D4",
"R c #E7D7CB",
"E c #E0D6D6",
"W c #E4DBDC",
"Q c #E8DFDF",
"! c #D2EBD3",
"~ c #D3F3DC",
"^ c #EDE1DB",
"/ c #E9E2E2",
"( c #EFEAEA",
") c #E8F3E6",
"_ c #EEF5EC",
"` c #F5F3F3",
"' c None",
/* pixels */
"''''''''''''''''''''''''''''''''''''''''",
"'''''''''''^''''''''''''''''''''''''''''",
"'''''''''''vdbL_''''''''''''''''''''''''",
"'''''''''''Kgjxzn)''''''''''''''''''''''",
"'''''''''''_aljxckP'''''''''''''''''''''",
"''''''''''''Zfljlxz_'RQ'''''''''''''''''",
"'''''''''''''Ksghhs!Y.F'''''''''''''''''",
"'''''''''''''''PZmb~6D''''''''''''''''''",
"'''''''''''''''''''A9'''''''''''''''''''",
"''''''''''HMppVU'''yR''WSNpVG'''''''''''",
"'''''''W5 +#$X#OO5I7Ti%O+#$X# 3H''''''''",
"''''''B >,,>,<:&oX@8#$o$$o&$&o#O5'''''''",
"'''''BO>,0wq2:<<,-&*o&$$$$==&=$oOu''''''",
"''''W >3ttrttw3:,,,:--==$$=--,=$$OC'''''",
"''''2:<trrrrrrtrq43333,,<<<<<<<<oo%'''''",
"'''WO>0rrrrrrrrrrtttttt2,<<<<<<<-$OJ''''",
"'''N;,qrrrrrrrrrrrrrrrt0<<,<<<<<-$Xu''''",
"'''5:<3trrrrrrrrrrrrrrt1,<<<<<<<=$o-''''",
"'''+<,,qtrrrrrrrrrrrrtw:<<<<<<<,o=oO''''",
"'''O<<,,4ttrrrrrrrrtt0:<<<<<<<<=$=&O/'''",
"'''O<<<,,,3qetttttrq<,,<<<<<<<-$=$oOW'''",
"'''O<<<<<<,,-,2<<>:,<<<<<<<<<,$$$=$#W'''",
"'''O<<<<<<<<,,-2<<<<<<<<<<<<-o$$$$o+/'''",
"'''+<<<<,-,,2,22<<<<<<<<<<-$==$==&$+`'''",
"'''3:<<-$$$o$$=--,,,,,,--$$$$$$$=$oO''''",
"'''p;<<o=$$$$$$$=$$$$$$$$$=$$$$=$$o3''''",
"'''S%<:$=$$$=$$$$==$$$$==$$$=$$$$$Xp''''",
"'''`O,,$$$=$$$$$$$$$$$=$$==$$$$=&$OY''''",
"''''3:,$$$$=$==$$$$$$$=$$$$=$=$$$o+'''''",
"''''S%<$$$$$=$$==$$==$$===$$$$=$$#i'''''",
"'''''%<-$$$$$$$$$$$$$$=$$=$$$$$$&O('''''",
"'''''V%:$$=$$==$=$$==$$=$$$=$$$$#e''''''",
"'''''':>$$$$$$$$$=$=$$=$$$$$=$o$O'''''''",
"''''''/ :$$$$-$$$$$$$$$$$==$=&oOJ'''''''",
"'''''''H $$$$$-$=$===$$$$$$$$#OM''''''''",
"''''''''G $$$$$$==o&$$$=$$$$$ N'''''''''",
"'''''''''(<O$$$$$o$#Xo$&$$oX:E''''''''''",
"'''''''''''J3OOOO <p2 XOOX5S''''''''''''",
"''''''''''''''TIE'''''WUY'''''''''''''''",
"''''''''''''''''''''''''''''''''''''''''"
};
