/* XPM */
static char *maca_preta_xpm[] = {
/* columns rows colors chars-per-pixel */
"40 40 178 2 ",
"   c #000000",
".  c #010101",
"X  c #020202",
"o  c #030303",
"O  c #000106",
"+  c #030404",
"@  c #040404",
"#  c #050505",
"$  c #060606",
"%  c #060707",
"&  c #070707",
"*  c #080200",
"=  c #0F0500",
"-  c #080808",
";  c #09090A",
":  c #0a0a0a",
">  c #0B0B0B",
",  c #0C0C0C",
"<  c #0d0d0d",
"1  c #0f0f0f",
"2  c #1E0E04",
"3  c #101010",
"4  c #121111",
"5  c #121212",
"6  c #131313",
"7  c #141414",
"8  c #151515",
"9  c #161515",
"0  c #161616",
"q  c #171717",
"w  c #181818",
"e  c #191919",
"r  c #1a1a1a",
"t  c #1B1B1B",
"y  c #1D1D1D",
"u  c #1C1D1E",
"i  c #1E1E1E",
"p  c #1f1f1f",
"a  c #202020",
"s  c #212121",
"d  c #222222",
"f  c #232323",
"g  c #242424",
"h  c #252525",
"j  c #252626",
"k  c #262626",
"l  c #272727",
"z  c #282828",
"x  c #292929",
"c  c #2A2A2A",
"v  c #2b2b2b",
"b  c #2C2C2C",
"n  c #2D2D2D",
"m  c #303030",
"M  c #323232",
"N  c #333333",
"B  c #353535",
"V  c #363636",
"C  c #373737",
"Z  c #383838",
"A  c #3A3A3A",
"S  c #3b3b3b",
"D  c #3C3C3C",
"F  c #3d3d3d",
"G  c #6D1200",
"H  c #404040",
"J  c #414141",
"K  c #424242",
"L  c #434343",
"P  c #444444",
"I  c #4a4a4a",
"U  c #4d4d4d",
"Y  c #4E4E4E",
"T  c #4f4f4f",
"R  c #555555",
"E  c #585858",
"W  c #5A5A5A",
"Q  c #636363",
"!  c #6b6b6b",
"~  c #6F6F6F",
"^  c #727272",
"/  c #767575",
"(  c #797979",
")  c #7B7B7B",
"_  c #7C7C7C",
"`  c #88390B",
"'  c #814219",
"]  c #984C1C",
"[  c #9E5D38",
"{  c #AF7858",
"}  c #398C27",
"|  c #3B8D29",
" . c #3F8F2D",
".. c #3F932C",
"X. c #40902E",
"o. c #449232",
"O. c #469335",
"+. c #499539",
"@. c #4A9539",
"#. c #4D973D",
"$. c #53A33F",
"%. c #53A43F",
"&. c #509840",
"*. c #519941",
"=. c #519A41",
"-. c #529A42",
";. c #57A644",
":. c #5AA14A",
">. c #5BA649",
",. c #5EA64E",
"<. c #65AE54",
"1. c #79B06D",
"2. c #7EBA6F",
"3. c #7BB370",
"4. c #82B677",
"5. c #82BC74",
"6. c #878686",
"7. c #888888",
"8. c #8a8a8a",
"9. c #8c8c8c",
"0. c #8E8E8E",
"q. c #909090",
"w. c #919090",
"e. c #929292",
"r. c #969696",
"t. c #9e9e9e",
"y. c #AFAE89",
"u. c #A7A7A7",
"i. c #ACACAC",
"p. c #adadad",
"a. c #b0b0b0",
"s. c #b3b3b3",
"d. c #B6B6B6",
"f. c #BCBCBC",
"g. c #bdbdbd",
"h. c #C7A48E",
"j. c #CAA994",
"k. c #93C089",
"l. c #94C08A",
"z. c #A8CCA0",
"x. c #A9CDA1",
"c. c #B3D6AA",
"v. c #C2DEBB",
"b. c #C4DCBF",
"n. c #B8BFC4",
"m. c #C1C1C1",
"M. c #c2c2c2",
"N. c #c7c7c7",
"B. c #C8C8C8",
"V. c #CBCBCB",
"C. c #D0D0D0",
"Z. c #dcdcdc",
"A. c #DFDEDE",
"S. c #DFDFDF",
"D. c #E6D0C7",
"F. c #EDDDD2",
"G. c #EBDFD8",
"H. c #D6EDD6",
"J. c #EEE5DE",
"K. c #D3DBE0",
"L. c #DAF8E4",
"P. c #e0e0e0",
"I. c #E1E1E1",
"U. c #E4E4E4",
"Y. c #e5e5e5",
"T. c #e8e8e8",
"R. c #EAEAEA",
"E. c None",
"W. c None",
"Q. c None",
"!. c None",
"~. c None",
"^. c None",
"/. c None",
"(. c None",
"). c None",
"_. c None",
"`. c None",
/* pixels */
"`.`.`.`.`.`.`.`.`.`.`.`.`.`.`.`.`.`.`.`.`.`.`.`.`.`.`.`.`.`.`.`.`.`.`.`.`.`.`.`.",
"`.`.`.`.`.`.`.`.`.`.`.Q.`.`.`.`.`.`.`.`.`.`.`.`.`.`.`.`.`.`.`.`.`.`.`.`.`.`.`.`.",
"`.`.`.`.`.`.`.`.`.`.`.1...2.c.(.`.`.`.`.`.`.`.`.`.`.`.`.`.`.`.`.`.`.`.`.`.`.`.`.",
"`.`.`.`.`.`.`.`.`.`.`.x.O.#.>.;.5.!.`.`.`.`.`.`.`.`.`.`.`.`.`.`.`.`.`.`.`.`.`.`.",
"`.`.`.`.`.`.`.`.`.`.`./.} -.&.:.<.$.v.`.`.`.`.`.`.`.`.`.`.`.`.`.`.`.`.`.`.`.`.`.",
"`.`.`.`.`.`.`.`.`.`.`.`.l. .=.*.*.,.%.^.`.G.J.`.`.`.`.`.`.`.`.`.`.`.`.`.`.`.`.`.",
"`.`.`.`.`.`.`.`.`.`.`.`.`.z.X.o.+.@.| H.D.G j.`.`.`.`.`.`.`.`.`.`.`.`.`.`.`.`.`.",
"`.`.`.`.`.`.`.`.`.`.`.`.`.`.`.b.k.4.3.L.` h.`.`.`.`.`.`.`.`.`.`.`.`.`.`.`.`.`.`.",
"`.`.`.`.`.`.`.`.`.`.`.`.`.`.`.`.`.`.`.y.[ `.`.`.`.`.`.`.`.`.`.`.`.`.`.`.`.`.`.`.",
"`.`.`.`.`.`.`.`.`.`.d.6./ ( q.N.`.`.`.{ F.`.`.Y.i.7._ 0.p.`.`.`.`.`.`.`.`.`.`.`.",
"`.`.`.`.`.`.`.S.T % - # o     X : Y n.] K.~ 9 o o   . X # # J s.`.`.`.`.`.`.`.`.",
"`.`.`.`.`.`.w.+ t d d f h h q       2 ' O                     @ R `.`.`.`.`.`.`.",
"`.`.`.`.`.0.- d f N Z B l a g z t ; * =                         o E `.`.`.`.`.`.",
"`.`.`.`.P.# d c L J J J L D c a f h j u 7 , & X     o 3 e q >     X t.`.`.`.`.`.",
"`.`.`.`.Z y g L H H H H H H K H V m n b n v h k z z l k h h l a     q `.`.`.`.`.",
"`.`.`.U.- d M J H H H H H H H H J J K K K K L z f g g g g g g l >   . f.`.`.`.`.",
"`.`.`.8.0 d B J H H H H H H H H H H H H H H K N d g g g g g g k 1     Q `.`.`.`.",
"`.`.`.I y d v L H H H H H H H H H H H H H H L z f g g g g g g z X     d `.`.`.`.",
"`.`.`.w d f a Z L H H H H H H H H H H H H K Z a g g g g g g h p       # `.`.`.`.",
"`.`.`., f g f a m L K J H H H H H H H J P B a f g g g g g g x #       $ R.`.`.`.",
"`.`.`.: f g g f d a n C H L L K K L H C h s f g g g g g g l 6         @ P.`.`.`.",
"`.`.`.: g g g g g f d s a s h k k f a s f g g g g g g g z 0           # I.`.`.`.",
"`.`.`.> f g g g g h h g g f f f f f f g g g g g g g k l <             o W.`.`.`.",
"`.`.`.8 d g g l p 8 r d z l l k h g g g g h h h l k 8                 & `.`.`.`.",
"`.`.`.D i g l :           o - 1 e p h d i i i q ,                     3 `.`.`.`.",
"`.`.`.^ e g g                                                         D `.`.`.`.",
"`.`.`.a.6 h t                                                         ) `.`.`.`.",
"`.`.`._.& g p                                                       . C.`.`.`.`.",
"`.`.`.`.S p a                                                       8 `.`.`.`.`.",
"`.`.`.`.u.5 z                                                       ! `.`.`.`.`.",
"`.`.`.`.`.4 h >                                                   X ).`.`.`.`.`.",
"`.`.`.`.`.r.6 e                                                 o W `.`.`.`.`.`.",
"`.`.`.`.`.`.l f .                                               < `.`.`.`.`.`.`.",
"`.`.`.`.`.`.E.& r                                             X M.`.`.`.`.`.`.`.",
"`.`.`.`.`.`.`.g.- $                                         $ 9.`.`.`.`.`.`.`.`.",
"`.`.`.`.`.`.`.`.d.& X                                     X e.`.`.`.`.`.`.`.`.`.",
"`.`.`.`.`.`.`.`.`.~.B X                                 x S.`.`.`.`.`.`.`.`.`.`.",
"`.`.`.`.`.`.`.`.`.`.`.m.K : o     # A ) F $   . o X U f.`.`.`.`.`.`.`.`.`.`.`.`.",
"`.`.`.`.`.`.`.`.`.`.`.`.`.`.Z.B.A.`.`.`.`.`.T.B.V.`.`.`.`.`.`.`.`.`.`.`.`.`.`.`.",
"`.`.`.`.`.`.`.`.`.`.`.`.`.`.`.`.`.`.`.`.`.`.`.`.`.`.`.`.`.`.`.`.`.`.`.`.`.`.`.`."
};
