/* XPM */
static char *result[] = {
/* columns rows colors chars-per-pixel */
"40 40 72 1 ",
"  c black",
". c #010101",
"X c #020202",
"o c gray1",
"O c gray2",
"+ c #060606",
"@ c #070707",
"# c gray3",
"$ c #111111",
"% c gray9",
"& c #191919",
"* c gray10",
"= c #1B1B1B",
"- c gray11",
"; c #1D1D1D",
": c #1E1E1E",
"> c #202020",
", c gray13",
"< c gray14",
"1 c #2C2C2C",
"2 c #2D2D2D",
"3 c gray18",
"4 c #2F2F2F",
"5 c #313131",
"6 c gray20",
"7 c #343434",
"8 c #373737",
"9 c gray22",
"0 c #444444",
"q c gray30",
"w c gray36",
"e c #868686",
"r c #898989",
"t c gray54",
"y c #8B8B8B",
"u c #9B9B9B",
"i c #9F9F9F",
"p c #A0A0A0",
"a c #A5A5A5",
"s c #AAAAAA",
"d c #ACACAC",
"f c gray70",
"g c #B9B9B9",
"h c #C3C3C3",
"j c gray77",
"k c #C5C5C5",
"l c #C6C6C6",
"z c gray78",
"x c gray79",
"c c gray81",
"v c LightGray",
"b c #D5D5D5",
"n c #D7D7D7",
"m c #D8D8D8",
"M c #DADADA",
"N c #E1E1E1",
"B c #E2E2E2",
"V c gray89",
"C c gray91",
"Z c gray92",
"A c gray94",
"S c #F1F1F1",
"D c gray95",
"F c #F4F4F4",
"G c gray96",
"H c gray98",
"J c #FBFBFB",
"K c gray99",
"L c #FDFDFD",
"P c #FEFEFE",
"I c white",
"U c None",
/* pixels */
"UUUUUUU .UUUUUUUUUUUUUUUUUUUUUUUUUUUUUUU",
"UUUUUUU  =UUUUUUUUUUUUUUUUUUUUUUUUUUUUUU",
"UUUUUUU O @UUUUUUUUUUUUUUUUUUUUUUUUUUUUU",
"UUUUUUU qf .UUUUUUUUUUUUUUUUUUUUUUUUUUUU",
"UUUUUUU 2Lx %UUUUUUUUUUUUUUUUUUUUUUUUUUU",
"UUUUUUU 5DIj &UUUUUUUUUUUUUUUUUUUUUUUUUU",
"UUUUUUU 7FIIj &UUUUUUUUUUUUUUUUUUUUUUUUU",
"UUUUUUU 6FIKIk %UUUUUUUUUUUUUUUUUUUUUUUU",
"UUUUUUU 6FILLIk =UUUUUUUUUUUUUUUUUUUUUUU",
"UUUUUUU 6FIPILIk %UUUUUUUUUUUUUUUUUUUUUU",
"UUUUUUU 6FIPIILIk &UUUUUUUUUUUUUUUUUUUUU",
"UUUUUUU 6FIPIIILIj &UUUUUUUUUUUUUUUUUUUU",
"UUUUUUU 6FIPIIIILIk %UUUUUUUUUUUUUUUUUUU",
"UUUUUUU 6FIPIIIIILIk =UUUUUUUUUUUUUUUUUU",
"UUUUUUU 6FIPIIIIIILIk %UUUUUUUUUUUUUUUUU",
"UUUUUUU 6FIPIIIIIIILIk &UUUUUUUUUUUUUUUU",
"UUUUUUU 6FIPIIIIIIIILIj &UUUUUUUUUUUUUUU",
"UUUUUUU 6FIPIIIIIIIIILIk %UUUUUUUUUUUUUU",
"UUUUUUU 6FIPIIIIIIIIIILIk =UUUUUUUUUUUUU",
"UUUUUUU 6FIPIIIIIIIIIIILIk %UUUUUUUUUUUU",
"UUUUUUU 6FIPIIIIIIIIIIIILIl =UUUUUUUUUUU",
"UUUUUUU 6FIPIIIIIIIIIILLLJIh  UUUUUUUUUU",
"UUUUUUU 6FIPIIIIIIIIIIIIIIIIc @UUUUUUUUU",
"UUUUUUU 6FIPIIIIIIIIIIBvmnnbNy =UUUUUUUU",
"UUUUUUU 6FIPIIIIIIIPID        #  UUUUUUU",
"UUUUUUU 6FIPIIPLPIIIPIr 94231+  UUUUUUUU",
"UUUUUUU 6FIPILIIIPIILIN ,UUUUUUUUUUUUUUU",
"UUUUUUU 6FILLIVpFIPIIPIt UUUUUUUUUUUUUUU",
"UUUUUUU 6GIIIzO dILIILIN >UUUUUUUUUUUUUU",
"UUUUUUU 7DIHu +>;AIPIIPIt UUUUUUUUUUUUUU",
"UUUUUUU 3LZw 1UU dILIILIN ,UUUUUUUUUUUUU",
"UUUUUUU 0g$ 8UUU :SIPIIPIt UUUUUUUUUUUUU",
"UUUUUUU.o  UUUUUU dILIILIN :UUUUUUUUUUUU",
"UUUUUUU  <UUUUUUU >SIPIIPIe UUUUUUUUUUUU",
"UUUUUUUU UUUUUUUUU dILIPJIC -UUUUUUUUUUU",
"UUUUUUUUUUUUUUUUUU ;SIKIIZp +UUUUUUUUUUU",
"UUUUUUUUUUUUUUUUUUU sIIZi  XUUUUUUUUUUUU",
"UUUUUUUUUUUUUUUUUUU 6Ma  +UUUUUUUUUUUUUU",
"UUUUUUUUUUUUUUUUUUUU   XUUUUUUUUUUUUUUUU",
"UUUUUUUUUUUUUUUUUUUU@*UUUUUUUUUUUUUUUUUU"
};
