/* XPM */
static char *result[] = {
/* columns rows colors chars-per-pixel */
"30 30 65 1 ",
"  c black",
". c #0E0E0F",
"X c #111112",
"o c gray8",
"O c #191919",
"+ c #1D1E1E",
"@ c gray15",
"# c gray18",
"$ c #313131",
"% c gray25",
"& c gray26",
"* c gray28",
"= c #505050",
"- c #606060",
"; c #646464",
": c #656565",
"> c gray40",
", c #676767",
"< c DimGray",
"1 c #6A6B6B",
"2 c #6C6C6C",
"3 c #727272",
"4 c gray48",
"5 c #7E7E7E",
"6 c gray52",
"7 c #868686",
"8 c gray54",
"9 c gray56",
"0 c #909090",
"q c #979797",
"w c #9FA0A0",
"e c #A4A4A4",
"r c gray66",
"t c #A9A9A9",
"y c gray71",
"u c #B9B9B9",
"i c gray73",
"p c gray74",
"a c #C5C5C5",
"s c #CBCBCB",
"d c gray81",
"f c #D0D0D0",
"g c gray87",
"h c #E1E1E1",
"j c #E4E4E4",
"k c #E6E6E6",
"l c #E7E7E7",
"z c #EAEAEA",
"x c gray93",
"c c #F1F1F1",
"v c gray95",
"b c #F3F3F3",
"n c #F4F4F4",
"m c gray96",
"M c #F6F6F6",
"N c gray97",
"B c #F8F8F8",
"V c gray98",
"C c #FBFBFB",
"Z c #FCFCFB",
"A c gray99",
"S c #FDFDFD",
"D c #FEFEFE",
"F c white",
"G c None",
/* pixels */
"GGGGGG.GGGGGGGGGGGGGGGGGGGGGGG",
"GGGGGO  GGGGGGGGGGGGGGGGGGGGGG",
"GGGGG 12 GGGGGGGGGGGGGGGGGGGGG",
"GGGGG wm3 GGGGGGGGGGGGGGGGGGGG",
"GGGGG 7FN- GGGGGGGGGGGGGGGGGGG",
"GGGGG 0SFc< GGGGGGGGGGGGGGGGGG",
"GGGGG 9FSFm, GGGGGGGGGGGGGGGGG",
"GGGGG 9FFBFn, GGGGGGGGGGGGGGGG",
"GGGGG 9FFSCFm> GGGGGGGGGGGGGGG",
"GGGGG 9FFSFCFn> GGGGGGGGGGGGGG",
"GGGGG 9FFSFFAFn: GGGGGGGGGGGGG",
"GGGGG 9FFSFFFAFn: GGGGGGGGGGGG",
"GGGGG 9FFSFFFFSFn; GGGGGGGGGGG",
"GGGGG 9FFSFFFFFSFn: GGGGGGGGGG",
"GGGGG 9FFSFFFFFFSFn: GGGGGGGGG",
"GGGGG 9FFSFFFFFFDAFn; GGGGGGGG",
"GGGGG 9FFSFFFFFDFFFFZ4 GGGGGGG",
"GGGGG 9FFSFDFFFFvgjhxs$ GGGGGG",
"GGGGG 9FFSDDDFDFy     @ GGGGGG",
"GGGGG 9FFVFFFDDFl #GGGGGGGGGGG",
"GGGGG 0FFFBamFDFFr GGGGGGGGGGG",
"GGGGG 8FFk6 pFDDFz GGGGGGGGGGG",
"GGGGG qFf+  *mFDFFt GGGGGGGGGG",
"GGGGG 5t  GG pFSDFzXGGGGGGGGGG",
"GGGGGo  GGGG &MFSFFe GGGGGGGGG",
"GGGGGG GGGGGG iFSVFb&GGGGGGGGG",
"GGGGGGGGGGGGG %NFFFd= GGGGGGGG",
"GGGGGGGGGGGGGG uFd4  GGGGGGGGG",
"GGGGGGGGGGGGGG *5  GGGGGGGGGGG",
"GGGGGGGGGGGGGGG  GGGGGGGGGGGGG"
};
