/* XPM */
static char *result[] = {
/* columns rows colors chars-per-pixel */
"40 40 22 1 ",
"  c black",
". c #010101",
"X c #020202",
"o c gray1",
"O c #060606",
"+ c gray3",
"@ c #090909",
"# c #0C0C0C",
"$ c gray6",
"% c gray7",
"& c gray10",
"* c #1D1D1D",
"= c #202020",
"- c gray15",
"; c #282828",
": c #F8F8F8",
"> c #F9F9F9",
", c gray98",
"< c #FDFDFD",
"1 c #FEFEFE",
"2 c white",
"3 c None",
/* pixels */
"3333333   333333333333333333333333333333",
"3333333    33333333333333333333333333333",
"3333333 X   3333333333333333333333333333",
"3333333 .>   333333333333333333333333333",
"3333333 o2<   33333333333333333333333333",
"3333333 @22<   3333333333333333333333333",
"3333333 O222<   333333333333333333333333",
"3333333 O2222<   33333333333333333333333",
"3333333 O22222<   3333333333333333333333",
"3333333 #222222<   333333333333333333333",
"3333333 *2222222<   33333333333333333333",
"3333333 @22222222<   3333333333333333333",
"3333333 @222222222<   333333333333333333",
"3333333 ;2222222222<   33333333333333333",
"3333333 -22222222222<   3333333333333333",
"3333333 =222222222222<   333333333333333",
"3333333 =2222222222222<   33333333333333",
"3333333 *22222222222222<   3333333333333",
"3333333 *222222222222222<   333333333333",
"3333333 &2222222222222222<   33333333333",
"3333333 %22222222222222222<   3333333333",
"3333333  222222222222222222<   333333333",
"3333333  22222222222222222221   33333333",
"3333333 o222222222222222222222   3333333",
"3333333 @2222222222222        +  3333333",
"3333333 %22222222222222         33333333",
"3333333 $22222222222222  333333333333333",
"3333333 @222222 22222222  33333333333333",
"3333333  2222<  :2222222  33333333333333",
"3333333  222     22222222  3333333333333",
"3333333  22   3  22222222  3333333333333",
"3333333  ,   333  22222222  333333333333",
"3333333     3333  22222222  333333333333",
"3333333   3333333  22222222  33333333333",
"3333333  33333333  22222222  33333333333",
"333333333333333333 22222222  33333333333",
"333333333333333333  22222    33333333333",
"3333333333333333333 222    3333333333333",
"3333333333333333333      333333333333333",
"33333333333333333333   33333333333333333"
};
